<?xml version="1.0" encoding="UTF-8"?>
<!DOCTYPE svg PUBLIC "-//W3C//DTD SVG 1.1//EN" "http://www.w3.org/Graphics/SVG/1.1/DTD/svg11.dtd">
<!-- Creator: CorelDRAW -->
<svg xmlns="http://www.w3.org/2000/svg" xml:space="preserve" width="63.4502mm" height="63.4502mm" version="1.1" style="shape-rendering:geometricPrecision; text-rendering:geometricPrecision; image-rendering:optimizeQuality; fill-rule:evenodd; clip-rule:evenodd"
viewBox="0 0 5676.78 5676.78"
 xmlns:xlink="http://www.w3.org/1999/xlink"
 xmlns:xodm="http://www.corel.com/coreldraw/odm/2003">
 <defs>
  <style type="text/css">
   <![CDATA[
    .str0 {stroke:#282829;stroke-width:447.34;stroke-miterlimit:22.9256}
    .fil0 {fill:none}
    .fil1 {fill:#C3B89B}
    .fil2 {fill:black;fill-rule:nonzero}
   ]]>
  </style>
 </defs>
 <g id="Capa_x0020_1">
  <metadata id="CorelCorpID_0Corel-Layer"/>
  <path class="fil0 str0" d="M2838.39 223.67c1444.07,0 2614.72,1170.65 2614.72,2614.72 0,1444.07 -1170.65,2614.72 -2614.72,2614.72 -1444.07,0 -2614.72,-1170.65 -2614.72,-2614.72 0,-1444.07 1170.65,-2614.72 2614.72,-2614.72z"/>
  <path class="fil1" d="M2838.39 223.67c1444.07,0 2614.72,1170.65 2614.72,2614.72 0,1444.07 -1170.65,2614.72 -2614.72,2614.72 -1444.07,0 -2614.72,-1170.65 -2614.72,-2614.72 0,-1444.07 1170.65,-2614.72 2614.72,-2614.72zm0 421c1211.56,0 2193.73,982.17 2193.73,2193.73 0,1211.56 -982.17,2193.73 -2193.73,2193.73 -1211.56,0 -2193.73,-982.17 -2193.73,-2193.73 0,-1211.56 982.17,-2193.73 2193.73,-2193.73z"/>
  <g id="minibar-svgrepo-com.svg">
   <g>
    <g>
     <g>
      <path class="fil2" d="M2371.48 2310.82c-85.17,0 -154.48,69.3 -154.48,154.48 0,85.18 69.3,154.48 154.48,154.48 85.18,0 154.48,-69.3 154.48,-154.48 0,-85.17 -69.3,-154.48 -154.48,-154.48zm0 228.36c-40.73,0 -73.87,-33.15 -73.87,-73.88 0,-40.73 33.15,-73.87 73.87,-73.87 40.74,0 73.88,33.15 73.88,73.87 0,40.73 -33.14,73.88 -73.88,73.88z"/>
      <path class="fil2" d="M2868.78 2619.78c85.18,0 154.48,-69.31 154.48,-154.48 0,-85.18 -69.3,-154.48 -154.48,-154.48 -85.18,0 -154.48,69.3 -154.48,154.48 0,85.18 69.3,154.48 154.48,154.48zm0 -228.37c40.74,0 73.88,33.15 73.88,73.88 0,40.73 -33.15,73.88 -73.88,73.88 -40.73,0 -73.88,-33.15 -73.88,-73.88 0,-40.73 33.15,-73.88 73.88,-73.88z"/>
      <path class="fil2" d="M3366.08 2619.78c85.17,0 154.48,-69.31 154.48,-154.48 0,-85.18 -69.3,-154.48 -154.48,-154.48 -85.18,0 -154.48,69.3 -154.48,154.48 0,85.17 69.3,154.48 154.48,154.48zm0 -228.37c40.73,0 73.87,33.15 73.87,73.88 0,40.73 -33.15,73.88 -73.87,73.88 -40.73,0 -73.88,-33.15 -73.88,-73.88 0,-40.73 33.14,-73.88 73.88,-73.88z"/>
      <path class="fil2" d="M1990.59 4138.41l1756.39 0c22.26,0 40.31,-18.05 40.31,-40.31l0 -2158.11c0,-22.25 -18.05,-40.3 -40.31,-40.3l-1756.39 0c-22.26,0 -40.31,18.04 -40.31,40.3l0 2158.11c0,22.25 18.05,40.31 40.31,40.31zm40.3 -2158.12l1675.79 0 0 693.35 -140.66 0c54.84,-52.62 89.08,-126.54 89.08,-208.34 0,-159.33 -129.65,-288.95 -289.02,-288.95 -105.7,0 -198.27,57.07 -248.65,142 -50.38,-84.92 -142.95,-142 -248.65,-142 -105.69,0 -198.26,57.07 -248.65,142 -50.38,-84.92 -142.95,-142 -248.64,-142 -159.37,0 -289.02,129.62 -289.02,288.95 0,81.81 34.24,155.73 89.07,208.34l-140.66 0 0 -693.35zm589.25 631.97c13.44,22.64 29.87,43.26 48.76,61.39l-97.51 0c18.89,-18.14 35.31,-38.77 48.75,-61.39zm-248.65 61.39c-114.92,0 -208.42,-93.47 -208.42,-208.34 0,-114.89 93.49,-208.35 208.42,-208.35 114.88,0 208.35,93.47 208.35,208.35 0,114.88 -93.47,208.34 -208.35,208.34zm288.96 -208.35c0,-114.88 93.47,-208.34 208.34,-208.34 114.88,0 208.34,93.47 208.34,208.34 0,114.89 -93.47,208.35 -208.34,208.35 -114.88,0 -208.34,-93.47 -208.34,-208.35zm457 146.96c13.44,22.64 29.86,43.26 48.76,61.39l-97.51 0c18.88,-18.14 35.31,-38.77 48.75,-61.39zm40.3 -146.96c0,-114.88 93.47,-208.34 208.35,-208.34 114.92,0 208.42,93.47 208.42,208.34 0,114.89 -93.49,208.35 -208.42,208.35 -114.89,0 -208.35,-93.47 -208.35,-208.35zm-1126.84 288.95l1675.79 0 0 1175.27 -75.56 0 0 -494.01c0,-68.17 -25.14,-133.67 -70.81,-184.47 -15.95,-17.71 -28.45,-38.13 -37.13,-60.62 -8.61,-22.38 -12.96,-45.9 -12.96,-69.9l0 -164.9c0,-22.25 -18.05,-40.31 -40.31,-40.31l-188.06 0c-22.25,0 -40.3,18.05 -40.3,40.31l0 164.89c0,39.88 -12.19,78.45 -34.6,110.88 -8.81,-12.73 -16.23,-26.38 -21.83,-40.99 -8.6,-22.38 -12.96,-45.9 -12.96,-69.9l0 -164.89c0,-22.25 -18.05,-40.31 -40.3,-40.31l-188.06 0c-22.25,0 -40.31,18.05 -40.31,40.31l0 164.89c0,39.84 -12.17,78.39 -34.62,110.89 -8.86,-12.79 -16.28,-26.44 -21.86,-40.99 -8.61,-22.38 -12.97,-45.9 -12.97,-69.9l0 -164.89c0,-22.25 -18.05,-40.3 -40.31,-40.3l-188.05 0c-22.25,0 -40.31,18.05 -40.31,40.3l0 164.89c0,39.92 -12.18,78.49 -34.57,110.88 -8.79,-12.7 -16.19,-26.34 -21.84,-40.98 -8.61,-22.38 -12.96,-45.9 -12.96,-69.9l0 -164.9c0,-22.25 -18.05,-40.3 -40.31,-40.3l-188.06 0c-22.25,0 -40.31,18.05 -40.31,40.31l0 164.89c0,48.24 -17.8,94.61 -50.09,130.53 -22.56,25.06 -40.22,53.87 -52.47,85.66 -12.17,31.64 -18.33,64.89 -18.33,98.81l0 494.01 -75.56 0 0 -1175.25 0.01 0zm1398.74 355.85l0 10.41c0,33.93 6.16,67.17 18.34,98.86 12.23,31.75 29.89,60.56 52.44,85.59 32.32,35.95 50.11,82.32 50.11,130.56l0 494 -349.27 0.01 0 -494.01c0,-24 4.37,-47.53 12.98,-69.93 6.28,-16.36 14.7,-31.75 25.24,-45.99 3.71,-5.1 7.69,-9.99 11.91,-14.65 45.64,-50.77 70.78,-116.27 70.78,-184.45l0 -10.41 107.47 0 0 -0.01zm-107.47 -80.6l0 -33.59 107.47 0 0 33.59 -107.47 0zm-403.48 269.25c42.22,-49.85 65.44,-112.79 65.44,-178.24l0 -10.41 107.46 0 0 10.41c0,33.94 6.16,67.18 18.32,98.77 11.13,29.1 27,55.77 47.19,79.55 -6.94,12.15 -13.06,24.76 -18.09,37.88 -12.17,31.64 -18.33,64.88 -18.33,98.81l0 494.01 -165.7 0 0 -494.01c-0.02,-48.63 -12.52,-95.37 -36.3,-136.77zm65.43 -269.25l0 -33.59 107.47 0 0 33.59 -107.47 0zm-230.65 80.6l0 10.41c0,33.93 6.16,67.17 18.31,98.78 12.06,31.48 29.7,60.3 52.42,85.62 4.47,5 8.53,9.98 12.18,14.98 24.85,33.68 37.99,73.65 37.99,115.64l0 494 -349.26 0.01 0 -494.01c0,-24 4.36,-47.52 12.97,-69.93 6.28,-16.37 14.71,-31.75 25.24,-45.99 3.72,-5.11 7.69,-10 11.87,-14.62 45.66,-50.69 70.81,-116.21 70.81,-184.47l0 -10.41 107.47 0zm-107.47 -80.6l0 -33.59 107.47 0 0 33.59 -107.47 0zm-230.58 80.6l0 10.41c0,33.93 6.16,67.17 18.34,98.86 11.25,29.17 27.11,55.82 47.17,79.46 -6.95,12.15 -13.07,24.76 -18.1,37.88 -12.16,31.64 -18.32,64.89 -18.32,98.81l0 494.01 -257.45 0 0 -494.01c0,-24 4.36,-47.52 12.95,-69.87 8.69,-22.54 21.18,-42.94 37.17,-60.7 45.65,-50.77 70.78,-116.27 70.78,-184.44l0 -10.41 107.47 0zm-107.47 -80.6l0 -33.59 107.47 0 0 33.59 -107.47 0zm-277.06 980.63l1675.79 0 0 47.69 -1675.79 0 0 -47.69z"/>
      <path class="fil2" d="M3893.33 1753.34l-1726.43 0 0 -186.58c67.57,-17.86 117.54,-79.5 117.54,-152.62l0 -251.86c0,-22.25 -18.05,-40.31 -40.3,-40.31l-235.09 0c-22.25,0 -40.3,18.05 -40.3,40.31l0 251.87c0,73.1 49.97,134.75 117.54,152.62l0 186.58 -242.07 0c-22.26,0 -40.31,18.05 -40.31,40.3l0 2450.82c0,22.25 18.04,40.31 40.31,40.31l2049.09 0c22.25,0 40.31,-18.05 40.31,-40.31l0 -2450.82c0,-22.25 -18.05,-40.31 -40.31,-40.31zm-1843.97 -550.76l154.48 0 0 40.31 -154.48 0 0 -40.31zm0 211.57l0 -90.68 154.48 0 0 90.68c0,42.6 -34.64,77.24 -77.24,77.24 -42.59,0 -77.24,-34.65 -77.24,-77.24zm1803.67 2790.01l-1968.5 0 0 -2370.22 1968.51 0 0 2370.22 -0.01 0z"/>
     </g>
    </g>
   </g>
  </g>
 </g>
</svg>
