<?xml version="1.0" encoding="UTF-8"?>
<!DOCTYPE svg PUBLIC "-//W3C//DTD SVG 1.1//EN" "http://www.w3.org/Graphics/SVG/1.1/DTD/svg11.dtd">
<!-- Creator: CorelDRAW -->
<svg xmlns="http://www.w3.org/2000/svg" xml:space="preserve" width="63.4506mm" height="63.4506mm" version="1.1" style="shape-rendering:geometricPrecision; text-rendering:geometricPrecision; image-rendering:optimizeQuality; fill-rule:evenodd; clip-rule:evenodd"
viewBox="0 0 4601.37 4601.37"
 xmlns:xlink="http://www.w3.org/1999/xlink"
 xmlns:xodm="http://www.corel.com/coreldraw/odm/2003">
 <defs>
  <style type="text/css">
   <![CDATA[
    .str0 {stroke:#282829;stroke-width:362.6;stroke-miterlimit:22.9256}
    .fil0 {fill:none}
    .fil1 {fill:#C3B89B}
    .fil2 {fill:black;fill-rule:nonzero}
   ]]>
  </style>
 </defs>
 <g id="Capa_x0020_1">
  <metadata id="CorelCorpID_0Corel-Layer"/>
  <path class="fil0 str0" d="M2300.69 181.3c1170.49,0 2119.38,948.87 2119.38,2119.38 0,1170.49 -948.87,2119.38 -2119.38,2119.38 -1170.49,0 -2119.38,-948.87 -2119.38,-2119.38 0,-1170.49 948.87,-2119.38 2119.38,-2119.38z"/>
  <path class="fil1" d="M2300.69 181.3c1170.49,0 2119.38,948.87 2119.38,2119.38 0,1170.49 -948.87,2119.38 -2119.38,2119.38 -1170.49,0 -2119.38,-948.87 -2119.38,-2119.38 0,-1170.49 948.87,-2119.38 2119.38,-2119.38zm0 341.22c982.04,0 1778.13,796.1 1778.13,1778.13 0,982.04 -796.1,1778.13 -1778.13,1778.13 -982.04,0 -1778.13,-796.1 -1778.13,-1778.13 0,-982.04 796.1,-1778.13 1778.13,-1778.13z"/>
  <path id="air-conditioner-svgrepo-com.svg" class="fil2" d="M1988.53 3319.96c-9.63,0 -15.41,-1.94 -23.13,-5.78 -34.69,-23.13 -198.46,-144.52 -61.66,-385.37 36.6,-65.52 46.25,-117.55 32.75,-159.93 -15.41,-48.18 -65.52,-67.44 -65.52,-67.44 -23.13,-9.63 -34.69,-36.6 -25.06,-59.72 7.72,-19.28 23.13,-30.84 42.38,-30.84 5.78,0 11.56,1.91 17.34,3.84 7.72,0 88.65,34.69 121.4,121.4 25.06,69.37 11.56,150.3 -40.47,240.86 -96.34,169.56 5.78,244.7 26.97,258.2 21.19,11.56 28.91,40.47 17.34,63.58 -11.56,15.41 -28.91,21.19 -42.38,21.19l0.03 0zm312.14 -102.12c-9.63,0 -15.41,-1.94 -23.13,-5.78 -69.37,-40.47 -167.62,-165.71 -57.8,-362.25 32.75,-59.72 42.38,-107.9 28.91,-144.52 -13.5,-42.38 -57.8,-59.74 -57.8,-59.74 -25.06,-9.63 -36.6,-34.69 -26.97,-59.72 7.72,-19.28 23.13,-30.84 42.4,-30.84 5.78,0 11.56,1.91 17.34,3.84 19.28,7.72 86.71,38.53 113.68,115.62 23.13,65.52 11.56,140.65 -36.6,223.51 -92.49,165.71 19.28,233.14 25.06,235.08 9.63,5.78 17.34,15.41 21.19,26.97 3.84,11.56 1.91,25.06 -3.87,36.6 -11.56,15.41 -28.91,21.19 -42.38,21.19l0 0 -0.02 0.04zm-639.7 0c-9.63,0 -15.41,-1.94 -23.13,-5.78 -69.37,-40.47 -167.64,-165.71 -57.8,-362.25 32.75,-59.72 42.4,-107.9 28.91,-144.52 -13.5,-42.38 -57.8,-59.74 -57.8,-59.74 -25.06,-9.63 -36.6,-34.69 -26.97,-59.72 7.72,-19.28 23.13,-30.84 42.38,-30.84 5.78,0 11.56,1.91 17.34,3.84 19.28,7.72 86.71,40.47 113.68,115.62 23.13,65.52 9.63,140.65 -36.6,225.45 -92.49,165.71 19.28,233.14 25.06,235.08 9.63,5.78 17.34,15.41 21.19,26.97 3.87,11.56 1.94,25.06 -3.84,36.6 -9.63,13.5 -28.91,19.28 -42.38,19.28l0 0 -0.02 0.01zm1173.44 -171.49c-15.41,0 -26.97,-5.78 -36.61,-15.41 -9.63,-9.63 -15.41,-23.13 -15.41,-36.6 0,-21.19 13.5,-40.47 32.75,-50.1l1.91 0 0 -104.05 -98.27 55.88 0 1.94c0,15.41 -5.78,34.69 -25.06,44.31 -7.72,5.78 -17.34,7.72 -26.97,7.72 -19.28,0 -36.6,-9.63 -44.31,-25.06 -7.72,-13.5 -9.63,-26.97 -5.78,-40.47 3.84,-13.5 11.56,-25.06 25.06,-30.84 7.69,-5.78 17.34,-7.72 25.06,-7.72 9.63,0 19.28,1.94 26.97,7.72l88.65 -50.1 -86.71 -50.1c-11.56,3.84 -21.19,5.78 -28.91,5.78 -9.63,0 -17.34,-1.94 -25.06,-5.78 -23.13,-15.41 -32.75,-48.18 -19.28,-71.3 9.63,-15.41 26.97,-25.06 46.25,-25.06 9.63,0 19.25,1.91 26.97,7.69 15.41,9.63 25.06,25.06 25.06,44.33l0 1.91 98.27 55.88 0 -104.05 -1.94 0c-19.28,-9.63 -32.75,-28.91 -32.75,-50.11 0,-28.91 23.13,-52.03 52.03,-52.03 15.41,0 28.91,5.78 38.53,15.41 9.63,9.63 15.41,23.13 15.41,36.6 0,17.34 -9.63,34.69 -26.97,44.31l-5.78 0 0 100.21 84.77 -48.18 0 -1.91c0,-15.41 5.78,-34.69 25.06,-44.31 7.69,-5.78 17.34,-7.72 26.97,-7.72 19.28,0 36.61,9.63 44.31,25.06 7.72,13.5 9.63,26.97 5.78,40.47 -3.87,13.5 -11.56,25.06 -25.06,30.84 -7.72,5.78 -17.34,7.69 -25.06,7.69 -9.63,0 -19.28,-1.91 -26.97,-7.69l-88.63 50.1 86.71 50.1c11.56,-3.84 21.19,-5.78 28.91,-5.78 9.63,0 17.34,1.94 25.06,5.78 23.13,15.41 32.75,48.16 19.25,71.3 -9.63,15.41 -26.97,25.06 -46.25,25.06 -9.63,0 -19.28,-1.94 -26.97,-7.72 -15.41,-9.63 -25.06,-25.06 -25.06,-44.31l0 -1.94 -82.85 -46.25 0 100.18 1.94 0c17.34,7.72 26.97,25.06 26.97,44.31 0,30.84 -23.13,53.96 -52.03,53.96l0.02 0.04zm-1402.73 -608.87c-146.43,0 -263.98,-117.55 -263.98,-263.98l0 -628.14c0,-146.43 117.52,-263.98 263.98,-263.98l1738 0c146.43,0 263.98,117.55 263.98,263.98l0 628.14c0,146.43 -117.55,263.98 -263.98,263.98l-1738 0zm-26.97 -1040.49c-69.37,0 -125.24,57.8 -125.24,131.02l0 670.54c0,71.3 55.88,131.02 125.24,131.02l1790.02 0c69.37,0 125.24,-57.8 125.24,-131.02l0 -670.54c0,-71.3 -55.88,-131.02 -125.24,-131.02l-1790.02 0zm52.03 751.47c-25.06,0 -46.25,-21.19 -46.25,-46.25 0,-25.06 21.19,-46.25 46.25,-46.25l1643.57 0c25.06,0 46.25,21.19 46.25,46.25 0,25.06 -21.19,46.25 -46.25,46.25l-1643.57 0zm0 -194.61c-25.06,0 -46.25,-21.19 -46.25,-46.25 0,-25.06 21.19,-46.25 46.25,-46.25l1643.57 0c25.06,0 46.25,21.19 46.25,46.25 0,25.06 -21.19,46.25 -46.25,46.25l-1643.57 0z"/>
 </g>
</svg>
