<?xml version="1.0" encoding="UTF-8"?>
<!DOCTYPE svg PUBLIC "-//W3C//DTD SVG 1.1//EN" "http://www.w3.org/Graphics/SVG/1.1/DTD/svg11.dtd">
<!-- Creator: CorelDRAW -->
<svg xmlns="http://www.w3.org/2000/svg" xml:space="preserve" width="63.4502mm" height="63.4502mm" version="1.1" style="shape-rendering:geometricPrecision; text-rendering:geometricPrecision; image-rendering:optimizeQuality; fill-rule:evenodd; clip-rule:evenodd"
viewBox="0 0 7361.17 7361.17"
 xmlns:xlink="http://www.w3.org/1999/xlink"
 xmlns:xodm="http://www.corel.com/coreldraw/odm/2003">
 <defs>
  <style type="text/css">
   <![CDATA[
    .str0 {stroke:#282829;stroke-width:580.07;stroke-miterlimit:22.9256}
    .fil1 {fill:none}
    .fil2 {fill:#C3B89B}
    .fil0 {fill:black;fill-rule:nonzero}
   ]]>
  </style>
 </defs>
 <g id="Capa_x0020_1">
  <metadata id="CorelCorpID_0Corel-Layer"/>
  <g id="shampoo-svgrepo-com.svg">
   <path class="fil0" d="M4291.07 2802.46l-143.45 0 0 -266.65c0,-66.51 -53.92,-120.44 -120.45,-120.44l-226.16 0 0 -300.47 424.59 0c58.23,0 105.61,47.37 105.61,105.61 0,66.51 53.92,120.44 120.44,120.44 66.52,0 120.44,-53.91 120.44,-120.42 0,-191.05 -155.43,-346.49 -346.48,-346.49l-545.04 0c-66.51,0 -120.44,53.92 -120.44,120.44l0 420.9 -226.11 0c-66.51,0 -120.44,53.92 -120.44,120.45l0 266.65 -143.46 -0.01c-243.49,0 -441.6,198.11 -441.6,441.61l0 2122.63c0,66.51 53.92,120.44 120.44,120.44l1863.27 0c66.51,0 120.44,-53.91 120.44,-120.44l0 -2122.64c0.01,-243.5 -198.1,-441.6 -441.59,-441.6zm-836.61 -146.21l452.27 0 0 146.21 -452.27 0 0 -146.21zm1037.34 2590.01l-1622.4 0 0 -2002.2c0,-110.68 90.05,-200.73 200.73,-200.73 282.44,0 981.37,0 1220.93,0 110.68,0 200.73,90.04 200.73,200.73l0.01 2002.2 0 0z"/>
   <path class="fil0" d="M4050.19 3364.49l-739.19 0c-66.5,0 -120.44,53.92 -120.44,120.44l0 1319.73c0,66.51 53.92,120.44 120.44,120.44l739.19 0c66.51,0 120.45,-53.92 120.45,-120.44l0 -1319.73c0,-66.51 -53.92,-120.44 -120.45,-120.44zm-120.42 1319.73l-498.32 0 0 -1078.86 498.32 0 0 1078.86z"/>
  </g>
 </g>
 <g id="Capa_x0020_1_52">
  <metadata id="CorelCorpID_1Corel-Layer"/>
  <path class="fil1 str0" d="M3680.59 290.04c1872.55,0 3390.55,1518 3390.55,3390.55 0,1872.55 -1518,3390.55 -3390.55,3390.55 -1872.55,0 -3390.55,-1518 -3390.55,-3390.55 0,-1872.55 1518,-3390.55 3390.55,-3390.55z"/>
  <path class="fil2" d="M3680.59 290.04c1872.55,0 3390.55,1518 3390.55,3390.55 0,1872.55 -1518,3390.55 -3390.55,3390.55 -1872.55,0 -3390.55,-1518 -3390.55,-3390.55 0,-1872.55 1518,-3390.55 3390.55,-3390.55zm0 545.92c1571.05,0 2844.64,1273.59 2844.64,2844.64 0,1571.05 -1273.59,2844.64 -2844.64,2844.64 -1571.05,0 -2844.64,-1273.59 -2844.64,-2844.64 0,-1571.05 1273.59,-2844.64 2844.64,-2844.64z"/>
 </g>
</svg>
