<?xml version="1.0" encoding="UTF-8"?>
<!DOCTYPE svg PUBLIC "-//W3C//DTD SVG 1.1//EN" "http://www.w3.org/Graphics/SVG/1.1/DTD/svg11.dtd">
<!-- Creator: CorelDRAW -->
<svg xmlns="http://www.w3.org/2000/svg" xml:space="preserve" width="26.0875mm" height="19.0245mm" version="1.1" style="shape-rendering:geometricPrecision; text-rendering:geometricPrecision; image-rendering:optimizeQuality; fill-rule:evenodd; clip-rule:evenodd"
viewBox="0 0 507.36 370"
 xmlns:xlink="http://www.w3.org/1999/xlink"
 xmlns:xodm="http://www.corel.com/coreldraw/odm/2003">
 <defs>
  <style type="text/css">
   <![CDATA[
    .str2 {stroke:black;stroke-width:5.14;stroke-miterlimit:22.9256}
    .str0 {stroke:black;stroke-width:5.15;stroke-linejoin:round;stroke-miterlimit:22.9256}
    .str1 {stroke:black;stroke-width:2.57;stroke-linecap:round;stroke-linejoin:round;stroke-miterlimit:22.9256}
    .fil2 {fill:none}
    .fil3 {fill:black;fill-rule:nonzero}
    .fil0 {fill:#040404;fill-rule:nonzero}
    .fil1 {fill:#FEFEFE;fill-rule:nonzero}
   ]]>
  </style>
 </defs>
 <g id="Capa_x0020_1">
  <metadata id="CorelCorpID_0Corel-Layer"/>
  <path class="fil0" d="M-0 0l507.36 0 0 321.26 -507.36 0 0 -321.26zm55.39 11.08l-42.09 2.22 0 294.67 2.22 2.22 412.09 0 66.47 -2.22 0 -294.67 -26.59 -2.22 -412.1 0z"/>
  <polygon class="fil0" points="186.11,332.34 307.96,332.34 310.18,336.77 310.18,354.49 407.66,354.49 407.66,367.78 405.45,370 88.62,370 86.41,367.78 86.41,356.7 88.62,354.49 183.89,352.27 "/>
  <polygon class="fil0" points="195.6,185.07 203.82,185.07 215.46,187.12 226.41,191.23 235.99,197.39 242.83,203.55 242.15,206.29 239.41,206.97 229.83,199.44 218.88,193.97 208.61,191.23 196.97,190.54 186.71,191.91 178.49,194.65 170.28,198.76 161.38,205.6 160.01,206.97 156.59,206.29 157.27,202.18 164.8,196.02 174.39,190.55 181.23,187.81 189.44,185.75 "/>
  <polygon class="fil0" points="196.29,199.44 202.45,199.44 211.35,200.81 220.25,204.23 227.78,209.03 232.57,213.13 231.88,216.56 229.83,217.24 221.61,211.08 214.77,207.66 207.24,205.6 197.66,204.92 188.76,206.29 179.86,209.71 173.7,213.82 169.59,217.24 166.86,216.56 166.17,213.82 170.96,209.03 179.86,203.55 187.39,200.81 "/>
  <polygon class="fil0" points="198.34,212.45 209.29,213.82 218.88,218.61 222.98,222.03 223.67,224.77 222.3,226.14 218.88,225.45 212.72,221.35 205.87,218.61 193.55,218.61 186.02,221.35 179.18,226.14 175.75,225.45 176.44,222.03 182.6,217.24 189.44,213.82 "/>
  <polygon class="fil0" points="196.97,237.77 201.77,237.77 205.87,239.83 207.92,242.56 208.61,248.04 206.56,252.15 203.13,254.89 198.34,255.57 193.55,253.52 190.81,248.73 190.81,243.93 192.87,240.51 194.92,238.46 "/>
  <polygon class="fil0" points="194.92,226.14 204.5,226.14 212.72,230.24 214.09,231.61 213.4,235.04 211.35,235.72 205.87,232.3 203.82,231.61 194.92,231.61 188.08,235.72 185.34,235.04 184.65,232.3 188.76,228.87 "/>
  <polygon class="fil1" points="197.66,242.56 201.77,242.56 203.82,245.3 203.13,248.73 200.4,250.78 196.97,250.1 195.6,248.04 195.6,244.62 "/>
  <path id="play-svgrepo-com.svg" class="fil2 str0" d="M317.83 219.07c2.92,1.82 4.38,2.74 4.88,3.91 0.44,1.02 0.44,2.17 0,3.19 -0.5,1.17 -1.96,2.08 -4.88,3.91l-13.71 8.57c-3.24,2.02 -4.86,3.04 -6.2,2.93 -1.16,-0.09 -2.23,-0.68 -2.93,-1.62 -0.8,-1.08 -0.8,-2.99 -0.8,-6.81l0 -17.14c0,-3.82 0,-5.73 0.8,-6.81 0.7,-0.94 1.77,-1.53 2.93,-1.62 1.34,-0.11 2.96,0.9 6.2,2.93l13.71 8.57z"/>
  <path id="music-svgrepo-com.svg" class="fil2 str1" d="M406.57 237.21c0,2.05 -2.49,3.71 -5.56,3.71 -3.07,0 -5.56,-1.66 -5.56,-3.71 0,-2.05 2.49,-3.71 5.56,-3.71 3.07,0 5.56,1.66 5.56,3.71zm0 0l0 -25.96 22.25 -3.71 0 25.95m0 0c0,2.05 -2.49,3.71 -5.56,3.71 -3.07,0 -5.56,-1.66 -5.56,-3.71 0,-2.05 2.49,-3.71 5.56,-3.71 3.07,0 5.56,1.66 5.56,3.71zm-22.25 -14.83l22.25 -3.71"/>
  <g id="internet-svgrepo-com.svg">
   <g>
    <path class="fil3" d="M85 185.75c-22.31,0 -40.38,18.08 -40.38,40.38 0,22.3 18.08,40.38 40.38,40.38 22.31,-0 40.38,-18.08 40.38,-40.38 0,-22.3 -18.08,-40.38 -40.38,-40.38zm-24.99 15.4c3.68,-3.68 8.16,-6.54 13.16,-8.32 -2.4,2.9 -4.39,6.61 -5.96,10.9l-9.55 0c0.74,-0.9 1.52,-1.76 2.34,-2.58zm-5.05 6.37l11.04 0c-1.42,5.04 -2.27,10.7 -2.42,16.72l-13.87 0c0.32,-6.12 2.2,-11.82 5.25,-16.72zm0 37.23c-3.05,-4.9 -4.93,-10.6 -5.25,-16.72l13.88 0c0.15,6.02 0.98,11.69 2.4,16.72l-11.03 0 0 0zm5.05 6.37c-0.82,-0.82 -1.6,-1.69 -2.34,-2.59l9.56 0c0.67,1.86 1.42,3.62 2.26,5.24 1.1,2.12 2.33,4.02 3.68,5.66 -5,-1.77 -9.48,-4.64 -13.16,-8.31zm23.09 10.3c-0.59,-0.03 -1.18,-0.08 -1.76,-0.14 -0.93,-0.42 -1.85,-0.99 -2.76,-1.73 -2.78,-2.27 -5.36,-6.1 -7.32,-11.02l11.84 0 0 12.88 0 0zm0 -16.67l-13.16 0c-1.5,-4.92 -2.42,-10.62 -2.57,-16.72l15.74 0 0 16.72 0 0zm0 -20.51l-15.72 0c0.16,-6.11 1.08,-11.8 2.58,-16.72l13.15 0 0 16.72 -0 0zm0 -20.51l-11.82 0c0.49,-1.23 1.01,-2.42 1.57,-3.5 1.68,-3.25 3.65,-5.82 5.74,-7.52 0.91,-0.74 1.83,-1.31 2.76,-1.73 0.58,-0.06 1.17,-0.11 1.76,-0.14l0 12.88 -0 0zm31.93 3.79c3.05,4.9 4.93,10.6 5.25,16.72l-13.88 0c-0.15,-6.02 -0.98,-11.69 -2.4,-16.72l11.03 0zm-5.05 -6.37c0.82,0.82 1.6,1.69 2.34,2.58l-9.56 0c-0.67,-1.86 -1.42,-3.62 -2.26,-5.24 -1.09,-2.12 -2.33,-4.02 -3.68,-5.66 5,1.78 9.48,4.64 13.16,8.31zm-23.09 -10.3c0.59,0.03 1.18,0.08 1.76,0.14 0.93,0.42 1.85,0.99 2.76,1.73 2.78,2.26 5.36,6.1 7.32,11.02l-11.84 0 0 -12.88zm0 16.67l13.16 0c1.49,4.92 2.42,10.62 2.57,16.72l-15.74 0 0 -16.72zm0 20.51l15.73 0c-0.16,6.11 -1.09,11.8 -2.58,16.72l-13.15 0 0 -16.72zm4.52 31.53c-0.91,0.74 -1.83,1.31 -2.76,1.73 -0.58,0.06 -1.17,0.11 -1.76,0.14l0 -12.88 11.82 0c-0.49,1.23 -1,2.42 -1.57,3.5 -1.68,3.25 -3.66,5.82 -5.74,7.52zm18.57 -8.43c-3.68,3.68 -8.16,6.54 -13.16,8.32 2.4,-2.9 4.39,-6.61 5.96,-10.9l9.55 0c-0.74,0.9 -1.52,1.76 -2.34,2.59zm5.05 -6.37l-11.04 0c1.42,-5.04 2.27,-10.7 2.43,-16.72l13.87 0c-0.32,6.12 -2.2,11.82 -5.25,16.72z"/>
   </g>
  </g>
  <circle class="fil2 str2" cx="305.3" cy="223.5" r="33.69"/>
  <circle class="fil2 str2" cx="412.14" cy="224.23" r="33.69"/>
  <path class="fil3" d="M63.61 121.18l6.85 -0.62c0.32,2.77 1.08,5.04 2.27,6.82 1.19,1.77 3.04,3.21 5.54,4.31 2.5,1.09 5.32,1.64 8.45,1.64 2.78,0 5.23,-0.41 7.36,-1.24 2.13,-0.83 3.71,-1.98 4.75,-3.42 1.04,-1.45 1.57,-3.03 1.57,-4.72 0,-1.72 -0.5,-3.22 -1.5,-4.52 -1,-1.28 -2.65,-2.36 -4.96,-3.25 -1.48,-0.56 -4.75,-1.46 -9.81,-2.68 -5.07,-1.22 -8.61,-2.36 -10.63,-3.44 -2.63,-1.38 -4.58,-3.1 -5.86,-5.14 -1.3,-2.04 -1.94,-4.34 -1.94,-6.86 0,-2.8 0.8,-5.4 2.37,-7.81 1.58,-2.43 3.87,-4.26 6.91,-5.52 3.03,-1.26 6.4,-1.89 10.11,-1.89 4.08,0 7.68,0.66 10.8,1.98 3.12,1.31 5.52,3.25 7.2,5.81 1.68,2.55 2.58,5.45 2.71,8.68l-7 0.54c-0.37,-3.48 -1.64,-6.11 -3.81,-7.88 -2.17,-1.78 -5.38,-2.67 -9.61,-2.67 -4.41,0 -7.63,0.81 -9.65,2.43 -2.01,1.62 -3.03,3.57 -3.03,5.85 0,1.97 0.72,3.6 2.14,4.89 1.41,1.27 5.07,2.59 10.99,3.93 5.93,1.35 9.99,2.51 12.2,3.51 3.19,1.47 5.57,3.34 7.09,5.61 1.53,2.26 2.28,4.86 2.28,7.81 0,2.94 -0.83,5.68 -2.51,8.27 -1.68,2.59 -4.08,4.61 -7.22,6.04 -3.14,1.44 -6.67,2.15 -10.61,2.15 -4.98,0 -9.14,-0.73 -12.51,-2.18 -3.37,-1.45 -6,-3.63 -7.92,-6.56 -1.92,-2.91 -2.93,-6.21 -3.03,-9.89zm53.57 17.7l0 -55.11 10.93 0 13.03 39.01c1.21,3.63 2.08,6.35 2.63,8.16 0.63,-2 1.62,-4.95 2.95,-8.84l13.26 -38.33 9.76 0 0 55.11 -7 0 0 -46.1 -16.09 46.1 -6.57 0 -15.91 -46.95 0 46.95 -7 0zm58.23 0l21.14 -55.11 8.02 0 22.45 55.11 -8.31 0 -6.38 -16.7 -23.21 0 -5.98 16.7 -7.73 0zm15.85 -22.63l18.78 0 -5.75 -15.28c-1.73,-4.64 -3.04,-8.48 -3.95,-11.51 -0.76,3.59 -1.77,7.12 -3.04,10.61l-6.04 16.18zm41.68 22.63l0 -55.11 24.42 0c4.91,0 8.65,0.5 11.2,1.49 2.55,0.99 4.59,2.73 6.12,5.23 1.53,2.5 2.28,5.27 2.28,8.3 0,3.91 -1.27,7.21 -3.8,9.89 -2.53,2.68 -6.43,4.37 -11.71,5.11 1.94,0.92 3.4,1.85 4.4,2.74 2.13,1.95 4.14,4.4 6.03,7.34l9.53 15.01 -9.11 0 -7.29 -11.47c-2.12,-3.32 -3.87,-5.85 -5.25,-7.61 -1.38,-1.76 -2.62,-2.98 -3.71,-3.68 -1.08,-0.69 -2.19,-1.18 -3.32,-1.46 -0.82,-0.17 -2.17,-0.26 -4.05,-0.26l-8.44 0 0 24.48 -7.31 0zm7.31 -30.79l15.65 0c3.33,0 5.93,-0.35 7.8,-1.04 1.87,-0.68 3.3,-1.78 4.26,-3.31 0.97,-1.51 1.46,-3.15 1.46,-4.94 0,-2.6 -0.94,-4.76 -2.82,-6.44 -1.88,-1.68 -4.86,-2.51 -8.93,-2.51l-17.42 0 0 18.24zm60.74 30.79l0 -48.64 -18.16 0 0 -6.46 43.64 0 0 6.46 -18.16 0 0 48.64 -7.31 0zm65.63 0l0 -48.64 -18.16 0 0 -6.46 43.64 0 0 6.46 -18.16 0 0 48.64 -7.31 0zm48.69 0l-21.28 -55.11 7.9 0 14.32 40.05c1.14,3.21 2.12,6.21 2.89,9.02 0.85,-3.01 1.83,-6.02 2.96,-9.02l14.85 -40.05 7.44 0 -21.49 55.11 -7.59 0z"/>
 </g>
</svg>
