<?xml version="1.0" encoding="UTF-8"?>
<!DOCTYPE svg PUBLIC "-//W3C//DTD SVG 1.1//EN" "http://www.w3.org/Graphics/SVG/1.1/DTD/svg11.dtd">
<!-- Creator: CorelDRAW -->
<svg xmlns="http://www.w3.org/2000/svg" xml:space="preserve" width="28.1381mm" height="23.5813mm" version="1.1" style="shape-rendering:geometricPrecision; text-rendering:geometricPrecision; image-rendering:optimizeQuality; fill-rule:evenodd; clip-rule:evenodd"
viewBox="0 0 383.87 321.71"
 xmlns:xlink="http://www.w3.org/1999/xlink"
 xmlns:xodm="http://www.corel.com/coreldraw/odm/2003">
 <defs>
  <style type="text/css">
   <![CDATA[
    .fil1 {fill:#040404;fill-rule:nonzero}
    .fil0 {fill:#FEFEFE;fill-rule:nonzero}
   ]]>
  </style>
 </defs>
 <g id="Capa_x0020_1">
  <metadata id="CorelCorpID_0Corel-Layer"/>
  <polygon class="fil0" points="355.9,142.98 365.22,142.98 346.57,200.48 329.48,250.21 318.6,265.76 309.27,273.53 293.73,270.42 279.74,271.97 275.08,276.64 271.97,282.85 111.9,282.85 107.24,273.53 99.47,270.42 79.26,271.97 66.83,259.54 59.06,244 26.42,146.09 26.42,144.53 49.73,144.53 99.47,149.2 150.75,156.97 166.29,158.52 217.58,158.52 265.76,152.31 295.29,147.64 "/>
  <path class="fil1" d="M52.84 0l15.54 1.55 10.88 6.22 7.77 10.88 3.11 15.54 -3.11 4.66 -15.54 0 -4.66 -13.99 -3.11 -3.11 -12.43 0 -4.66 4.66 -1.55 13.99 1.55 37.3 1.55 1.56 0 10.88 24.87 0 0 -18.65 6.22 0 0 37.3 -31.08 0 1.55 9.33 49.73 4.66 62.17 9.33 23.31 1.55 27.98 -0 54.4 -7.77 31.08 -4.66 54.4 -4.66 24.87 0 6.22 6.22 0 12.43 -6.22 6.22 -4.66 1.55 -29.53 87.03 -9.32 26.42 -10.88 13.99 -10.88 9.32 -3.11 15.54 -3.11 7.77 6.22 1.55 1.55 10.88 -3.11 4.66 -4.66 1.55 -13.99 -0 -6.22 -4.66 -1.55 -20.2 -9.33 -6.22 -164.74 0 -6.22 4.66 -4.66 0 0 17.1 -4.66 7.77 -3.11 1.55 -13.99 0 -7.77 -7.77 1.55 -7.77 6.22 -3.11 -4.66 -15.54 0 -12.43 -7.77 -7.77 -9.32 -13.99 -9.33 -24.87 -27.97 -83.92 -13.99 -4.66 -4.66 -6.22 0 -9.32 6.22 -7.77 15.54 0 0 -38.85 3.11 0 0 -51.29 4.66 -10.88 9.33 -10.88 13.99 -4.66zm303.06 142.98l-60.61 4.66 -62.16 9.33 -15.54 1.55 -51.29 0 -46.62 -6.22 -31.08 -4.66 -38.85 -3.11 -23.31 0 18.65 57.5 17.1 49.73 9.32 12.43 7.77 7.77 20.2 -1.55 7.77 3.11 4.66 9.32 160.07 0 4.66 -9.33 9.33 -3.11 17.1 1.56 6.22 1.55 12.43 -10.88 7.77 -12.43 24.87 -73.04 10.88 -34.19 -9.32 0z"/>
  <polygon class="fil0" points="9.33,122.77 41.96,124.33 104.13,130.55 155.42,138.32 172.51,139.87 220.69,139.87 290.62,128.99 360.56,122.78 374.55,122.77 377.66,125.88 377.66,133.65 366.78,136.76 290.62,142.98 226.9,152.31 212.92,153.86 172.51,153.86 124.33,147.64 79.26,141.43 17.1,136.76 7.77,133.65 6.22,125.88 "/>
  <polygon class="fil0" points="55.95,6.22 69.94,9.32 77.71,15.54 82.37,24.87 82.37,32.64 76.15,31.08 69.94,18.65 59.06,13.99 49.73,15.54 40.41,23.31 38.85,29.53 37.3,76.15 31.08,76.15 31.08,31.08 35.75,17.1 45.07,9.32 "/>
  <polygon class="fil0" points="83.92,276.64 102.57,276.64 105.68,284.41 101.02,289.07 93.25,289.07 93.25,312.38 90.14,315.49 79.26,315.49 76.15,310.83 83.92,307.72 82.37,295.28 79.26,282.85 "/>
  <polygon class="fil0" points="281.3,276.64 299.95,276.64 304.61,281.3 303.06,292.18 299.95,301.5 299.95,307.72 307.72,309.27 307.72,313.93 304.61,315.49 293.73,315.49 292.18,313.93 290.62,290.62 281.3,287.51 279.74,285.96 279.74,278.19 "/>
  <polygon class="fil0" points="27.98,83.92 40.41,83.92 41.96,116.56 40.41,118.11 27.98,116.56 "/>
  <polygon class="fil0" points="48.18,96.36 60.61,96.36 60.61,102.57 48.18,102.57 "/>
 </g>
</svg>
