<?xml version="1.0" encoding="UTF-8"?>
<!DOCTYPE svg PUBLIC "-//W3C//DTD SVG 1.1//EN" "http://www.w3.org/Graphics/SVG/1.1/DTD/svg11.dtd">
<!-- Creator: CorelDRAW -->
<svg xmlns="http://www.w3.org/2000/svg" xml:space="preserve" width="27.1129mm" height="19.0245mm" version="1.1" style="shape-rendering:geometricPrecision; text-rendering:geometricPrecision; image-rendering:optimizeQuality; fill-rule:evenodd; clip-rule:evenodd"
viewBox="0 0 10167.77 7134.49"
 xmlns:xlink="http://www.w3.org/1999/xlink"
 xmlns:xodm="http://www.corel.com/coreldraw/odm/2003">
 <defs>
  <style type="text/css">
   <![CDATA[
    .fil1 {fill:#040404;fill-rule:nonzero}
    .fil0 {fill:#FEFEFE;fill-rule:nonzero}
   ]]>
  </style>
 </defs>
 <g id="Capa_x0020_1">
  <metadata id="CorelCorpID_0Corel-Layer"/>
  <polygon class="fil0" points="213.65,0 9954.16,0 10125.02,170.89 10167.77,427.22 10167.77,6365.52 10082.3,6664.56 9911.41,6792.7 9526.9,6835.45 8843.36,6835.45 8800.65,7134.49 8031.68,7134.49 7988.93,7091.74 7988.93,6835.41 2178.84,6835.45 2136.09,7134.49 1324.41,7134.49 1281.65,6878.13 213.65,6792.7 -0,6579.05 -0,213.57 "/>
  <path class="fil1" d="M213.65 0l9740.51 0 170.86 170.89 42.75 256.32 0 5938.3 -85.47 299.04 -170.89 128.14 -384.5 42.75 -683.54 0 -42.71 299.04 -768.97 0 -42.75 -42.75 0 -256.32 -5810.08 0.04 -42.75 299.04 -811.68 0 -42.75 -256.36 -1068.01 -85.43 -213.65 -213.65 0 -6365.48 213.65 -213.57zm85.43 128.18l-128.14 128.14 -42.75 128.14 0 6066.48 128.18 170.86 9612.33 0 128.14 -128.14 0 -2349.66 -683.5 0 -384.5 512.65 -469.93 299.04 -427.22 128.18 -640.83 0 -469.93 -170.89 -256.32 -170.89 -213.61 -170.89 -299.08 -469.93 -128.14 -469.89 0 -555.4 170.89 -469.93 256.32 -384.5 299.04 -256.32 427.26 -213.61 427.22 -85.47 512.65 42.71 469.93 170.89 341.79 256.32 256.32 299.08 85.47 170.86 85.43 42.75 469.89 0 170.89 -42.71 0 -2264.23 -85.47 -170.89 -128.14 -42.71 -9484.19 0z"/>
  <polygon class="fil0" points="7604.46,1794.34 8159.86,1837.05 8672.51,2093.38 8928.87,2306.99 9185.19,2734.24 9313.33,3118.74 9313.33,3674.11 9142.48,4144.04 8886.11,4485.83 8587.08,4742.15 8202.57,4913.05 8031.68,4955.76 7433.57,4955.69 6963.67,4784.79 6621.88,4528.47 6322.84,4143.96 6151.95,3631.32 6151.95,3118.67 6322.84,2648.74 6493.74,2392.38 6792.78,2093.34 7177.28,1879.73 "/>
  <polygon class="fil0" points="7476.28,2306.99 7988.93,2306.99 8416.18,2520.59 8715.22,2862.35 8800.69,3118.71 8800.69,3674.11 8629.79,4015.86 8416.18,4229.47 8245.29,4357.65 7988.93,4443.08 7476.28,4443.04 7091.78,4272.14 6792.74,3930.39 6664.6,3631.35 6664.6,3118.67 6878.2,2691.45 7177.24,2435.13 "/>
  <polygon class="fil0" points="1623.48,1452.55 4186.75,1452.55 4314.9,1495.26 4400.36,1666.16 4357.65,1879.77 4229.47,1965.23 1538.02,1965.2 1409.87,1837.05 1409.87,1580.69 "/>
  <path class="fil1" d="M7519.03 2136.09l469.89 0 427.26 170.89 299.04 256.32 256.32 512.68 0 640.79 -213.61 427.22 -299.04 299.08 -384.5 170.86 -469.93 42.75 -427.22 -128.18 -256.32 -170.86 -299.08 -341.79 -128.14 -341.75 0 -598.11 256.32 -512.68 384.5 -299.04 384.5 -128.18zm-42.75 170.89l-427.22 213.61 -256.36 299.04 -128.14 299.04 0 512.68 213.61 427.22 341.79 299.04 256.32 85.47 512.65 -0.04 384.5 -170.89 213.61 -213.61 170.89 -256.32 42.75 -128.18 0 -555.36 -170.89 -384.5 -341.79 -299.04 -299.04 -128.18 -512.68 0.04z"/>
  <path class="fil1" d="M1708.91 1281.65l2349.66 0 299.04 42.75 170.89 170.86 42.71 341.79 -128.14 213.61 -170.89 85.47 -2776.88 -0.04 -213.65 -170.89 -42.71 -85.43 0 -341.79 213.61 -213.61 256.36 -42.71zm-85.43 170.89l-213.61 128.14 0 256.36 128.14 128.14 2691.45 0 170.86 -170.86 -42.71 -213.65 -42.71 -85.43 -128.18 -42.75 -2563.23 0.04z"/>
  <polygon class="fil0" points="9398.76,2819.63 9996.87,2819.63 9996.87,3973.11 9398.76,3973.11 9441.48,3716.78 9441.48,3075.96 "/>
  <polygon class="fil1" points="1623.48,3631.35 1965.23,3674.07 2136.13,3887.68 2136.13,4229.43 1922.52,4443.08 1623.48,4485.79 1367.12,4314.9 1324.41,4229.43 1324.41,3887.68 1495.3,3674.07 "/>
  <polygon class="fil1" points="2819.67,3631.35 3118.71,3674.07 3289.6,3887.68 3332.32,4144 3204.17,4357.65 2990.56,4485.79 2691.53,4443.08 2520.63,4272.18 2477.88,4186.72 2477.88,3930.39 2606.06,3716.78 "/>
  <polygon class="fil1" points="3887.68,2477.88 4229.47,2477.88 4443.08,2691.49 4485.79,2776.92 4485.79,3033.28 4314.9,3246.89 4229.47,3289.6 3887.68,3289.56 3674.07,3075.96 3631.35,2819.59 3759.5,2563.27 "/>
  <polygon class="fil1" points="2691.49,4827.54 3075.99,4827.54 3289.6,5041.15 3332.32,5297.47 3204.17,5511.12 3033.28,5639.26 2734.2,5639.23 2477.88,5382.9 2477.88,5083.87 "/>
  <polygon class="fil1" points="3973.14,3631.35 4272.18,3674.07 4443.08,3844.96 4485.79,4186.72 4272.18,4443.08 3973.14,4485.79 3759.53,4357.65 3631.35,4144 3674.11,3844.96 3845,3674.11 "/>
  <polygon class="fil1" points="2734.2,2477.88 3033.24,2477.88 3204.14,2563.31 3332.32,2862.35 3246.85,3161.42 3075.96,3289.56 2734.2,3289.56 2520.59,3118.67 2477.88,3033.24 2520.59,2648.74 "/>
  <polygon class="fil1" points="3887.68,4827.54 4229.47,4827.54 4443.08,4998.44 4485.79,5340.19 4357.65,5553.8 4186.75,5639.26 3930.43,5639.23 3759.53,5553.8 3631.35,5297.44 3674.11,5041.11 "/>
  <polygon class="fil1" points="1538.02,4827.54 1922.52,4827.54 2136.13,5083.87 2136.13,5382.9 1965.23,5596.55 1879.77,5639.26 1580.73,5639.23 1367.12,5468.37 1324.41,5382.9 1324.41,5041.11 "/>
  <polygon class="fil1" points="1580.73,2477.88 1879.77,2477.88 2093.41,2648.74 2136.13,2734.2 2136.13,3033.24 1922.52,3289.6 1538.02,3289.56 1324.41,3075.96 1324.41,2734.17 1495.3,2520.56 "/>
  <polygon class="fil0" points="4015.86,4955.69 4272.22,5041.15 4314.93,5297.47 4144.04,5468.37 3887.71,5425.66 3802.25,5169.29 "/>
  <polygon class="fil0" points="3930.43,2648.74 4186.75,2648.74 4314.9,2819.63 4272.18,3033.24 4186.72,3118.71 3930.43,3118.67 3802.25,2947.78 3887.71,2691.45 "/>
  <polygon class="fil0" points="1623.48,3802.21 1837.05,3802.21 1965.23,3930.39 1965.23,4186.72 1879.77,4272.18 1580.73,4272.14 1495.3,4186.72 1495.3,3930.35 "/>
  <polygon class="fil0" points="1580.73,4998.44 1879.77,4998.44 1965.23,5126.58 1965.23,5340.19 1794.34,5468.37 1538.02,5425.62 1495.3,5340.15 1495.3,5083.83 "/>
  <polygon class="fil0" points="2862.38,4955.69 3075.99,5041.15 3118.71,5083.87 3118.71,5340.23 2990.56,5468.37 2776.96,5468.37 2648.77,5340.19 2648.77,5126.58 "/>
  <polygon class="fil0" points="2776.96,2648.74 3033.24,2648.74 3118.71,2734.2 3118.71,3033.24 2990.56,3118.71 2776.96,3118.67 2648.77,2990.53 2648.77,2776.92 "/>
  <polygon class="fil0" points="3973.14,3802.21 4229.47,3844.96 4314.93,3973.11 4272.22,4229.43 4186.75,4272.18 3930.43,4272.14 3802.25,4101.25 3887.71,3887.64 "/>
  <polygon class="fil0" points="1623.48,2648.74 1837.05,2648.74 1965.23,2776.92 1922.48,3075.96 1623.44,3118.67 1495.3,3033.24 1495.3,2776.88 "/>
  <polygon class="fil0" points="2819.67,3802.21 3033.28,3844.96 3118.74,3930.39 3118.74,4186.75 3033.28,4272.18 2734.2,4272.14 2648.77,4144 2691.49,3887.64 "/>
  <polygon class="fil0" points="8159.82,6835.45 8672.47,6835.45 8629.75,6963.6 8159.82,6963.6 "/>
  <polygon class="fil0" points="1495.3,6835.45 1965.23,6835.45 1965.23,6963.6 1495.3,6963.6 "/>
 </g>
</svg>
