<?xml version="1.0" encoding="UTF-8"?>
<!DOCTYPE svg PUBLIC "-//W3C//DTD SVG 1.1//EN" "http://www.w3.org/Graphics/SVG/1.1/DTD/svg11.dtd">
<!-- Creator: CorelDRAW -->
<svg xmlns="http://www.w3.org/2000/svg" xml:space="preserve" width="63.4502mm" height="63.4502mm" version="1.1" style="shape-rendering:geometricPrecision; text-rendering:geometricPrecision; image-rendering:optimizeQuality; fill-rule:evenodd; clip-rule:evenodd"
viewBox="0 0 2017.23 2017.23"
 xmlns:xlink="http://www.w3.org/1999/xlink"
 xmlns:xodm="http://www.corel.com/coreldraw/odm/2003">
 <defs>
  <style type="text/css">
   <![CDATA[
    .str0 {stroke:#282829;stroke-width:158.96;stroke-miterlimit:22.9256}
    .fil1 {fill:none}
    .fil2 {fill:#C3B89B}
    .fil0 {fill:black;fill-rule:nonzero}
   ]]>
  </style>
 </defs>
 <g id="Capa_x0020_1">
  <metadata id="CorelCorpID_0Corel-Layer"/>
  <g id="smart-tv-svgrepo-com.svg">
   <g>
    <path class="fil0" d="M1522.71 571.81l-1028.19 0c-20.5,0 -37.12,16.62 -37.12,37.12l0 684.26c0,20.5 16.62,37.12 37.12,37.12l186.83 0 -15.51 86.85c-1.93,10.82 1.03,21.93 8.08,30.36 7.05,8.42 17.47,13.29 28.46,13.29l612.46 0c10.99,0 21.41,-4.87 28.46,-13.29 7.05,-8.42 10.01,-19.54 8.08,-30.36l-15.51 -86.85 186.83 0c20.5,0 37.12,-16.62 37.12,-37.12l0 -684.27c0,-20.5 -16.62,-37.12 -37.12,-37.12zm-252.2 814.76l-523.8 0 10.05 -56.26 503.71 0 10.05 56.26zm215.08 -130.49l-953.95 0 0 -610.03 953.95 0 0 610.03z"/>
    <path class="fil0" d="M679.49 879.9l107.02 0c35.48,0 64.34,-28.86 64.34,-64.34l0 -45.77c0,-35.48 -28.86,-64.34 -64.34,-64.34l-107.02 0c-35.48,0 -64.34,28.86 -64.34,64.34l0 45.77c0,35.48 28.86,64.34 64.34,64.34zm-12.37 -110.12c0,-6.82 5.55,-12.38 12.37,-12.38l107.02 0c6.82,0 12.38,5.55 12.38,12.38l0 45.77c0,6.82 -5.55,12.37 -12.38,12.37l-107.02 0c-6.82,0 -12.37,-5.55 -12.37,-12.37l0 -45.77z"/>
    <path class="fil0" d="M955.11 879.9l107.02 0c35.48,0 64.34,-28.86 64.34,-64.34l0 -45.77c0,-35.48 -28.86,-64.34 -64.34,-64.34l-107.02 0c-35.48,0 -64.34,28.86 -64.34,64.34l0 45.77c0,35.48 28.86,64.34 64.34,64.34zm-12.38 -110.12c0,-6.82 5.55,-12.38 12.38,-12.38l107.02 0c6.82,0 12.38,5.55 12.38,12.38l0 45.77c0,6.82 -5.55,12.37 -12.38,12.37l-107.02 0c-6.82,0 -12.38,-5.55 -12.38,-12.37l0 -45.77z"/>
    <path class="fil0" d="M1337.73 924.44l-107.02 0c-35.48,0 -64.34,28.86 -64.34,64.34l0 45.78c0,35.48 28.86,64.34 64.34,64.34l107.02 0c35.48,0 64.34,-28.86 64.34,-64.34l0 -45.77c0,-35.48 -28.86,-64.34 -64.34,-64.34zm12.38 110.12c0,6.82 -5.55,12.37 -12.38,12.37l-107.02 0c-6.82,0 -12.38,-5.55 -12.38,-12.37l0 -45.78c0,-6.82 5.55,-12.37 12.38,-12.37l107.02 0c6.82,0 12.38,5.55 12.38,12.38l0 45.77z"/>
    <path class="fil0" d="M679.49 1098.9l107.02 0c35.48,0 64.34,-28.86 64.34,-64.34l0 -45.77c0,-35.48 -28.86,-64.34 -64.34,-64.34l-107.02 -0c-35.48,0 -64.34,28.86 -64.34,64.34l0 45.78c0,35.48 28.86,64.34 64.34,64.34zm-12.37 -110.12c0,-6.82 5.55,-12.37 12.37,-12.37l107.02 0c6.82,0 12.38,5.55 12.38,12.38l0 45.77c0,6.82 -5.55,12.37 -12.38,12.37l-107.02 0c-6.82,0 -12.37,-5.55 -12.37,-12.37l0 -45.78z"/>
    <path class="fil0" d="M955.11 1098.9l107.02 0c35.48,0 64.34,-28.86 64.34,-64.34l0 -45.77c0,-35.48 -28.86,-64.34 -64.34,-64.34l-107.02 -0c-35.48,0 -64.34,28.86 -64.34,64.34l0 45.78c0,35.48 28.86,64.34 64.34,64.34zm-12.38 -110.12c0,-6.82 5.55,-12.37 12.38,-12.37l107.02 0c6.82,0 12.38,5.55 12.38,12.38l0 45.77c0,6.82 -5.55,12.37 -12.38,12.37l-107.02 0c-6.82,0 -12.38,-5.55 -12.38,-12.37l0 -45.78z"/>
    <path class="fil0" d="M1376.09 1147.15l-183.74 0c-14.35,0 -25.98,11.63 -25.98,25.98 0,14.35 11.63,25.98 25.98,25.98l183.74 -0c14.35,0 25.98,-11.63 25.98,-25.98 0,-14.35 -11.63,-25.98 -25.98,-25.98z"/>
    <path class="fil0" d="M916.74 1199.12l183.74 0c14.35,0 25.98,-11.63 25.98,-25.98 0,-14.35 -11.63,-25.98 -25.98,-25.98l-183.74 0c-14.35,0 -25.98,11.63 -25.98,25.98 0,14.35 11.63,25.98 25.98,25.98z"/>
    <path class="fil0" d="M641.14 1199.12l183.74 0c14.35,0 25.98,-11.63 25.98,-25.98 0,-14.35 -11.63,-25.98 -25.98,-25.98l-183.74 0c-14.35,0 -25.98,11.63 -25.98,25.98 0,14.35 11.63,25.98 25.98,25.98z"/>
    <path class="fil0" d="M1244.44 854.66c-7.97,7.97 -7.97,20.9 0,28.87 7.97,7.97 20.9,7.97 28.87,0 3.66,-3.66 8.52,-5.67 13.69,-5.67 5.17,0 10.03,2.01 13.69,5.67 3.98,3.98 9.21,5.98 14.44,5.98 5.23,0 10.45,-1.99 14.43,-5.98 7.97,-7.97 7.97,-20.9 0,-28.87 -23.46,-23.48 -61.65,-23.48 -85.12,0z"/>
    <path class="fil0" d="M1360.75 847.41c5.22,0 10.45,-1.99 14.43,-5.98 7.97,-7.97 7.97,-20.9 0,-28.87 -48.62,-48.63 -127.73,-48.63 -176.35,0 -7.97,7.97 -7.97,20.9 0,28.87 7.96,7.97 20.9,7.97 28.87,0 32.7,-32.7 85.91,-32.7 118.61,0 3.99,3.99 9.21,5.98 14.44,5.98z"/>
    <path class="fil0" d="M1173.48 804.11c5.22,0 10.45,-1.99 14.44,-5.98 54.65,-54.63 143.54,-54.64 198.18,0 7.97,7.96 20.9,7.97 28.87,-0.01 7.97,-7.97 7.97,-20.9 -0,-28.87 -70.56,-70.55 -185.37,-70.55 -255.92,0.01 -7.97,7.97 -7.97,20.9 0,28.87 3.98,3.98 9.21,5.98 14.43,5.98z"/>
   </g>
  </g>
 </g>
 <g id="Capa_x0020_1_51">
  <metadata id="CorelCorpID_1Corel-Layer"/>
  <path class="fil1 str0" d="M1008.62 79.48c513.15,0 929.13,415.99 929.13,929.13 0,513.15 -415.99,929.13 -929.13,929.13 -513.15,0 -929.13,-415.99 -929.13,-929.13 0,-513.15 415.99,-929.13 929.13,-929.13z"/>
  <path class="fil2" d="M1008.62 79.48c513.15,0 929.13,415.99 929.13,929.13 0,513.15 -415.99,929.13 -929.13,929.13 -513.15,0 -929.13,-415.99 -929.13,-929.13 0,-513.15 415.99,-929.13 929.13,-929.13zm0 149.6c430.53,0 779.54,349.01 779.54,779.54 0,430.53 -349.01,779.54 -779.54,779.54 -430.53,0 -779.54,-349.01 -779.54,-779.54 0,-430.53 349.01,-779.54 779.54,-779.54z"/>
 </g>
</svg>
