<?xml version="1.0" encoding="UTF-8"?>
<!DOCTYPE svg PUBLIC "-//W3C//DTD SVG 1.1//EN" "http://www.w3.org/Graphics/SVG/1.1/DTD/svg11.dtd">
<!-- Creator: CorelDRAW -->
<svg xmlns="http://www.w3.org/2000/svg" xml:space="preserve" width="63.4502mm" height="63.4502mm" version="1.1" style="shape-rendering:geometricPrecision; text-rendering:geometricPrecision; image-rendering:optimizeQuality; fill-rule:evenodd; clip-rule:evenodd"
viewBox="0 0 5902.57 5902.57"
 xmlns:xlink="http://www.w3.org/1999/xlink"
 xmlns:xodm="http://www.corel.com/coreldraw/odm/2003">
 <defs>
  <style type="text/css">
   <![CDATA[
    .str0 {stroke:#282829;stroke-width:465.13;stroke-miterlimit:22.9256}
    .fil0 {fill:none}
    .fil1 {fill:#C3B89B}
    .fil2 {fill:black;fill-rule:nonzero}
   ]]>
  </style>
 </defs>
 <g id="Capa_x0020_1">
  <metadata id="CorelCorpID_0Corel-Layer"/>
  <path class="fil0 str0" d="M2951.28 232.57c1501.51,0 2718.72,1217.21 2718.72,2718.72 0,1501.51 -1217.21,2718.72 -2718.72,2718.72 -1501.51,0 -2718.72,-1217.21 -2718.72,-2718.72 0,-1501.51 1217.21,-2718.72 2718.72,-2718.72z"/>
  <path class="fil1" d="M2951.28 232.57c1501.51,0 2718.72,1217.21 2718.72,2718.72 0,1501.51 -1217.21,2718.72 -2718.72,2718.72 -1501.51,0 -2718.72,-1217.21 -2718.72,-2718.72 0,-1501.51 1217.21,-2718.72 2718.72,-2718.72zm0 437.75c1259.75,0 2280.98,1021.23 2280.98,2280.98 0,1259.75 -1021.23,2280.98 -2280.98,2280.98 -1259.75,0 -2280.98,-1021.23 -2280.98,-2280.98 0,-1259.75 1021.23,-2280.98 2280.98,-2280.98z"/>
  <g id="teapot-svgrepo-com.svg">
   <g>
    <path class="fil2" d="M4739.29 2224.36l-235.53 0c-45.74,0 -87.01,27.55 -104.52,69.83 -68.7,165.9 -210.3,288.95 -380.54,336.29 -25.93,-65.44 -57.56,-128.67 -94.26,-189.03 -3.2,-6.58 -7,-12.79 -11.35,-18.55 -43.38,-68.56 -93.41,-133.13 -149.88,-192.13 -151.88,-158.75 -336.75,-268.9 -537.45,-323.37 20.39,-42.68 31.82,-90.44 31.82,-140.81 0,-180.8 -147.09,-327.89 -327.87,-327.89 -180.79,0 -327.87,147.09 -327.87,327.89 0,50.9 11.66,99.13 32.44,142.14 -198.91,54.89 -382.13,164.48 -532.87,322.02 -56.47,59.03 -106.52,123.6 -149.89,192.17 -4.33,5.76 -8.09,11.93 -11.28,18.48 -8.53,14.05 -16.81,28.22 -24.78,42.58 -68.7,-32.43 -144.1,-49.69 -221.05,-49.69 -287.96,0 -522.25,236.97 -522.25,528.23 0,417.89 456.26,660.49 743.66,695.79 119.84,208.73 303.06,380.38 530.22,484.07 14.75,6.72 30.77,10.21 46.97,10.21l878.63 0c16.2,0 32.23,-3.49 46.97,-10.21 234.13,-106.9 421.74,-285.83 541.24,-503.29 535.69,-206.78 892.58,-724.19 892.58,-1301.61 0,-62.49 -50.63,-113.12 -113.12,-113.12zm-1809.58 -559.44c56.05,0 101.63,45.59 101.63,101.64 0,56.05 -45.58,101.63 -101.63,101.63 -56.05,0 -101.63,-45.58 -101.63,-101.63 0,-56.03 45.6,-101.64 101.63,-101.64zm2.6 429.53c252.6,0 485.76,109.06 657.52,283.14l-1315.01 0c171.74,-174.07 404.9,-283.14 657.49,-283.14zm-1533.92 868.07c0,-166.52 132.8,-301.99 296.01,-301.99 45.16,0 89.39,10.68 129.44,30.53 -41.77,123.87 -64.1,253.91 -64.1,384.36 0,111.44 16.08,220.5 46.24,324.56 -187.72,-66.55 -407.59,-220.65 -407.59,-437.46zm1947.92 963.83l-827.97 0c-324.2,-158.02 -532.35,-489.4 -532.35,-850.92 0,-134.08 27.62,-262.88 77.04,-380.58 0.63,-1.36 1.24,-2.71 1.82,-4.08 12.64,-29.73 26.7,-58.72 42.04,-86.92l1650.84 0c76.68,140.92 120.93,302.01 120.93,471.6 0,361.49 -208.17,692.87 -532.35,850.91zm730.73 -597.59c18.3,-82.22 27.89,-167.08 27.89,-253.33 0,-76.51 -7.67,-152.92 -22.36,-228 210.66,-59.55 389.48,-202.57 492.8,-396.83l45.36 0c-35.29,363.23 -238.83,687.29 -543.69,878.16z"/>
   </g>
  </g>
 </g>
</svg>
