<?xml version="1.0" encoding="UTF-8"?>
<!DOCTYPE svg PUBLIC "-//W3C//DTD SVG 1.1//EN" "http://www.w3.org/Graphics/SVG/1.1/DTD/svg11.dtd">
<!-- Creator: CorelDRAW -->
<svg xmlns="http://www.w3.org/2000/svg" xml:space="preserve" width="16.974mm" height="23.8092mm" version="1.1" style="shape-rendering:geometricPrecision; text-rendering:geometricPrecision; image-rendering:optimizeQuality; fill-rule:evenodd; clip-rule:evenodd"
viewBox="0 0 147.68 207.15"
 xmlns:xlink="http://www.w3.org/1999/xlink"
 xmlns:xodm="http://www.corel.com/coreldraw/odm/2003">
 <defs>
  <style type="text/css">
   <![CDATA[
    .fil0 {fill:#040404;fill-rule:nonzero}
    .fil1 {fill:#FEFEFE;fill-rule:nonzero}
   ]]>
  </style>
 </defs>
 <g id="Capa_x0020_1">
  <metadata id="CorelCorpID_0Corel-Layer"/>
  <polygon class="fil0" points="54.52,0 93.17,0 103.08,4.96 110.02,11.89 116.96,19.82 117.95,20.81 126.87,22.8 133.81,28.74 136.78,36.67 147.68,115.97 147.68,128.85 143.72,133.81 140.75,134.8 119.93,134.8 119.93,200.22 116.96,205.17 113.99,207.15 34.69,207.15 29.74,203.19 28.74,201.21 27.75,190.3 27.75,135.79 6.94,134.8 1.98,130.83 -0,126.87 0.99,113.98 11.89,34.69 14.87,28.74 21.81,22.8 30.73,20.81 41.63,8.92 48.57,2.97 "/>
  <polygon class="fil1" points="61.45,86.23 70.37,86.23 70.37,149.67 61.45,149.67 60.46,117.95 56.5,117.95 56.5,152.64 61.45,155.61 70.37,156.6 70.37,186.34 34.69,186.34 34.69,118.94 38.66,101.1 54.52,100.11 56.5,107.04 61.45,108.04 "/>
  <polygon class="fil1" points="77.31,100.11 84.25,101.1 85.24,163.54 90.2,161.56 91.19,101.1 108.04,100.11 110.02,102.09 112.99,113.98 113.99,121.91 113.99,186.34 91.19,186.34 90.2,172.46 85.24,173.45 84.25,186.34 76.32,186.34 76.32,101.1 "/>
  <polygon class="fil1" points="26.76,27.75 30.73,28.74 44.6,54.51 57.49,77.31 57.49,79.29 38.66,79.29 34.69,69.38 28.74,52.53 24.78,51.54 25.77,59.47 32.71,80.28 31.72,84.25 30.73,85.24 30.73,94.16 32.71,97.13 31.72,106.05 28.74,113.98 7.93,113.98 9.91,96.14 17.84,37.66 20.82,31.72 23.79,28.74 "/>
  <polygon class="fil1" points="117.95,27.75 123.9,28.74 128.85,33.7 130.84,39.65 140.75,112.99 139.76,113.98 118.94,113.98 114.98,98.13 117.95,93.17 117.95,86.23 115.97,83.26 117.95,74.34 123.9,56.5 123.9,51.54 119.93,51.54 110.02,79.29 91.19,79.29 99.12,63.43 115.97,31.72 "/>
  <polygon class="fil1" points="50.55,8.92 52.53,10.9 77.31,77.31 77.31,79.29 65.42,79.29 55.51,62.44 41.63,36.67 36.67,27.75 37.66,21.8 "/>
  <polygon class="fil1" points="96.14,9.91 101.1,11.89 112,23.79 111.01,29.74 94.16,61.45 86.23,75.33 84.25,78.3 80.28,69.38 78.3,64.43 79.29,55.51 95.15,12.89 "/>
  <polygon class="fil1" points="60.46,5.95 88.21,5.95 90.2,6.94 89.21,12.89 86.23,20.81 63.44,21.81 60.46,16.85 58.48,10.9 58.48,6.94 "/>
  <polygon class="fil1" points="76.32,86.23 111.01,86.23 112.99,91.19 110.02,94.16 76.32,94.16 "/>
  <polygon class="fil1" points="34.69,193.28 70.37,193.28 70.37,200.21 69.38,201.21 36.67,201.21 34.69,198.23 "/>
  <polygon class="fil1" points="65.42,27.75 83.26,27.75 80.29,36.67 75.33,50.55 73.35,51.54 65.42,29.74 "/>
  <polygon class="fil1" points="119.93,119.93 140.75,119.93 141.74,120.92 141.74,126.87 138.76,128.85 120.92,128.85 119.93,127.86 "/>
  <polygon class="fil1" points="6.94,119.93 27.75,119.93 28.74,120.92 27.75,128.85 8.92,128.85 6.94,126.87 "/>
  <polygon class="fil1" points="91.19,193.28 113.98,193.28 112.99,200.21 111.01,201.21 90.2,201.21 "/>
  <polygon class="fil1" points="37.66,86.23 55.51,86.23 55.51,94.16 37.66,94.16 35.68,92.18 36.67,87.22 "/>
  <polygon class="fil1" points="76.32,193.28 84.25,193.28 84.25,199.22 81.28,201.21 76.32,200.22 "/>
 </g>
</svg>
