<?xml version="1.0" encoding="UTF-8"?>
<!DOCTYPE svg PUBLIC "-//W3C//DTD SVG 1.1//EN" "http://www.w3.org/Graphics/SVG/1.1/DTD/svg11.dtd">
<!-- Creator: CorelDRAW -->
<svg xmlns="http://www.w3.org/2000/svg" xml:space="preserve" width="14.1259mm" height="20.6193mm" version="1.1" style="shape-rendering:geometricPrecision; text-rendering:geometricPrecision; image-rendering:optimizeQuality; fill-rule:evenodd; clip-rule:evenodd"
viewBox="0 0 399.42 583.03"
 xmlns:xlink="http://www.w3.org/1999/xlink"
 xmlns:xodm="http://www.corel.com/coreldraw/odm/2003">
 <defs>
  <style type="text/css">
   <![CDATA[
    .fil0 {fill:#040404;fill-rule:nonzero}
    .fil1 {fill:#FEFEFE;fill-rule:nonzero}
   ]]>
  </style>
 </defs>
 <g id="Capa_x0020_1">
  <metadata id="CorelCorpID_0Corel-Layer"/>
  <polygon class="fil0" points="83.75,16.1 157.83,16.1 167.5,22.55 257.69,25.77 260.91,41.87 251.25,61.2 238.36,70.87 177.16,74.09 173.94,99.86 157.83,112.74 151.39,112.74 151.39,154.62 186.83,154.62 186.83,212.6 199.71,219.04 225.48,248.03 238.36,280.24 241.59,296.35 241.59,328.56 399.42,328.56 399.42,579.81 396.2,583.03 219.04,583.03 206.15,579.81 206.15,554.04 38.65,554.04 12.88,550.82 3.22,541.16 -0,528.27 -0,299.57 6.44,267.36 25.77,235.14 48.32,212.6 54.76,212.6 54.76,154.61 90.19,154.62 90.19,112.74 74.09,106.3 67.64,99.85 67.64,28.99 "/>
  <polygon class="fil1" points="70.86,167.5 170.72,167.5 173.94,222.26 186.83,228.7 202.93,244.81 219.04,270.58 225.48,289.91 225.48,328.56 209.38,331.78 206.15,537.94 19.32,537.93 16.1,534.71 16.1,286.68 28.99,257.69 48.32,231.92 61.2,222.26 141.73,222.26 141.73,209.38 70.86,209.38 67.64,206.15 67.64,170.72 "/>
  <polygon class="fil1" points="219.04,344.66 386.54,344.66 386.54,570.15 222.26,570.15 219.04,566.93 "/>
  <polygon class="fil1" points="70.86,338.22 170.72,338.22 170.72,405.87 125.62,405.87 125.62,418.75 170.72,418.75 170.72,438.08 93.41,438.08 96.63,450.96 170.72,454.19 170.72,476.73 70.86,476.73 67.64,473.51 67.64,341.44 "/>
  <path class="fil0" d="M54.76 325.34l128.85 0 3.22 6.44 0 148.17 -3.22 9.66 -125.62 0 -3.22 -3.22 0 -161.06zm16.11 12.88l-3.22 3.22 0 132.07 3.22 3.22 99.86 0 0 -22.55 -74.09 -3.22 -3.22 -12.88 77.31 0 0 -19.33 -45.09 0 0 -12.89 45.09 0 0 -67.64 -99.86 0z"/>
  <polygon class="fil1" points="90.19,28.99 154.62,28.99 161.06,35.43 161.06,90.19 157.84,96.64 83.75,96.63 80.53,90.19 80.53,35.43 "/>
  <polygon class="fil0" points="277.02,251.25 328.56,251.25 331.78,254.47 331.78,318.89 328.56,322.12 277.02,322.12 273.8,318.89 273.8,254.47 "/>
  <polygon class="fil0" points="344.66,109.52 367.21,109.52 383.32,122.4 386.54,128.85 386.54,154.62 373.66,170.72 367.21,173.94 341.44,173.94 325.34,157.84 322.11,151.39 322.11,132.06 331.78,115.96 "/>
  <polygon class="fil0" points="344.66,0 370.43,0 386.54,16.11 386.54,41.87 367.21,57.98 347.89,57.98 328.56,41.87 328.56,16.1 "/>
  <polygon class="fil0" points="270.58,77.31 293.13,80.53 306.01,93.41 306.01,115.96 289.9,132.07 267.36,132.07 254.47,119.18 251.25,99.85 260.91,83.75 "/>
  <polygon class="fil0" points="231.92,486.4 248.03,486.4 248.03,534.71 299.57,534.71 302.79,547.6 296.34,550.82 231.92,547.6 "/>
  <polygon class="fil1" points="289.9,264.13 315.67,264.13 318.89,267.36 318.89,306.01 286.68,306.01 286.68,267.36 "/>
  <polygon class="fil1" points="177.16,38.65 244.81,38.65 238.36,51.54 228.7,57.98 177.16,57.98 173.94,41.87 "/>
  <polygon class="fil1" points="106.3,115.96 135.29,115.96 135.29,154.62 106.3,154.62 "/>
  <polygon class="fil1" points="344.66,125.62 363.99,125.62 373.65,135.29 370.43,154.62 351.1,161.06 338.22,151.4 338.22,132.07 "/>
  <polygon class="fil1" points="351.11,12.89 367.21,16.11 373.66,22.55 370.43,38.66 354.33,45.1 341.44,32.21 347.89,16.11 "/>
  <polygon class="fil1" points="273.8,93.41 289.9,96.63 293.13,106.3 280.24,119.18 267.36,112.74 267.36,96.63 "/>
  <polygon class="fil0" points="235.14,447.74 248.03,447.74 248.03,473.51 231.92,473.51 231.92,450.96 "/>
 </g>
</svg>
