<?xml version="1.0" encoding="UTF-8"?>
<!DOCTYPE svg PUBLIC "-//W3C//DTD SVG 1.1//EN" "http://www.w3.org/Graphics/SVG/1.1/DTD/svg11.dtd">
<!-- Creator: CorelDRAW -->
<svg xmlns="http://www.w3.org/2000/svg" xml:space="preserve" width="22.5562mm" height="22.4422mm" version="1.1" style="shape-rendering:geometricPrecision; text-rendering:geometricPrecision; image-rendering:optimizeQuality; fill-rule:evenodd; clip-rule:evenodd"
viewBox="0 0 411.81 409.72"
 xmlns:xlink="http://www.w3.org/1999/xlink"
 xmlns:xodm="http://www.corel.com/coreldraw/odm/2003">
 <defs>
  <style type="text/css">
   <![CDATA[
    .fil1 {fill:#040404;fill-rule:nonzero}
    .fil0 {fill:#FEFEFE;fill-rule:nonzero}
   ]]>
  </style>
 </defs>
 <g id="Capa_x0020_1">
  <metadata id="CorelCorpID_0Corel-Layer"/>
  <polygon class="fil0" points="172.63,0 237.1,0 270.38,8.32 303.65,22.88 332.77,41.6 357.73,64.47 378.53,91.51 397.25,126.87 407.64,162.22 411.81,191.34 411.81,220.46 405.57,257.9 393.09,291.17 378.53,318.21 361.89,339.01 349.41,353.57 320.29,376.45 299.49,388.93 268.3,401.41 232.94,409.72 178.86,409.72 147.67,403.48 116.47,391 87.35,374.36 66.56,357.72 47.84,339.01 27.04,309.89 10.4,274.53 2.08,241.26 -0,226.7 -0,180.94 6.24,147.66 16.64,120.62 33.28,89.43 49.92,68.63 74.87,43.67 106.07,22.87 141.43,8.32 "/>
  <path class="fil1" d="M172.63 0l64.47 0 33.28 8.32 33.28 14.56 29.12 18.72 24.96 22.88 20.8 27.04 18.72 35.36 10.4 35.36 4.16 29.12 0 29.12 -6.24 37.44 -12.48 33.28 -14.56 27.04 -16.64 20.8 -12.48 14.56 -29.12 22.88 -20.8 12.48 -31.2 12.48 -35.36 8.32 -54.08 -0 -31.2 -6.24 -31.2 -12.48 -29.12 -16.64 -20.8 -16.64 -18.72 -18.72 -20.8 -29.12 -16.64 -35.36 -8.32 -33.28 -2.08 -14.56 0 -45.76 6.24 -33.28 10.4 -27.04 16.64 -31.2 16.64 -20.8 24.96 -24.96 31.2 -20.8 35.36 -14.56 31.2 -8.32zm8.32 14.56l-37.44 8.32 -39.52 18.72 -24.96 18.72 -22.88 22.88 -18.72 29.12 -10.4 20.8 -8.32 24.96 -4.16 22.88 0 45.76 6.24 31.2 10.4 27.04 16.64 29.12 16.64 20.8 18.72 18.72 31.2 20.8 35.36 14.56 27.04 6.24 54.07 -0 35.36 -8.32 33.28 -14.56 24.96 -16.64 24.96 -22.88 20.8 -29.12 14.56 -29.12 8.32 -27.04 4.16 -24.96 0 -29.12 -4.16 -29.12 -10.4 -33.28 -18.72 -35.36 -24.96 -29.12 -29.12 -22.88 -31.2 -16.64 -35.36 -10.4 -12.48 -2.08 -49.91 0z"/>
  <polygon class="fil1" points="193.42,97.75 218.38,97.75 253.74,103.99 287.01,116.47 316.13,135.19 336.93,153.91 334.85,162.22 326.53,164.3 297.41,141.43 264.14,124.79 232.94,116.47 197.58,114.39 166.39,118.55 141.43,126.87 116.47,139.35 89.43,160.15 85.27,164.31 74.88,162.23 76.95,149.75 99.83,131.03 128.95,114.39 149.75,106.07 174.71,99.83 "/>
  <polygon class="fil1" points="195.5,141.43 214.22,141.43 241.26,145.59 268.3,155.99 291.17,170.54 305.73,183.02 303.65,193.42 297.41,195.5 272.46,176.78 251.66,166.39 228.78,160.15 199.66,158.07 172.62,162.23 145.59,172.63 126.87,185.1 114.39,195.5 106.07,193.42 103.99,185.1 118.55,170.55 145.59,153.91 168.46,145.59 "/>
  <polygon class="fil1" points="201.74,180.94 235.02,185.1 264.14,199.66 276.62,210.06 278.7,218.38 274.54,222.54 264.14,220.46 245.42,207.98 224.62,199.66 187.18,199.66 164.31,207.98 143.51,222.54 133.11,220.46 135.19,210.06 153.91,195.5 174.71,185.1 "/>
  <polygon class="fil1" points="197.58,257.89 212.14,257.89 224.62,264.13 230.86,272.45 232.94,289.09 226.7,301.57 216.3,309.89 201.74,311.97 187.19,305.73 178.87,291.17 178.87,276.62 185.1,266.22 191.34,259.98 "/>
  <polygon class="fil1" points="191.34,222.54 220.46,222.54 245.42,235.02 249.58,239.18 247.5,249.58 241.26,251.66 224.62,241.26 218.38,239.18 191.34,239.18 170.54,251.66 162.22,249.58 160.15,241.26 172.62,230.86 "/>
  <polygon class="fil0" points="199.66,272.45 212.14,272.45 218.38,280.77 216.3,291.17 207.98,297.41 197.58,295.33 193.42,289.09 193.42,278.69 "/>
 </g>
</svg>
