<?xml version="1.0" encoding="UTF-8"?>
<!DOCTYPE svg PUBLIC "-//W3C//DTD SVG 1.1//EN" "http://www.w3.org/Graphics/SVG/1.1/DTD/svg11.dtd">
<!-- Creator: CorelDRAW -->
<svg xmlns="http://www.w3.org/2000/svg" xml:space="preserve" width="13.8981mm" height="19.0245mm" version="1.1" style="shape-rendering:geometricPrecision; text-rendering:geometricPrecision; image-rendering:optimizeQuality; fill-rule:evenodd; clip-rule:evenodd"
viewBox="0 0 241.03 329.94"
 xmlns:xlink="http://www.w3.org/1999/xlink"
 xmlns:xodm="http://www.corel.com/coreldraw/odm/2003">
 <defs>
  <style type="text/css">
   <![CDATA[
    .fil0 {fill:#040404;fill-rule:nonzero}
    .fil1 {fill:#FEFEFE;fill-rule:nonzero}
   ]]>
  </style>
 </defs>
 <g id="Capa_x0020_1">
  <metadata id="CorelCorpID_0Corel-Layer"/>
  <polygon class="fil0" points="53.34,0 128.42,0 148.18,9.88 162,25.68 167.93,37.54 167.93,45.44 181.76,47.42 187.69,55.32 189.66,65.2 211.39,73.1 225.22,86.93 233.13,102.74 237.08,120.52 241.03,124.47 241.03,146.2 233.13,152.13 88.91,152.13 82.98,146.2 81,130.39 86.93,120.52 92.86,96.81 104.71,79.03 120.52,69.15 134.34,65.2 138.3,51.37 146.2,45.44 158.05,45.44 148.17,27.66 134.34,15.8 124.47,11.85 59.27,11.86 39.51,19.76 23.71,33.59 13.83,51.37 11.85,59.27 9.88,237.08 29.64,237.08 31.61,227.2 41.49,229.18 41.49,252.89 39.51,256.84 29.64,254.86 29.64,248.93 11.85,248.93 9.88,327.96 -0,329.94 -0,55.32 7.9,35.56 19.76,19.76 35.56,7.9 "/>
  <polygon class="fil1" points="130.39,77.05 191.64,77.05 211.4,86.93 221.28,102.73 223.25,120.52 100.76,120.52 100.76,106.69 110.64,88.91 124.47,79.03 "/>
  <polygon class="fil1" points="92.86,130.39 231.15,130.39 231.15,140.27 92.86,140.27 "/>
  <polygon class="fil1" points="154.1,55.32 169.91,55.32 177.81,59.27 177.81,65.2 146.2,65.2 148.18,57.29 "/>
  <polygon class="fil0" points="113.38,177.33 117.65,177.33 121.32,179.16 123.15,181.6 123.76,186.48 121.93,190.14 118.87,192.59 114.6,193.2 110.33,191.37 107.89,187.09 107.89,182.82 109.72,179.77 111.55,177.94 "/>
  <polygon class="fil0" points="134.08,177.33 138.36,177.33 142.02,179.16 143.85,181.6 144.46,186.48 142.63,190.14 139.58,192.59 135.3,193.2 131.03,191.37 128.59,187.09 128.59,182.82 130.42,179.77 132.25,177.94 "/>
  <polygon class="fil0" points="157.03,177.33 161.3,177.33 164.96,179.16 166.79,181.6 167.4,186.48 165.57,190.14 162.52,192.59 158.25,193.2 153.98,191.37 151.53,187.09 151.53,182.82 153.36,179.77 155.19,177.94 "/>
  <polygon class="fil0" points="179.97,177.33 184.24,177.33 187.9,179.16 189.73,181.6 190.34,186.48 188.51,190.14 185.46,192.59 181.19,193.2 176.92,191.37 174.48,187.09 174.48,182.82 176.31,179.77 178.14,177.94 "/>
  <polygon class="fil0" points="202.91,177.33 207.18,177.33 210.85,179.16 212.68,181.6 213.29,186.48 211.46,190.14 208.41,192.59 204.13,193.2 199.86,191.37 197.42,187.09 197.42,182.82 199.25,179.77 201.08,177.94 "/>
  <polygon class="fil0" points="113.38,200.27 117.65,200.27 121.32,202.1 123.15,204.54 123.76,209.42 121.93,213.09 118.87,215.53 114.6,216.14 110.33,214.31 107.89,210.04 107.89,205.76 109.72,202.71 111.55,200.88 "/>
  <polygon class="fil0" points="134.08,200.27 138.36,200.27 142.02,202.1 143.85,204.54 144.46,209.42 142.63,213.09 139.58,215.53 135.3,216.14 131.03,214.31 128.59,210.04 128.59,205.76 130.42,202.71 132.25,200.88 "/>
  <polygon class="fil0" points="157.03,200.27 161.3,200.27 164.96,202.1 166.79,204.54 167.4,209.42 165.57,213.09 162.52,215.53 158.25,216.14 153.98,214.31 151.53,210.04 151.53,205.76 153.36,202.71 155.19,200.88 "/>
  <polygon class="fil0" points="179.97,200.27 184.24,200.27 187.9,202.1 189.73,204.54 190.34,209.42 188.51,213.09 185.46,215.53 181.19,216.14 176.92,214.31 174.48,210.04 174.48,205.76 176.31,202.71 178.14,200.88 "/>
  <polygon class="fil0" points="202.91,200.27 207.18,200.27 210.85,202.1 212.68,204.54 213.29,209.42 211.46,213.09 208.41,215.53 204.13,216.14 199.86,214.31 197.42,210.04 197.42,205.76 199.25,202.71 201.08,200.88 "/>
  <polygon class="fil0" points="113.38,223.21 117.65,223.21 121.32,225.04 123.15,227.48 123.76,232.37 121.93,236.03 118.87,238.47 114.6,239.08 110.33,237.25 107.89,232.98 107.89,228.7 109.72,225.65 111.55,223.82 "/>
  <polygon class="fil0" points="134.08,223.21 138.36,223.21 142.02,225.04 143.85,227.48 144.46,232.37 142.63,236.03 139.58,238.47 135.3,239.08 131.03,237.25 128.59,232.98 128.59,228.7 130.42,225.65 132.25,223.82 "/>
  <polygon class="fil0" points="157.03,223.21 161.3,223.21 164.96,225.04 166.79,227.48 167.4,232.37 165.57,236.03 162.52,238.47 158.25,239.08 153.98,237.25 151.53,232.98 151.53,228.7 153.36,225.65 155.19,223.82 "/>
  <polygon class="fil0" points="179.97,223.21 184.24,223.21 187.9,225.04 189.73,227.48 190.34,232.37 188.51,236.03 185.46,238.47 181.19,239.08 176.92,237.25 174.48,232.98 174.48,228.7 176.31,225.65 178.14,223.82 "/>
  <polygon class="fil0" points="202.91,223.21 207.18,223.21 210.85,225.04 212.68,227.48 213.29,232.37 211.46,236.03 208.41,238.47 204.13,239.08 199.86,237.25 197.42,232.98 197.42,228.7 199.25,225.65 201.08,223.82 "/>
  <polygon class="fil0" points="113.38,246.15 117.65,246.15 121.32,247.98 123.15,250.43 123.76,255.31 121.93,258.97 118.87,261.41 114.6,262.02 110.33,260.19 107.89,255.92 107.89,251.65 109.72,248.6 111.55,246.77 "/>
  <polygon class="fil0" points="134.08,246.15 138.36,246.15 142.02,247.98 143.85,250.43 144.46,255.31 142.63,258.97 139.58,261.41 135.3,262.02 131.03,260.19 128.59,255.92 128.59,251.65 130.42,248.6 132.25,246.77 "/>
  <polygon class="fil0" points="157.03,246.15 161.3,246.15 164.96,247.98 166.79,250.43 167.4,255.31 165.57,258.97 162.52,261.41 158.25,262.02 153.98,260.19 151.53,255.92 151.53,251.65 153.36,248.6 155.19,246.77 "/>
  <polygon class="fil0" points="179.97,246.15 184.24,246.15 187.9,247.98 189.73,250.43 190.34,255.31 188.51,258.97 185.46,261.41 181.19,262.02 176.92,260.19 174.48,255.92 174.48,251.65 176.31,248.6 178.14,246.77 "/>
  <polygon class="fil0" points="202.91,246.15 207.18,246.15 210.85,247.98 212.68,250.43 213.29,255.31 211.46,258.97 208.41,261.41 204.13,262.02 199.86,260.19 197.42,255.92 197.42,251.65 199.25,248.6 201.08,246.77 "/>
  <polygon class="fil0" points="113.38,269.1 117.65,269.1 121.32,270.93 123.15,273.37 123.76,278.25 121.93,281.92 118.87,284.36 114.6,284.97 110.33,283.14 107.89,278.86 107.89,274.59 109.72,271.54 111.55,269.71 "/>
  <polygon class="fil0" points="134.08,269.1 138.36,269.1 142.02,270.93 143.85,273.37 144.46,278.25 142.63,281.92 139.58,284.36 135.3,284.97 131.03,283.14 128.59,278.86 128.59,274.59 130.42,271.54 132.25,269.71 "/>
  <polygon class="fil0" points="157.03,269.1 161.3,269.1 164.96,270.93 166.79,273.37 167.4,278.25 165.57,281.92 162.52,284.36 158.25,284.97 153.98,283.14 151.53,278.86 151.53,274.59 153.36,271.54 155.19,269.71 "/>
  <polygon class="fil0" points="179.97,269.1 184.24,269.1 187.9,270.93 189.73,273.37 190.34,278.25 188.51,281.92 185.46,284.36 181.19,284.97 176.92,283.14 174.48,278.86 174.48,274.59 176.31,271.54 178.14,269.71 "/>
  <polygon class="fil0" points="202.91,269.1 207.18,269.1 210.85,270.93 212.68,273.37 213.29,278.25 211.46,281.92 208.41,284.36 204.13,284.97 199.86,283.14 197.42,278.86 197.42,274.59 199.25,271.54 201.08,269.71 "/>
  <polygon class="fil0" points="113.38,246.15 117.65,246.15 121.32,247.98 123.15,250.43 123.76,255.31 121.93,258.97 118.87,261.41 114.6,262.02 110.33,260.19 107.89,255.92 107.89,251.65 109.72,248.6 111.55,246.77 "/>
  <polygon class="fil0" points="134.08,246.15 138.36,246.15 142.02,247.98 143.85,250.43 144.46,255.31 142.63,258.97 139.58,261.41 135.3,262.02 131.03,260.19 128.59,255.92 128.59,251.65 130.42,248.6 132.25,246.77 "/>
  <polygon class="fil0" points="157.03,246.15 161.3,246.15 164.96,247.98 166.79,250.43 167.4,255.31 165.57,258.97 162.52,261.41 158.25,262.02 153.98,260.19 151.53,255.92 151.53,251.65 153.36,248.6 155.19,246.77 "/>
  <polygon class="fil0" points="179.97,246.15 184.24,246.15 187.9,247.98 189.73,250.43 190.34,255.31 188.51,258.97 185.46,261.41 181.19,262.02 176.92,260.19 174.48,255.92 174.48,251.65 176.31,248.6 178.14,246.77 "/>
  <polygon class="fil0" points="202.91,246.15 207.18,246.15 210.85,247.98 212.68,250.43 213.29,255.31 211.46,258.97 208.41,261.41 204.13,262.02 199.86,260.19 197.42,255.92 197.42,251.65 199.25,248.6 201.08,246.77 "/>
 </g>
</svg>
