<?xml version="1.0" encoding="UTF-8"?>
<!DOCTYPE svg PUBLIC "-//W3C//DTD SVG 1.1//EN" "http://www.w3.org/Graphics/SVG/1.1/DTD/svg11.dtd">
<!-- Creator: CorelDRAW -->
<svg xmlns="http://www.w3.org/2000/svg" xml:space="preserve" width="63.4502mm" height="63.4502mm" version="1.1" style="shape-rendering:geometricPrecision; text-rendering:geometricPrecision; image-rendering:optimizeQuality; fill-rule:evenodd; clip-rule:evenodd"
viewBox="0 0 7483137.32 7483137.32"
 xmlns:xlink="http://www.w3.org/1999/xlink"
 xmlns:xodm="http://www.corel.com/coreldraw/odm/2003">
 <defs>
  <style type="text/css">
   <![CDATA[
    .str0 {stroke:#282829;stroke-width:589685.87;stroke-miterlimit:22.9256}
    .fil0 {fill:none}
    .fil1 {fill:#C3B89B}
    .fil2 {fill:black;fill-rule:nonzero}
   ]]>
  </style>
 </defs>
 <g id="Capa_x0020_1">
  <metadata id="CorelCorpID_0Corel-Layer"/>
  <path class="fil0 str0" d="M3741568.66 294842.94c1903576.76,0 3446725.72,1543148.96 3446725.72,3446725.72 0,1903576.76 -1543148.96,3446725.72 -3446725.72,3446725.72 -1903576.76,0 -3446725.72,-1543148.96 -3446725.72,-3446725.72 0,-1903576.76 1543148.96,-3446725.72 3446725.72,-3446725.72z"/>
  <path class="fil1" d="M3741568.66 294842.94c1903576.76,0 3446725.72,1543148.96 3446725.72,3446725.72 0,1903576.76 -1543148.96,3446725.72 -3446725.72,3446725.72 -1903576.76,0 -3446725.72,-1543148.96 -3446725.72,-3446725.72 0,-1903576.76 1543148.96,-3446725.72 3446725.72,-3446725.72zm0 554965.17c1597081.63,0 2891772.35,1294690.72 2891772.35,2891772.35 0,1597081.63 -1294690.72,2891772.35 -2891772.35,2891772.35 -1597081.63,0 -2891772.35,-1294690.72 -2891772.35,-2891772.35 0,-1597081.63 1294690.72,-2891772.35 2891772.35,-2891772.35z"/>
  <g id="bathrobe-svgrepo-com.svg">
   <g>
    <g>
     <path class="fil2" d="M4575443.46 1697351.82c-12006,-849.15 -1658526.9,-648.65 -1667714.21,0 -630928.5,20049.32 -1052742.6,799838.13 -1052742.6,1404183.59l0 1752275.16c0,82626.78 67000.11,149615.1 149615.1,149615.1l603354.79 0 0 633310.83c0,82638.58 66988.32,149615.1 149615.1,149615.1l1967994.05 0c82626.78,0 149615.1,-66988.32 149615.1,-149615.1l0 -633310.83 603354.79 0c82626.78,0 149615.1,-66988.32 149615.1,-149615.1l0 -1752275.16c11.79,-604239.32 -421613.61,-1384098.89 -1052707.22,-1404183.59zm-403675.36 298782.04l-430187.64 382835.86 -430187.64 -382835.86 860375.28 0zm-175643.83 3490999.34l-1088937.52 0c0,-61504.24 0,-1138046.56 0,-1200506.09l153259.36 0 0 228526.86c0,82638.58 66988.32,149615.1 149615.1,149615.1 82614.99,0 149615.1,-66988.32 149615.1,-149615.1l0 -228526.86 636447.96 0 0 1200506.09zm0 -1499736.29l-1088949.32 0 0 -736482.27c0,-82626.78 -66988.32,-149615.1 -149615.1,-149615.1 -82614.99,0 -149603.31,67000.11 -149603.31,149615.1l0 1453280.84 -453727.9 0c0,0 0,-1602660.06 0,-1602660.06 0,-450225.16 303853.34,-1042953.82 712387.71,-1100660.48 49156.21,43742.9 1078983.62,960197.3 1129507.91,1005154.95l0 981367.02zm579826.33 1499736.29l-280607.92 0 0 -1200506.09 280631.51 0c0,62494.91 -23.59,1139049.03 -23.59,1200506.09zm752981.69 -782937.73l-453727.9 0 0 -1453280.84c0,-82626.78 -66988.32,-149615.1 -149603.31,-149615.1 -82638.58,0 -149615.1,67000.11 -149615.1,149615.1l0 736482.27 -280643.3 0 0 -1048508.66c0,-42705.05 -18244.88,-83369.79 -50146.89,-111769.06l-278567.61 -247880.35 649916.39 -578363.9c408050.83,57635.9 712387.71,649586.16 712387.71,1100660.48l0 1602660.06z"/>
    </g>
   </g>
  </g>
 </g>
</svg>
