<?xml version="1.0" encoding="UTF-8"?>
<!DOCTYPE svg PUBLIC "-//W3C//DTD SVG 1.1//EN" "http://www.w3.org/Graphics/SVG/1.1/DTD/svg11.dtd">
<!-- Creator: CorelDRAW -->
<svg xmlns="http://www.w3.org/2000/svg" xml:space="preserve" width="63.4502mm" height="63.4502mm" version="1.1" style="shape-rendering:geometricPrecision; text-rendering:geometricPrecision; image-rendering:optimizeQuality; fill-rule:evenodd; clip-rule:evenodd"
viewBox="0 0 5676.78 5676.78"
 xmlns:xlink="http://www.w3.org/1999/xlink"
 xmlns:xodm="http://www.corel.com/coreldraw/odm/2003">
 <defs>
  <style type="text/css">
   <![CDATA[
    .str0 {stroke:#282829;stroke-width:447.34;stroke-miterlimit:22.9256}
    .fil0 {fill:none}
    .fil1 {fill:#C3B89B}
    .fil2 {fill:black;fill-rule:nonzero}
   ]]>
  </style>
 </defs>
 <g id="Capa_x0020_1">
  <metadata id="CorelCorpID_0Corel-Layer"/>
  <path class="fil0 str0" d="M2838.39 223.67c1444.07,0 2614.72,1170.65 2614.72,2614.72 0,1444.07 -1170.65,2614.72 -2614.72,2614.72 -1444.07,0 -2614.72,-1170.65 -2614.72,-2614.72 0,-1444.07 1170.65,-2614.72 2614.72,-2614.72z"/>
  <path class="fil1" d="M2838.39 223.67c1444.07,0 2614.72,1170.65 2614.72,2614.72 0,1444.07 -1170.65,2614.72 -2614.72,2614.72 -1444.07,0 -2614.72,-1170.65 -2614.72,-2614.72 0,-1444.07 1170.65,-2614.72 2614.72,-2614.72zm0 421c1211.56,0 2193.73,982.17 2193.73,2193.73 0,1211.56 -982.17,2193.73 -2193.73,2193.73 -1211.56,0 -2193.73,-982.17 -2193.73,-2193.73 0,-1211.56 982.17,-2193.73 2193.73,-2193.73z"/>
  <g id="shower-svgrepo-com_x0028_1_x0029_.svg">
   <polygon class="fil2" points="3072.09,2950.76 2923.36,3099.49 3071.77,3396.31 3217.79,3242.18 "/>
   <polygon class="fil2" points="3166.73,3586.22 3305.78,3864.33 3451.81,3710.2 3312.75,3432.08 "/>
   <polygon class="fil2" points="4307.54,2382.02 4163.34,2534.25 4440.35,2666.74 4584.56,2514.51 "/>
   <polygon class="fil2" points="3706.9,2315.95 3974.17,2443.78 4118.39,2291.56 3856.53,2166.32 "/>
   <polygon class="fil2" points="3489.78,3245.21 3667.65,3482.37 3806.86,3335.42 3629,3098.27 "/>
   <polygon class="fil2" points="3507.54,2936.33 3327.1,2695.74 3184.58,2838.27 3368.33,3083.27 "/>
   <polygon class="fil2" points="3445.87,2576.98 3674.62,2759.98 3812.33,2614.6 3587.84,2435.01 "/>
   <polygon class="fil2" points="3830.98,2885.07 4059.96,3068.25 4197.67,2922.88 3968.7,2739.7 "/>
   <path class="fil2" d="M3744.84 1746.39l-163.63 163.62 -154.13 -154.13c-130.43,-130.44 -307.57,-203.84 -492.12,-203.84 -184.56,0 -361.71,73.41 -492.13,203.84 -2.14,2.12 -4.2,4.29 -6.29,6.44 -81.88,-57.68 -179.82,-88.73 -280.03,-88.73 -268.49,0 -486.22,217.74 -486.22,486.22 0,0 0,0 0,0l0 1502.9 199.54 0 0 -1502.88c0,-0.01 0,-0.01 0,-0.01 0,-158.31 128.39,-286.69 286.69,-286.69 58.03,0 114.8,17.68 162.57,50.58 -52.46,99.91 -79.87,211.16 -79.87,324.03 0,184.54 73.29,361.84 203.6,492.42l154.14 154.13 -149.16 149.16 124.71 124.72 1297.04 -1297.04 -124.72 -124.73zm-1020.67 992.88l-140.23 -140.23c-91.77,-92.84 -143.35,-218.36 -143.35,-348.96 0,-274.13 222.31,-496.43 496.43,-496.43 130.61,0 256.13,51.57 348.98,143.33l140.23 140.24 -702.07 702.06z"/>
  </g>
 </g>
</svg>
