<?xml version="1.0" encoding="UTF-8"?>
<!DOCTYPE svg PUBLIC "-//W3C//DTD SVG 1.1//EN" "http://www.w3.org/Graphics/SVG/1.1/DTD/svg11.dtd">
<!-- Creator: CorelDRAW -->
<svg xmlns="http://www.w3.org/2000/svg" xml:space="preserve" width="63.4502mm" height="63.4502mm" version="1.1" style="shape-rendering:geometricPrecision; text-rendering:geometricPrecision; image-rendering:optimizeQuality; fill-rule:evenodd; clip-rule:evenodd"
viewBox="0 0 1927 1927"
 xmlns:xlink="http://www.w3.org/1999/xlink"
 xmlns:xodm="http://www.corel.com/coreldraw/odm/2003">
 <defs>
  <style type="text/css">
   <![CDATA[
    .str0 {stroke:#282829;stroke-width:151.85;stroke-miterlimit:22.9256}
    .fil0 {fill:none}
    .fil1 {fill:#C3B89B}
    .fil2 {fill:black;fill-rule:nonzero}
   ]]>
  </style>
 </defs>
 <g id="Capa_x0020_1">
  <metadata id="CorelCorpID_0Corel-Layer"/>
  <path class="fil0 str0" d="M963.5 75.93c490.19,0 887.57,397.38 887.57,887.57 0,490.19 -397.38,887.57 -887.57,887.57 -490.19,0 -887.57,-397.38 -887.57,-887.57 0,-490.19 397.38,-887.57 887.57,-887.57z"/>
  <path class="fil1" d="M963.5 75.93c490.19,0 887.57,397.38 887.57,887.57 0,490.19 -397.38,887.57 -887.57,887.57 -490.19,0 -887.57,-397.38 -887.57,-887.57 0,-490.19 397.38,-887.57 887.57,-887.57zm0 142.91c411.27,0 744.67,333.4 744.67,744.67 0,411.27 -333.4,744.67 -744.67,744.67 -411.27,0 -744.67,-333.4 -744.67,-744.67 0,-411.27 333.4,-744.67 744.67,-744.67z"/>
  <path id="wifi-svgrepo-com.svg" class="fil2" d="M482.68 764.01c-18.55,16.6 -20.13,45.1 -3.53,63.65 16.6,18.55 45.1,20.13 63.65,3.53l-60.12 -67.17zm901.52 67.17c18.55,16.6 47.05,15.02 63.65,-3.53 16.6,-18.55 15.02,-47.05 -3.53,-63.65l-60.12 67.17zm-420.7 425.31c-24.89,0 -45.08,20.18 -45.08,45.08 0,24.9 20.18,45.08 45.08,45.08l0 -90.15zm0.45 90.15c24.9,0 45.08,-20.18 45.08,-45.08 0,-24.89 -20.18,-45.08 -45.08,-45.08l0 90.15zm120.83 -178.5c18.41,16.75 46.93,15.4 63.67,-3.01 16.76,-18.42 15.4,-46.93 -3.01,-63.68l-60.66 66.69zm151.61 -166.77c18.41,16.75 46.93,15.4 63.67,-3.02 16.75,-18.41 15.4,-46.93 -3.01,-63.67l-60.66 66.69zm-454.82 100.08c-18.42,16.76 -19.76,45.26 -3.01,63.68 16.75,18.41 45.26,19.76 63.67,3.01l-60.66 -66.69zm-151.61 -166.77c-18.42,16.75 -19.76,45.26 -3.01,63.67 16.75,18.42 45.26,19.76 63.67,3.02l-60.66 -66.69zm-87.15 -103.5c111.68,-99.95 259.04,-160.68 420.7,-160.68l0 -90.15c-184.69,0 -353.25,69.48 -480.82,183.66l60.12 67.17zm420.7 -160.67c161.66,0 309.02,60.73 420.7,160.68l60.12 -67.17c-127.56,-114.18 -296.14,-183.66 -480.82,-183.66l0 90.15zm0 676.14l0.45 0 0 -90.15 -0.45 0 0 90.15zm0 -225.38c46.73,0 89.22,17.72 121.28,46.88l60.66 -66.69c-48.01,-43.66 -111.91,-70.34 -181.94,-70.34l0 90.15zm0 -225.38c105.11,0 200.8,39.92 272.89,105.49l60.66 -66.69c-88.04,-80.08 -205.14,-128.95 -333.55,-128.95l0 90.15zm-121.28 272.26c32.06,-29.16 74.55,-46.88 121.28,-46.88l0 -90.15c-70.03,0 -133.93,26.68 -181.94,70.34l60.66 66.69zm-151.61 -166.77c72.09,-65.58 167.77,-105.49 272.89,-105.49l0 -90.15c-128.41,0 -245.51,48.87 -333.55,128.95l60.66 66.69z"/>
 </g>
</svg>
