<?xml version="1.0" encoding="UTF-8"?>
<!DOCTYPE svg PUBLIC "-//W3C//DTD SVG 1.1//EN" "http://www.w3.org/Graphics/SVG/1.1/DTD/svg11.dtd">
<!-- Creator: CorelDRAW -->
<svg xmlns="http://www.w3.org/2000/svg" xml:space="preserve" width="29.3913mm" height="21.7587mm" version="1.1" style="shape-rendering:geometricPrecision; text-rendering:geometricPrecision; image-rendering:optimizeQuality; fill-rule:evenodd; clip-rule:evenodd"
viewBox="0 0 1521.06 1126.06"
 xmlns:xlink="http://www.w3.org/1999/xlink"
 xmlns:xodm="http://www.corel.com/coreldraw/odm/2003">
 <defs>
  <style type="text/css">
   <![CDATA[
    .fil0 {fill:#040404;fill-rule:nonzero}
    .fil1 {fill:#FEFEFE;fill-rule:nonzero}
   ]]>
  </style>
 </defs>
 <g id="Capa_x0020_1">
  <metadata id="CorelCorpID_0Corel-Layer"/>
  <polygon class="fil0" points="713.36,0 907.92,0 919.71,17.69 919.71,64.85 902.02,147.39 937.4,159.18 990.46,200.45 1049.42,282.99 1096.58,371.42 1120.16,359.63 1155.54,330.15 1208.6,312.47 1291.12,312.47 1350.08,336.05 1409.04,389.11 1444.41,465.75 1521.06,666.2 1521.06,695.68 1497.47,713.36 1473.89,719.26 1432.62,719.26 1379.56,701.58 1350.08,677.99 1320.6,624.93 1267.54,483.44 1243.96,477.54 1214.48,501.12 1208.58,512.91 1196.8,512.91 1185,536.5 1161.42,548.29 1179.11,701.58 1179.11,766.42 1161.42,955.08 1155.52,966.87 1185,972.77 1190.9,978.67 1196.8,1025.83 1196.8,1078.89 1190.9,1120.16 1185,1126.06 442.17,1126.05 430.37,1114.26 430.37,984.55 448.06,966.87 465.75,966.87 448.06,813.58 448.06,760.52 418.59,754.63 353.74,719.25 294.78,666.19 253.51,619.03 206.35,524.7 188.66,430.37 176.87,312.46 147.39,282.98 112.02,282.99 29.48,330.15 5.89,324.26 -0,318.36 -0,188.66 53.06,153.28 94.33,135.6 159.18,129.7 218.13,147.38 253.51,170.97 294.78,218.13 312.46,253.51 324.26,341.94 336.05,465.75 365.53,536.49 412.69,589.55 448.07,613.14 459.86,571.86 483.44,483.44 518.82,389.11 577.77,277.09 636.73,200.45 678,165.07 719.26,141.49 707.48,88.43 707.48,11.79 "/>
  <polygon class="fil1" points="607.24,336.05 1014.03,336.05 1043.51,383.21 1084.78,483.44 1108.36,565.98 1120.16,636.73 1120.16,837.17 1108.36,949.19 1102.47,966.87 518.81,966.87 501.12,801.79 501.12,666.2 518.81,554.19 548.29,459.86 595.45,353.74 "/>
  <polygon class="fil0" points="784.11,418.59 837.17,418.59 872.54,442.17 890.23,471.65 890.23,837.17 866.65,872.54 837.17,890.23 784.11,890.23 742.84,854.85 731.05,819.48 731.05,483.43 754.63,436.27 "/>
  <polygon class="fil1" points="483.44,1025.83 1137.84,1025.83 1137.84,1072.99 483.44,1072.99 "/>
  <polygon class="fil1" points="1220.38,365.53 1279.34,365.53 1326.5,383.21 1367.77,424.48 1403.14,507.02 1456.2,648.51 1456.2,666.2 1403.14,654.4 1379.56,624.93 1338.29,518.81 1308.81,448.06 1279.34,424.47 1226.27,424.48 1173.21,465.75 1143.73,495.23 1126.05,453.96 1131.95,424.48 1185.01,377.32 "/>
  <polygon class="fil1" points="772.32,182.76 848.96,182.76 907.92,206.35 955.08,247.61 978.66,277.09 978.66,282.99 648.51,288.88 654.41,265.3 695.68,218.14 748.74,188.66 "/>
  <polygon class="fil1" points="106.12,188.66 176.87,188.66 224.03,212.24 259.41,265.3 271.2,347.84 283,471.65 300.68,530.61 341.95,595.45 400.91,648.51 448.07,672.1 448.07,701.58 412.7,689.78 359.63,654.41 306.57,601.35 271.2,536.5 247.62,465.75 229.93,300.68 206.35,259.41 159.18,229.93 100.23,229.93 64.85,247.61 53.06,247.62 53.06,218.14 88.44,194.56 "/>
  <polygon class="fil0" points="1025.83,654.4 1055.3,654.4 1067.09,666.2 1067.09,736.94 1049.41,878.44 1037.62,890.23 1008.14,890.23 996.34,878.43 1002.24,778.21 1014.03,672.09 "/>
  <polygon class="fil1" points="760.53,47.17 860.75,47.17 866.65,58.96 848.97,129.71 778.22,129.71 760.53,76.64 "/>
  <polygon class="fil0" points="1008.14,524.71 1037.62,524.71 1055.3,554.19 1055.3,589.56 1043.51,601.35 1014.03,595.45 996.34,565.98 996.34,536.5 "/>
  <polygon class="fil1" points="790,677.99 837.17,683.88 837.17,731.05 784.11,731.05 784.11,683.88 "/>
  <polygon class="fil1" points="790,571.87 837.17,577.76 837.17,624.93 784.11,624.93 784.11,577.76 "/>
  <polygon class="fil1" points="801.79,471.65 831.27,477.54 837.17,483.44 837.17,524.71 790,524.71 784.11,495.23 790,477.54 "/>
  <polygon class="fil1" points="790,784.11 837.17,790 837.17,825.38 825.38,837.17 795.9,831.28 784.1,807.69 "/>
 </g>
</svg>
