<?xml version="1.0" encoding="UTF-8"?>
<!DOCTYPE svg PUBLIC "-//W3C//DTD SVG 1.1//EN" "http://www.w3.org/Graphics/SVG/1.1/DTD/svg11.dtd">
<!-- Creator: CorelDRAW -->
<svg xmlns="http://www.w3.org/2000/svg" xml:space="preserve" width="22.2142mm" height="21.7586mm" version="1.1" style="shape-rendering:geometricPrecision; text-rendering:geometricPrecision; image-rendering:optimizeQuality; fill-rule:evenodd; clip-rule:evenodd"
viewBox="0 0 1607.54 1574.57"
 xmlns:xlink="http://www.w3.org/1999/xlink"
 xmlns:xodm="http://www.corel.com/coreldraw/odm/2003">
 <defs>
  <style type="text/css">
   <![CDATA[
    .fil0 {fill:#040404;fill-rule:nonzero}
    .fil1 {fill:#FEFEFE;fill-rule:nonzero}
   ]]>
  </style>
 </defs>
 <g id="Capa_x0020_1">
  <metadata id="CorelCorpID_0Corel-Layer"/>
  <polygon class="fil0" points="65.95,0 197.85,0 206.1,74.2 222.59,82.45 239.08,41.23 272.06,16.49 296.79,8.25 1516.86,8.25 1574.57,24.74 1607.54,65.96 1607.54,1384.97 1582.82,1426.19 1525.11,1450.92 1516.86,1574.57 1351.99,1574.57 1343.74,1450.91 511.13,1450.91 511.13,1566.33 502.88,1574.57 346.25,1574.57 338,1566.32 329.76,1450.91 263.81,1434.42 239.07,1417.93 206.1,1417.94 189.61,1442.67 74.2,1442.67 24.73,1409.7 8.24,1384.96 -0,1343.74 -0,115.42 16.49,41.22 49.46,8.24 "/>
  <polygon class="fil1" points="296.78,49.47 1541.6,49.47 1566.33,74.2 1574.57,90.69 1574.57,1368.48 1533.35,1409.7 305.03,1409.7 329.76,1384.96 379.22,1343.74 395.71,1319.01 1417.94,1319.01 1467.41,1294.28 1483.89,1261.31 1483.89,197.85 1450.92,148.39 1426.19,140.14 370.97,140.15 329.76,107.17 263.81,82.45 "/>
  <polygon class="fil1" points="420.44,593.56 1450.91,593.56 1450.91,1261.31 1417.94,1286.04 1409.7,906.82 1351.99,840.87 1351.99,634.78 1220.09,634.78 1211.84,840.87 1154.14,906.83 1145.89,1286.04 1088.19,1286.04 1079.94,906.82 1022.24,840.87 1022.24,634.78 890.34,634.78 890.34,824.38 857.36,873.85 824.38,906.83 816.14,1286.04 750.19,1286.04 741.95,906.82 733.71,865.6 478.15,873.84 461.66,923.31 453.41,1286.04 412.19,1286.04 412.19,601.8 "/>
  <polygon class="fil1" points="197.85,123.66 288.54,123.66 346.25,156.64 370.97,197.85 379.22,247.32 379.22,1261.31 354.49,1319.01 313.27,1360.23 263.81,1376.73 206.1,1376.72 197.85,1368.48 "/>
  <polygon class="fil1" points="74.2,32.98 164.88,32.98 164.88,1401.45 156.64,1409.7 98.93,1409.7 57.71,1384.96 41.22,1360.23 41.22,74.2 "/>
  <polygon class="fil1" points="931.55,667.75 981.02,667.75 989.27,840.87 1055.21,931.55 1055.21,1286.04 857.36,1286.04 857.36,915.06 915.06,857.36 923.31,676 "/>
  <polygon class="fil1" points="1253.06,667.75 1310.77,667.75 1319.02,849.12 1376.73,915.07 1376.73,1286.04 1178.87,1286.04 1178.87,931.55 1244.83,849.12 "/>
  <polygon class="fil1" points="420.44,164.88 1409.7,164.88 1442.67,181.37 1450.92,197.86 1450.92,469.91 1343.75,469.9 1393.21,403.95 1401.46,379.22 1401.46,288.54 1368.48,230.83 1327.26,197.86 1277.79,181.37 1195.36,189.61 1137.65,230.83 1112.92,272.06 1104.67,305.03 1104.67,362.73 1137.65,428.69 1137.65,445.18 1170.63,461.66 1170.63,469.91 1005.75,469.9 1055.21,395.71 1063.46,379.22 1063.46,288.54 1022.24,222.58 964.54,189.61 890.34,181.36 832.63,206.1 791.41,239.07 766.68,296.78 766.68,370.97 799.66,436.92 824.39,469.9 667.75,469.9 717.22,403.95 725.46,387.46 725.46,288.54 692.49,230.83 651.27,197.85 634.78,189.61 535.85,189.61 478.15,222.58 445.17,272.05 436.93,296.78 436.93,387.46 469.9,436.93 486.39,469.9 420.44,469.9 412.19,461.66 412.19,296.78 403.95,173.13 "/>
  <polygon class="fil1" points="634.78,898.58 700.73,898.58 717.22,931.55 717.22,1286.04 486.39,1286.04 486.39,948.04 502.88,906.82 "/>
  <polygon class="fil1" points="1228.33,502.88 1327.26,502.88 1450.91,511.13 1450.91,560.59 420.44,560.58 412.19,552.34 412.19,511.12 "/>
  <polygon class="fil1" points="593.56,214.35 634.78,222.59 684.25,263.81 700.73,305.03 692.49,379.22 643.03,436.93 601.81,453.42 535.85,445.18 486.39,412.2 461.66,362.73 461.66,296.79 494.63,247.32 527.61,222.59 560.58,230.83 560.58,296.79 593.56,296.78 "/>
  <polygon class="fil1" points="1220.09,214.35 1286.04,214.35 1335.51,239.07 1368.48,288.54 1368.48,313.27 1294.28,321.51 1294.28,346.25 1368.48,354.49 1360.23,395.71 1319.01,436.93 1277.79,453.42 1203.6,445.18 1154.13,403.96 1137.64,362.73 1137.64,296.79 1170.62,247.32 "/>
  <polygon class="fil1" points="882.09,214.35 939.8,214.35 1005.75,247.32 1013.99,272.05 939.8,296.78 964.53,329.76 1030.48,305.03 1038.73,346.25 1013.99,403.95 981.02,436.93 939.8,453.41 865.61,445.17 816.14,403.95 799.65,370.97 799.65,296.78 824.38,255.56 857.36,222.58 "/>
  <polygon class="fil0" points="915.07,939.8 989.26,939.8 1030.48,989.27 1038.73,1046.97 1013.99,1104.67 972.77,1129.41 915.07,1121.16 873.85,1071.7 873.85,989.26 "/>
  <polygon class="fil0" points="1244.83,939.8 1319.01,939.8 1360.23,989.27 1360.23,1071.7 1319.01,1121.17 1261.31,1129.42 1220.09,1104.69 1195.36,1046.98 1211.85,972.78 "/>
  <polygon class="fil0" points="577.07,1005.75 626.53,1005.75 667.75,1038.73 676,1055.21 676,1104.68 643.03,1145.9 626.53,1154.14 577.07,1154.14 535.85,1121.16 527.61,1104.67 527.61,1055.21 560.58,1013.99 "/>
  <polygon class="fil1" points="1393.21,1442.67 1475.65,1442.67 1483.89,1450.91 1483.89,1533.35 1475.65,1541.6 1384.96,1541.6 1384.96,1450.91 "/>
  <polygon class="fil1" points="379.22,1442.67 469.9,1442.67 469.9,1541.6 379.22,1541.6 "/>
  <polygon class="fil1" points="1269.55,972.77 1310.77,989.27 1327.26,1013.99 1319.02,1071.7 1302.53,1088.19 1261.31,1088.19 1236.58,1055.21 1236.58,1005.74 "/>
  <polygon class="fil1" points="948.05,972.77 981.02,981.02 997.51,1005.75 997.51,1055.21 972.78,1088.19 931.55,1088.19 906.83,1046.96 915.07,997.5 "/>
  <polygon class="fil1" points="585.31,1046.96 626.53,1046.96 643.03,1079.94 626.53,1112.92 577.07,1112.92 568.83,1104.67 568.83,1063.45 "/>
 </g>
</svg>
