<?xml version="1.0" encoding="UTF-8"?>
<!DOCTYPE svg PUBLIC "-//W3C//DTD SVG 1.1//EN" "http://www.w3.org/Graphics/SVG/1.1/DTD/svg11.dtd">
<!-- Creator: CorelDRAW -->
<svg xmlns="http://www.w3.org/2000/svg" xml:space="preserve" width="63.4502mm" height="63.4502mm" version="1.1" style="shape-rendering:geometricPrecision; text-rendering:geometricPrecision; image-rendering:optimizeQuality; fill-rule:evenodd; clip-rule:evenodd"
viewBox="0 0 6043.45 6043.45"
 xmlns:xlink="http://www.w3.org/1999/xlink"
 xmlns:xodm="http://www.corel.com/coreldraw/odm/2003">
 <defs>
  <style type="text/css">
   <![CDATA[
    .str0 {stroke:#282829;stroke-width:476.24;stroke-miterlimit:22.9256}
    .fil1 {fill:none}
    .fil2 {fill:#C3B89B}
    .fil0 {fill:black;fill-rule:nonzero}
   ]]>
  </style>
 </defs>
 <g id="Capa_x0020_1">
  <metadata id="CorelCorpID_0Corel-Layer"/>
  <g id="relax-bathroom-svgrepo-com.svg">
   <g>
    <g>
     <path class="fil0" d="M4390.12 2537.17l-2182.04 0 0 -110.95c0,-183.53 -149.32,-332.85 -332.85,-332.85l-110.95 0 0 -332.86c0,-61.18 49.78,-110.95 110.95,-110.95 61.18,0 110.95,49.78 110.95,110.95 0,61.27 49.68,110.95 110.95,110.95 61.28,0 110.95,-49.67 110.95,-110.95 0,-183.53 -149.32,-332.85 -332.85,-332.85 -183.54,0 -332.85,149.32 -332.85,332.85 0,77.76 0,715.75 0,795.74 -129.15,45.8 -221.92,169.13 -221.92,313.77 0,144.65 92.77,267.97 221.9,313.76l0 130.03c0,334.55 212.61,620.35 509.81,729.43l-54.29 108.56c-27.41,54.81 -5.18,121.45 49.61,148.85 54.77,27.4 121.44,5.21 148.86,-49.61l80.86 -161.7c13.85,0.74 27.78,1.13 41.81,1.13l1405.38 0c14.03,0 27.96,-0.39 41.81,-1.13l80.86 161.7c27.44,54.9 94.15,76.99 148.85,49.61 54.81,-27.4 77.03,-94.05 49.61,-148.85l-54.28 -108.57c297.18,-109.06 509.79,-394.88 509.79,-729.41l0 -130.03c129.14,-45.8 221.9,-169.13 221.9,-313.77 0.01,-183.53 -149.31,-332.85 -332.85,-332.85zm-2625.84 -221.91l110.95 0c61.18,0 110.95,49.78 110.95,110.95l0 110.95 -221.91 0 0 -221.91zm2514.89 998.56c0,305.9 -248.85,554.76 -554.75,554.76l-1405.38 0c-305.9,0 -554.76,-248.86 -554.76,-554.76l0 -110.95 2514.9 0 0 110.95 -0.01 0zm110.95 -332.86l-2736.79 0c-61.18,0 -110.95,-49.78 -110.95,-110.95 0,-61.18 49.78,-110.95 110.95,-110.95 127.73,0 2608.05,0 2736.79,0 61.19,0 110.95,49.78 110.95,110.95 0,61.19 -49.77,110.95 -110.95,110.95z"/>
    </g>
   </g>
  </g>
 </g>
 <g id="Capa_x0020_1_45">
  <metadata id="CorelCorpID_1Corel-Layer"/>
  <path class="fil1 str0" d="M3021.72 238.12c1537.35,0 2783.61,1246.26 2783.61,2783.61 0,1537.35 -1246.26,2783.61 -2783.61,2783.61 -1537.35,0 -2783.61,-1246.26 -2783.61,-2783.61 0,-1537.35 1246.26,-2783.61 2783.61,-2783.61z"/>
  <path class="fil2" d="M3021.72 238.12c1537.35,0 2783.61,1246.26 2783.61,2783.61 0,1537.35 -1246.26,2783.61 -2783.61,2783.61 -1537.35,0 -2783.61,-1246.26 -2783.61,-2783.61 0,-1537.35 1246.26,-2783.61 2783.61,-2783.61zm0 448.19c1289.82,0 2335.42,1045.6 2335.42,2335.42 0,1289.82 -1045.6,2335.42 -2335.42,2335.42 -1289.82,0 -2335.42,-1045.6 -2335.42,-2335.42 0,-1289.82 1045.6,-2335.42 2335.42,-2335.42z"/>
 </g>
</svg>
