<?xml version="1.0" encoding="UTF-8"?>
<!DOCTYPE svg PUBLIC "-//W3C//DTD SVG 1.1//EN" "http://www.w3.org/Graphics/SVG/1.1/DTD/svg11.dtd">
<!-- Creator: CorelDRAW -->
<svg xmlns="http://www.w3.org/2000/svg" xml:space="preserve" width="29.0494mm" height="21.7586mm" version="1.1" style="shape-rendering:geometricPrecision; text-rendering:geometricPrecision; image-rendering:optimizeQuality; fill-rule:evenodd; clip-rule:evenodd"
viewBox="0 0 603.95 452.37"
 xmlns:xlink="http://www.w3.org/1999/xlink"
 xmlns:xodm="http://www.corel.com/coreldraw/odm/2003">
 <defs>
  <style type="text/css">
   <![CDATA[
    .fil1 {fill:#040404;fill-rule:nonzero}
    .fil0 {fill:#FEFEFE;fill-rule:nonzero}
   ]]>
  </style>
 </defs>
 <g id="Capa_x0020_1">
  <metadata id="CorelCorpID_0Corel-Layer"/>
  <polygon class="fil0" points="30.79,0 573.16,0 592.1,11.84 601.58,26.05 603.95,35.53 603.95,213.16 596.84,232.11 580.26,246.32 568.42,251.06 33.16,251.05 16.58,241.58 2.37,225 -0,215.53 -0,33.16 9.47,14.21 21.32,4.74 "/>
  <path class="fil1" d="M30.79 0l542.37 0 18.95 11.84 9.47 14.21 2.37 9.47 0 177.63 -7.1 18.95 -16.58 14.21 -11.84 4.74 -535.26 -0 -16.58 -9.47 -14.21 -16.58 -2.37 -9.47 0 -182.37 9.47 -18.95 11.84 -9.47 9.47 -4.74zm4.74 14.21l-11.84 7.1 -9.47 14.21 0 180 9.47 14.21 16.58 7.1 7.11 -0 2.37 -35.52 9.47 -16.58 14.21 -7.11 457.1 0 14.21 7.1 4.74 0 7.11 21.31 2.37 30.79 21.32 -7.1 7.1 -9.47 2.37 -9.47 0 -172.89 -7.11 -14.21 -14.21 -9.47 -532.89 0z"/>
  <polygon class="fil0" points="61.58,217.9 542.37,217.9 544.74,220.26 544.74,234.48 542.37,236.84 61.58,236.84 "/>
  <polygon class="fil0" points="75.79,189.47 528.16,189.47 540,196.58 540,203.68 63.95,203.68 68.68,194.21 "/>
  <polygon class="fil1" points="135,33.16 468.95,33.16 471.32,42.63 468.95,47.37 135,47.37 132.63,35.53 "/>
  <polygon class="fil1" points="135,78.16 468.95,78.16 468.95,92.37 135,92.37 132.63,80.53 "/>
  <polygon class="fil1" points="352.89,272.37 362.37,274.74 369.47,286.58 376.58,322.1 374.21,357.63 362.37,405 362.37,423.95 369.47,447.63 357.63,452.37 350.52,442.89 345.79,428.68 345.79,402.63 357.63,355.26 360,326.84 355.26,298.42 350.52,284.21 "/>
  <polygon class="fil1" points="118.42,272.37 127.9,274.74 137.37,300.79 139.74,312.63 139.74,348.16 127.9,397.89 127.9,431.05 132.63,440.53 130.26,450 120.79,450 113.69,440.53 108.95,421.58 111.32,395.53 123.16,345.79 123.16,315 116.05,288.95 113.69,277.11 "/>
  <polygon class="fil1" points="236.84,272.37 246.32,277.11 255.79,303.16 258.16,317.37 258.16,345.79 243.95,409.74 246.32,431.05 251.05,447.63 241.58,452.37 234.48,445.26 227.37,423.95 227.37,405 239.21,357.63 241.58,341.05 241.58,319.74 234.48,288.95 232.11,277.11 "/>
  <polygon class="fil1" points="471.31,272.37 480.79,274.74 490.26,296.05 492.63,307.89 492.63,355.26 480.79,402.63 480.79,428.68 485.52,440.53 485.52,450 476.05,452.37 466.58,438.16 464.21,431.05 464.21,397.89 476.05,352.89 476.05,310.26 468.95,286.58 468.95,274.74 "/>
  <polygon class="fil1" points="561.32,137.37 577.89,142.11 585,151.58 585,170.53 573.16,182.37 561.31,184.74 547.1,177.63 540,165.79 542.37,151.58 551.84,139.74 "/>
  <polygon class="fil1" points="73.42,111.32 82.9,113.69 85.26,116.05 85.26,156.32 78.16,163.42 71.05,161.05 68.68,153.95 68.68,116.05 "/>
  <polygon class="fil1" points="40.26,111.32 52.11,113.69 52.11,158.68 40.26,161.05 37.89,158.68 37.89,113.69 "/>
  <polygon class="fil0" points="558.95,153.95 570.79,156.32 568.42,168.16 556.58,165.79 554.21,161.05 "/>
 </g>
</svg>
