<?xml version="1.0" encoding="UTF-8"?>
<!DOCTYPE svg PUBLIC "-//W3C//DTD SVG 1.1//EN" "http://www.w3.org/Graphics/SVG/1.1/DTD/svg11.dtd">
<!-- Creator: CorelDRAW -->
<svg xmlns="http://www.w3.org/2000/svg" xml:space="preserve" width="152.174mm" height="90.0475mm" version="1.1" style="shape-rendering:geometricPrecision; text-rendering:geometricPrecision; image-rendering:optimizeQuality; fill-rule:evenodd; clip-rule:evenodd"
viewBox="0 0 20958.21 12401.83"
 xmlns:xlink="http://www.w3.org/1999/xlink"
 xmlns:xodm="http://www.corel.com/coreldraw/odm/2003">
 <defs>
  <style type="text/css">
   <![CDATA[
    .fil0 {fill:#e1cd9b;fill-rule:nonzero}
   ]]>
  </style>
 </defs>
 <g id="Capa_x0020_1">
  <metadata id="CorelCorpID_0Corel-Layer"/>
  <path class="fil0" d="M9689.81 1988.93c0,66.85 -29.25,121.17 -87.76,162.96 -58.49,41.79 -129.53,62.68 -213.09,62.68 -178.29,0 -378.86,-27.86 -601.69,-83.57 -222.85,-55.71 -423.42,-105.86 -601.69,-150.42 -150.42,-33.43 -310.6,-68.24 -480.52,-104.45 -169.93,-36.22 -352.38,-68.26 -547.38,-96.1 -406.7,161.57 -823.14,370.48 -1249.35,626.76 -426.21,256.28 -839.86,559.91 -1240.99,910.9 -284.14,245.12 -552.95,505.59 -806.44,781.36 -253.5,275.78 -474.96,548.77 -664.37,818.97 -189.43,270.22 -339.85,527.89 -451.27,773.01 -111.42,245.14 -167.14,459.63 -167.14,643.48 0,186.63 65.46,344.02 196.4,473.56 130.92,129.53 335.66,189.43 614.23,178.29 284.13,-11.14 578.01,-75.21 881.65,-192.21 303.63,-117 583.58,-256.28 839.86,-417.85 194.99,-128.14 384.42,-261.84 568.27,-401.13 183.85,-139.28 356.56,-273 518.12,-401.14 22.28,-16.71 45.96,-37.6 71.02,-62.67 25.08,-25.08 48.75,-26.47 71.04,-4.19 22.28,22.28 22.28,48.75 0,79.4 -22.28,30.63 -47.35,57.1 -75.21,79.38 -161.57,133.7 -335.66,274.38 -522.31,422.02 -186.63,147.64 -377.45,279.95 -572.44,396.95 -278.56,178.29 -566.86,324.52 -864.93,438.74 -298.07,115.61 -608.66,176.88 -931.79,188.02 -272.99,11.14 -513.95,-40.38 -722.87,-154.6 -208.92,-114.22 -344.02,-293.88 -405.31,-539.02 -38.99,16.71 -77.99,27.85 -117,33.43 -38.99,5.58 -75.21,8.36 -108.64,8.36 -451.27,16.71 -799.47,-110.03 -1044.61,-380.25 -245.14,-270.2 -364.92,-650.44 -359.34,-1140.71 0,-261.84 41.79,-522.3 125.34,-781.36 83.57,-259.06 197.79,-505.59 342.63,-739.59 144.86,-234 314.79,-452.66 509.78,-656.01 194.99,-203.35 403.91,-380.23 626.76,-530.66 451.27,-300.85 933.19,-520.92 1445.73,-660.2 512.56,-139.28 1069.69,-208.92 1671.38,-208.92 306.41,0 608.65,22.28 906.72,66.85 298.07,44.57 586.38,100.28 864.93,167.14 501.42,-156 997.26,-234 1487.53,-234 150.42,0 292.49,15.32 426.19,45.96 133.72,30.64 249.32,72.43 346.82,125.36 97.5,52.93 175.49,118.39 233.98,196.38 58.51,77.99 87.76,164.35 87.76,259.06zm-91.93 -8.36c0,-83.56 -26.46,-157.38 -79.38,-221.45 -52.93,-64.07 -125.36,-117 -217.29,-158.78 -91.92,-41.79 -199.16,-73.82 -321.73,-96.1 -122.58,-22.28 -250.72,-33.43 -384.42,-33.43 -172.71,0 -355.17,16.71 -547.38,50.15 -192.21,33.43 -391.39,86.35 -597.52,158.77 139.28,33.43 273,68.26 401.14,104.46 128.14,36.21 250.7,71.04 367.7,104.46 178.27,44.57 373.28,94.71 584.97,150.42 211.71,55.71 401.13,83.57 568.27,83.57 150.42,0 225.64,-47.36 225.64,-142.08zm-2874.76 -259.06c-417.85,-50.13 -878.87,-75.21 -1385.85,-75.21 -550.16,0 -1066.89,55.71 -1547.41,167.14 -481.91,111.42 -952.69,311.99 -1415.1,601.69 -238.17,150.42 -456.84,321.74 -654.61,513.95 -197.79,192.2 -367.71,396.94 -508.39,614.23 -142.06,217.28 -252.09,442.91 -330.09,676.91 -78.01,233.98 -117,467.98 -117,701.97 -5.58,462.41 104.45,816.19 328.7,1061.33 224.24,245.12 534.84,367.7 934.58,367.7 27.86,0 59.9,-2.8 94.71,-8.36 36.21,-5.58 73.82,-13.92 112.81,-25.07 -16.71,-250.72 26.47,-512.56 129.54,-785.54 103.06,-273 240.95,-541.81 413.66,-806.44 172.71,-264.64 370.48,-518.14 593.33,-760.48 222.85,-242.36 445.71,-458.24 668.55,-647.65 417.85,-350.99 852.41,-661.59 1303.68,-931.79 451.26,-270.2 910.89,-491.67 1378.88,-664.37zm9593.68 -117c-33.43,194.99 -98.89,348.21 -196.38,459.63 -97.5,111.42 -185.24,186.63 -263.25,225.64 -50.13,27.86 -80.78,27.86 -91.92,0 -5.58,-11.14 -5.58,-19.5 0,-25.07 5.56,-5.58 22.28,-22.28 50.15,-50.15 61.27,-50.15 122.56,-123.95 183.85,-221.46 61.27,-97.5 103.06,-201.95 125.34,-313.38 33.43,-200.56 25.08,-394.16 -25.07,-580.8 -50.15,-186.63 -150.42,-350.98 -300.85,-493.04 -150.42,-142.08 -352.38,-254.89 -605.87,-338.46 -253.5,-83.57 -561.31,-125.36 -923.44,-125.36 -323.13,0 -647.65,48.75 -973.58,146.25 -325.91,97.5 -650.44,228.42 -973.57,392.78 -323.13,164.35 -640.7,352.37 -952.69,564.08 -311.99,211.71 -612.84,434.55 -902.54,668.55 -501.4,395.56 -1025.1,856.58 -1571.09,1383.07 -545.98,526.48 -1089.17,1068.28 -1629.58,1625.41 -167.14,172.71 -331.49,348.2 -493.06,526.48 -161.57,178.27 -300.85,341.24 -417.85,488.87 -117,147.64 -200.57,273 -250.7,376.06 -50.15,103.07 -50.15,168.53 0,196.38 61.27,33.44 147.63,20.89 259.06,-37.6 111.42,-58.49 261.84,-151.81 451.27,-279.95 122.56,-89.14 264.63,-201.96 426.19,-338.46 161.57,-136.49 328.71,-277.16 501.42,-422.02 16.72,-11.14 34.82,-23.67 54.32,-37.6 19.5,-13.94 40.39,-9.75 62.68,12.53 16.71,16.71 19.5,33.43 8.36,50.15 -11.14,16.71 -25.08,30.63 -41.79,41.77 -55.71,55.72 -123.97,118.39 -204.74,188.04 -80.79,69.63 -165.75,142.06 -254.89,217.28 -89.14,75.21 -179.68,147.64 -271.59,217.28 -91.93,69.65 -176.89,132.33 -254.89,188.04 -167.13,117 -323.13,213.1 -467.98,288.31 -144.86,75.21 -273,98.89 -384.42,71.02 -122.58,-33.43 -192.21,-115.61 -208.93,-246.53 -16.71,-130.92 39,-299.46 167.14,-505.59 94.71,-144.85 235.39,-328.7 422.02,-551.55 186.65,-222.85 413.67,-470.77 681.08,-743.76 139.28,-144.86 317.57,-330.1 534.84,-555.74 217.28,-225.64 466.6,-473.56 747.95,-743.76 281.35,-270.2 589.16,-550.16 923.44,-839.86 334.27,-289.71 690.83,-568.27 1069.67,-835.69 306.43,-217.28 621.2,-426.19 944.33,-626.76 323.13,-200.57 651.83,-376.06 986.11,-526.48 334.27,-150.42 674.11,-270.2 1019.53,-359.34 345.42,-89.15 693.63,-133.72 1044.61,-133.72 401.14,0 738.19,48.75 1011.18,146.25 273,97.5 488.88,222.85 647.67,376.06 158.77,153.21 263.23,324.52 313.38,513.95 50.13,189.41 58.49,378.84 25.07,568.26zm-6150.64 1880.3c0,61.29 -23.69,115.61 -69.65,162.96 -47.35,47.36 -100.28,71.04 -160.17,71.04 -59.88,0 -112.81,-23.67 -160.17,-71.04 -45.96,-47.35 -69.63,-101.67 -69.63,-162.96 0,-61.29 23.67,-115.61 69.63,-162.96 47.36,-47.35 100.29,-71.04 160.17,-71.04 59.9,0 112.82,23.69 160.17,71.04 45.96,47.35 69.65,101.67 69.65,162.96zm-635.13 693.63c-178.27,161.57 -355.17,325.91 -530.66,493.06 -175.49,167.13 -341.24,328.7 -497.23,484.7 -156,155.99 -295.28,299.44 -417.85,430.38 -122.56,130.92 -220.06,238.17 -292.49,321.74 -128.14,161.57 -224.24,299.44 -288.31,413.66 -64.07,114.22 -65.46,185.24 -4.17,213.1 33.43,16.71 83.56,13.92 150.42,-8.36 66.85,-22.28 137.88,-54.32 213.09,-96.1 75.21,-41.79 151.83,-87.74 229.82,-137.89 77.99,-50.13 147.64,-97.5 208.92,-142.06 72.43,-50.15 150.42,-108.64 234,-175.49 83.57,-66.85 165.74,-133.72 246.53,-200.57 80.78,-66.85 155.99,-130.92 225.64,-192.21 69.63,-61.27 126.75,-111.42 171.32,-150.42 16.71,-11.14 34.82,-23.67 54.32,-37.6 19.5,-13.94 40.39,-9.75 62.68,12.53 16.71,16.71 19.5,33.43 8.36,50.15 -11.16,16.71 -25.08,30.63 -41.79,41.77 -55.72,55.72 -123.97,119.79 -204.74,192.21 -80.79,72.43 -164.36,143.47 -250.72,213.1 -86.35,69.65 -168.52,135.11 -246.53,196.38 -77.99,61.29 -139.28,108.64 -183.85,142.08 -139.28,100.28 -292.49,196.38 -459.62,288.3 -167.14,91.93 -311.99,137.89 -434.56,137.89 -139.28,0 -231.2,-37.6 -275.78,-112.81 -44.57,-75.21 -50.13,-172.71 -16.71,-292.49 33.43,-119.79 101.67,-257.67 204.74,-413.67 103.07,-155.99 232.6,-317.55 388.59,-484.7 83.57,-83.57 181.07,-179.68 292.49,-288.31 111.43,-108.64 227.03,-215.88 346.82,-321.74 119.78,-105.86 236.78,-203.35 350.98,-292.49 114.22,-89.14 213.1,-155.99 296.67,-200.57 61.27,-33.43 139.28,-57.1 234,-71.02 94.7,-13.92 169.91,-18.11 225.62,-12.53zm1654.66 467.98c-38.99,77.99 -84.96,153.21 -137.89,225.64 -52.93,72.43 -118.39,139.28 -196.38,200.57 -38.99,33.43 -91.92,66.85 -158.78,100.28 -66.85,33.43 -122.56,25.07 -167.13,-25.07 -22.28,-27.86 -27.86,-58.51 -16.72,-91.93 11.14,-33.43 32.03,-66.85 62.68,-100.28 30.64,-33.43 65.46,-64.07 104.46,-91.93 38.99,-27.85 75.21,-52.93 108.64,-75.21 178.29,-111.42 291.1,-217.28 338.45,-317.55 47.36,-100.28 40.39,-169.93 -20.89,-208.93 -38.99,-27.85 -112.81,-11.14 -221.45,50.15 -108.64,61.29 -229.81,144.86 -363.53,250.7 -133.7,105.86 -272.99,222.85 -417.85,350.99 -144.85,128.14 -270.2,245.14 -376.06,350.99 -367.7,350.98 -604.48,635.12 -710.33,852.4 -105.86,217.28 -111.42,353.78 -16.71,409.49 50.13,27.86 117,33.43 200.56,16.72 83.57,-16.72 169.93,-43.18 259.06,-79.4 89.15,-36.21 176.89,-79.38 263.25,-129.53 86.35,-50.15 154.6,-91.92 204.74,-125.36 77.99,-50.13 162.96,-111.42 254.89,-183.85 91.92,-72.42 183.85,-144.85 275.77,-217.28 91.93,-72.43 178.29,-144.85 259.06,-217.28 80.79,-72.43 151.81,-133.7 213.1,-183.85 44.57,-33.43 77.99,-39 100.28,-16.72 33.44,22.28 27.86,50.15 -16.71,83.57 -111.42,111.42 -249.31,234 -413.67,367.7 -164.35,133.72 -318.94,256.28 -463.8,367.7 -144.85,105.86 -302.24,203.35 -472.16,292.5 -169.91,89.14 -346.81,144.85 -530.66,167.13 -161.57,16.72 -288.31,-13.92 -380.23,-91.92 -91.93,-78.01 -135.11,-181.07 -129.53,-309.21 0,-189.43 65.46,-387.2 196.38,-593.33 130.92,-206.13 302.24,-406.7 513.95,-601.69 161.57,-150.42 335.66,-289.71 522.3,-417.85 186.65,-128.14 364.92,-234 534.84,-317.57 169.93,-83.56 324.52,-140.67 463.8,-171.3 139.28,-30.64 245.14,-26.47 317.57,12.53 44.57,27.85 72.42,61.27 83.56,100.28 11.14,39 13.94,82.18 8.36,129.53 -5.56,47.35 -16.71,91.93 -33.43,133.7 -16.71,41.79 -30.64,76.62 -41.79,104.46zm9752.46 -3041.9c-33.43,194.99 -98.89,348.21 -196.38,459.63 -97.5,111.42 -185.24,186.63 -263.25,225.64 -50.13,27.86 -80.78,27.86 -91.92,0 -5.58,-11.14 -5.58,-19.5 0,-25.07 5.56,-5.58 22.28,-22.28 50.15,-50.15 61.27,-50.15 122.56,-123.95 183.85,-221.46 61.27,-97.5 103.06,-201.95 125.34,-313.38 33.43,-200.56 25.08,-394.16 -25.07,-580.8 -50.15,-186.63 -150.42,-350.98 -300.85,-493.04 -150.42,-142.08 -352.38,-254.89 -605.87,-338.46 -253.5,-83.57 -561.31,-125.36 -923.44,-125.36 -323.13,0 -647.65,48.75 -973.58,146.25 -325.91,97.5 -650.44,228.42 -973.57,392.78 -323.13,164.35 -640.7,352.37 -952.69,564.08 -311.99,211.71 -612.84,434.55 -902.54,668.55 -250.7,194.99 -537.62,434.56 -860.76,718.69 -323.13,284.13 -656.01,587.77 -998.65,910.9 -342.62,323.13 -682.47,657.4 -1019.53,1002.82 -337.07,345.42 -639.31,679.69 -906.73,1002.82 111.43,-94.71 249.31,-206.13 413.67,-334.27 164.35,-128.14 363.53,-272.99 597.51,-434.55 111.43,-72.43 231.21,-150.42 359.35,-234 128.14,-83.57 257.67,-157.39 388.59,-221.46 130.92,-64.07 259.06,-115.59 384.42,-154.6 125.34,-39 238.17,-52.93 338.45,-41.79 100.28,11.14 167.14,47.35 200.57,108.64 33.43,61.29 44.57,122.58 33.43,183.85 -22.28,77.99 -64.07,128.14 -125.36,150.42 -16.71,0 -38.99,-12.53 -66.85,-37.6 -27.86,-25.08 -58.51,-51.54 -91.93,-79.4 -61.27,-50.13 -130.92,-75.21 -208.92,-75.21 -89.14,-5.56 -178.29,4.19 -267.42,29.25 -89.14,25.07 -175.49,57.1 -259.06,96.1 -83.57,39 -160.17,79.38 -229.81,121.17 -69.65,41.79 -126.75,79.4 -171.32,112.82 -55.71,61.27 -107.25,133.7 -154.61,217.28 -47.35,83.57 -90.53,168.53 -129.53,254.89 -38.99,86.35 -73.82,168.52 -104.45,246.53 -30.64,77.99 -54.32,142.06 -71.04,192.2 -61.29,183.86 -104.46,350.99 -129.53,501.42 -25.07,150.42 -4.17,236.78 62.68,259.06 33.43,11.14 66.85,13.92 100.28,8.36 33.43,-5.58 75.21,-20.89 125.36,-45.96 50.13,-25.08 110.03,-62.68 179.66,-112.82 69.65,-50.15 160.17,-114.2 271.61,-192.21 50.13,-38.99 112.81,-90.53 188.02,-154.6 75.21,-64.07 151.81,-129.53 229.82,-196.38 77.99,-66.87 151.81,-130.94 221.45,-192.21 69.65,-61.29 121.17,-105.86 154.61,-133.72 33.43,-33.43 64.06,-36.21 91.92,-8.35 27.86,27.85 19.5,64.07 -25.07,108.64 -61.29,50.13 -128.14,108.64 -200.57,175.49 -72.43,66.85 -146.25,130.92 -221.46,192.21 -75.2,61.29 -147.63,121.17 -217.28,179.68 -69.63,58.49 -129.53,104.45 -179.66,137.88 -234,178.29 -426.21,309.21 -576.63,392.78 -150.42,83.57 -281.35,117 -392.78,100.28 -72.42,-11.14 -123.95,-40.39 -154.6,-87.74 -30.64,-47.35 -47.35,-107.25 -50.15,-179.68 -2.78,-72.42 4.19,-151.81 20.89,-238.17 16.72,-86.35 39,-174.1 66.87,-263.23 33.43,-122.58 83.56,-260.45 150.42,-413.67 66.85,-153.21 139.28,-291.1 217.28,-413.66 -55.71,44.57 -118.39,90.53 -188.04,137.89 -69.63,47.35 -143.45,101.67 -221.45,162.96 -139.28,111.42 -273,221.45 -401.14,330.09 -128.14,108.65 -222.84,193.6 -284.13,254.89 -61.29,77.99 -150.42,189.43 -267.42,334.27 -117,144.86 -217.28,284.14 -300.85,417.85 -44.57,0 -79.38,-36.21 -104.46,-108.64 -25.07,-72.43 -23.67,-144.85 4.19,-217.28 38.99,-94.71 146.24,-275.78 321.74,-543.2 175.49,-267.42 422.02,-576.61 739.59,-927.61 350.98,-384.42 678.3,-729.83 981.93,-1036.25 303.63,-306.43 597.51,-589.16 881.65,-848.22 284.13,-259.06 565.47,-500.03 844.04,-722.87 278.56,-222.85 568.27,-442.92 869.12,-660.2 234,-172.71 508.37,-355.17 823.16,-547.38 314.77,-192.21 649.04,-370.48 1002.82,-534.83 353.78,-164.36 715.9,-299.46 1086.39,-405.31 370.48,-105.86 731.23,-158.78 1082.2,-158.78 401.14,0 738.19,48.75 1011.18,146.25 273,97.5 488.88,222.85 647.67,376.06 158.77,153.21 263.23,324.52 313.38,513.95 50.13,189.41 58.49,378.84 25.07,568.26z"/>
  <path class="fil0" d="M4160.16 7674.36l0 4727.47 -438.97 0 0 -4727.47 438.97 0zm-3201.17 0l0 4727.47 -438.99 0 0 -4727.47 438.99 0zm2822.97 2289.45l0 202.61 -2890.51 0 0 -202.61 2890.51 0zm-3241.68 1945.01l0 493 -540.28 0 0 -67.54c0,0 14.63,0 43.89,0 29.27,0 43.89,0 43.89,0 117.07,0 217.25,-41.65 300.53,-124.93 83.3,-83.3 127.2,-183.48 131.69,-300.53l20.27 0zm0 -3741.45l-20.27 0c-4.49,-117.07 -48.4,-217.25 -131.69,-300.53 -83.28,-83.3 -183.46,-124.94 -300.53,-124.94 0,0 -14.63,0 -43.89,0 -29.27,0 -43.89,0 -43.89,0l0 -67.54 540.28 0 0 493.02zm398.45 3741.45l20.26 0c4.5,117.05 48.4,217.23 131.69,300.53 83.3,83.28 183.46,124.93 300.53,124.93 0,0 13.51,0 40.52,0 27.02,0 42.78,0 47.28,0l0 67.54 -540.28 0 0 -493zm0 -3741.45l0 -493.02 540.28 0 0 67.54c-4.5,0 -20.26,0 -47.28,0 -27.01,0 -40.52,0 -40.52,0 -117.07,0 -217.23,41.65 -300.53,124.94 -83.3,83.28 -127.19,183.46 -131.69,300.53l-20.26 0zm2802.71 3741.45l0 493 -540.28 0 0 -67.54c4.5,0 20.26,0 47.27,0 27.02,0 40.52,0 40.52,0 117.07,0 218.36,-41.65 303.92,-124.93 85.54,-83.3 128.32,-183.48 128.32,-300.53l20.26 0zm0 -3741.45l-20.26 0c0,-117.07 -42.78,-217.25 -128.32,-300.53 -85.56,-83.3 -186.85,-124.94 -303.92,-124.94 0,0 -13.5,0 -40.52,0 -27.01,0 -42.76,0 -47.27,0l0 -67.54 540.28 0 0 493.02zm398.45 3741.45l20.26 0c4.5,117.05 48.4,217.23 131.69,300.53 83.3,83.28 183.48,124.93 300.53,124.93 0,0 14.64,0 43.89,0 29.27,0 43.91,0 43.91,0l0 67.54 -540.28 0 0 -493zm0 -3741.45l0 -493.02 540.28 0 0 67.54c0,0 -14.64,0 -43.91,0 -29.25,0 -43.89,0 -43.89,0 -117.05,0 -217.23,41.65 -300.53,124.94 -83.3,83.28 -127.19,183.46 -131.69,300.53l-20.26 0zm2309.7 -493.02l0 4727.47 -438.99 0 0 -4727.47 438.99 0zm1823.44 4518.11l0 209.36 -1843.7 0 0 -209.36 1843.7 0zm-290.39 -2221.91l0 202.61 -1553.31 0 0 -202.61 1553.31 0zm290.39 -2296.2l0 209.36 -1843.7 0 0 -209.36 1843.7 0zm411.96 3633.4l-391.7 1094.06 -1121.07 0 243.13 -209.36c238.62,0 433.34,-37.14 584.18,-111.43 150.82,-74.29 273.51,-178.97 368.06,-314.04 94.55,-135.07 177.84,-288.15 249.89,-459.23l67.53 0zm-702.36 -1148.11l0 445.73 -67.54 0 0 -101.3c0,-90.06 -31.51,-167.72 -94.55,-233 -63.04,-65.28 -139.57,-97.92 -229.62,-97.92l0 -13.51 391.7 0zm0 -621.32l0 445.73 -391.7 0 0 -13.51c90.04,-4.5 166.58,-39.39 229.62,-104.69 63.04,-65.28 94.55,-142.95 94.55,-232.99l0 -94.55 67.54 0zm290.39 -1674.88l0 540.28 -67.53 0 0 -121.56c0,-108.06 -38.27,-201.48 -114.81,-280.27 -76.55,-78.79 -171.1,-120.44 -283.66,-124.94l0 -13.51 465.99 0zm0 -310.65l0 195.85 -823.93 -74.29c99.05,0 203.74,-6.75 314.04,-20.26 110.3,-13.5 212.74,-29.27 307.29,-47.27 94.55,-18.01 162.08,-36.03 202.59,-54.03zm-2242.16 4356.02l0 493 -540.28 0 0 -67.54c0,0 14.63,0 43.89,0 29.27,0 43.89,0 43.89,0 117.07,0 217.25,-41.65 300.53,-124.93 83.3,-83.3 127.2,-183.48 131.69,-300.53l20.27 0zm0 -3741.45l-20.27 0c0,-117.07 -42.76,-217.25 -128.3,-300.53 -85.56,-83.3 -186.85,-124.94 -303.92,-124.94 0,0 -13.5,0 -40.52,0 -27.01,0 -40.52,0 -40.52,0l-6.75 -67.54 540.28 0 0 493.02zm4160.16 -493.02l952.25 0c202.61,0 386.07,29.27 550.42,87.8 164.33,58.53 302.78,142.95 415.34,253.26 112.55,110.3 199.22,243.13 260.01,398.45 60.78,155.33 91.17,332.04 91.17,530.15 0,216.12 -50.66,423.22 -151.97,621.32 -101.3,198.1 -238.62,359.06 -411.96,482.88 -173.34,123.82 -368.06,185.72 -584.18,185.72 76.55,31.51 159.83,95.68 249.89,192.47 90.04,96.81 168.84,190.23 236.36,280.27 0,0 30.4,43.91 91.17,131.69 60.78,87.8 137.33,194.73 229.62,320.8 92.3,126.06 185.72,249.88 280.27,371.43 94.55,121.57 175.6,218.36 243.13,290.41 90.04,99.05 180.1,186.85 270.15,263.39 90.04,76.53 187.97,137.33 293.77,182.35 105.81,45.02 224,67.53 354.56,67.53l0 67.54 -371.43 0c-207.11,0 -386.09,-31.51 -536.91,-94.55 -150.84,-63.04 -278.03,-140.7 -381.58,-233 -103.54,-92.29 -191.34,-181.22 -263.39,-266.76 -13.5,-18 -50.64,-69.79 -111.43,-155.33 -60.78,-85.54 -132.81,-187.97 -216.1,-307.28 -83.3,-119.33 -165.46,-237.51 -246.5,-354.56 -81.05,-117.07 -150.84,-217.25 -209.37,-300.54 -58.52,-83.28 -92.29,-131.69 -101.3,-145.19 -85.54,-112.56 -180.09,-216.12 -283.65,-310.67 -103.56,-94.55 -216.12,-141.82 -337.68,-141.82l0 -67.54c0,0 34.89,1.13 104.67,3.37 69.79,2.26 154.21,1.13 253.26,-3.37 117.07,-4.5 245.37,-22.52 384.96,-54.03 139.57,-31.51 270.13,-96.79 391.69,-195.85 121.57,-99.05 213.87,-249.89 276.9,-452.5 13.51,-49.53 24.76,-111.43 33.77,-185.72 9.01,-74.29 11.25,-147.45 6.75,-219.48 -4.49,-306.16 -82.17,-550.42 -232.99,-732.75 -150.82,-182.35 -352.32,-280.27 -604.44,-293.78 -126.07,-9.01 -255.51,-12.38 -388.33,-10.14 -132.82,2.26 -244.26,3.37 -334.3,3.37 -90.04,0 -135.07,0 -135.07,0 0,-4.49 -5.63,-23.63 -16.89,-57.4 -11.25,-33.76 -22.52,-67.53 -33.77,-101.3 -11.25,-33.77 -16.89,-50.66 -16.89,-50.66zm87.8 0l0 4727.47 -438.99 0 0 -4727.47 438.99 0zm-418.71 4234.46l0 493 -540.28 0 0 -67.54c0,0 14.63,0 43.89,0 29.27,0 43.89,0 43.89,0 117.07,0 217.25,-41.65 300.53,-124.93 83.3,-83.3 127.2,-183.48 131.69,-300.53l20.27 0zm0 -3741.45l-20.27 0c-4.49,-117.07 -48.4,-217.25 -131.69,-300.53 -83.28,-83.3 -183.46,-124.94 -300.53,-124.94 0,0 -14.63,0 -43.89,0 -29.27,0 -43.89,0 -43.89,0l0 -67.54 540.28 0 0 493.02zm398.45 3741.45l20.26 0c0,117.05 42.78,217.23 128.32,300.53 85.54,83.28 186.84,124.93 303.9,124.93 0,0 13.51,0 40.52,0 27.02,0 40.52,0 40.52,0l0 67.54 -533.52 0 0 -493zm4389.79 -4234.46l0 4727.47 -438.99 0 0 -4727.47 438.99 0zm1823.44 4518.11l0 209.36 -1843.7 0 0 -209.36 1843.7 0zm-290.39 -2221.91l0 202.61 -1553.31 0 0 -202.61 1553.31 0zm290.39 -2296.2l0 209.36 -1843.7 0 0 -209.36 1843.7 0zm411.96 3633.4l-391.7 1094.06 -1121.07 0 243.13 -209.36c238.62,0 433.34,-37.14 584.18,-111.43 150.82,-74.29 273.51,-178.97 368.06,-314.04 94.55,-135.07 177.84,-288.15 249.89,-459.23l67.53 0zm-702.36 -1148.11l0 445.73 -67.54 0 0 -101.3c0,-90.06 -31.51,-167.72 -94.55,-233 -63.04,-65.28 -139.57,-97.92 -229.62,-97.92l0 -13.51 391.7 0zm0 -621.32l0 445.73 -391.7 0 0 -13.51c90.04,-4.5 166.58,-39.39 229.62,-104.69 63.04,-65.28 94.55,-142.95 94.55,-232.99l0 -94.55 67.54 0zm290.39 -1674.88l0 540.28 -67.53 0 0 -121.56c0,-108.06 -38.27,-201.48 -114.81,-280.27 -76.55,-78.79 -171.1,-120.44 -283.66,-124.94l0 -13.51 465.99 0zm0 -310.65l0 195.85 -823.93 -74.29c99.05,0 203.74,-6.75 314.04,-20.26 110.3,-13.5 212.74,-29.27 307.29,-47.27 94.55,-18.01 162.08,-36.03 202.59,-54.03zm-2242.16 4356.02l0 493 -540.28 0 0 -67.54c0,0 14.63,0 43.89,0 29.27,0 43.89,0 43.89,0 117.07,0 217.25,-41.65 300.53,-124.93 83.3,-83.3 127.2,-183.48 131.69,-300.53l20.27 0zm0 -3741.45l-20.27 0c0,-117.07 -42.76,-217.25 -128.3,-300.53 -85.56,-83.3 -186.85,-124.94 -303.92,-124.94 0,0 -13.5,0 -40.52,0 -27.01,0 -40.52,0 -40.52,0l-6.75 -67.54 540.28 0 0 493.02z"/>
 </g>
</svg>
