<?xml version="1.0" encoding="UTF-8"?>
<!DOCTYPE svg PUBLIC "-//W3C//DTD SVG 1.1//EN" "http://www.w3.org/Graphics/SVG/1.1/DTD/svg11.dtd">
<!-- Creator: CorelDRAW -->
<svg xmlns="http://www.w3.org/2000/svg" xml:space="preserve" width="205.331mm" height="74.0684mm" version="1.1" style="shape-rendering:geometricPrecision; text-rendering:geometricPrecision; image-rendering:optimizeQuality; fill-rule:evenodd; clip-rule:evenodd"
viewBox="0 0 24082.94 8687.38"
 xmlns:xlink="http://www.w3.org/1999/xlink"
 xmlns:xodm="http://www.corel.com/coreldraw/odm/2003">
 <defs>
  <style type="text/css">
   <![CDATA[
    .fil0 {fill:#E3D6B5;fill-rule:nonzero}
   ]]>
  </style>
 </defs>
 <g id="Capa_x0020_1">
  <metadata id="CorelCorpID_0Corel-Layer"/>
  <path class="fil0" d="M9059.4 1456.48c-4.41,8.83 -8.82,17.65 -13.24,26.48 -4.41,8.82 -24.27,6.62 -59.58,-6.63 -57.37,-22.06 -110.33,-35.3 -158.88,-39.71 -48.56,-4.42 -94.9,-4.42 -139.03,0 -110.33,13.23 -238.33,58.48 -383.97,135.71 -145.65,77.23 -301.23,174.33 -466.74,291.29 -165.51,116.96 -333.22,249.37 -503.13,397.22 -169.93,147.85 -335.43,297.91 -496.53,450.18 -161.08,152.26 -312.26,302.32 -453.48,450.18 -141.24,147.85 -262.61,279.16 -364.12,393.91 -242.74,273.63 -442.45,523 -599.13,748.09 -156.67,225.09 -285.77,419.28 -387.29,582.58 -35.3,57.38 -69.51,116.96 -102.62,178.75 -33.1,61.79 -66.2,116.96 -99.3,165.51 -33.1,48.55 -65.11,88.27 -96,119.17 -30.89,30.89 -59.58,41.93 -86.05,33.1 -48.56,-13.24 -72.82,-55.16 -72.82,-125.78 0,-70.62 30.89,-169.93 92.68,-297.91 48.55,-101.51 120.27,-225.09 215.15,-370.74 94.9,-145.65 199.72,-300.12 314.46,-463.42 88.27,-180.95 130.2,-343.15 125.79,-486.6 -4.41,-143.43 -41.93,-272.53 -112.55,-387.29 -57.38,52.97 -111.44,103.72 -162.2,152.26 -50.75,48.56 -100.4,97.1 -148.96,145.65 -467.83,467.84 -897.05,847.4 -1287.64,1138.7 -390.59,291.29 -746.99,517.48 -1069.18,678.57 -322.18,161.1 -610.17,270.33 -863.95,327.7 -253.78,57.38 -475.55,86.07 -665.33,86.07 -128,0 -255.98,-13.24 -383.98,-39.73 -128,-26.48 -241.64,-76.13 -340.95,-148.96 -99.3,-72.82 -176.54,-171.02 -231.7,-294.61 -55.17,-123.58 -71.72,-282.47 -49.66,-476.66 13.24,-150.06 57.38,-304.53 132.41,-463.42 75.03,-158.88 172.13,-315.57 291.3,-470.03 119.17,-154.47 258.19,-302.32 417.08,-443.56 158.88,-141.23 331.01,-269.22 516.37,-383.98 132.41,-79.44 274.75,-151.16 427.01,-215.15 152.26,-63.99 306.74,-119.17 463.42,-165.51 156.69,-46.34 311.15,-86.07 463.42,-119.17 152.26,-33.1 296.81,-56.28 433.63,-69.52 -35.3,-26.48 -76.13,-77.23 -122.47,-152.26 -46.34,-75.03 -62.89,-165.51 -49.65,-271.43 22.06,-216.27 111.44,-404.94 268.12,-566.03 156.67,-161.1 351.97,-295.71 585.89,-403.84 233.92,-108.14 493.21,-189.78 777.88,-244.96 284.67,-55.16 566.03,-82.75 844.09,-82.75 322.18,0 620.09,13.24 893.74,39.71 273.63,26.48 526.31,61.8 758.02,105.94 231.7,44.12 447.97,91.58 648.78,142.33 200.82,50.75 393.9,100.41 579.28,148.96 30.89,8.83 72.82,20.96 125.78,36.41 52.97,15.46 109.24,32.01 168.83,49.66 59.58,17.65 120.27,36.41 182.06,56.28 61.79,19.86 116.96,38.61 165.51,56.26 52.97,13.24 79.44,30.89 79.44,52.97zm-615.68 -26.48c-154.47,13.24 -297.91,40.83 -430.32,82.76 -132.41,41.93 -282.47,95.99 -450.18,162.2 -450.18,180.95 -867.26,409.35 -1251.23,685.2 -383.98,275.84 -728.23,552.79 -1032.76,830.84 61.79,92.68 104.82,197.5 129.09,314.46 24.28,116.96 16.56,243.85 -23.16,380.67 88.27,-114.76 179.85,-226.19 274.74,-334.33 94.9,-108.13 186.48,-206.32 274.75,-294.59 472.24,-481.08 914.7,-880.5 1327.37,-1198.28 412.66,-317.77 806.57,-527.41 1181.72,-628.92zm158.88 -86.07c-35.32,-8.82 -73.93,-17.65 -115.86,-26.47 -41.93,-8.83 -87.17,-17.66 -135.71,-26.48 -185.37,-35.32 -370.74,-70.62 -556.11,-105.92 -185.36,-35.32 -389.49,-66.21 -612.38,-92.69 -222.88,-26.47 -474.44,-48.55 -754.71,-66.2 -280.26,-17.65 -605.76,-26.48 -976.5,-26.48 -278.04,0 -555,25.38 -830.84,76.13 -275.85,50.76 -525.22,123.59 -748.1,218.47 -222.88,94.89 -408.25,209.64 -556.1,344.25 -147.85,134.61 -230.6,287.98 -248.26,460.11 -8.82,114.76 12.14,201.92 62.9,261.51 50.75,59.58 93.78,98.19 129.09,115.85 35.32,-4.41 67.31,-7.72 96,-9.92 28.69,-2.22 58.48,-3.32 89.37,-3.32 383.98,-8.82 719.4,36.42 1006.28,135.73 286.89,99.3 514.18,235.01 681.89,407.14 344.25,-278.06 709.48,-539.55 1095.65,-784.51 386.18,-244.95 791.14,-444.66 1214.83,-599.13 220.68,-83.86 419.28,-148.96 595.83,-195.3 176.54,-46.34 364.11,-73.93 562.73,-82.76zm-3535.23 1721.28c-167.72,-163.3 -395.02,-286.88 -681.89,-370.74 -286.88,-83.86 -598.03,-119.17 -933.46,-105.92 -136.82,4.41 -289.08,25.38 -456.79,62.89 -167.72,37.52 -338.74,86.07 -513.08,145.65 -174.34,59.58 -345.36,127.99 -513.07,205.23 -167.71,77.23 -319.99,157.78 -456.8,241.64 -185.36,119.17 -359.7,244.95 -523,377.35 -163.3,132.41 -306.74,267.02 -430.32,403.84 -123.58,136.82 -223.99,274.75 -301.22,413.77 -77.23,139.02 -122.47,272.53 -135.71,400.53 -22.07,172.12 -9.93,313.36 36.41,423.69 46.34,110.35 111.45,197.5 195.3,261.51 83.86,63.99 180.96,109.23 291.3,135.71 110.33,26.48 222.88,39.73 337.64,39.73 242.74,0 493.21,-47.45 751.4,-142.34 258.19,-94.89 531.83,-233.92 820.91,-417.08 289.08,-183.16 596.93,-410.46 923.53,-681.89 326.6,-271.43 679.69,-583.69 1059.25,-936.77 83.86,-75.03 168.81,-151.16 254.88,-228.4 86.07,-77.23 177.65,-153.37 274.75,-228.4zm8930.77 -1794.11c-26.48,154.48 -78.34,275.85 -155.57,364.12 -77.23,88.27 -146.75,147.85 -208.54,178.75 -39.73,22.06 -63.99,22.06 -72.82,0 -4.41,-8.83 -4.41,-15.45 0,-19.86 4.41,-4.42 17.65,-17.66 39.73,-39.73 48.55,-39.73 97.09,-98.21 145.64,-175.44 48.56,-77.23 81.66,-159.99 99.31,-248.26 26.48,-158.88 19.86,-312.25 -19.86,-460.1 -39.73,-147.85 -119.17,-278.06 -238.33,-390.61 -119.17,-112.54 -279.16,-201.91 -479.97,-268.12 -200.82,-66.2 -444.66,-99.3 -731.55,-99.3 -255.98,0 -513.07,38.61 -771.25,115.86 -258.2,77.23 -515.28,180.95 -771.27,311.14 -255.98,130.2 -507.55,279.16 -754.72,446.87 -247.15,167.72 -485.48,344.25 -714.99,529.63 -198.6,154.47 -408.25,327.7 -628.92,519.69 -220.68,191.99 -446.87,393.9 -678.57,605.75 -231.72,211.86 -464.52,431.42 -698.44,658.73 -233.92,227.29 -459.01,455.69 -675.27,685.2 97.09,-70.62 214.05,-153.38 350.87,-248.26 136.82,-94.89 273.65,-179.85 410.46,-254.88 136.82,-75.03 263.7,-132.41 380.66,-172.13 116.96,-39.71 206.33,-41.93 268.12,-6.62 75.03,44.14 104.82,111.44 89.37,201.91 -15.45,90.48 -55.17,189.78 -119.17,297.91 -63.99,108.14 -141.23,215.17 -231.7,321.09 -90.48,105.92 -171.03,194.19 -241.65,264.81 -322.18,317.77 -623.4,545.06 -903.66,681.88 -280.26,136.83 -519.69,205.23 -718.3,205.23 -176.54,0 -282.47,-59.58 -317.78,-178.75 -22.06,-61.79 -16.55,-139.02 16.55,-231.7 33.11,-92.69 86.07,-195.31 158.89,-307.85 72.82,-112.55 162.2,-232.82 268.12,-360.8 105.92,-128 225.09,-260.4 357.5,-397.22 189.78,-194.19 400.53,-403.84 632.23,-628.92 231.72,-225.09 472.25,-449.07 721.62,-671.96 249.37,-222.88 497.62,-438.05 744.78,-645.47 247.15,-207.44 481.07,-390.61 701.75,-549.49 238.33,-172.13 485.48,-337.64 741.48,-496.53 255.98,-158.88 517.48,-297.91 784.5,-417.08 267.02,-119.17 537.35,-214.05 810.99,-284.67 273.63,-70.61 549.47,-105.92 827.53,-105.92 317.77,0 584.79,38.62 801.06,115.86 216.26,77.23 387.29,176.54 513.07,297.91 125.79,121.37 208.54,257.08 248.26,407.14 39.73,150.06 46.34,300.12 19.86,450.18zm-5997.99 2138.36c-26.48,-30.89 -83.86,-32 -172.13,-3.31 -88.26,28.69 -196.4,77.23 -324.39,145.64 -128,68.41 -271.44,156.69 -430.32,264.81 -158.89,108.13 -322.19,226.19 -489.9,354.19 -114.76,88.27 -219.58,178.75 -314.46,271.43 -94.89,92.68 -175.44,182.06 -241.64,268.12 -66.21,86.07 -114.76,164.4 -145.65,235.02 -30.89,70.62 -39.73,125.78 -26.48,165.51 8.83,35.3 24.28,57.38 46.34,66.2 22.07,8.83 48.55,13.24 79.45,13.24 141.23,0 308.94,-77.23 503.13,-231.7 194.19,-154.48 439.15,-370.74 734.86,-648.79 52.96,-48.55 130.19,-116.96 231.7,-205.22 101.51,-88.27 197.5,-178.75 287.98,-271.44 90.49,-92.68 164.4,-178.75 221.78,-258.19 57.38,-79.44 70.62,-134.61 39.73,-165.51zm1780.86 -105.92c101.51,52.96 111.45,180.95 29.79,383.98 -81.64,203.01 -263.7,445.76 -546.17,728.22 -145.65,145.65 -285.79,275.85 -420.4,390.61 -134.61,114.74 -261.49,209.64 -380.66,284.67 -119.17,75.03 -226.19,127.99 -321.09,158.88 -94.89,30.89 -173.22,39.73 -235.01,26.48 -101.51,-26.48 -167.72,-79.44 -198.62,-158.89 -30.89,-79.44 -32,-176.53 -3.31,-291.29 28.69,-114.76 84.96,-240.54 168.81,-377.35 83.86,-136.83 191.99,-273.65 324.4,-410.46 136.82,-136.82 282.47,-259.29 436.94,-367.43 154.48,-108.13 305.64,-195.3 453.5,-261.49 147.85,-66.21 282.47,-109.23 403.84,-129.1 121.37,-19.86 217.36,-12.14 287.98,23.18zm-39.71 79.44c-35.32,-26.48 -93.8,-24.28 -175.44,6.63 -81.66,30.89 -180.95,87.16 -297.91,168.81 -116.96,81.64 -246.06,184.26 -387.29,307.85 -141.24,123.58 -286.88,264.8 -436.94,423.69 -97.1,101.51 -186.48,199.71 -268.12,294.61 -81.66,94.89 -148.96,182.06 -201.92,261.49 -52.97,79.45 -84.96,148.96 -95.99,208.54 -11.04,59.58 5.51,102.62 49.65,129.1 39.73,22.06 99.31,14.34 178.75,-23.18 79.44,-37.51 174.34,-98.19 284.67,-182.06 110.33,-83.85 233.92,-187.57 370.74,-311.15 136.82,-123.58 280.26,-262.6 430.32,-417.08 66.2,-66.2 137.92,-143.43 215.15,-231.7 77.23,-88.27 145.65,-175.44 205.23,-261.51 59.58,-86.07 103.72,-163.3 132.41,-231.7 28.69,-68.41 27.59,-115.86 -3.31,-142.34zm2429.62 -86.07c-141.23,132.41 -280.25,264.81 -417.07,397.22 -136.83,132.41 -263.71,259.29 -380.67,380.67 -116.96,121.37 -221.78,233.91 -314.46,337.63 -92.68,103.72 -167.71,190.89 -225.09,261.51 -101.51,127.99 -182.06,236.13 -241.64,324.39 -59.58,88.27 -65.11,143.44 -16.56,165.52 26.48,13.23 65.11,8.82 115.86,-13.24 50.76,-22.07 105.92,-50.76 165.51,-86.07 59.58,-35.3 119.17,-73.93 178.75,-115.86 59.58,-41.93 109.24,-78.34 148.96,-109.23 105.92,-83.86 216.27,-176.54 331.02,-278.06 114.74,-101.51 218.46,-191.99 311.14,-271.43 8.83,-8.83 20.97,-17.65 36.42,-26.48 15.45,-8.82 32,-4.41 49.65,13.24 8.83,8.83 9.93,20.96 3.31,36.42 -6.62,15.45 -14.34,27.57 -23.16,36.41 -101.51,97.09 -215.17,197.5 -340.95,301.22 -125.78,103.72 -223.99,184.27 -294.61,241.64 -52.96,39.73 -110.33,82.76 -172.12,129.1 -61.79,46.34 -123.59,88.27 -185.37,125.78 -61.79,37.52 -121.37,68.41 -178.75,92.69 -57.38,24.27 -108.13,36.41 -152.26,36.41 -145.65,-8.82 -223.99,-68.4 -235.02,-178.75 -11.03,-110.33 29.79,-244.95 122.48,-403.84 -44.14,44.14 -87.17,82.76 -129.1,115.86 -41.93,33.1 -76.13,60.69 -102.62,82.75 -52.97,39.73 -110.33,81.66 -172.13,125.79 -61.79,44.14 -124.68,86.07 -188.67,125.78 -64,39.73 -126.89,71.72 -188.68,96 -61.79,24.27 -116.96,36.41 -165.51,36.41 -110.33,0 -179.85,-32 -208.54,-95.99 -28.69,-64 -25.38,-146.75 9.93,-248.26 26.47,-97.09 80.54,-205.23 162.2,-324.4 81.64,-119.17 182.06,-242.74 301.22,-370.74 66.2,-66.2 143.43,-139.02 231.7,-218.46 88.27,-79.45 178.75,-157.79 271.44,-235.02 92.68,-77.23 184.26,-147.85 274.74,-211.85 90.48,-64 168.81,-115.86 235.02,-155.58 26.47,-13.24 57.38,-25.37 92.68,-36.41 35.3,-11.04 72.82,-19.86 112.54,-26.48 39.73,-6.62 78.35,-11.04 115.86,-13.24 37.52,-2.21 67.31,-3.31 89.37,-3.31 -145.65,119.17 -290.18,242.74 -433.63,370.74 -143.43,127.99 -276.94,251.57 -400.53,370.74 -123.58,119.17 -235.01,230.6 -334.32,334.32 -99.31,103.72 -177.65,190.89 -235.02,261.51 -101.51,127.99 -180.95,236.13 -238.33,324.39 -57.38,88.27 -61.79,143.44 -13.24,165.52 26.48,13.23 65.11,9.92 115.86,-9.93 50.75,-19.86 107.03,-47.44 168.81,-82.76 61.79,-35.3 123.59,-75.03 185.37,-119.17 61.79,-44.14 116.96,-83.85 165.51,-119.17 39.73,-35.3 90.48,-80.54 152.26,-135.71 61.79,-55.16 123.58,-112.54 185.36,-172.12 61.8,-59.58 119.17,-115.86 172.13,-168.83 52.97,-52.96 92.68,-92.68 119.17,-119.17 66.2,-66.2 143.44,-142.33 231.72,-228.4 88.26,-86.07 178.75,-169.92 271.43,-251.57 92.68,-81.64 183.16,-157.78 271.43,-228.4 88.27,-70.62 165.51,-125.79 231.72,-165.51 35.3,-22.07 92.68,-39.73 172.12,-52.97 79.44,-13.24 141.24,-17.65 185.36,-13.24zm6765.93 -1251.23c-30.89,154.48 -83.85,275.85 -158.88,364.12 -75.03,88.27 -143.44,147.85 -205.23,178.75 -26.48,13.24 -44.14,18.75 -52.97,16.55 -8.82,-2.21 -15.45,-7.73 -19.86,-16.55 -4.41,-13.24 -5.51,-20.97 -3.31,-23.18 2.21,-2.21 16.55,-14.34 43.03,-36.41 48.55,-39.73 95.99,-98.21 142.33,-175.44 46.34,-77.23 78.34,-162.2 96,-254.88 30.89,-158.89 29.79,-311.15 -3.32,-456.8 -33.1,-145.64 -105.92,-273.63 -218.46,-383.97 -112.55,-110.35 -267.02,-197.51 -463.42,-261.51 -196.4,-63.99 -442.46,-93.78 -738.17,-89.37 -238.33,4.41 -486.58,46.34 -744.78,125.79 -258.19,79.44 -516.37,185.36 -774.57,317.77 -258.19,132.41 -515.27,283.57 -771.25,453.48 -255.99,169.93 -498.73,345.36 -728.23,526.32 -101.51,83.85 -211.85,175.43 -331.01,274.74 -119.17,99.31 -237.23,200.81 -354.19,304.53 -116.96,103.72 -228.41,203.03 -334.33,297.91 -105.92,94.9 -196.4,177.65 -271.43,248.26 48.55,0 126.89,-2.21 235.02,-6.62 108.13,-4.42 199.71,-2.22 274.74,6.62 8.83,0 18.77,2.21 29.79,6.62 11.04,4.42 12.14,17.66 3.32,39.73 -13.24,22.07 -37.52,33.1 -72.82,33.1 -26.48,0 -64,0 -112.55,0 -48.55,0 -100.41,1.1 -155.57,3.32 -55.17,2.21 -109.24,4.41 -162.2,6.62 -52.97,2.21 -99.31,5.51 -139.03,9.93 -61.79,61.79 -119.17,119.17 -172.12,172.12 -52.97,52.97 -114.76,116.96 -185.37,191.99 -344.25,357.5 -599.13,643.27 -764.64,857.33 -165.51,214.05 -204.12,347.56 -115.86,400.52 26.48,17.66 64,20.97 112.55,9.93 48.55,-11.04 102.62,-30.89 162.2,-59.58 59.58,-28.69 120.27,-63.99 182.06,-105.92 61.79,-41.93 119.17,-82.76 172.13,-122.47 39.71,-30.89 88.27,-69.52 145.64,-115.86 57.38,-46.34 119.17,-98.21 185.37,-155.57 66.2,-57.38 132.41,-114.76 198.6,-172.13 66.21,-57.38 125.79,-110.33 178.75,-158.89 13.24,-8.82 28.69,-17.65 46.34,-26.47 17.65,-8.83 33.1,-6.63 46.34,6.62 13.24,22.07 12.14,40.83 -3.31,56.28 -15.45,15.45 -29.79,32 -43.03,49.65 -39.71,39.73 -89.37,84.96 -148.96,135.71 -59.58,50.76 -122.47,103.72 -188.67,158.89 -66.21,55.17 -133.51,111.44 -201.92,168.81 -68.41,57.38 -133.51,108.13 -195.3,152.26 -145.65,110.35 -282.47,194.19 -410.46,251.57 -127.99,57.38 -240.54,68.41 -337.63,33.11 -105.92,-39.73 -159.99,-115.86 -162.2,-228.41 -2.21,-112.54 34.2,-232.81 109.23,-360.8 141.24,-233.92 472.25,-613.48 993.05,-1138.68 -57.38,0 -119.17,2.21 -185.37,6.62 -66.2,4.41 -139.02,11.04 -218.46,19.86 -44.14,4.42 -61.79,-6.62 -52.97,-33.1 4.41,-13.24 13.24,-22.06 26.48,-26.48 13.24,-4.41 24.28,-8.82 33.1,-13.23 17.65,-4.42 46.34,-8.83 86.07,-13.24 39.73,-4.42 82.76,-7.73 129.1,-9.93 46.34,-2.21 93.78,-5.51 142.33,-9.93 48.55,-4.41 92.68,-6.62 132.41,-6.62 242.74,-242.74 494.31,-477.76 754.72,-705.06 260.39,-227.31 529.62,-442.46 807.67,-645.49 238.33,-172.12 489.9,-337.63 754.71,-496.52 264.81,-158.89 534.04,-297.91 807.68,-417.08 273.63,-119.17 546.17,-214.05 817.6,-284.67 271.44,-70.62 532.94,-108.13 784.51,-112.55 322.19,-4.41 589.21,29.79 801.06,102.62 211.85,72.82 379.56,167.72 503.14,284.67 123.58,116.96 205.22,250.47 244.95,400.53 39.73,150.06 46.34,300.12 19.86,450.18zm-2820.24 1257.85c101.51,52.96 111.45,180.95 29.79,383.98 -81.64,203.01 -263.7,445.76 -546.17,728.22 -145.65,145.65 -285.79,275.85 -420.4,390.61 -134.61,114.74 -261.49,209.64 -380.66,284.67 -119.17,75.03 -226.19,127.99 -321.09,158.88 -94.89,30.89 -173.22,39.73 -235.01,26.48 -101.51,-26.48 -167.72,-79.44 -198.62,-158.89 -30.89,-79.44 -32,-176.53 -3.31,-291.29 28.69,-114.76 84.96,-240.54 168.81,-377.35 83.86,-136.83 191.99,-273.65 324.4,-410.46 136.82,-136.82 282.47,-259.29 436.94,-367.43 154.48,-108.13 305.64,-195.3 453.5,-261.49 147.85,-66.21 282.47,-109.23 403.84,-129.1 121.37,-19.86 217.36,-12.14 287.98,23.18zm-39.71 79.44c-35.32,-26.48 -93.8,-24.28 -175.44,6.63 -81.66,30.89 -180.95,87.16 -297.91,168.81 -116.96,81.64 -246.06,184.26 -387.29,307.85 -141.24,123.58 -286.88,264.8 -436.94,423.69 -97.1,101.51 -186.48,199.71 -268.12,294.61 -81.66,94.89 -148.96,182.06 -201.92,261.49 -52.97,79.45 -84.96,148.96 -95.99,208.54 -11.04,59.58 5.51,102.62 49.65,129.1 39.73,22.06 99.31,14.34 178.75,-23.18 79.44,-37.51 174.34,-98.19 284.67,-182.06 110.33,-83.85 233.92,-187.57 370.74,-311.15 136.82,-123.58 280.26,-262.6 430.32,-417.08 66.2,-66.2 137.92,-143.43 215.15,-231.7 77.23,-88.27 145.65,-175.44 205.23,-261.51 59.58,-86.07 103.72,-163.3 132.41,-231.7 28.69,-68.41 27.59,-115.86 -3.31,-142.34zm7990.67 -2111.88c-30.89,154.48 -83.86,275.85 -158.89,364.12 -75.03,88.27 -143.43,147.85 -205.22,178.75 -26.48,13.24 -44.14,18.75 -52.97,16.55 -8.83,-2.21 -15.45,-7.73 -19.86,-16.55 -4.42,-8.83 -5.52,-15.45 -3.32,-19.86 2.22,-4.42 16.56,-17.66 43.03,-39.73 48.56,-39.73 96,-98.21 142.34,-175.44 46.34,-77.23 78.34,-159.99 95.99,-248.26 30.89,-158.88 25.38,-312.25 -16.55,-460.1 -41.93,-147.85 -121.37,-278.06 -238.33,-390.61 -116.96,-112.54 -275.84,-201.91 -476.66,-268.12 -200.81,-66.2 -444.66,-99.3 -731.54,-99.3 -511.96,0 -1032.76,123.58 -1562.39,370.74 -529.62,247.15 -1050.41,584.79 -1562.38,1012.9 -339.84,282.47 -678.58,586.99 -1016.21,913.6 -337.64,326.6 -685.2,675.27 -1042.7,1046 61.79,0 148.96,-1.1 261.49,-3.31 112.55,-2.21 210.74,-1.1 294.61,3.31 8.82,0 17.65,2.21 26.48,6.62 8.82,4.42 11.03,15.45 6.62,33.11 -13.24,26.47 -37.51,39.71 -72.82,39.71 -35.3,0 -79.44,1.1 -132.41,3.32 -52.96,2.21 -108.13,4.41 -165.51,6.62 -57.38,2.21 -112.54,4.41 -165.51,6.62 -52.96,2.22 -99.31,3.32 -139.02,3.32 -114.76,123.58 -235.02,255.98 -360.8,397.21 -125.79,141.24 -251.57,281.36 -377.36,420.4 -125.78,139.02 -246.05,270.33 -360.8,393.9 -114.76,123.58 -214.05,229.5 -297.91,317.77 -313.36,331.01 -632.23,652.1 -956.63,963.26 -324.4,311.15 -623.41,574.85 -897.05,791.12 -423.71,339.84 -829.75,627.82 -1218.14,863.95 -388.39,236.13 -764.64,428.12 -1128.76,575.96 -364.11,147.85 -717.2,254.89 -1059.25,321.09 -342.05,66.2 -676.37,94.89 -1002.97,86.07 -361.91,-8.83 -674.16,-69.52 -936.77,-185.37 -262.6,-114.74 -467.83,-267.02 -615.68,-456.79 -147.85,-189.78 -235.02,-403.84 -261.51,-642.17 -26.47,-238.33 15.45,-481.08 125.79,-728.23 13.24,-22.07 28.69,-48.55 46.34,-79.45 17.65,-30.89 36.41,-58.47 56.28,-82.75 19.86,-24.28 39.71,-43.03 59.58,-56.28 19.86,-13.24 36.41,-13.24 49.65,0 4.41,8.83 -2.21,33.1 -19.86,72.82 -17.65,39.73 -33.1,72.82 -46.34,99.31 -119.17,242.74 -168.83,479.97 -148.96,711.67 19.86,231.72 98.19,438.05 235.01,619 136.83,180.95 326.6,328.81 569.35,443.56 242.74,114.74 527.41,176.54 854.01,185.36 361.91,8.83 712.79,-27.59 1052.62,-109.23 339.84,-81.66 677.48,-201.92 1012.9,-361.91 335.43,-158.89 669.75,-349.78 1002.98,-572.66 333.22,-223.99 671.96,-472.25 1016.21,-745.89 101.51,-79.44 223.99,-182.06 367.42,-307.85 143.44,-126.88 294.61,-264.8 453.5,-414.86 158.89,-150.06 321.08,-307.85 486.6,-474.46 165.51,-165.51 325.49,-327.7 479.97,-486.6 207.44,-216.26 427,-451.28 658.72,-702.85 231.7,-251.57 491.01,-537.35 777.88,-855.12 -57.38,0 -119.17,2.21 -185.36,6.62 -66.21,4.41 -139.03,11.04 -218.47,19.86 -44.14,4.42 -61.79,-6.62 -52.97,-33.1 4.42,-13.24 13.24,-22.06 26.48,-26.48 13.24,-4.41 24.28,-8.82 33.1,-13.23 17.66,-4.42 46.35,-8.83 86.07,-13.24 39.73,-4.42 82.76,-7.73 129.1,-9.93 46.34,-2.21 92.68,-5.51 139.02,-9.93 46.34,-4.41 87.17,-6.62 122.47,-6.62 194.19,-203.03 391.71,-407.14 592.52,-612.38 200.82,-205.23 399.43,-403.84 595.83,-595.83 196.4,-191.99 389.49,-372.94 579.28,-542.87 189.78,-169.92 372.94,-325.49 549.49,-466.73 229.5,-180.95 477.76,-347.56 744.78,-499.83 267.02,-152.28 543.96,-284.67 830.84,-397.22 286.89,-112.55 575.97,-199.71 867.27,-261.51 291.29,-61.79 575.96,-92.68 854.01,-92.68 317.77,0 584.79,38.62 801.06,115.86 216.26,77.23 386.18,176.54 509.76,297.91 123.58,121.37 206.33,257.08 248.25,407.14 41.93,150.06 49.66,300.12 23.18,450.18z"/>
 </g>
</svg>
