<?xml version="1.0" encoding="UTF-8"?>
<!DOCTYPE svg PUBLIC "-//W3C//DTD SVG 1.1//EN" "http://www.w3.org/Graphics/SVG/1.1/DTD/svg11.dtd">
<!-- Creator: CorelDRAW -->
<svg xmlns="http://www.w3.org/2000/svg" xml:space="preserve" width="204.457mm" height="114.566mm" version="1.1" style="shape-rendering:geometricPrecision; text-rendering:geometricPrecision; image-rendering:optimizeQuality; fill-rule:evenodd; clip-rule:evenodd"
viewBox="0 0 20434.47 11450.27"
 xmlns:xlink="http://www.w3.org/1999/xlink"
 xmlns:xodm="http://www.corel.com/coreldraw/odm/2003">
 <defs>
  <style type="text/css">
   <![CDATA[
    .fil0 {fill:#E3D6B5;fill-rule:nonzero}
   ]]>
  </style>
 </defs>
 <g id="Capa_x0020_1">
  <metadata id="CorelCorpID_0Corel-Layer"/>
  <path class="fil0" d="M9606.53 1473.81c-4.46,8.93 -8.93,17.86 -13.39,26.8 -4.47,8.93 -24.57,6.7 -60.3,-6.71 -58.06,-22.33 -111.65,-35.72 -160.77,-40.19 -49.13,-4.47 -96.03,-4.47 -140.68,0 -111.65,13.39 -241.17,59.17 -388.55,137.32 -147.38,78.16 -304.81,176.41 -472.29,294.77 -167.48,118.35 -337.18,252.33 -509.13,401.94 -171.95,149.62 -339.42,301.46 -502.43,455.54 -163.01,154.09 -315.98,305.93 -458.89,455.54 -142.91,149.62 -265.73,282.48 -368.45,398.6 -245.64,276.89 -447.72,529.23 -606.27,756.99 -158.55,227.78 -289.18,424.28 -391.9,589.53 -35.72,58.06 -70.34,118.35 -103.83,180.87 -33.49,62.53 -66.99,118.36 -100.48,167.48 -33.5,49.12 -65.87,89.32 -97.14,120.58 -31.26,31.26 -60.3,42.43 -87.09,33.49 -49.12,-13.39 -73.69,-55.82 -73.69,-127.28 0,-71.46 31.26,-171.95 93.79,-301.45 49.12,-102.72 121.7,-227.78 217.72,-375.15 96.02,-147.38 202.09,-303.69 318.21,-468.93 89.32,-183.11 131.75,-347.24 127.29,-492.39 -4.47,-145.15 -42.44,-275.78 -113.89,-391.89 -58.06,53.59 -112.77,104.95 -164.13,154.08 -51.36,49.13 -101.6,98.26 -150.73,147.38 -473.41,473.41 -907.73,857.49 -1302.97,1152.25 -395.25,294.76 -755.89,523.65 -1081.91,686.66 -326.02,163.01 -617.43,273.54 -874.23,331.6 -256.8,58.07 -481.23,87.09 -673.26,87.09 -129.52,0 -259.04,-13.39 -388.56,-40.2 -129.51,-26.8 -244.52,-77.04 -345,-150.73 -100.48,-73.69 -178.64,-173.06 -234.47,-298.11 -55.82,-125.05 -72.57,-285.83 -50.24,-482.34 13.4,-151.85 58.06,-308.16 133.99,-468.94 75.92,-160.77 174.17,-319.32 294.76,-475.63 120.58,-156.31 261.27,-305.93 422.05,-448.84 160.77,-142.91 334.96,-272.43 522.52,-388.55 133.99,-80.4 278.02,-152.97 432.09,-217.72 154.09,-64.76 310.39,-120.58 468.94,-167.48 158.54,-46.89 314.86,-87.09 468.93,-120.58 154.09,-33.5 300.35,-56.95 438.79,-70.34 -35.72,-26.8 -77.04,-78.16 -123.93,-154.08 -46.89,-75.93 -63.64,-167.48 -50.24,-274.67 22.33,-218.84 112.77,-409.77 271.31,-572.78 158.55,-163.01 356.17,-299.23 592.87,-408.65 236.7,-109.41 499.09,-192.03 787.15,-247.86 288.06,-55.83 572.77,-83.73 854.13,-83.73 326.02,0 627.49,13.39 904.38,40.19 276.9,26.8 532.58,62.53 767.05,107.19 234.46,44.66 453.3,92.67 656.51,144.03 203.21,51.36 398.59,101.6 586.17,150.73 31.26,8.94 73.69,21.22 127.28,36.84 53.6,15.63 110.54,32.38 170.83,50.25 60.3,17.86 121.7,36.84 184.23,56.94 62.53,20.1 118.36,39.08 167.48,56.94 53.59,13.4 80.39,31.26 80.39,53.6zm-623.01 -26.81c-156.31,13.4 -301.46,41.32 -435.45,83.74 -133.98,42.43 -285.82,97.14 -455.53,164.13 -455.54,183.11 -877.59,414.22 -1266.14,693.35 -388.55,279.14 -736.91,559.38 -1045.06,840.74 62.53,93.79 106.06,199.86 130.63,318.22 24.57,118.35 16.75,246.74 -23.45,385.2 89.32,-116.13 181.99,-228.89 278.02,-338.3 96.02,-109.42 188.69,-208.8 278.01,-298.12 477.87,-486.8 925.59,-890.98 1343.17,-1212.53 417.58,-321.56 816.17,-533.7 1195.79,-636.42zm160.77 -87.08c-35.73,-8.94 -74.81,-17.87 -117.24,-26.8 -42.43,-8.94 -88.2,-17.87 -137.32,-26.8 -187.58,-35.73 -375.15,-71.46 -562.73,-107.19 -187.57,-35.73 -394.12,-66.99 -619.66,-93.79 -225.54,-26.8 -480.11,-49.12 -763.7,-66.99 -283.59,-17.86 -612.97,-26.8 -988.12,-26.8 -281.37,0 -561.61,25.69 -840.74,77.05 -279.13,51.35 -531.46,125.04 -756.99,221.07 -225.54,96.02 -413.11,212.13 -562.73,348.35 -149.61,136.22 -233.35,291.41 -251.21,465.58 -8.94,116.13 12.28,204.33 63.64,264.61 51.36,60.3 94.91,99.38 130.64,117.24 35.73,-4.47 68.1,-7.82 97.14,-10.04 29.02,-2.24 59.18,-3.35 90.44,-3.35 388.55,-8.94 727.97,36.84 1018.26,137.32 290.29,100.49 520.29,237.82 690.01,412 348.35,-281.37 717.92,-545.98 1108.7,-793.84 390.78,-247.87 800.54,-449.96 1229.29,-606.28 223.3,-84.85 424.27,-150.73 602.92,-197.62 178.64,-46.89 368.45,-74.8 569.42,-83.73zm-3577.32 1741.76c-169.72,-165.24 -399.72,-290.29 -690.01,-375.14 -290.29,-84.86 -605.15,-120.58 -944.57,-107.19 -138.45,4.47 -292.53,25.68 -462.24,63.65 -169.72,37.96 -342.77,87.08 -519.19,147.38 -176.4,60.29 -349.47,129.52 -519.18,207.67 -169.72,78.16 -323.79,159.66 -462.25,244.53 -187.57,120.58 -363.98,247.86 -529.23,381.84 -165.24,133.99 -310.39,270.2 -435.44,408.65 -125.04,138.45 -226.65,278.02 -304.8,418.7 -78.16,140.68 -123.93,275.78 -137.33,405.3 -22.33,174.17 -10.04,317.09 36.85,428.73 46.89,111.66 112.77,199.86 197.62,264.61 84.85,64.76 183.11,110.54 294.76,137.33 111.65,26.8 225.54,40.2 341.65,40.2 245.64,0 499.09,-48.01 760.35,-144.03 261.27,-96.03 538.15,-236.7 830.68,-422.05 292.53,-185.34 604.04,-415.34 934.53,-690 330.49,-274.67 687.77,-590.65 1071.85,-947.93 84.86,-75.92 170.84,-152.96 257.92,-231.11 87.09,-78.16 179.76,-155.19 278.02,-231.12zm3021.29 455.54c-4.47,44.67 -18.98,78.16 -43.55,100.48 -24.57,22.33 -43.55,31.26 -56.94,26.8 -8.94,-4.47 -20.1,-12.28 -33.5,-23.45 -13.39,-11.16 -29.02,-21.21 -46.89,-30.14 -31.26,-17.86 -56.94,-30.14 -77.04,-36.84 -20.1,-6.71 -52.47,-12.28 -97.14,-16.75 -66.99,-4.47 -151.85,17.86 -254.56,66.99 -102.72,49.12 -212.14,113.88 -328.26,194.27 -116.12,80.39 -236.7,171.94 -361.75,274.66 -125.05,102.72 -243.4,207.68 -355.06,314.86 -107.18,102.72 -195.38,188.7 -264.61,257.92 -69.22,69.22 -131.75,136.22 -187.57,200.97 -55.83,64.76 -113.89,135.1 -174.18,211.02 -60.29,75.92 -135.1,169.71 -224.42,281.37 -22.33,0 -39.08,-10.05 -50.24,-30.15 -11.16,-20.09 -18.98,-44.66 -23.45,-73.69 -4.47,-29.02 -5.59,-58.06 -3.35,-87.08 2.23,-29.03 7.82,-52.48 16.74,-70.34 89.33,-169.72 211.02,-351.71 365.11,-545.98 154.08,-194.27 320.43,-385.2 499.08,-572.78 107.19,-116.12 215.49,-222.19 324.91,-318.21 109.42,-96.02 204.32,-168.6 284.71,-217.72 53.59,-35.73 123.93,-63.65 211.01,-83.73 87.09,-20.1 173.07,-30.15 257.92,-30.15 -138.44,89.32 -294.76,211.02 -468.93,365.11 -174.18,154.08 -332.73,315.97 -475.64,485.68l20.1 26.8c93.79,-80.4 203.21,-174.17 328.25,-281.37 125.05,-107.18 252.34,-206.56 381.85,-298.11 129.52,-91.56 255.68,-166.36 378.5,-224.43 122.81,-58.06 224.42,-80.39 304.81,-66.98 58.06,8.93 99.37,32.37 123.93,70.34 24.56,37.96 34.61,81.51 30.14,130.63zm6638.82 -1487.2c-31.26,156.31 -84.85,279.14 -160.78,368.46 -75.92,89.32 -145.14,149.61 -207.67,180.87 -26.81,13.4 -44.67,18.98 -53.6,16.75 -8.93,-2.24 -15.63,-7.82 -20.09,-16.75 -4.47,-13.39 -5.59,-21.21 -3.36,-23.45 2.24,-2.23 16.75,-14.51 43.55,-36.84 49.13,-40.2 97.14,-99.38 144.03,-177.53 46.89,-78.16 79.28,-164.13 97.14,-257.92 31.26,-160.77 30.14,-314.86 -3.35,-462.24 -33.49,-147.38 -107.18,-276.9 -221.07,-388.55 -113.89,-111.65 -270.2,-199.85 -468.94,-264.61 -198.73,-64.75 -447.71,-94.9 -746.95,-90.44 -241.17,4.47 -492.38,46.89 -753.65,127.29 -261.27,80.39 -522.53,187.58 -783.79,321.55 -261.27,133.99 -521.41,286.94 -780.45,458.89 -259.03,171.95 -504.66,349.47 -736.9,532.58 -102.72,84.85 -214.37,177.53 -334.96,278.02 -120.58,100.48 -240.06,203.21 -358.4,308.16 -118.36,104.95 -231.12,205.44 -338.3,301.45 -107.19,96.02 -198.74,179.76 -274.67,251.21 49.13,0 128.4,-2.23 237.82,-6.7 109.42,-4.47 202.09,-2.23 278.02,6.7 8.94,0 18.98,2.24 30.14,6.71 11.16,4.47 12.28,17.86 3.35,40.19 -13.39,22.34 -37.96,33.5 -73.69,33.5 -26.8,0 -64.75,0 -113.89,0 -49.12,0 -101.59,1.12 -157.42,3.35 -55.83,2.23 -110.54,4.47 -164.13,6.7 -53.59,2.24 -100.48,5.59 -140.68,10.05 -62.53,62.53 -120.58,120.58 -174.17,174.17 -53.59,53.59 -116.12,118.35 -187.58,194.27 -348.35,361.75 -606.27,650.93 -773.75,867.53 -167.48,216.6 -206.56,351.71 -117.24,405.3 26.8,17.86 64.76,21.21 113.89,10.04 49.12,-11.16 103.83,-31.26 164.13,-60.29 60.29,-29.03 121.7,-64.76 184.22,-107.19 62.53,-42.43 120.58,-83.73 174.18,-123.93 40.19,-31.26 89.32,-70.34 147.38,-117.24 58.06,-46.89 120.58,-99.37 187.58,-157.42 66.98,-58.06 133.98,-116.12 200.97,-174.18 66.99,-58.06 127.28,-111.65 180.87,-160.77 13.4,-8.94 29.03,-17.87 46.89,-26.8 17.87,-8.94 33.5,-6.71 46.89,6.7 13.4,22.33 12.28,41.31 -3.35,56.94 -15.63,15.63 -30.14,32.38 -43.55,50.24 -40.19,40.2 -90.43,85.97 -150.73,137.33 -60.29,51.36 -123.93,104.95 -190.93,160.78 -66.99,55.82 -135.1,112.77 -204.32,170.83 -69.22,58.06 -135.11,109.42 -197.62,154.08 -147.39,111.66 -285.83,196.51 -415.35,254.57 -129.51,58.06 -243.4,69.22 -341.65,33.49 -107.18,-40.19 -161.89,-117.24 -164.13,-231.11 -2.23,-113.89 34.61,-235.59 110.54,-365.11 142.91,-236.7 477.87,-620.78 1004.87,-1152.24 -58.06,0 -120.58,2.23 -187.58,6.7 -66.99,4.47 -140.68,11.16 -221.07,20.1 -44.67,4.47 -62.53,-6.71 -53.6,-33.5 4.47,-13.39 13.4,-22.33 26.81,-26.8 13.39,-4.47 24.56,-8.93 33.49,-13.39 17.86,-4.47 46.89,-8.94 87.09,-13.4 40.19,-4.47 83.73,-7.82 130.63,-10.04 46.89,-2.24 94.91,-5.59 144.03,-10.05 49.12,-4.47 93.79,-6.7 133.98,-6.7 245.64,-245.64 500.21,-483.45 763.7,-713.46 263.5,-229.99 535.93,-447.71 817.29,-653.16 241.17,-174.17 495.74,-341.65 763.7,-502.43 267.96,-160.77 540.39,-301.45 817.29,-422.04 276.9,-120.58 552.68,-216.6 827.34,-288.06 274.66,-71.46 539.27,-109.42 793.84,-113.89 326.02,-4.47 596.22,30.15 810.6,103.84 214.37,73.69 384.08,169.71 509.13,288.06 125.05,118.35 207.67,253.44 247.86,405.29 40.2,151.85 46.89,303.69 20.1,455.54zm-2853.81 1272.83c102.71,53.59 112.77,183.11 30.14,388.55 -82.62,205.44 -266.84,451.07 -552.68,736.91 -147.38,147.38 -289.17,279.13 -425.39,395.24 -136.22,116.12 -264.61,212.14 -385.2,288.06 -120.58,75.93 -228.89,129.52 -324.91,160.78 -96.02,31.26 -175.29,40.2 -237.82,26.8 -102.71,-26.8 -169.71,-80.39 -200.97,-160.78 -31.26,-80.39 -32.38,-178.64 -3.35,-294.76 29.02,-116.12 85.97,-243.4 170.83,-381.85 84.85,-138.44 194.27,-276.9 328.25,-415.34 138.45,-138.44 285.83,-262.39 442.15,-371.8 156.31,-109.42 309.27,-197.63 458.89,-264.61 149.61,-66.99 285.82,-110.54 408.65,-130.64 122.81,-20.1 219.95,-12.28 291.41,23.45zm-40.2 80.39c-35.73,-26.8 -94.9,-24.56 -177.52,6.71 -82.62,31.26 -183.11,88.2 -301.46,170.83 -118.35,82.62 -248.98,186.46 -391.89,311.51 -142.91,125.05 -290.29,267.96 -442.14,428.74 -98.26,102.71 -188.7,202.09 -271.32,298.11 -82.61,96.02 -150.73,184.23 -204.32,264.61 -53.59,80.39 -85.97,150.73 -97.14,211.02 -11.16,60.29 5.59,103.83 50.24,130.63 40.2,22.33 100.48,14.51 180.88,-23.45 80.39,-37.96 176.4,-99.37 288.06,-184.23 111.65,-84.85 236.7,-189.81 375.14,-314.86 138.44,-125.04 283.59,-265.72 435.44,-422.04 66.99,-66.99 139.56,-145.15 217.72,-234.47 78.16,-89.32 147.38,-177.52 207.68,-264.61 60.29,-87.08 104.95,-165.24 133.98,-234.47 29.03,-69.22 27.91,-117.23 -3.35,-144.03zm8085.83 -2137.01c-31.26,156.31 -84.86,279.13 -160.78,368.45 -75.93,89.32 -145.15,149.62 -207.68,180.88 -26.8,13.39 -44.66,18.98 -53.59,16.74 -8.94,-2.23 -15.63,-7.82 -20.1,-16.74 -4.47,-8.94 -5.58,-15.63 -3.35,-20.1 2.23,-4.47 16.75,-17.87 43.55,-40.2 49.12,-40.2 97.14,-99.37 144.03,-177.52 46.89,-78.16 79.27,-161.9 97.14,-251.22 31.26,-160.77 25.68,-315.98 -16.75,-465.58 -42.43,-149.62 -122.81,-281.37 -241.17,-395.24 -118.35,-113.89 -279.13,-204.33 -482.34,-271.32 -203.21,-66.99 -449.95,-100.48 -740.25,-100.48 -518.06,0 -1045.06,125.05 -1580.98,375.15 -535.93,250.09 -1062.93,591.76 -1580.99,1024.96 -343.88,285.83 -686.65,593.99 -1028.31,924.48 -341.66,330.49 -693.36,683.31 -1055.11,1058.45 62.53,0 150.73,-1.11 264.61,-3.35 113.88,-2.23 213.25,-1.11 298.11,3.35 8.94,0 17.86,2.24 26.8,6.71 8.94,4.47 11.16,15.63 6.7,33.49 -13.39,26.8 -37.96,40.2 -73.69,40.2 -35.72,0 -80.39,1.12 -133.98,3.35 -53.59,2.23 -109.42,4.47 -167.48,6.7 -58.06,2.24 -113.89,4.47 -167.48,6.71 -53.59,2.23 -100.48,3.35 -140.68,3.35 -116.12,125.05 -237.82,259.03 -365.1,401.94 -127.28,142.92 -254.57,284.71 -381.85,425.4 -127.28,140.68 -248.98,273.55 -365.1,398.6 -116.12,125.04 -216.6,232.23 -301.46,321.55 -317.09,334.96 -639.76,659.86 -968.02,974.72 -328.25,314.86 -630.83,581.71 -907.72,800.55 -428.74,343.88 -839.63,635.29 -1232.64,874.23 -393.01,238.93 -773.75,433.2 -1142.19,582.82 -368.45,149.62 -725.73,257.92 -1071.85,324.91 -346.12,66.98 -684.43,96.02 -1014.92,87.08 -366.21,-8.94 -682.19,-70.34 -947.92,-187.58 -265.73,-116.12 -473.4,-270.19 -623.02,-462.24 -149.61,-192.03 -237.82,-408.65 -264.61,-649.81 -26.8,-241.17 15.63,-486.8 127.29,-736.9 13.39,-22.34 29.02,-49.13 46.88,-80.4 17.87,-31.26 36.85,-59.18 56.95,-83.73 20.1,-24.57 40.2,-43.55 60.29,-56.95 20.1,-13.39 36.85,-13.39 50.24,0 4.47,8.94 -2.23,33.5 -20.09,73.69 -17.87,40.2 -33.5,73.7 -46.89,100.49 -120.58,245.64 -170.83,485.68 -150.74,720.15 20.1,234.46 99.38,443.26 237.82,626.37 138.45,183.1 330.49,332.72 576.12,448.83 245.64,116.12 533.7,178.64 864.19,187.58 366.22,8.94 721.27,-27.91 1065.16,-110.54 343.89,-82.61 685.54,-204.32 1024.97,-366.21 339.42,-160.78 677.73,-353.95 1014.91,-579.48 337.18,-226.65 679.96,-477.87 1028.32,-754.77 102.71,-80.39 226.65,-184.22 371.8,-311.5 145.15,-128.4 298.11,-267.97 458.89,-419.82 160.78,-151.85 324.91,-311.5 492.38,-480.1 167.48,-167.48 329.38,-331.61 485.69,-492.39 209.9,-218.83 432.09,-456.65 666.55,-711.22 234.47,-254.56 496.86,-543.74 787.15,-865.3 -58.06,0 -120.58,2.23 -187.58,6.7 -66.99,4.47 -140.68,11.16 -221.07,20.1 -44.67,4.47 -62.53,-6.71 -53.59,-33.5 4.47,-13.39 13.39,-22.33 26.8,-26.8 13.39,-4.47 24.57,-8.93 33.49,-13.39 17.87,-4.47 46.89,-8.94 87.09,-13.4 40.2,-4.47 83.73,-7.82 130.63,-10.04 46.89,-2.24 93.79,-5.59 140.68,-10.05 46.89,-4.47 88.2,-6.7 123.93,-6.7 196.51,-205.44 396.36,-411.99 599.57,-619.67 203.21,-207.67 404.18,-408.65 602.92,-602.92 198.74,-194.27 394.13,-377.38 586.18,-549.32 192.03,-171.95 377.38,-329.38 556.02,-472.29 232.23,-183.11 483.44,-351.71 753.65,-505.78 270.19,-154.08 550.44,-288.06 840.74,-401.95 290.29,-113.88 582.82,-202.09 877.58,-264.61 294.76,-62.53 582.82,-93.79 864.19,-93.79 321.55,0 591.76,39.08 810.6,117.24 218.83,78.16 390.78,178.64 515.83,301.46 125.05,122.81 208.79,260.15 251.22,411.99 42.43,151.85 50.24,303.69 23.45,455.54z"/>
  <path class="fil0" d="M817.29 7337.01l864.19 0c209.9,0 398.6,24.57 566.08,73.69 167.48,49.13 310.39,120.58 428.73,214.37 118.36,93.79 208.8,207.68 271.32,341.65 62.53,133.99 93.79,285.83 93.79,455.54 0,187.58 -44.67,361.75 -133.99,522.53 -89.32,160.78 -213.25,292.53 -371.8,395.24 -158.55,102.72 -338.31,165.25 -539.28,187.58 75.93,31.26 164.13,100.48 264.61,207.68 100.48,107.18 186.46,212.13 257.92,314.86 0,0 29.02,39.08 87.08,117.24 58.07,78.16 132.87,174.17 224.43,288.06 91.55,113.88 181.99,222.18 271.31,324.9 93.79,102.72 179.76,192.04 257.92,267.96 78.16,75.93 163.01,135.1 254.56,177.53 91.56,42.43 197.62,63.64 318.21,63.64l0 66.99 -207.67 0c-245.64,0 -447.72,-31.26 -606.27,-93.79 -158.55,-62.53 -286.95,-139.56 -385.2,-231.11 -98.26,-91.56 -183.11,-179.76 -254.57,-264.61 -17.86,-22.34 -59.18,-79.28 -123.93,-170.84 -64.75,-91.55 -135.1,-190.92 -211.02,-298.11 -75.92,-107.18 -145.14,-204.32 -207.67,-291.41 -62.53,-87.09 -100.49,-139.56 -113.89,-157.43 -89.32,-116.12 -192.04,-219.95 -308.16,-311.5 -116.12,-91.56 -238.93,-137.33 -368.45,-137.33l0 -66.99c0,0 35.73,1.12 107.18,3.35 71.46,2.24 163.01,1.12 274.67,-3.35 125.05,-4.47 250.09,-14.51 375.14,-30.14 125.05,-15.63 242.29,-63.65 351.71,-144.03 109.42,-80.4 195.39,-214.37 257.92,-401.95 17.86,-49.12 31.26,-107.18 40.19,-174.17 8.94,-66.99 11.16,-136.22 6.7,-207.68 -4.46,-125.05 -27.9,-236.7 -70.33,-334.96 -42.44,-98.25 -102.72,-183.11 -180.88,-254.56 -78.16,-71.46 -170.83,-127.28 -278.01,-167.48 -107.19,-40.2 -227.78,-62.53 -361.75,-66.99 -209.91,-8.94 -393.01,-11.16 -549.33,-6.7 -156.31,4.47 -234.47,4.47 -234.47,0 0,-4.47 -5.59,-23.45 -16.75,-56.95 -11.16,-33.49 -22.33,-66.98 -33.49,-100.48 -11.16,-33.49 -16.75,-50.24 -16.75,-50.24zm80.4 0l0 4019.46 -428.74 0 0 -4019.46 428.74 0zm-408.65 3590.72l80.39 428.74 -569.43 0 0 -66.99c0,0 15.63,0 46.89,0 31.26,0 46.89,0 46.89,0 107.19,0 196.51,-35.73 267.96,-107.18 71.46,-71.46 109.42,-156.31 113.89,-254.57l13.4 0zm0 -3168.67l-13.4 0c-4.47,-102.72 -42.43,-187.58 -113.89,-254.57 -71.45,-66.99 -160.77,-100.48 -267.96,-100.48 0,0 -15.63,0 -46.89,0 -31.26,0 -46.89,0 -46.89,0l0 -66.99 569.43 0 -80.39 422.05zm388.55 3168.67l20.1 0c4.46,98.26 42.43,183.11 113.88,254.57 71.46,71.45 160.78,107.18 267.96,107.18 0,0 14.52,0 43.55,0 29.03,0 43.55,0 43.55,0l6.7 66.99 -576.12 0 80.4 -428.74z"/>
  <path id="_1" class="fil0" d="M5111.42 7337.01l0 4019.46 -428.74 0 0 -4019.46 428.74 0zm1802.06 3811.79l-13.4 207.68 -1802.05 0 0 -207.68 1815.45 0zm-314.86 -1902.55l0 200.98 -1500.6 0 0 -200.98 1500.6 0zm308.16 -1909.24l0 207.68 -1808.76 0 0 -207.68 1808.76 0zm381.84 3061.49l-368.45 957.97 -1018.26 0 227.77 -207.68c223.31,0 403.07,-32.37 539.28,-97.14 136.22,-64.75 246.74,-154.08 331.61,-267.96 84.85,-113.88 158.54,-242.28 221.07,-385.2l66.98 0zm-690 -964.67l0 381.85 -73.69 0 0 -87.09c0,-75.92 -22.33,-141.79 -66.99,-197.62 -44.67,-55.82 -113.89,-83.73 -207.68,-83.73l0 -13.4 348.36 0zm0 -556.02l0 381.85 -348.36 0 0 -13.4c93.79,0 163.01,-27.9 207.68,-83.73 44.67,-55.83 66.99,-121.7 66.99,-197.62l0 -87.09 73.69 0zm308.16 -1353.22l0 462.24 -73.69 0 0 -100.48c0,-93.79 -30.15,-174.17 -90.44,-241.17 -60.3,-66.99 -141.8,-100.48 -244.52,-100.48l0 -20.1 408.65 0zm0 -294.76l0 174.17 -763.7 -66.99c138.44,0 285.82,-12.28 442.14,-36.84 156.31,-24.57 263.51,-48.01 321.56,-70.34zm-2210.71 3697.89l87.08 428.74 -582.82 0 0 -66.99c0,0 15.63,0 46.89,0 31.26,0 46.89,0 46.89,0 111.65,0 203.21,-35.73 274.67,-107.18 71.45,-71.46 109.41,-156.31 113.88,-254.57l13.4 0zm0 -3168.67l-13.4 0c-4.47,-102.72 -42.43,-187.58 -113.88,-254.57 -71.46,-66.99 -163.02,-100.48 -274.67,-100.48 0,0 -15.63,0 -46.89,0 -31.26,0 -46.89,0 -46.89,0l0 -66.99 582.82 0 -87.08 422.05z"/>
  <path id="_2" class="fil0" d="M9057.19 7243.23c125.05,0 234.47,4.47 328.26,13.4 93.79,8.94 175.29,18.98 244.52,30.14 69.22,11.16 129.52,24.57 180.87,40.2 51.36,15.63 97.14,30.14 137.33,43.55l6.7 663.21 -80.39 0c0,-183.11 -62.53,-327.14 -187.58,-432.09 -125.05,-104.95 -319.32,-157.42 -582.82,-157.42 -223.31,0 -414.23,61.41 -572.78,184.22 -158.54,122.82 -235.58,273.55 -231.11,452.19 0,58.06 7.82,117.24 23.45,177.52 15.63,60.3 42.43,119.47 80.39,177.53 37.96,58.06 90.44,116.12 157.42,174.17l1353.23 1045.06c102.71,84.86 178.64,193.16 227.77,324.91 49.12,131.75 75.93,262.38 80.39,391.89 4.47,196.51 -46.89,377.38 -154.08,542.63 -107.18,165.24 -251.21,295.88 -432.09,391.89 -180.87,96.02 -380.73,144.03 -599.57,144.03 -129.51,0 -269.08,-11.16 -418.69,-33.49 -149.62,-22.34 -289.18,-56.95 -418.7,-103.84 -129.51,-46.89 -236.7,-106.07 -321.55,-177.52 -13.39,-62.53 -20.1,-141.8 -20.1,-237.82 0,-96.02 7.82,-197.62 23.45,-304.81 15.63,-107.18 36.85,-203.2 63.65,-288.06l80.39 0c-17.86,200.98 11.16,372.92 87.09,515.84 75.92,142.91 187.58,251.21 334.96,324.9 147.38,73.69 319.32,108.3 515.83,103.84 276.9,-8.94 494.62,-79.28 653.16,-211.02 158.55,-131.75 237.82,-307.04 237.82,-525.88 0,-107.18 -18.98,-204.33 -56.94,-291.41 -37.96,-87.09 -99.38,-168.6 -184.23,-244.52l-1339.81 -1031.66c-125.05,-107.19 -209.91,-225.54 -254.57,-355.06 -44.67,-129.52 -66.99,-252.33 -66.99,-368.45 0,-183.11 49.13,-348.36 147.38,-495.74 98.26,-147.38 231.12,-264.61 398.6,-351.7 167.48,-87.09 353.94,-130.64 559.37,-130.64zm884.28 60.3l6.7 120.58 -475.64 0 0 -120.58 468.94 0z"/>
  <path id="_3" class="fil0" d="M12741.7 7357.11l0 3999.37 -435.45 0 0 -3999.37 435.45 0zm1621.17 -26.8l0 200.97 -3677.81 0 0 -200.97 3677.81 0zm0 187.58l0 462.24 -73.69 0 0 -107.19c0,-93.78 -30.15,-173.06 -90.44,-237.81 -60.3,-64.76 -141.8,-99.38 -244.52,-103.84l0 -13.39 408.65 0zm0 -294.77l0 174.18 -750.3 -66.99c89.32,0 184.22,-5.59 284.7,-16.75 100.49,-11.16 193.16,-25.68 278.02,-43.55 84.85,-17.86 147.38,-33.49 187.58,-46.89zm-2043.23 3704.61l0 428.74 -489.03 0 0 -66.99c4.47,0 18.98,0 43.55,0 24.56,0 36.84,0 36.84,0 107.18,0 198.74,-35.73 274.66,-107.18 75.93,-71.46 116.13,-156.31 120.58,-254.57l13.4 0zm401.95 0l20.1 0c4.46,98.26 44.66,183.11 120.58,254.57 75.92,71.45 167.47,107.18 274.66,107.18 0,0 12.28,0 36.84,0 24.57,0 36.85,0 36.85,0l0 66.99 -489.03 0 0 -428.74zm-1627.89 -3409.84l0 13.39c-102.71,4.47 -184.23,39.08 -244.52,103.84 -60.3,64.75 -90.44,144.03 -90.44,237.81l0 107.19 -73.69 0 0 -462.24 408.65 0zm-408.65 -294.77c40.2,13.4 101.6,29.03 184.23,46.89 82.62,17.87 175.29,32.38 278.01,43.55 102.72,11.16 198.74,16.75 288.06,16.75l-750.3 66.99 0 -174.18z"/>
 </g>
</svg>
