<?xml version="1.0" encoding="UTF-8"?>
<!DOCTYPE svg PUBLIC "-//W3C//DTD SVG 1.1//EN" "http://www.w3.org/Graphics/SVG/1.1/DTD/svg11.dtd">
<!-- Creator: CorelDRAW -->
<svg xmlns="http://www.w3.org/2000/svg" xml:space="preserve" width="174.777mm" height="33.5704mm" version="1.1" style="shape-rendering:geometricPrecision; text-rendering:geometricPrecision; image-rendering:optimizeQuality; fill-rule:evenodd; clip-rule:evenodd"
viewBox="0 0 17298.81 3322.69"
 xmlns:xlink="http://www.w3.org/1999/xlink"
 xmlns:xodm="http://www.corel.com/coreldraw/odm/2003">
 <defs>
  <style type="text/css">
   <![CDATA[
    .fil0 {fill:#E3D6B5;fill-rule:nonzero}
   ]]>
  </style>
 </defs>
 <g id="Capa_x0020_1">
  <metadata id="CorelCorpID_0Corel-Layer"/>
  <path class="fil0" d="M585.55 81.71l640.03 0c136.17,0 259.49,19.68 369.94,59.01 110.46,39.34 203.51,96.09 279.16,170.22 75.66,74.14 133.91,163.41 174.76,267.81 40.85,104.4 61.28,223.18 61.28,356.33 0,145.26 -34.05,284.46 -102.13,417.6 -68.09,133.15 -160.38,241.33 -276.89,324.55 -116.51,83.22 -247.39,124.83 -392.64,124.83 51.44,21.18 107.43,64.31 167.95,129.36 60.51,65.07 113.48,127.86 158.87,188.38 0,0 20.43,29.5 61.28,88.51 40.86,59 92.3,130.88 154.33,215.61 62.04,84.72 124.83,167.94 188.37,249.65 63.55,81.71 118.02,146.77 163.41,195.18 60.52,66.58 121.05,125.59 181.57,177.03 60.52,51.45 126.33,92.3 197.45,122.56 71.11,30.26 150.55,45.39 238.31,45.39l0 45.39 -249.65 0c-139.2,0 -259.49,-21.18 -360.87,-63.55 -101.37,-42.36 -186.86,-94.56 -256.46,-156.6 -69.6,-62.03 -128.61,-121.8 -177.03,-179.3 -9.08,-12.1 -34.05,-46.91 -74.9,-104.4 -40.86,-57.5 -89.28,-126.33 -145.26,-206.53 -55.98,-80.19 -111.21,-159.62 -165.68,-238.31 -54.47,-78.68 -101.37,-146.01 -140.72,-201.99 -39.34,-55.98 -62.04,-88.51 -68.09,-97.59 -57.5,-75.66 -121.05,-145.26 -190.65,-208.8 -69.6,-63.55 -145.25,-95.32 -226.95,-95.32l0 -45.39c0,0 23.45,0.75 70.35,2.27 46.91,1.51 103.65,0.76 170.22,-2.27 78.68,-3.03 164.92,-15.13 258.73,-36.31 93.81,-21.18 181.56,-65.06 263.27,-131.64 81.71,-66.57 143.74,-167.94 186.11,-304.13 9.09,-33.29 16.65,-74.9 22.7,-124.82 6.06,-49.93 7.57,-99.11 4.54,-147.52 -3.03,-205.78 -55.23,-369.94 -156.6,-492.51 -101.37,-122.55 -236.79,-188.37 -406.26,-197.45 -84.73,-6.06 -171.73,-8.32 -261,-6.81 -89.27,1.51 -164.16,2.27 -224.69,2.27 -60.52,0 -90.78,0 -90.78,0 0,-3.03 -3.79,-15.89 -11.35,-38.58 -7.56,-22.7 -15.13,-45.39 -22.7,-68.09 -7.56,-22.7 -11.35,-34.05 -11.35,-34.05zm59.01 0l0 3177.43 -295.04 0 0 -3177.43 295.04 0zm-281.42 2846.06l0 331.36 -363.14 0 0 -45.39c0,0 9.83,0 29.5,0 19.67,0 29.5,0 29.5,0 78.68,0 146.01,-27.99 201.99,-83.97 55.98,-55.99 85.49,-123.31 88.51,-202l13.62 0zm0 -2514.7l-13.62 0c-3.03,-78.68 -32.53,-146.01 -88.51,-201.99 -55.98,-55.98 -123.31,-83.98 -201.99,-83.98 0,0 -9.84,0 -29.5,0 -19.68,0 -29.5,0 -29.5,0l0 -45.39 363.14 0 0 331.36zm267.81 2514.7l13.61 0c0,78.69 28.75,146.01 86.25,202 57.5,55.98 125.58,83.97 204.27,83.97 0,0 9.08,0 27.23,0 18.16,0 27.24,0 27.24,0l0 45.39 -358.59 0 0 -331.36z"/>
  <path id="_1" class="fil0" d="M3581.4 81.71l0 3177.43 -295.04 0 0 -3177.43 295.04 0zm1225.58 3036.71l0 140.72 -1239.19 0 0 -140.72 1239.19 0zm-195.18 -1493.39l0 136.17 -1044.01 0 0 -136.17 1044.01 0zm195.18 -1543.32l0 140.72 -1239.19 0 0 -140.72 1239.19 0zm276.9 2442.08l-263.28 735.35 -753.5 0 163.41 -140.72c160.38,0 291.26,-24.96 392.64,-74.9 101.37,-49.93 183.83,-120.29 247.38,-211.07 63.55,-90.79 119.53,-193.68 167.95,-308.67l45.39 0zm-472.08 -771.66l0 299.58 -45.39 0 0 -68.09c0,-60.52 -21.18,-112.72 -63.55,-156.6 -42.36,-43.88 -93.81,-65.82 -154.32,-65.82l0 -9.08 263.27 0zm0 -417.6l0 299.58 -263.27 0 0 -9.08c60.51,-3.03 111.96,-26.48 154.32,-70.35 42.37,-43.89 63.55,-96.09 63.55,-156.61l0 -63.54 45.39 0zm195.18 -1125.72l0 363.14 -45.39 0 0 -81.71c0,-72.62 -25.72,-135.42 -77.16,-188.37 -51.45,-52.96 -114.99,-80.95 -190.65,-83.97l0 -9.09 313.2 0zm0 -208.8l0 131.64 -553.77 -49.93c66.57,0 136.93,-4.53 211.07,-13.62 74.14,-9.08 142.99,-19.67 206.53,-31.77 63.55,-12.1 108.94,-24.21 136.17,-36.31zm-1507 2927.77l0 331.36 -363.14 0 0 -45.39c0,0 9.83,0 29.5,0 19.67,0 29.5,0 29.5,0 78.68,0 146.01,-27.99 201.99,-83.97 55.98,-55.99 85.49,-123.31 88.51,-202l13.62 0zm0 -2514.7l-13.62 0c0,-78.68 -28.75,-146.01 -86.25,-201.99 -57.5,-55.98 -125.58,-83.98 -204.26,-83.98 0,0 -9.09,0 -27.24,0 -18.16,0 -27.24,0 -27.24,0l-4.53 -45.39 363.14 0 0 331.36z"/>
  <path id="_2" class="fil0" d="M6949.48 3322.69l-1407.14 -3213.74 385.83 0 1112.09 2782.52 -90.78 431.22zm0 0l-40.85 -317.74 1207.42 -2909.62 272.35 0 -1230.12 2759.82c0,0 -8.31,18.9 -24.96,56.73 -16.65,37.83 -36.31,83.98 -59.01,138.45 -22.7,54.47 -42.36,107.43 -59.01,158.87 -16.64,51.45 -24.96,89.28 -24.96,113.49l-40.86 0zm1039.47 -2914.16c33.29,-90.78 27.24,-160.38 -18.15,-208.8 -45.39,-48.42 -96.84,-72.63 -154.33,-72.63l-40.86 0 0 -45.39 912.38 0 0 45.39c0,0 -6.81,0 -20.42,0 -13.62,0 -20.43,0 -20.43,0 -66.58,0 -137.69,21.94 -213.34,65.82 -75.65,43.89 -137.69,117.27 -186.11,220.15l-258.73 -4.54zm-1938.23 0l-376.74 4.54c-45.4,-102.89 -105.91,-176.27 -181.57,-220.15 -75.65,-43.88 -148.28,-65.82 -217.88,-65.82 0,0 -6.06,0 -18.16,0 -12.1,0 -18.15,0 -18.15,0l0 -45.39 1021.31 0 0 45.39 -40.85 0c-57.5,0 -108.18,24.21 -152.07,72.63 -43.88,48.42 -49.17,118.02 -15.89,208.8z"/>
  <path id="_3" class="fil0" d="M9559.5 81.71l0 3177.43 -295.04 0 0 -3177.43 295.04 0zm-281.42 2846.06l0 331.36 -363.14 0 0 -45.39c0,0 9.83,0 29.5,0 19.67,0 29.5,0 29.5,0 78.68,0 146.01,-27.99 201.99,-83.97 55.98,-55.99 85.49,-123.31 88.51,-202l13.62 0zm0 -2514.7l-13.62 0c-3.03,-78.68 -32.53,-146.01 -88.51,-201.99 -55.98,-55.98 -123.31,-83.98 -201.99,-83.98 0,0 -9.84,0 -29.5,0 -19.68,0 -29.5,0 -29.5,0l0 -45.39 363.14 0 0 331.36zm267.81 2514.7l13.61 0c3.03,78.69 32.53,146.01 88.51,202 55.99,55.98 123.31,83.97 202,83.97 0,0 9.08,0 27.23,0 18.16,0 28.75,0 31.77,0l0 45.39 -363.13 0 0 -331.36zm0 -2514.7l0 -331.36 363.13 0 0 45.39c-3.02,0 -13.61,0 -31.77,0 -18.15,0 -27.23,0 -27.23,0 -78.69,0 -146.01,28 -202,83.98 -55.98,55.98 -85.49,123.31 -88.51,201.99l-13.61 0z"/>
  <path id="_4" class="fil0" d="M11093.75 81.71l0 3177.43 -295.04 0 0 -3177.43 295.04 0zm1225.58 3036.71l0 140.72 -1239.19 0 0 -140.72 1239.19 0zm-195.18 -1493.39l0 136.17 -1044.01 0 0 -136.17 1044.01 0zm195.18 -1543.32l0 140.72 -1239.19 0 0 -140.72 1239.19 0zm276.9 2442.08l-263.28 735.35 -753.5 0 163.41 -140.72c160.38,0 291.26,-24.96 392.64,-74.9 101.37,-49.93 183.83,-120.29 247.38,-211.07 63.55,-90.79 119.53,-193.68 167.95,-308.67l45.39 0zm-472.08 -771.66l0 299.58 -45.39 0 0 -68.09c0,-60.52 -21.18,-112.72 -63.55,-156.6 -42.36,-43.88 -93.81,-65.82 -154.32,-65.82l0 -9.08 263.27 0zm0 -417.6l0 299.58 -263.27 0 0 -9.08c60.51,-3.03 111.96,-26.48 154.32,-70.35 42.37,-43.89 63.55,-96.09 63.55,-156.61l0 -63.54 45.39 0zm195.18 -1125.72l0 363.14 -45.39 0 0 -81.71c0,-72.62 -25.72,-135.42 -77.16,-188.37 -51.45,-52.96 -114.99,-80.95 -190.65,-83.97l0 -9.09 313.2 0zm0 -208.8l0 131.64 -553.77 -49.93c66.57,0 136.93,-4.53 211.07,-13.62 74.14,-9.08 142.99,-19.67 206.53,-31.77 63.55,-12.1 108.94,-24.21 136.17,-36.31zm-1507 2927.77l0 331.36 -363.14 0 0 -45.39c0,0 9.83,0 29.5,0 19.67,0 29.5,0 29.5,0 78.68,0 146.01,-27.99 201.99,-83.97 55.98,-55.99 85.49,-123.31 88.51,-202l13.62 0zm0 -2514.7l-13.62 0c0,-78.68 -28.75,-146.01 -86.25,-201.99 -57.5,-55.98 -125.58,-83.98 -204.26,-83.98 0,0 -9.09,0 -27.24,0 -18.16,0 -27.24,0 -27.24,0l-4.53 -45.39 363.14 0 0 331.36z"/>
  <path id="_5" class="fil0" d="M13081.91 108.94l367.68 0 844.29 2709.89 -77.17 494.76 -1134.8 -3204.66zm2033.55 -99.86l36.31 367.67 -798.89 2433c0,0 -7.57,26.48 -22.7,79.43 -15.13,52.96 -30.27,118.02 -45.4,195.18 -15.12,77.17 -24.21,153.58 -27.23,229.23l-40.86 0 -81.71 -403.98 939.61 -2900.53 40.85 0zm0 4.53l953.23 2673.58 -99.87 626.4 -1007.7 -2809.75 154.33 -490.23zm1842.91 95.32l-848.82 2700.81c0,0 -7.56,27.23 -22.7,81.71 -15.13,54.47 -31.02,120.29 -47.66,197.45 -16.65,77.16 -26.49,152.07 -29.5,224.69l-40.86 0 -54.47 -449.37 789.81 -2755.28 254.19 0zm-340.44 299.58c24.21,-90.78 16.65,-160.38 -22.7,-208.8 -39.33,-48.42 -89.27,-72.63 -149.79,-72.63l-40.85 0 0 -45.39 894.21 0 0 45.39c0,0 -6.05,0 -18.15,0 -12.1,0 -18.16,0 -18.16,0 -69.6,0 -145.25,21.94 -226.95,65.82 -81.71,43.89 -139.2,115.75 -172.5,215.61l-245.12 0zm-3073.02 0l-358.59 0c-36.31,-99.86 -94.57,-171.72 -174.76,-215.61 -80.19,-43.88 -155.09,-65.82 -224.69,-65.82 0,0 -6.06,0 -18.16,0 -12.1,0 -18.15,0 -18.15,0l0 -45.39 1007.7 0 0 45.39 -40.86 0c-57.5,0 -108.18,24.21 -152.06,72.63 -43.89,48.42 -50.7,118.02 -20.43,208.8z"/>
 </g>
</svg>
