<?xml version="1.0" encoding="UTF-8"?>
<!DOCTYPE svg PUBLIC "-//W3C//DTD SVG 1.1//EN" "http://www.w3.org/Graphics/SVG/1.1/DTD/svg11.dtd">
<!-- Creator: CorelDRAW -->
<svg xmlns="http://www.w3.org/2000/svg" xml:space="preserve" width="263.509mm" height="50.6137mm" version="1.1" style="shape-rendering:geometricPrecision; text-rendering:geometricPrecision; image-rendering:optimizeQuality; fill-rule:evenodd; clip-rule:evenodd"
viewBox="0 0 32027.47 6151.7"
 xmlns:xlink="http://www.w3.org/1999/xlink"
 xmlns:xodm="http://www.corel.com/coreldraw/odm/2003">
 <defs>
  <style type="text/css">
   <![CDATA[
    .fil0 {fill:#e1cd9b;fill-rule:nonzero}
   ]]>
  </style>
 </defs>
 <g id="Capa_x0020_1">
  <metadata id="CorelCorpID_0Corel-Layer"/>
  <path class="fil0" d="M1084.11 151.27l1184.96 0c252.11,0 480.42,36.41 684.91,109.25 204.49,72.83 376.78,177.89 516.85,315.15 140.07,137.27 247.92,302.54 323.56,495.83 75.64,193.3 113.45,413.19 113.45,659.72 0,268.92 -63.03,526.64 -189.08,773.17 -126.06,246.51 -296.94,446.8 -512.64,600.88 -215.71,154.07 -458.02,231.1 -726.94,231.1 95.24,39.22 198.89,119.06 310.94,239.52 112.05,120.45 210.1,236.7 294.14,348.77 0,0 37.81,54.62 113.45,163.88 75.64,109.24 170.88,242.31 285.73,399.18 114.86,156.87 231.11,310.95 348.77,462.22 117.65,151.27 218.51,271.72 302.54,361.37 112.05,123.26 224.11,232.51 336.16,327.75 112.05,95.24 233.91,170.88 365.57,226.91 131.65,56.03 278.73,84.05 441.2,84.05l0 84.03 -462.21 0c-257.72,0 -480.42,-39.22 -668.12,-117.65 -187.69,-78.44 -345.96,-175.08 -474.82,-289.94 -128.86,-114.86 -238.11,-225.51 -327.76,-331.96 -16.81,-22.41 -63.02,-86.84 -138.66,-193.29 -75.64,-106.46 -165.29,-233.91 -268.94,-382.38 -103.64,-148.48 -205.89,-295.54 -306.74,-441.21 -100.86,-145.67 -187.7,-270.32 -260.53,-373.97 -72.84,-103.65 -114.86,-163.88 -126.06,-180.68 -106.45,-140.07 -224.1,-268.92 -352.96,-386.59 -128.87,-117.65 -268.94,-176.48 -420.21,-176.48l0 -84.03c0,0 43.43,1.4 130.27,4.19 86.84,2.81 191.89,1.41 315.15,-4.19 145.67,-5.6 305.34,-28.02 479.02,-67.24 173.68,-39.22 336.16,-120.46 487.43,-243.72 151.27,-123.26 266.13,-310.94 344.56,-563.06 16.81,-61.63 30.81,-138.67 42.02,-231.11 11.21,-92.44 14.01,-183.49 8.41,-273.13 -5.6,-380.99 -102.25,-684.93 -289.94,-911.83 -187.69,-226.91 -438.4,-348.77 -752.15,-365.57 -156.87,-11.21 -317.95,-15.4 -483.23,-12.6 -165.29,2.81 -303.95,4.21 -416,4.21 -112.05,0 -168.08,0 -168.08,0 0,-5.6 -7,-29.41 -21,-71.43 -14.01,-42.03 -28.02,-84.05 -42.02,-126.06 -14.01,-42.02 -21.01,-63.03 -21.01,-63.03zm109.25 0l0 5882.77 -546.26 0 0 -5882.77 546.26 0zm-521.05 5269.29l0 613.48 -672.31 0 0 -84.03c0,0 18.21,0 54.62,0 36.41,0 54.62,0 54.62,0 145.67,0 270.33,-51.83 373.99,-155.48 103.64,-103.65 158.27,-228.3 163.88,-373.97l25.21 0zm0 -4655.79l-25.21 0c-5.6,-145.67 -60.24,-270.33 -163.88,-373.99 -103.65,-103.64 -228.32,-155.46 -373.99,-155.46 0,0 -18.21,0 -54.62,0 -36.41,0 -54.62,0 -54.62,0l0 -84.05 672.31 0 0 613.5zm495.83 4655.79l25.22 0c0,145.67 53.22,270.32 159.67,373.97 106.45,103.65 232.51,155.48 378.18,155.48 0,0 16.81,0 50.43,0 33.62,0 50.42,0 50.42,0l0 84.03 -663.91 0 0 -613.48zm5462.58 -5269.29l0 5882.77 -546.26 0 0 -5882.77 546.26 0zm2269.07 5622.25l0 260.53 -2294.29 0 0 -260.53 2294.29 0zm-361.38 -2764.9l0 252.11 -1932.91 0 0 -252.11 1932.91 0zm361.38 -2857.35l0 260.53 -2294.29 0 0 -260.53 2294.29 0zm512.64 4521.33l-487.43 1361.44 -1395.06 0 302.54 -260.53c296.94,0 539.26,-46.22 726.94,-138.67 187.69,-92.43 340.37,-222.7 458.02,-390.78 117.65,-168.08 221.3,-358.56 310.94,-571.47l84.05 0zm-874.02 -1428.67l0 554.66 -84.03 0 0 -126.06c0,-112.05 -39.22,-208.7 -117.65,-289.94 -78.44,-81.24 -173.68,-121.86 -285.73,-121.86l0 -16.8 487.42 0zm0 -773.17l0 554.66 -487.42 0 0 -16.81c112.05,-5.6 207.29,-49.02 285.73,-130.26 78.43,-81.24 117.65,-177.89 117.65,-289.94l0 -117.65 84.03 0zm361.38 -2084.18l0 672.31 -84.05 0 0 -151.27c0,-134.46 -47.62,-250.72 -142.86,-348.77 -95.25,-98.05 -212.91,-149.87 -352.97,-155.48l0 -16.8 579.88 0zm0 -386.59l0 243.72 -1025.29 -92.44c123.27,0 253.52,-8.4 390.79,-25.21 137.26,-16.81 264.72,-36.41 382.37,-58.83 117.65,-22.41 201.7,-44.82 252.13,-67.24zm-2790.12 5420.56l0 613.48 -672.31 0 0 -84.03c0,0 18.21,0 54.62,0 36.41,0 54.62,0 54.62,0 145.67,0 270.33,-51.83 373.99,-155.48 103.64,-103.65 158.27,-228.3 163.88,-373.97l25.21 0zm0 -4655.79l-25.21 0c0,-145.67 -53.22,-270.33 -159.68,-373.99 -106.45,-103.64 -232.51,-155.46 -378.18,-155.46 0,0 -16.8,0 -50.42,0 -33.62,0 -50.43,0 -50.43,0l-8.4 -84.05 672.31 0 0 613.5zm6756.78 5386.93l-2605.23 -5950 714.34 0 2058.97 5151.62 -168.08 798.37zm0 0l-75.64 -588.28 2235.45 -5386.93 504.24 0 -2277.48 5109.6c0,0 -15.4,35.02 -46.22,105.06 -30.81,70.03 -67.22,155.46 -109.24,256.32 -42.03,100.84 -78.44,198.89 -109.25,294.13 -30.81,95.24 -46.22,165.29 -46.22,210.1l-75.64 0zm1924.51 -5395.34c61.62,-168.08 50.42,-296.94 -33.62,-386.58 -84.05,-89.65 -179.29,-134.46 -285.73,-134.46l-75.64 0 0 -84.05 1689.19 0 0 84.05c0,0 -12.6,0 -37.81,0 -25.22,0 -37.82,0 -37.82,0 -123.26,0 -254.92,40.62 -394.99,121.86 -140.07,81.24 -254.92,217.1 -344.56,407.59l-479.02 -8.41zm-3588.5 0l-697.53 8.41c-84.03,-190.49 -196.1,-326.35 -336.16,-407.59 -140.07,-81.24 -274.53,-121.86 -403.39,-121.86 0,0 -11.21,0 -33.62,0 -22.41,0 -33.61,0 -33.61,0l0 -84.05 1890.88 0 0 84.05 -75.64 0c-106.45,0 -200.29,44.81 -281.53,134.46 -81.24,89.64 -91.05,218.5 -29.41,386.58zm6496.27 -605.09l0 5882.77 -546.26 0 0 -5882.77 546.26 0zm-521.05 5269.29l0 613.48 -672.31 0 0 -84.03c0,0 18.21,0 54.62,0 36.41,0 54.62,0 54.62,0 145.67,0 270.33,-51.83 373.99,-155.48 103.64,-103.65 158.27,-228.3 163.88,-373.97l25.21 0zm0 -4655.79l-25.21 0c-5.6,-145.67 -60.24,-270.33 -163.88,-373.99 -103.65,-103.64 -228.32,-155.46 -373.99,-155.46 0,0 -18.21,0 -54.62,0 -36.41,0 -54.62,0 -54.62,0l0 -84.05 672.31 0 0 613.5zm495.83 4655.79l25.22 0c5.6,145.67 60.22,270.32 163.88,373.97 103.65,103.65 228.3,155.48 373.97,155.48 0,0 16.81,0 50.43,0 33.62,0 53.22,0 58.83,0l0 84.03 -672.32 0 0 -613.48zm0 -4655.79l0 -613.5 672.32 0 0 84.05c-5.6,0 -25.21,0 -58.83,0 -33.62,0 -50.43,0 -50.43,0 -145.67,0 -270.32,51.83 -373.97,155.46 -103.65,103.65 -158.27,228.32 -163.88,373.99l-25.22 0zm2865.76 -613.5l0 5882.77 -546.26 0 0 -5882.77 546.26 0zm2269.07 5622.25l0 260.53 -2294.29 0 0 -260.53 2294.29 0zm-361.38 -2764.9l0 252.11 -1932.91 0 0 -252.11 1932.91 0zm361.38 -2857.35l0 260.53 -2294.29 0 0 -260.53 2294.29 0zm512.64 4521.33l-487.43 1361.44 -1395.06 0 302.54 -260.53c296.94,0 539.26,-46.22 726.94,-138.67 187.69,-92.43 340.37,-222.7 458.02,-390.78 117.65,-168.08 221.3,-358.56 310.94,-571.47l84.05 0zm-874.02 -1428.67l0 554.66 -84.03 0 0 -126.06c0,-112.05 -39.22,-208.7 -117.65,-289.94 -78.44,-81.24 -173.68,-121.86 -285.73,-121.86l0 -16.8 487.42 0zm0 -773.17l0 554.66 -487.42 0 0 -16.81c112.05,-5.6 207.29,-49.02 285.73,-130.26 78.43,-81.24 117.65,-177.89 117.65,-289.94l0 -117.65 84.03 0zm361.38 -2084.18l0 672.31 -84.05 0 0 -151.27c0,-134.46 -47.62,-250.72 -142.86,-348.77 -95.25,-98.05 -212.91,-149.87 -352.97,-155.48l0 -16.8 579.88 0zm0 -386.59l0 243.72 -1025.29 -92.44c123.27,0 253.52,-8.4 390.79,-25.21 137.26,-16.81 264.72,-36.41 382.37,-58.83 117.65,-22.41 201.7,-44.82 252.13,-67.24zm-2790.12 5420.56l0 613.48 -672.31 0 0 -84.03c0,0 18.21,0 54.62,0 36.41,0 54.62,0 54.62,0 145.67,0 270.33,-51.83 373.99,-155.48 103.64,-103.65 158.27,-228.3 163.88,-373.97l25.21 0zm0 -4655.79l-25.21 0c0,-145.67 -53.22,-270.33 -159.68,-373.99 -106.45,-103.64 -232.51,-155.46 -378.18,-155.46 0,0 -16.8,0 -50.42,0 -33.62,0 -50.43,0 -50.43,0l-8.4 -84.05 672.31 0 0 613.5zm4201.98 -563.07l680.72 0 1563.14 5017.16 -142.87 916.03 -2100.99 -5933.19zm3764.97 -184.89l67.22 680.72 -1479.09 4504.52c0,0 -14,49.02 -42.02,147.07 -28.02,98.05 -56.03,218.51 -84.03,361.37 -28.02,142.87 -44.82,284.34 -50.43,424.4l-75.64 0 -151.27 -747.95 1739.62 -5370.13 75.64 0zm0 8.41l1764.83 4949.93 -184.89 1159.74 -1865.67 -5202.05 285.73 -907.62zm3412 176.48l-1571.54 5000.35c0,0 -14,50.43 -42.02,151.27 -28.02,100.84 -57.43,222.7 -88.24,365.57 -30.82,142.86 -49.03,281.53 -54.63,415.99l-75.64 0 -100.84 -831.99 1462.29 -5101.2 470.62 0zm-630.29 554.66c44.82,-168.08 30.81,-296.94 -42.02,-386.58 -72.84,-89.65 -165.29,-134.46 -277.33,-134.46l-75.64 0 0 -84.05 1655.57 0 0 84.05c0,0 -11.19,0 -33.61,0 -22.41,0 -33.62,0 -33.62,0 -128.86,0 -268.92,40.62 -420.2,121.86 -151.27,81.24 -257.73,214.29 -319.35,399.18l-453.81 0zm-5689.48 0l-663.91 0c-67.22,-184.89 -175.08,-317.94 -323.55,-399.18 -148.48,-81.24 -287.14,-121.86 -416,-121.86 0,0 -11.21,0 -33.62,0 -22.41,0 -33.61,0 -33.61,0l0 -84.05 1865.67 0 0 84.05 -75.64 0c-106.45,0 -200.29,44.81 -281.53,134.46 -81.24,89.64 -93.84,218.5 -37.82,386.58z"/>
 </g>
</svg>
