<?xml version="1.0" encoding="UTF-8"?>
<!DOCTYPE svg PUBLIC "-//W3C//DTD SVG 1.1//EN" "http://www.w3.org/Graphics/SVG/1.1/DTD/svg11.dtd">
<!-- Creator: CorelDRAW -->
<svg xmlns="http://www.w3.org/2000/svg" xml:space="preserve" width="280.342mm" height="123.988mm" version="1.1" style="shape-rendering:geometricPrecision; text-rendering:geometricPrecision; image-rendering:optimizeQuality; fill-rule:evenodd; clip-rule:evenodd"
viewBox="0 0 28763.49 12721.33"
 xmlns:xlink="http://www.w3.org/1999/xlink"
 xmlns:xodm="http://www.corel.com/coreldraw/odm/2003">
 <defs>
  <style type="text/css">
   <![CDATA[
    .fil0 {fill:#e1cd9b;fill-rule:nonzero}
   ]]>
  </style>
 </defs>
 <g id="Capa_x0020_1">
  <metadata id="CorelCorpID_0Corel-Layer"/>
  <path class="fil0" d="M10619.4 1512.97c-4.59,9.17 -9.17,18.35 -13.76,27.51 -4.58,9.17 -25.21,6.88 -61.89,-6.87 -59.6,-22.92 -114.62,-36.68 -165.05,-41.27 -50.43,-4.59 -98.57,-4.59 -144.42,0 -114.62,13.76 -247.58,60.75 -398.87,140.98 -151.3,80.23 -312.9,181.1 -484.83,302.59 -171.93,121.5 -346.15,259.04 -522.66,412.63 -176.52,153.58 -348.44,309.47 -515.79,467.65 -167.34,158.17 -324.37,314.05 -471.08,467.64 -146.71,153.59 -272.8,289.99 -378.24,409.19 -252.16,284.26 -459.62,543.29 -622.38,777.11 -162.76,233.83 -296.87,435.55 -402.31,605.19 -36.68,59.6 -72.21,121.49 -106.6,185.68 -34.38,64.19 -68.76,121.5 -103.16,171.93 -34.38,50.43 -67.62,91.69 -99.72,123.79 -32.09,32.09 -61.89,43.55 -89.41,34.38 -50.43,-13.75 -75.65,-57.3 -75.65,-130.66 0,-73.36 32.09,-176.52 96.28,-309.47 50.44,-105.45 124.94,-233.83 223.51,-385.12 98.58,-151.3 207.46,-311.76 326.66,-481.4 91.71,-187.98 135.26,-356.47 130.67,-505.48 -4.59,-149 -43.55,-283.11 -116.91,-402.31 -59.6,55.01 -115.77,107.74 -168.49,158.18 -52.73,50.43 -104.3,100.86 -154.73,151.3 -485.98,485.98 -931.86,880.27 -1337.6,1182.86 -405.75,302.59 -775.96,537.57 -1110.66,704.91 -334.69,167.34 -633.84,280.81 -897.46,340.41 -263.62,59.6 -494,89.41 -691.15,89.41 -132.95,0 -265.91,-13.76 -398.87,-41.27 -132.95,-27.51 -251.01,-79.09 -354.17,-154.73 -103.16,-75.65 -183.39,-177.65 -240.7,-306.03 -57.3,-128.37 -74.5,-293.43 -51.58,-495.15 13.76,-155.88 59.6,-316.35 137.55,-481.41 77.94,-165.04 178.8,-327.8 302.59,-488.27 123.79,-160.47 268.21,-314.06 433.26,-460.77 165.04,-146.71 343.85,-279.67 536.41,-398.87 137.55,-82.52 285.41,-157.03 443.58,-223.51 158.17,-66.48 318.64,-123.79 481.4,-171.93 162.77,-48.14 323.22,-89.4 481.41,-123.79 158.17,-34.38 308.33,-58.45 450.45,-72.21 -36.68,-27.51 -79.09,-80.23 -127.23,-158.17 -48.14,-77.95 -65.34,-171.93 -51.58,-281.96 22.92,-224.66 115.77,-420.66 278.52,-588 162.76,-167.34 365.63,-307.18 608.62,-419.51 243,-112.33 512.35,-197.15 808.07,-254.45 295.72,-57.31 588,-85.97 876.83,-85.97 334.69,0 644.16,13.76 928.42,41.27 284.25,27.51 546.73,64.19 787.42,110.03 240.7,45.85 465.36,95.14 673.97,147.86 208.6,52.73 409.18,104.3 601.75,154.74 32.09,9.16 75.65,21.77 130.66,37.82 55.01,16.05 113.48,33.24 175.37,51.58 61.9,18.35 124.94,37.83 189.13,58.46 64.19,20.62 121.49,40.12 171.93,58.45 55.01,13.75 82.52,32.09 82.52,55.01zm-639.58 -27.51c-160.47,13.76 -309.47,42.41 -447.01,85.96 -137.54,43.56 -293.42,99.72 -467.65,168.49 -467.64,187.98 -900.9,425.24 -1299.77,711.79 -398.87,286.54 -756.48,574.24 -1072.83,863.08 64.19,96.28 108.89,205.16 134.1,326.66 25.22,121.49 17.2,253.3 -24.07,395.44 91.69,-119.2 186.83,-234.97 285.41,-347.3 98.57,-112.33 193.7,-214.34 285.4,-306.04 490.57,-499.73 950.19,-914.65 1378.87,-1244.76 428.67,-330.1 837.86,-547.87 1227.56,-653.32zm165.05 -89.41c-36.68,-9.16 -76.8,-18.33 -120.35,-27.51 -43.55,-9.16 -90.55,-18.33 -140.98,-27.51 -192.55,-36.68 -385.11,-73.35 -577.68,-110.03 -192.56,-36.68 -404.61,-68.77 -636.14,-96.28 -231.53,-27.51 -492.86,-50.43 -783.99,-68.77 -291.13,-18.33 -629.25,-27.51 -1014.38,-27.51 -288.84,0 -576.54,26.36 -863.08,79.09 -286.54,52.73 -545.58,128.37 -777.11,226.94 -231.53,98.58 -424.09,217.78 -577.68,357.62 -153.59,139.84 -239.55,299.15 -257.9,477.96 -9.16,119.2 12.61,209.75 65.34,271.65 52.73,61.89 97.43,102.01 134.1,120.35 36.68,-4.59 69.92,-8.02 99.72,-10.32 29.81,-2.29 60.75,-3.44 92.84,-3.44 398.87,-9.16 747.32,37.83 1045.32,140.98 298.02,103.16 534.12,244.14 708.35,422.94 357.61,-288.84 737,-560.49 1138.17,-814.94 401.16,-254.45 821.82,-461.91 1261.94,-622.38 229.24,-87.11 435.55,-154.73 618.94,-202.87 183.39,-48.14 378.25,-76.8 584.56,-85.97zm-3672.39 1788.05c-174.22,-169.63 -410.33,-298.01 -708.35,-385.11 -298.01,-87.11 -621.23,-123.79 -969.67,-110.04 -142.12,4.59 -300.29,26.37 -474.52,65.34 -174.22,38.97 -351.88,89.41 -532.97,151.3 -181.1,61.9 -358.76,132.96 -532.98,213.2 -174.22,80.23 -332.39,163.91 -474.52,251.01 -192.56,123.79 -373.65,254.45 -543.29,392 -169.63,137.54 -318.64,277.37 -447.01,419.51 -128.37,142.12 -232.67,285.4 -312.9,429.82 -80.23,144.42 -127.23,283.11 -140.98,416.07 -22.92,178.8 -10.31,325.51 37.83,440.13 48.14,114.63 115.77,205.17 202.87,271.65 87.11,66.49 187.98,113.48 302.59,140.98 114.62,27.51 231.53,41.27 350.73,41.27 252.16,0 512.35,-49.29 780.55,-147.86 268.21,-98.58 552.47,-242.99 852.77,-433.26 300.3,-190.26 620.08,-426.38 959.35,-708.34 339.27,-281.97 706.06,-606.33 1100.35,-973.11 87.11,-77.95 175.37,-157.03 264.76,-237.27 89.41,-80.23 184.54,-159.32 285.41,-237.27zm4635.19 -268.2c0,9.16 -12.61,14.9 -37.83,17.19 -25.21,2.3 -46.99,5.74 -65.33,10.32 -132.96,13.75 -281.97,84.81 -447.01,213.19 -87.12,68.77 -179.95,150.16 -278.53,244.14 -98.57,93.99 -197.14,191.41 -295.71,292.28 -98.58,100.87 -194.86,202.87 -288.84,306.03 -93.99,103.16 -179.95,200.59 -257.9,292.28 73.36,-68.77 178.81,-158.17 316.35,-268.21 137.55,-110.03 281.97,-214.33 433.26,-312.9 151.3,-98.58 294.57,-177.66 429.82,-237.27 135.25,-59.6 234.97,-75.65 299.15,-48.14 59.6,32.09 90.55,90.55 92.84,175.37 2.29,84.82 -18.35,183.39 -61.9,295.72 -43.55,112.33 -104.3,229.24 -182.24,350.73 -77.95,121.5 -167.34,232.68 -268.21,333.55 -302.59,307.18 -588,536.41 -856.2,687.71 -268.21,151.3 -510.06,224.66 -725.55,220.07 -45.84,-4.59 -81.37,-11.46 -106.59,-20.63 -25.22,-9.16 -53.87,-25.21 -85.96,-48.14 -36.68,-27.51 -56.16,-61.89 -58.46,-103.16 -2.29,-41.26 8.02,-64.19 30.95,-68.76 18.33,-4.59 30.94,0 37.82,13.75 6.87,13.76 12.61,27.51 17.2,41.27 9.16,22.92 24.07,42.41 44.7,58.45 20.62,16.05 49.28,24.07 85.96,24.07 64.19,9.17 130.66,0 199.44,-27.51 68.77,-27.51 152.45,-77.95 251.01,-151.3 98.57,-73.36 215.48,-175.37 350.73,-306.03 135.25,-130.67 303.74,-299.16 505.48,-505.48 68.76,-68.77 145.56,-147.86 230.38,-237.26 84.82,-89.41 161.61,-175.37 230.38,-257.9 68.77,-82.52 121.5,-155.88 158.18,-220.07 36.67,-64.19 41.26,-105.44 13.75,-123.79 -45.84,-32.09 -140.98,-12.6 -285.4,58.46 -144.42,71.06 -307.18,171.93 -488.28,302.59 -181.1,130.66 -366.78,277.37 -557.04,440.14 -190.27,162.76 -354.18,317.49 -491.72,464.2 -132.96,142.13 -293.43,312.91 -481.41,512.35 -187.98,199.44 -388.55,408.05 -601.75,625.82 -213.19,217.78 -430.97,432.12 -653.32,643.01 -222.36,210.9 -429.82,396.58 -622.38,557.05 -426.38,353.02 -844.75,651.03 -1255.08,894.03 -410.33,242.99 -812.64,437.84 -1206.93,584.55 -394.3,146.71 -781.71,249.86 -1162.24,309.48 -380.54,59.6 -754.19,84.81 -1120.97,75.65 -375.95,-9.17 -700.33,-72.21 -973.12,-192.56 -272.79,-119.2 -485.98,-277.38 -639.57,-474.52 -153.59,-197.15 -244.14,-419.51 -271.65,-667.08 -27.51,-247.58 16.05,-499.74 130.66,-756.49 13.76,-22.92 29.81,-50.43 48.14,-82.52 18.33,-32.09 37.82,-60.75 58.45,-85.96 20.63,-25.22 41.27,-44.7 61.9,-58.46 20.63,-13.75 37.82,-13.75 51.58,0 4.59,9.17 -2.3,34.39 -20.63,75.65 -18.33,41.27 -34.38,75.65 -48.14,103.16 -123.79,252.16 -175.37,498.6 -154.73,739.29 20.63,240.7 102.01,455.04 244.14,643.01 142.12,187.98 339.27,341.57 591.44,460.77 252.15,119.2 547.87,183.39 887.14,192.55 761.08,21.78 1512.97,-127.23 2255.7,-444.72 742.73,-317.5 1499.21,-797.75 2269.46,-1439.61 403.45,-339.27 845.89,-763.36 1327.28,-1272.28 481.4,-508.9 1013.23,-1079.7 1595.49,-1712.41 238.4,-256.74 450.45,-461.91 636.14,-615.5 185.68,-153.59 365.63,-283.12 539.86,-388.56 114.62,-73.36 215.48,-122.64 302.59,-147.86 87.11,-25.22 155.88,-37.83 206.31,-37.83 22.92,0 49.29,3.45 79.09,10.32 29.81,6.87 42.42,21.77 37.83,44.7zm8115 -1595.5c-27.51,160.47 -81.37,286.56 -161.61,378.25 -80.23,91.69 -152.45,153.58 -216.63,185.68 -41.27,22.92 -66.48,22.92 -75.65,0 -4.59,-9.17 -4.59,-16.05 0,-20.63 4.59,-4.59 18.33,-18.33 41.27,-41.26 50.43,-41.27 100.86,-102.02 151.3,-182.25 50.43,-80.23 84.81,-166.19 103.16,-257.89 27.51,-165.05 20.63,-324.37 -20.63,-477.96 -41.27,-153.59 -123.79,-288.84 -247.58,-405.76 -123.79,-116.9 -289.98,-209.75 -498.59,-278.52 -208.61,-68.77 -461.91,-103.16 -759.93,-103.16 -265.91,0 -532.97,40.12 -801.18,120.35 -268.21,80.23 -535.27,187.98 -801.18,323.22 -265.92,135.25 -527.25,289.98 -784,464.2 -256.75,174.23 -504.32,357.62 -742.73,550.18 -412.62,325.51 -843.59,704.9 -1292.9,1138.16 -449.3,433.26 -896.31,879.13 -1341.04,1337.6 -137.54,142.13 -272.79,286.56 -405.75,433.26 -132.96,146.71 -247.58,280.81 -343.86,402.31 -96.28,121.5 -165.05,224.66 -206.31,309.47 -41.27,84.82 -41.27,138.7 0,161.62 50.43,27.51 121.49,17.2 213.19,-30.94 91.69,-48.14 215.48,-124.94 371.37,-230.39 100.87,-73.35 217.78,-166.19 350.73,-278.52 132.96,-112.33 270.51,-228.09 412.63,-347.3 13.76,-9.16 28.66,-19.48 44.7,-30.94 16.05,-11.46 33.23,-8.02 51.58,10.31 13.75,13.76 16.05,27.52 6.87,41.27 -9.17,13.76 -20.63,25.22 -34.38,34.38 -45.85,45.85 -102.02,97.43 -168.49,154.74 -66.48,57.3 -136.4,116.9 -209.76,178.8 -73.35,61.89 -147.85,121.49 -223.51,178.8 -75.65,57.31 -145.56,108.89 -209.75,154.73 -137.54,96.28 -265.91,175.37 -385.11,237.27 -119.21,61.89 -224.66,81.37 -316.35,58.45 -100.87,-27.51 -158.18,-95.13 -171.93,-202.87 -13.76,-107.74 32.09,-246.43 137.54,-416.07 77.95,-119.2 193.71,-270.5 347.3,-453.89 153.59,-183.39 340.42,-387.41 560.49,-612.07 114.62,-119.2 261.33,-271.65 440.14,-457.32 178.8,-185.69 383.96,-389.7 615.5,-612.07 231.53,-222.36 484.84,-452.74 759.93,-691.15 275.08,-238.4 568.51,-467.64 880.28,-687.71 252.15,-178.8 511.19,-350.73 777.11,-515.79 265.91,-165.05 536.41,-309.47 811.5,-433.25 275.08,-123.79 554.76,-222.37 839,-295.72 284.26,-73.36 570.8,-110.04 859.65,-110.04 330.1,0 607.48,40.12 832.13,120.35 224.66,80.23 402.32,183.39 532.98,309.47 130.66,126.09 216.63,267.07 257.89,422.95 41.27,155.87 48.14,311.75 20.63,467.64zm-4532.03 2145.67c-146.71,132.95 -291.13,267.06 -433.25,402.31 -142.12,135.25 -273.94,264.77 -395.44,388.56 -121.5,123.79 -231.53,238.4 -330.1,343.85 -98.58,105.45 -177.66,192.56 -237.27,261.34 -105.44,132.96 -186.83,244.14 -244.14,333.54 -57.3,89.41 -60.74,145.57 -10.31,168.49 27.51,13.76 67.62,9.17 120.35,-13.75 52.73,-22.93 112.33,-53.88 178.8,-92.84 66.48,-38.97 131.81,-82.52 196,-130.66 64.19,-48.14 121.49,-90.56 171.93,-127.23 110.03,-87.12 225.79,-183.4 347.3,-288.84 121.49,-105.45 223.51,-194.85 306.03,-268.21 9.17,-9.17 22.92,-17.2 41.27,-24.07 18.33,-6.87 32.09,-1.15 41.26,17.2 9.17,22.92 9.17,40.12 0,51.58 -9.16,11.46 -20.62,24.07 -34.38,37.82 -100.87,87.12 -212.05,182.25 -333.54,285.41 -121.5,103.16 -223.51,189.13 -306.04,257.89 -50.43,41.27 -108.88,85.97 -175.37,134.11 -66.48,48.14 -134.1,92.83 -202.87,134.1 -68.77,41.27 -134.1,75.65 -196,103.16 -61.89,27.51 -115.77,41.27 -161.61,41.27 -59.6,0 -110.04,-12.61 -151.3,-37.83 -41.27,-25.21 -69.92,-63.04 -85.97,-113.47 -16.05,-50.44 -14.9,-111.18 3.44,-182.24 18.35,-71.07 59.6,-154.74 123.79,-251.02 -201.72,169.64 -389.7,309.48 -563.93,419.51 -174.22,110.04 -316.34,165.05 -426.38,165.05 -119.2,0 -192.55,-38.97 -220.07,-116.91 -27.51,-77.94 -21.77,-176.52 17.2,-295.72 38.97,-119.2 103.16,-248.72 192.56,-388.55 89.4,-139.84 193.7,-269.36 312.9,-388.56 137.55,-137.55 292.28,-268.21 464.21,-392 171.93,-123.79 341.57,-226.94 508.91,-309.47 167.34,-82.53 322.08,-139.84 464.2,-171.93 142.13,-32.09 249.88,-27.51 323.22,13.75 45.85,27.52 65.34,80.23 58.46,158.18 -6.88,77.94 -76.8,181.09 -209.76,309.47 137.55,-114.62 253.31,-205.16 347.3,-271.65 93.99,-66.48 170.78,-111.18 230.39,-134.1 82.52,-27.51 171.92,-36.68 268.2,-27.51zm-749.61 55.01c-64.19,-50.43 -220.07,5.74 -467.65,168.49 -247.58,162.76 -554.76,418.36 -921.53,766.8 -105.44,100.86 -202.87,202.87 -292.28,306.03 -89.4,103.16 -162.76,197.15 -220.06,281.96 -57.31,84.82 -95.14,157.03 -113.48,216.63 -18.33,59.6 -6.87,98.57 34.38,116.91 32.09,13.75 90.56,-1.15 175.37,-44.7 84.82,-43.55 187.98,-107.74 309.48,-192.56 121.49,-84.82 253.3,-189.11 395.44,-312.9 142.12,-123.79 286.54,-261.34 433.25,-412.63 68.77,-68.77 147.86,-149.01 237.27,-240.7 89.4,-91.69 171.93,-181.09 247.58,-268.2 75.65,-87.12 134.1,-166.2 175.37,-237.27 41.27,-71.06 43.55,-120.35 6.87,-147.86zm2049.39 302.59c-32.09,64.19 -69.92,126.09 -113.48,185.69 -43.55,59.6 -97.42,114.62 -161.61,165.04 -32.09,27.51 -75.65,55.03 -130.67,82.53 -55.01,27.51 -100.86,20.62 -137.54,-20.63 -18.35,-22.92 -22.92,-48.14 -13.76,-75.65 9.17,-27.51 26.37,-55.01 51.58,-82.53 25.22,-27.51 53.88,-52.72 85.97,-75.65 32.09,-22.92 61.89,-43.55 89.4,-61.89 146.72,-91.69 239.55,-178.8 278.53,-261.34 38.97,-82.52 33.23,-139.84 -17.2,-171.93 -32.09,-22.92 -92.84,-9.16 -182.24,41.27 -89.41,50.43 -189.13,119.2 -299.15,206.31 -110.04,87.12 -224.66,183.39 -343.86,288.84 -119.2,105.45 -222.37,201.73 -309.48,288.84 -302.59,288.83 -497.44,522.66 -584.55,701.46 -87.11,178.8 -91.69,291.13 -13.76,336.98 41.27,22.92 96.28,27.51 165.05,13.75 68.77,-13.75 139.84,-35.53 213.19,-65.34 73.36,-29.8 145.57,-65.33 216.63,-106.59 71.06,-41.27 127.23,-75.65 168.49,-103.16 64.19,-41.27 134.1,-91.69 209.75,-151.3 75.65,-59.6 151.3,-119.2 226.95,-178.8 75.65,-59.6 146.71,-119.2 213.19,-178.81 66.48,-59.6 124.94,-110.03 175.37,-151.3 36.68,-27.51 64.19,-32.09 82.52,-13.75 27.52,18.33 22.93,41.27 -13.75,68.77 -91.69,91.69 -205.17,192.55 -340.42,302.59 -135.25,110.03 -262.47,210.9 -381.68,302.59 -119.2,87.11 -248.73,167.34 -388.56,240.7 -139.84,73.35 -285.4,119.2 -436.69,137.54 -132.96,13.76 -237.27,-11.46 -312.91,-75.65 -75.65,-64.19 -111.18,-149 -106.59,-254.45 0,-155.88 53.87,-318.64 161.61,-488.28 107.74,-169.63 248.73,-334.69 422.94,-495.15 132.96,-123.79 276.23,-238.4 429.83,-343.86 153.58,-105.44 300.29,-192.55 440.13,-261.33 139.84,-68.77 267.06,-115.77 381.69,-140.98 114.62,-25.21 201.72,-21.77 261.33,10.32 36.68,22.92 59.6,50.43 68.77,82.52 9.17,32.09 11.46,67.62 6.87,106.59 -4.59,38.98 -13.75,75.65 -27.51,110.04 -13.75,34.38 -25.22,63.04 -34.38,85.96zm1540.48 -398.87c55.01,32.09 84.81,73.36 89.4,123.79 4.59,50.43 -9.16,103.16 -41.26,158.17 -32.09,55.03 -76.8,111.19 -134.11,168.49 -57.3,57.31 -118.05,108.89 -182.24,154.73 -55.01,36.68 -124.94,74.51 -209.76,113.48 -84.81,38.97 -169.63,71.06 -254.45,96.28 -84.82,25.22 -165.04,42.41 -240.69,51.58 -75.66,9.17 -129.52,2.29 -161.62,-20.63 -105.45,100.87 -210.9,209.76 -316.35,326.66 -105.44,116.91 -193.7,229.24 -264.76,336.98 -71.07,107.74 -116.91,201.72 -137.55,281.96 -20.63,80.23 1.15,134.11 65.34,161.62 64.19,22.92 158.17,14.9 281.96,-24.07 123.79,-38.97 256.75,-104.3 398.87,-196 165.05,-105.45 327.81,-224.66 488.28,-357.61 160.47,-132.96 288.83,-245.29 385.11,-336.98 13.76,-13.76 30.95,-25.22 51.58,-34.38 20.63,-9.17 35.53,-6.88 44.7,6.87 13.76,18.33 14.9,35.53 3.44,51.58 -11.46,16.05 -24.07,30.94 -37.82,44.7 -119.2,105.44 -242.99,212.05 -371.37,319.79 -128.37,107.74 -268.21,214.33 -419.51,319.78 -119.2,87.12 -255.6,163.91 -409.19,230.39 -153.58,66.48 -296.86,95.13 -429.82,85.96 -91.69,-9.16 -169.63,-42.41 -233.82,-99.72 -64.19,-57.3 -89.41,-147.86 -75.65,-271.65 0,-32.09 8.02,-76.8 24.07,-134.1 16.05,-57.31 43.55,-124.94 82.52,-202.87 38.97,-77.95 92.84,-163.91 161.62,-257.9 68.76,-93.98 158.17,-193.7 268.2,-299.15 128.37,-123.79 271.65,-241.84 429.83,-354.17 158.17,-112.33 311.76,-206.31 460.76,-281.96 149.01,-75.65 285.41,-129.52 409.19,-161.62 123.79,-32.09 215.48,-32.09 275.08,0zm-41.27 61.9c-22.92,-18.35 -74.5,-4.59 -154.73,41.26 -80.23,45.85 -173.08,106.6 -278.52,182.25 -105.45,75.65 -214.34,160.46 -326.67,254.45 -112.32,93.98 -209.75,182.24 -292.27,264.77 27.51,9.16 67.62,9.16 120.35,0 52.72,-9.17 113.47,-27.52 182.24,-55.03 68.77,-27.51 140.98,-63.04 216.63,-106.59 75.65,-43.55 152.43,-95.13 230.38,-154.73 114.62,-91.69 202.87,-178.8 264.77,-261.34 61.89,-82.52 74.5,-137.54 37.82,-165.04zm2998.44 -55.03c105.44,55.03 115.77,187.98 30.94,398.87 -84.82,210.91 -273.95,463.06 -567.36,756.49 -151.3,151.3 -296.87,286.54 -436.7,405.75 -139.84,119.2 -271.65,217.78 -395.44,295.72 -123.78,77.95 -234.97,132.96 -333.54,165.05 -98.57,32.09 -179.95,41.26 -244.14,27.51 -105.44,-27.51 -174.22,-82.52 -206.31,-165.05 -32.09,-82.52 -33.24,-183.39 -3.44,-302.59 29.8,-119.2 88.26,-249.86 175.37,-392 87.11,-142.12 199.44,-284.25 336.97,-426.38 142.13,-142.12 293.43,-269.35 453.9,-381.68 160.46,-112.33 317.49,-202.87 471.08,-271.65 153.58,-68.77 293.42,-113.48 419.51,-134.11 126.08,-20.62 225.79,-12.6 299.15,24.07zm-41.27 82.53c-36.68,-27.51 -97.43,-25.22 -182.24,6.87 -84.82,32.09 -187.98,90.55 -309.48,175.37 -121.49,84.82 -255.6,191.41 -402.31,319.79 -146.71,128.37 -298.01,275.08 -453.89,440.14 -100.87,105.44 -193.71,207.46 -278.53,306.03 -84.81,98.57 -154.73,189.13 -209.75,271.65 -55.01,82.52 -88.26,154.73 -99.72,216.63 -11.46,61.89 5.74,106.59 51.58,134.1 41.27,22.92 103.16,14.9 185.69,-24.07 82.52,-38.97 181.09,-102.01 295.71,-189.13 114.63,-87.11 243,-194.85 385.12,-323.22 142.12,-128.36 291.13,-272.79 447.01,-433.25 68.77,-68.77 143.27,-149.01 223.51,-240.7 80.23,-91.69 151.3,-182.24 213.2,-271.65 61.89,-89.4 107.74,-169.63 137.54,-240.69 29.81,-71.07 28.66,-120.35 -3.44,-147.86zm8300.69 -2193.81c-32.09,160.47 -87.11,286.56 -165.04,378.25 -77.95,91.69 -149.01,153.58 -213.2,185.68 -27.51,13.76 -45.85,19.48 -55.01,17.2 -9.17,-2.3 -16.05,-8.02 -20.63,-17.2 -4.59,-9.17 -5.74,-16.05 -3.44,-20.63 2.29,-4.59 17.2,-18.33 44.7,-41.26 50.43,-41.27 99.72,-102.02 147.86,-182.25 48.14,-80.23 81.37,-166.19 99.72,-257.89 32.09,-165.05 26.36,-324.37 -17.2,-477.96 -43.55,-153.59 -126.09,-288.84 -247.58,-405.76 -121.5,-116.9 -286.54,-209.75 -495.15,-278.52 -208.61,-68.77 -461.91,-103.16 -759.93,-103.16 -531.82,0 -1072.83,128.37 -1623,385.11 -550.17,256.75 -1091.18,607.48 -1623,1052.21 -353.03,293.42 -704.91,609.77 -1055.64,949.04 -350.73,339.27 -711.79,701.46 -1083.14,1086.59 64.18,0 154.73,-1.15 271.64,-3.44 116.91,-2.3 218.93,-1.15 306.04,3.44 9.16,0 18.33,2.29 27.51,6.87 9.17,4.59 11.46,16.05 6.87,34.38 -13.75,27.52 -38.97,41.27 -75.65,41.27 -36.68,0 -82.52,1.15 -137.54,3.44 -55.03,2.3 -112.33,4.59 -171.93,6.88 -59.6,2.29 -116.91,4.58 -171.93,6.87 -55.01,2.29 -103.16,3.44 -144.42,3.44 -119.2,128.37 -244.14,265.91 -374.8,412.63 -130.66,146.71 -261.34,292.27 -392,436.69 -130.66,144.42 -255.6,280.82 -374.8,409.19 -119.2,128.36 -222.36,238.4 -309.48,330.1 -325.51,343.86 -656.76,677.39 -993.75,1000.62 -336.97,323.22 -647.59,597.17 -931.85,821.82 -440.14,353.03 -861.93,652.19 -1265.39,897.46 -403.46,245.29 -794.31,444.73 -1172.55,598.32 -378.25,153.58 -745.03,264.76 -1100.35,333.54 -355.32,68.77 -702.61,98.57 -1041.89,89.41 -375.94,-9.17 -700.32,-72.21 -973.11,-192.56 -272.79,-119.2 -485.98,-277.38 -639.58,-474.52 -153.58,-197.15 -244.13,-419.51 -271.64,-667.08 -27.52,-247.58 16.05,-499.74 130.66,-756.49 13.75,-22.92 29.8,-50.43 48.14,-82.52 18.33,-32.09 37.82,-60.75 58.45,-85.96 20.63,-25.22 41.27,-44.7 61.9,-58.46 20.62,-13.75 37.82,-13.75 51.58,0 4.59,9.17 -2.3,34.39 -20.63,75.65 -18.35,41.27 -34.39,75.65 -48.14,103.16 -123.79,252.16 -175.37,498.6 -154.73,739.29 20.63,240.7 102.01,455.04 244.14,643.01 142.12,187.98 339.27,341.57 591.42,460.77 252.16,119.2 547.88,183.39 887.15,192.55 375.95,9.17 740.44,-28.65 1093.46,-113.47 353.03,-84.82 703.76,-209.76 1052.2,-375.95 348.44,-165.05 695.74,-363.34 1041.89,-594.87 346.16,-232.68 698.04,-490.57 1055.64,-774.82 105.45,-82.52 232.68,-189.11 381.68,-319.79 149.01,-131.81 306.04,-275.08 471.08,-430.97 165.05,-155.88 333.55,-319.79 505.48,-492.86 171.93,-171.93 338.12,-340.42 498.59,-505.48 215.48,-224.65 443.58,-468.79 684.27,-730.12 240.7,-261.33 510.06,-558.19 808.07,-888.29 -59.6,0 -123.79,2.29 -192.56,6.87 -68.77,4.59 -144.42,11.46 -226.94,20.63 -45.85,4.59 -64.19,-6.87 -55.01,-34.38 4.59,-13.76 13.75,-22.93 27.51,-27.51 13.75,-4.59 25.22,-9.17 34.38,-13.76 18.35,-4.59 48.14,-9.17 89.41,-13.76 41.26,-4.58 85.96,-8.02 134.1,-10.31 48.14,-2.29 96.28,-5.74 144.42,-10.31 48.14,-4.59 90.55,-6.88 127.23,-6.88 201.73,-210.9 406.9,-422.94 615.51,-636.13 208.61,-213.2 414.92,-419.51 618.94,-618.94 204.02,-199.44 404.61,-387.41 601.75,-563.93 197.15,-176.52 387.41,-338.12 570.8,-484.83 238.4,-187.98 496.3,-361.05 773.68,-519.22 277.38,-158.18 565.08,-295.72 863.08,-412.63 298.01,-116.91 598.31,-207.46 900.9,-271.65 302.59,-64.19 598.31,-96.28 887.15,-96.28 330.1,0 607.48,40.12 832.14,120.35 224.65,80.23 401.16,183.39 529.54,309.47 128.37,126.09 214.33,267.07 257.89,422.95 43.55,155.87 51.58,311.75 24.07,467.64z"/>
  <path class="fil0" d="M6701 10616.93l-82.53 1079.71c-119.2,197.14 -269.35,372.5 -450.45,526.1 -181.09,153.58 -394.29,275.08 -639.58,364.48 -245.28,89.41 -526.1,134.11 -842.45,134.11 -476.81,-4.59 -900.9,-110.04 -1272.27,-316.35 -371.37,-206.31 -661.35,-496.3 -869.96,-869.96 -208.61,-373.65 -312.9,-814.94 -312.9,-1323.84 0,-499.74 103.16,-936.44 309.47,-1310.1 206.31,-373.65 496.3,-664.78 869.96,-873.39 373.66,-208.61 812.65,-312.91 1316.97,-312.91 339.27,0 645.3,44.7 918.1,134.11 272.8,89.4 510.05,200.58 711.79,333.54l137.54 969.67 -61.89 0c-100.87,-403.46 -307.18,-709.49 -618.94,-918.1 -311.76,-208.61 -673.96,-312.9 -1086.59,-312.9 -403.46,0 -753.04,95.13 -1048.76,285.4 -295.72,190.26 -524.96,456.19 -687.72,797.75 -162.76,341.57 -244.14,741.58 -244.14,1200.07 0,458.47 81.38,859.63 244.14,1203.49 162.76,343.86 389.71,612.07 680.84,804.62 291.13,192.56 629.25,293.43 1014.37,302.6 325.52,0 626.97,-60.75 904.35,-182.25 277.37,-121.49 510.05,-320.93 698.03,-598.31 187.98,-277.37 307.18,-649.89 357.61,-1117.53l55.03 0zm2812.74 -2902.15l2035.63 4869.01 -584.55 0 -1588.62 -4215.67 137.54 -653.33zm-1478.58 4408.25c-32.09,91.69 -36.68,169.63 -13.76,233.82 22.93,64.19 60.75,113.48 113.48,147.86 52.73,34.39 106.59,51.58 161.61,51.58l61.9 0 0 68.77 -1382.31 0 0 -68.77c0,0 10.32,0 30.94,0 20.63,0 30.95,0 30.95,0 105.44,0 214.33,-33.23 326.66,-99.72 112.33,-66.48 205.16,-177.65 278.52,-333.54l392 0zm1478.58 -4408.25l61.9 481.41 -1726.16 4408.23 -412.62 0 1760.55 -4181.29c0,0 12.61,-28.66 37.82,-85.97 25.22,-57.3 55.01,-127.23 89.41,-209.75 34.38,-82.52 64.19,-162.76 89.4,-240.7 25.22,-77.94 37.83,-135.25 37.83,-171.93l61.89 0zm969.67 3032.81l0 206.32 -2152.53 0 0 -206.32 2152.53 0zm309.48 1375.43l563.93 0c68.76,155.88 160.46,267.06 275.08,333.54 114.62,66.49 224.65,99.72 330.1,99.72 0,0 9.17,0 27.51,0 18.35,0 27.51,0 27.51,0l0 68.77 -1547.35 0 0 -68.77 61.89 0c87.12,0 165.05,-37.82 233.83,-113.47 68.77,-75.65 77.94,-182.25 27.51,-319.79zm2537.66 -4311.96l0 4813.99 -447.01 0 0 -4813.99 447.01 0zm1856.83 4600.8l0 213.2 -1877.46 0 0 -213.2 1877.46 0zm419.51 -900.9l-398.87 1114.1 -1141.6 0 247.58 -213.2c242.99,0 441.28,-37.82 594.87,-113.47 153.58,-75.65 278.52,-182.24 374.8,-319.79 96.27,-137.55 181.09,-293.43 254.45,-467.65l68.77 0zm-2702.71 612.07l0 502.03 -550.17 0 0 -68.77c0,0 14.9,0 44.69,0 29.81,0 44.7,0 44.7,0 119.2,0 221.22,-42.41 306.04,-127.23 84.81,-84.82 129.51,-186.83 134.1,-306.03l20.63 0zm0 -3809.94l-20.63 0c-4.59,-119.2 -49.29,-221.21 -134.1,-306.03 -84.82,-84.82 -186.84,-127.23 -306.04,-127.23 0,0 -14.9,0 -44.7,0 -29.8,0 -44.69,0 -44.69,0l0 -68.77 550.17 0 0 502.03zm405.75 0l0 -502.03 550.17 0 0 68.77c-4.59,0 -20.63,0 -48.14,0 -27.51,0 -41.26,0 -41.26,0 -119.2,0 -221.22,42.41 -306.04,127.23 -84.81,84.82 -129.51,186.83 -134.1,306.03l-20.63 0zm7592.35 -598.31l55.01 460.77 -1726.15 3844.32c0,0 -17.2,38.97 -51.58,116.9 -34.39,77.95 -69.92,170.79 -106.59,278.53 -36.68,107.74 -61.9,209.75 -75.65,306.03l-68.77 0 -96.28 -433.26 2070.01 -4573.29zm-4229.43 4408.25l0 502.03 -763.36 0 0 -68.77c4.59,0 24.07,0 58.46,0 34.38,0 51.58,0 51.58,0 123.79,0 233.82,-37.82 330.1,-113.47 96.28,-75.65 153.58,-182.25 171.93,-319.79l151.3 0zm199.44 110.03c0,4.59 0,9.17 0,13.76 0,4.59 0,11.46 0,20.63 0,73.35 26.36,140.97 79.09,202.87 52.73,61.89 115.77,92.84 189.13,92.84l103.16 0 0 61.89 -419.51 0 0 -392 48.14 0zm165.05 -4518.27l68.76 0 137.55 405.76 -405.75 4504.52 -371.37 0 570.8 -4910.27zm68.76 0l1980.62 4284.46 -158.17 722.1 -1953.11 -4236.32 130.66 -770.24zm3858.08 0l591.44 4910.27 -536.42 0 -378.24 -4167.54 261.33 -742.73 61.9 0zm385.11 4408.25l144.42 0c22.92,137.54 82.52,244.14 178.8,319.79 96.28,75.65 204.02,113.47 323.22,113.47 0,0 18.35,0 55.01,0 36.68,0 55.03,0 55.03,0l0 68.77 -756.49 0 0 -502.03zm-364.48 110.03l48.14 0 0 392 -419.51 0 0 -61.89 103.16 0c77.94,0 142.12,-30.95 192.56,-92.84 50.43,-61.9 75.65,-129.52 75.65,-202.87 0,-9.17 0,-16.05 0,-20.63 0,-4.59 0,-9.17 0,-13.76z"/>
 </g>
</svg>
