<?xml version="1.0" encoding="UTF-8"?>
<!DOCTYPE svg PUBLIC "-//W3C//DTD SVG 1.1//EN" "http://www.w3.org/Graphics/SVG/1.1/DTD/svg11.dtd">
<!-- Creator: CorelDRAW -->
<svg xmlns="http://www.w3.org/2000/svg" xml:space="preserve" width="214.314mm" height="77.3088mm" version="1.1" style="shape-rendering:geometricPrecision; text-rendering:geometricPrecision; image-rendering:optimizeQuality; fill-rule:evenodd; clip-rule:evenodd"
viewBox="0 0 18404.87 6639.13"
 xmlns:xlink="http://www.w3.org/1999/xlink"
 xmlns:xodm="http://www.corel.com/coreldraw/odm/2003">
 <defs>
  <style type="text/css">
   <![CDATA[
    .fil0 {fill:#e1cd9b;fill-rule:nonzero}
   ]]>
  </style>
 </defs>
 <g id="Capa_x0020_1">
  <metadata id="CorelCorpID_0Corel-Layer"/>
  <path class="fil0" d="M6923.44 1113.07c-3.38,6.75 -6.75,13.49 -10.12,20.24 -3.38,6.74 -18.56,5.06 -45.54,-5.06 -43.85,-16.87 -84.32,-26.98 -121.42,-30.36 -37.1,-3.38 -72.52,-3.38 -106.25,0 -84.32,10.12 -182.14,44.69 -293.45,103.71 -111.31,59.03 -230.2,133.23 -356.69,222.61 -126.49,89.38 -254.65,190.57 -384.52,303.57 -129.86,112.99 -256.34,227.67 -379.45,344.04 -123.11,116.36 -238.64,231.05 -346.57,344.04 -107.93,113 -200.69,213.34 -278.27,301.04 -185.51,209.12 -338.14,399.69 -457.88,571.72 -119.73,172.01 -218.4,320.43 -295.97,445.23 -26.98,43.85 -53.12,89.38 -78.42,136.61 -25.29,47.22 -50.59,89.38 -75.89,126.48 -25.29,37.1 -49.75,67.46 -73.36,91.07 -23.62,23.62 -45.54,32.05 -65.77,25.3 -37.1,-10.12 -55.66,-42.16 -55.66,-96.12 0,-53.97 23.62,-129.86 70.83,-227.68 37.11,-77.57 91.92,-172.01 164.43,-283.32 72.52,-111.31 152.63,-229.36 240.32,-354.16 67.47,-138.29 99.51,-262.25 96.13,-371.87 -3.38,-109.61 -32.04,-208.28 -86.01,-295.97 -43.85,40.47 -85.17,79.27 -123.96,116.36 -38.79,37.1 -76.73,74.21 -113.84,111.31 -357.53,357.53 -685.55,647.61 -984.05,870.22 -298.5,222.61 -570.87,395.48 -817.1,518.58 -246.22,123.11 -466.31,206.6 -660.25,250.45 -193.95,43.85 -363.44,65.77 -508.48,65.77 -97.82,0 -195.63,-10.12 -293.45,-30.35 -97.82,-20.24 -184.66,-58.18 -260.55,-113.84 -75.9,-55.65 -134.92,-130.7 -177.08,-225.15 -42.17,-94.44 -54.82,-215.86 -37.95,-364.28 10.12,-114.67 43.85,-232.73 101.19,-354.15 57.34,-121.43 131.55,-241.16 222.61,-359.22 91.07,-118.06 197.31,-231.05 318.74,-338.98 121.42,-107.94 252.97,-205.76 394.63,-293.45 101.19,-60.72 209.97,-115.52 326.34,-164.43 116.36,-48.91 234.42,-91.07 354.16,-126.49 119.73,-35.42 237.79,-65.77 354.15,-91.07 116.36,-25.3 226.83,-43.01 331.39,-53.12 -26.98,-20.24 -58.18,-59.02 -93.6,-116.36 -35.42,-57.34 -48.07,-126.49 -37.95,-207.44 16.87,-165.27 85.17,-309.47 204.91,-432.58 119.74,-123.11 269,-225.99 447.76,-308.63 178.76,-82.63 376.93,-145.03 594.48,-187.2 217.55,-42.16 432.58,-63.24 645.07,-63.24 246.22,0 473.89,10.12 683.01,30.36 209.12,20.23 402.23,47.22 579.31,80.95 177.08,33.73 342.35,69.99 495.82,108.77 153.47,38.79 301.04,76.74 442.7,113.84 23.61,6.75 55.65,16.02 96.12,27.82 40.48,11.81 83.48,24.46 129.01,37.95 45.54,13.49 91.92,27.82 139.14,43.01 47.22,15.17 89.38,29.51 126.48,43 40.47,10.13 60.72,23.62 60.72,40.47zm-470.53 -20.23c-118.06,10.12 -227.67,31.2 -328.86,63.24 -101.19,32.04 -215.87,73.37 -344.04,123.96 -344.04,138.29 -662.78,312.84 -956.23,523.65 -293.45,210.8 -556.54,422.46 -789.27,634.95 47.22,70.83 80.11,150.94 98.66,240.33 18.55,89.38 12.65,186.35 -17.71,290.91 67.46,-87.7 137.45,-172.86 209.96,-255.5 72.52,-82.64 142.51,-157.69 209.97,-225.15 360.9,-367.65 699.04,-672.9 1014.41,-915.75 315.37,-242.85 616.41,-403.07 903.1,-480.64zm121.42 -65.77c-26.98,-6.75 -56.49,-13.49 -88.54,-20.24 -32.04,-6.74 -66.62,-13.49 -103.71,-20.23 -141.66,-26.98 -283.33,-53.97 -424.99,-80.95 -141.66,-26.98 -297.65,-50.6 -467.99,-70.83 -170.33,-20.24 -362.59,-37.11 -576.77,-50.6 -214.18,-13.49 -462.93,-20.23 -746.25,-20.23 -212.5,0 -424.15,19.39 -634.96,58.18 -210.81,38.79 -401.38,94.44 -571.72,166.96 -170.33,72.52 -311.99,160.21 -424.98,263.1 -113,102.87 -176.24,220.08 -189.73,351.63 -6.75,87.69 9.27,154.31 48.07,199.85 38.78,45.53 71.67,75.05 98.66,88.54 26.98,-3.38 51.44,-5.91 73.36,-7.59 21.92,-1.68 44.69,-2.53 68.31,-2.53 293.45,-6.74 549.78,27.83 769.03,103.72 219.24,75.89 392.94,179.61 521.12,311.15 263.09,-212.5 542.2,-412.34 837.33,-599.54 295.14,-187.2 604.6,-339.83 928.4,-457.88 168.65,-64.09 320.43,-113.84 455.35,-149.26 134.91,-35.42 278.26,-56.49 430.04,-63.24zm-2701.71 1315.45c-128.17,-124.8 -301.88,-219.24 -521.13,-283.33 -219.24,-64.08 -457.03,-91.07 -713.37,-80.95 -104.57,3.38 -220.93,19.39 -349.1,48.07 -128.16,28.67 -258.87,65.77 -392.1,111.31 -133.23,45.53 -263.93,97.82 -392.1,156.84 -128.17,59.02 -244.54,120.58 -349.1,184.67 -141.66,91.07 -274.89,187.2 -399.69,288.38 -124.8,101.19 -234.42,204.06 -328.86,308.63 -94.45,104.56 -171.18,209.96 -230.2,316.21 -59.02,106.25 -93.6,208.28 -103.71,306.1 -16.87,131.54 -7.59,239.48 27.82,323.8 35.42,84.32 85.17,150.94 149.25,199.85 64.09,48.91 138.29,83.47 222.61,103.71 84.32,20.24 170.34,30.36 258.03,30.36 185.51,0 376.93,-36.26 574.25,-108.78 197.31,-72.52 406.44,-178.76 627.36,-318.74 220.92,-139.98 456.18,-313.69 705.78,-521.13 249.6,-207.43 519.43,-446.07 809.51,-715.91 64.08,-57.34 129.01,-115.52 194.78,-174.55 65.77,-59.02 135.76,-117.21 209.97,-174.55zm6825.13 -1371.1c-20.24,118.06 -59.87,210.81 -118.9,278.27 -59.02,67.46 -112.15,112.99 -159.37,136.61 -30.35,16.87 -48.91,16.87 -55.65,0 -3.38,-6.75 -3.38,-11.81 0,-15.18 3.38,-3.37 13.49,-13.49 30.36,-30.35 37.1,-30.36 74.2,-75.05 111.31,-134.08 37.1,-59.02 62.4,-122.26 75.89,-189.72 20.23,-121.43 15.17,-238.64 -15.18,-351.63 -30.35,-113 -91.07,-212.5 -182.14,-298.51 -91.07,-86.01 -213.34,-154.31 -366.8,-204.91 -153.47,-50.59 -339.83,-75.89 -559.07,-75.89 -195.63,0 -392.1,29.52 -589.42,88.54 -197.32,59.03 -393.79,138.29 -589.42,237.8 -195.63,99.5 -387.89,213.34 -576.77,341.51 -188.88,128.16 -371.02,263.09 -546.42,404.75 -151.78,118.05 -311.99,250.44 -480.64,397.16 -168.65,146.72 -341.51,301.04 -518.58,462.93 -177.08,161.9 -355,329.7 -533.77,503.41 -178.77,173.71 -350.79,348.26 -516.07,523.65 74.21,-53.97 163.59,-117.21 268.15,-189.73 104.56,-72.52 209.12,-137.45 313.68,-194.78 104.57,-57.34 201.54,-101.19 290.92,-131.55 89.38,-30.36 157.68,-32.04 204.91,-5.06 57.34,33.72 80.11,85.17 68.3,154.31 -11.8,69.14 -42.16,145.03 -91.07,227.67 -48.91,82.63 -107.94,164.43 -177.08,245.38 -69.15,80.95 -130.7,148.41 -184.67,202.37 -246.22,242.85 -476.43,416.56 -690.61,521.13 -214.18,104.56 -397.16,156.84 -548.94,156.84 -134.92,0 -215.87,-45.53 -242.85,-136.61 -16.87,-47.22 -12.65,-106.25 12.65,-177.08 25.29,-70.83 65.77,-149.25 121.42,-235.26 55.66,-86.01 123.96,-177.92 204.91,-275.74 80.95,-97.82 172.02,-199 273.21,-303.56 145.03,-148.41 306.1,-308.62 483.17,-480.64 177.08,-172.02 360.91,-343.19 551.47,-513.52 190.57,-170.34 380.3,-334.77 569.18,-493.29 188.89,-158.53 367.65,-298.51 536.3,-419.94 182.14,-131.54 371.02,-258.03 566.65,-379.45 195.63,-121.43 395.48,-227.67 599.54,-318.74 204.06,-91.07 410.66,-163.59 619.78,-217.55 209.12,-53.97 419.93,-80.95 632.42,-80.95 242.85,0 446.92,29.52 612.19,88.54 165.27,59.02 295.97,134.91 392.1,227.67 96.13,92.76 159.37,196.47 189.73,311.15 30.35,114.68 35.42,229.36 15.17,344.04zm-4583.82 1634.19c-20.24,-23.61 -64.08,-24.45 -131.55,-2.53 -67.46,21.92 -150.09,59.03 -247.9,111.32 -97.82,52.27 -207.44,119.73 -328.86,202.37 -121.43,82.64 -246.23,172.86 -374.4,270.68 -87.69,67.46 -167.8,136.61 -240.32,207.44 -72.52,70.83 -134.07,139.13 -184.66,204.91 -50.6,65.77 -87.7,125.64 -111.31,179.61 -23.62,53.97 -30.36,96.13 -20.24,126.49 6.75,26.98 18.55,43.84 35.42,50.59 16.87,6.74 37.11,10.12 60.72,10.12 107.93,0 236.1,-59.02 384.51,-177.08 148.41,-118.05 335.61,-283.32 561.6,-495.82 40.47,-37.11 99.5,-89.38 177.07,-156.84 77.58,-67.47 150.94,-136.61 220.09,-207.44 69.15,-70.83 125.64,-136.61 169.49,-197.32 43.85,-60.71 53.97,-102.87 30.36,-126.48zm1360.98 -80.95c77.57,40.47 85.17,138.29 22.77,293.45 -62.4,155.16 -201.54,340.66 -417.4,556.53 -111.31,111.31 -218.4,210.8 -321.27,298.5 -102.87,87.7 -199.85,160.21 -290.92,217.55 -91.07,57.34 -172.86,97.82 -245.38,121.42 -72.52,23.62 -132.39,30.36 -179.61,20.24 -77.58,-20.24 -128.17,-60.72 -151.79,-121.42 -23.61,-60.72 -24.45,-134.92 -2.52,-222.61 21.92,-87.7 64.93,-183.83 129.01,-288.39 64.08,-104.57 146.72,-209.12 247.91,-313.69 104.56,-104.56 215.86,-198.16 333.92,-280.8 118.05,-82.64 233.57,-149.26 346.57,-199.85 112.99,-50.59 215.86,-83.48 308.62,-98.66 92.76,-15.18 166.12,-9.27 220.09,17.71zm-30.36 60.71c-26.98,-20.23 -71.67,-18.55 -134.07,5.07 -62.4,23.61 -138.29,66.62 -227.68,129.01 -89.38,62.4 -188.04,140.81 -295.97,235.26 -107.93,94.44 -219.24,202.37 -333.92,323.79 -74.21,77.58 -142.51,152.63 -204.91,225.15 -62.4,72.52 -113.84,139.13 -154.31,199.85 -40.47,60.72 -64.93,113.84 -73.37,159.37 -8.42,45.53 4.22,78.42 37.95,98.66 30.36,16.87 75.89,10.96 136.61,-17.71 60.71,-28.67 133.23,-75.05 217.55,-139.13 84.32,-64.09 178.76,-143.35 283.32,-237.8 104.57,-94.44 214.19,-200.69 328.86,-318.74 50.6,-50.6 105.41,-109.62 164.43,-177.08 59.03,-67.46 111.31,-134.07 156.85,-199.85 45.53,-65.77 79.26,-124.8 101.18,-177.08 21.92,-52.28 21.08,-88.54 -2.52,-108.78zm1856.8 -65.77c-107.93,101.18 -214.18,202.37 -318.74,303.56 -104.56,101.19 -201.53,198.16 -290.91,290.91 -89.38,92.76 -169.49,178.77 -240.32,258.03 -70.83,79.27 -128.17,145.88 -172.02,199.85 -77.57,97.82 -139.13,180.46 -184.66,247.91 -45.54,67.46 -49.76,109.62 -12.65,126.49 20.23,10.12 49.75,6.74 88.54,-10.13 38.78,-16.86 80.95,-38.78 126.48,-65.77 45.53,-26.99 91.07,-56.5 136.61,-88.54 45.53,-32.05 83.48,-59.87 113.83,-83.48 80.96,-64.09 165.28,-134.91 252.97,-212.5 87.7,-77.57 166.96,-146.72 237.8,-207.44 6.74,-6.74 16.02,-13.49 27.82,-20.23 11.81,-6.75 24.46,-3.38 37.95,10.12 6.74,6.75 7.58,16.02 2.52,27.82 -5.06,11.81 -10.96,21.08 -17.71,27.83 -77.57,74.2 -164.43,150.94 -260.55,230.2 -96.13,79.27 -171.18,140.82 -225.15,184.67 -40.47,30.36 -84.32,63.24 -131.55,98.66 -47.22,35.42 -94.44,67.46 -141.66,96.13 -47.22,28.67 -92.75,52.28 -136.6,70.83 -43.85,18.55 -82.64,27.82 -116.36,27.82 -111.31,-6.75 -171.18,-52.28 -179.61,-136.61 -8.43,-84.32 22.77,-187.2 93.6,-308.62 -33.72,33.72 -66.62,63.24 -98.66,88.54 -32.04,25.29 -58.18,46.37 -78.42,63.24 -40.47,30.36 -84.32,62.4 -131.54,96.13 -47.22,33.72 -95.29,65.77 -144.2,96.12 -48.91,30.36 -96.96,54.82 -144.19,73.37 -47.22,18.55 -89.38,27.82 -126.48,27.82 -84.32,0 -137.45,-24.46 -159.37,-73.37 -21.92,-48.91 -19.4,-112.15 7.58,-189.72 20.24,-74.21 61.56,-156.84 123.96,-247.91 62.4,-91.07 139.14,-185.51 230.2,-283.33 50.59,-50.59 109.62,-106.25 177.08,-166.96 67.46,-60.72 136.61,-120.58 207.44,-179.61 70.82,-59.02 140.81,-112.99 209.96,-161.9 69.14,-48.91 129.01,-88.54 179.61,-118.9 20.24,-10.12 43.85,-19.39 70.83,-27.82 26.98,-8.43 55.66,-15.17 86.01,-20.24 30.36,-5.06 59.87,-8.43 88.54,-10.12 28.67,-1.68 51.44,-2.52 68.31,-2.52 -111.31,91.07 -221.77,185.51 -331.39,283.32 -109.61,97.82 -211.65,192.26 -306.1,283.33 -94.44,91.07 -179.61,176.24 -255.5,255.5 -75.89,79.27 -135.76,145.88 -179.61,199.85 -77.57,97.82 -138.29,180.46 -182.14,247.91 -43.84,67.46 -47.22,109.62 -10.12,126.49 20.24,10.12 49.75,7.58 88.54,-7.59 38.79,-15.18 81.8,-36.26 129.01,-63.24 47.22,-26.98 94.44,-57.34 141.66,-91.07 47.22,-33.72 89.38,-64.08 126.48,-91.07 30.36,-26.98 69.15,-61.56 116.37,-103.72 47.22,-42.16 94.44,-86.01 141.66,-131.54 47.22,-45.53 91.07,-88.54 131.55,-129.01 40.47,-40.47 70.83,-70.83 91.07,-91.07 50.59,-50.59 109.61,-108.77 177.07,-174.55 67.47,-65.77 136.61,-129.86 207.44,-192.26 70.83,-62.4 139.98,-120.58 207.44,-174.55 67.46,-53.97 126.48,-96.13 177.08,-126.49 26.98,-16.87 70.82,-30.36 131.54,-40.47 60.72,-10.12 107.93,-13.49 141.66,-10.12zm5170.71 -956.23c-23.61,118.05 -64.09,210.8 -121.42,278.26 -57.34,67.46 -109.62,113 -156.85,136.61 -20.23,10.12 -33.72,14.33 -40.47,12.65 -6.74,-1.69 -11.81,-5.91 -15.17,-12.65 -3.38,-10.12 -4.22,-16.02 -2.53,-17.71 1.69,-1.68 12.65,-10.97 32.89,-27.82 37.1,-30.36 73.36,-75.05 108.77,-134.07 35.42,-59.03 59.87,-123.96 73.37,-194.79 23.61,-121.43 22.77,-237.8 -2.53,-349.1 -25.3,-111.31 -80.95,-209.12 -166.96,-293.45 -86.01,-84.32 -204.05,-150.94 -354.15,-199.85 -150.1,-48.91 -338.14,-71.67 -564.12,-68.3 -182.14,3.38 -371.87,35.42 -569.18,96.13 -197.32,60.71 -394.64,141.66 -591.95,242.85 -197.32,101.19 -393.79,216.71 -589.42,346.57 -195.63,129.86 -381.14,263.93 -556.53,402.23 -77.58,64.08 -161.9,134.07 -252.97,209.96 -91.07,75.89 -181.3,153.46 -270.68,232.73 -89.38,79.27 -174.55,155.16 -255.5,227.67 -80.96,72.52 -150.1,135.76 -207.44,189.73 37.1,0 96.97,-1.68 179.61,-5.06 82.64,-3.38 152.63,-1.69 209.97,5.06 6.74,0 14.33,1.68 22.77,5.06 8.43,3.38 9.27,13.49 2.52,30.36 -10.12,16.87 -28.67,25.3 -55.65,25.3 -20.24,0 -48.91,0 -86.02,0 -37.1,0 -76.73,0.84 -118.89,2.52 -42.17,1.69 -83.48,3.38 -123.96,5.06 -40.47,1.69 -75.89,4.22 -106.25,7.59 -47.22,47.22 -91.07,91.07 -131.55,131.55 -40.47,40.47 -87.69,89.38 -141.66,146.72 -263.09,273.2 -457.87,491.6 -584.36,655.19 -126.48,163.59 -156,265.62 -88.54,306.1 20.24,13.49 48.91,16.02 86.01,7.59 37.11,-8.43 78.42,-23.62 123.96,-45.54 45.54,-21.92 91.92,-48.91 139.14,-80.95 47.22,-32.04 91.07,-63.24 131.54,-93.6 30.36,-23.61 67.46,-53.12 111.31,-88.54 43.85,-35.42 91.07,-75.05 141.66,-118.9 50.6,-43.84 101.19,-87.69 151.78,-131.54 50.6,-43.85 96.13,-84.32 136.61,-121.42 10.12,-6.75 21.92,-13.49 35.42,-20.24 13.49,-6.75 25.3,-5.06 35.42,5.06 10.12,16.87 9.27,31.2 -2.53,43.01 -11.8,11.8 -22.77,24.45 -32.88,37.94 -30.36,30.36 -68.3,64.93 -113.84,103.72 -45.53,38.78 -93.6,79.26 -144.19,121.42 -50.59,42.16 -102.03,85.17 -154.31,129.01 -52.28,43.85 -102.03,82.64 -149.25,116.36 -111.31,84.32 -215.87,148.41 -313.69,192.26 -97.82,43.85 -183.82,52.28 -258.03,25.3 -80.95,-30.36 -122.26,-88.54 -123.96,-174.55 -1.68,-86.02 26.14,-177.92 83.48,-275.74 107.93,-178.76 360.9,-468.84 758.91,-870.22 -43.85,0 -91.07,1.68 -141.66,5.06 -50.6,3.38 -106.25,8.43 -166.96,15.18 -33.72,3.37 -47.22,-5.07 -40.47,-25.3 3.38,-10.12 10.12,-16.87 20.24,-20.24 10.12,-3.37 18.55,-6.74 25.29,-10.12 13.49,-3.38 35.42,-6.74 65.77,-10.12 30.36,-3.38 63.24,-5.9 98.66,-7.59 35.42,-1.68 71.67,-4.22 108.78,-7.59 37.1,-3.37 70.83,-5.06 101.19,-5.06 185.51,-185.51 377.77,-365.12 576.77,-538.82 199.01,-173.71 404.75,-338.14 617.25,-493.29 182.14,-131.54 374.39,-258.03 576.77,-379.45 202.37,-121.43 408.13,-227.67 617.25,-318.74 209.12,-91.07 417.4,-163.59 624.83,-217.55 207.44,-53.97 407.29,-82.63 599.54,-86.01 246.23,-3.38 450.28,22.77 612.19,78.42 161.9,55.66 290.07,128.17 384.51,217.55 94.45,89.38 156.85,191.41 187.2,306.1 30.36,114.68 35.42,229.36 15.18,344.04zm-2155.3 961.28c77.57,40.47 85.17,138.29 22.77,293.45 -62.4,155.16 -201.54,340.66 -417.4,556.53 -111.31,111.31 -218.4,210.8 -321.27,298.5 -102.87,87.7 -199.85,160.21 -290.92,217.55 -91.07,57.34 -172.86,97.82 -245.38,121.42 -72.52,23.62 -132.39,30.36 -179.61,20.24 -77.58,-20.24 -128.17,-60.72 -151.79,-121.42 -23.61,-60.72 -24.45,-134.92 -2.52,-222.61 21.92,-87.7 64.93,-183.83 129.01,-288.39 64.08,-104.57 146.72,-209.12 247.91,-313.69 104.56,-104.56 215.86,-198.16 333.92,-280.8 118.05,-82.64 233.57,-149.26 346.57,-199.85 112.99,-50.59 215.86,-83.48 308.62,-98.66 92.76,-15.18 166.12,-9.27 220.09,17.71zm-30.36 60.71c-26.98,-20.23 -71.67,-18.55 -134.07,5.07 -62.4,23.61 -138.29,66.62 -227.68,129.01 -89.38,62.4 -188.04,140.81 -295.97,235.26 -107.93,94.44 -219.24,202.37 -333.92,323.79 -74.21,77.58 -142.51,152.63 -204.91,225.15 -62.4,72.52 -113.84,139.13 -154.31,199.85 -40.47,60.72 -64.93,113.84 -73.37,159.37 -8.42,45.53 4.22,78.42 37.95,98.66 30.36,16.87 75.89,10.96 136.61,-17.71 60.71,-28.67 133.23,-75.05 217.55,-139.13 84.32,-64.09 178.76,-143.35 283.32,-237.8 104.57,-94.44 214.19,-200.69 328.86,-318.74 50.6,-50.6 105.41,-109.62 164.43,-177.08 59.03,-67.46 111.31,-134.07 156.85,-199.85 45.53,-65.77 79.26,-124.8 101.18,-177.08 21.92,-52.28 21.08,-88.54 -2.52,-108.78zm6106.7 -1613.95c-23.61,118.06 -64.08,210.81 -121.42,278.27 -57.34,67.46 -109.62,112.99 -156.85,136.61 -20.23,10.12 -33.72,14.33 -40.47,12.65 -6.74,-1.69 -11.8,-5.91 -15.17,-12.65 -3.38,-6.75 -4.22,-11.81 -2.53,-15.18 1.69,-3.37 12.65,-13.49 32.89,-30.35 37.1,-30.36 73.36,-75.05 108.77,-134.08 35.42,-59.02 59.87,-122.26 73.37,-189.72 23.61,-121.43 19.39,-238.64 -12.65,-351.63 -32.04,-113 -92.76,-212.5 -182.14,-298.51 -89.38,-86.01 -210.81,-154.31 -364.28,-204.91 -153.47,-50.59 -339.82,-75.89 -559.07,-75.89 -391.26,0 -789.26,94.45 -1194.01,283.33 -404.75,188.89 -802.76,446.92 -1194.02,774.09 -259.71,215.87 -518.59,448.6 -776.62,698.2 -258.03,249.6 -523.64,516.06 -796.85,799.39 47.22,0 113.84,-0.84 199.85,-2.53 86.01,-1.68 161.06,-0.84 225.15,2.53 6.74,0 13.49,1.68 20.23,5.06 6.75,3.38 8.43,11.81 5.06,25.3 -10.12,20.23 -28.67,30.36 -55.65,30.36 -26.98,0 -60.72,0.84 -101.19,2.52 -40.47,1.69 -82.63,3.38 -126.48,5.06 -43.85,1.69 -86.02,3.38 -126.49,5.07 -40.47,1.68 -75.89,2.52 -106.25,2.52 -87.69,94.44 -179.61,195.63 -275.74,303.56 -96.12,107.94 -192.26,215.03 -288.39,321.28 -96.12,106.25 -188.04,206.59 -275.74,301.03 -87.69,94.45 -163.58,175.4 -227.67,242.85 -239.48,252.97 -483.17,498.35 -731.08,736.15 -247.91,237.79 -476.43,439.32 -685.55,604.6 -323.8,259.71 -634.11,479.79 -930.94,660.25 -296.82,180.46 -584.36,327.18 -862.63,440.17 -278.26,112.99 -548.1,194.79 -809.5,245.38 -261.4,50.6 -516.9,72.52 -766.5,65.77 -276.59,-6.74 -515.22,-53.12 -715.91,-141.66 -200.69,-87.7 -357.54,-204.06 -470.53,-349.09 -113,-145.04 -179.61,-308.63 -199.85,-490.77 -20.24,-182.14 11.81,-367.64 96.12,-556.53 10.13,-16.87 21.92,-37.1 35.42,-60.72 13.49,-23.61 27.83,-44.69 43.01,-63.24 15.18,-18.55 30.36,-32.88 45.53,-43 15.18,-10.13 27.83,-10.13 37.95,0 3.38,6.74 -1.68,25.29 -15.18,55.65 -13.49,30.36 -25.29,55.66 -35.41,75.89 -91.07,185.51 -129.01,366.81 -113.84,543.88 15.17,177.08 75.05,334.77 179.61,473.06 104.57,138.29 249.6,251.28 435.11,338.98 185.51,87.7 403.07,134.91 652.66,141.66 276.58,6.74 544.73,-21.08 804.45,-83.48 259.71,-62.4 517.74,-154.31 774.09,-276.58 256.35,-121.42 511.84,-267.3 766.5,-437.63 254.66,-171.18 513.53,-360.91 776.62,-570.03 77.58,-60.71 171.18,-139.13 280.8,-235.26 109.62,-96.96 225.15,-202.37 346.57,-317.05 121.43,-114.68 245.38,-235.26 371.87,-362.59 126.48,-126.49 248.75,-250.45 366.8,-371.87 158.53,-165.27 326.34,-344.89 503.42,-537.14 177.07,-192.26 375.24,-410.65 594.47,-653.51 -43.85,0 -91.07,1.68 -141.66,5.06 -50.59,3.38 -106.24,8.43 -166.96,15.18 -33.73,3.37 -47.22,-5.07 -40.47,-25.3 3.38,-10.12 10.12,-16.87 20.23,-20.24 10.13,-3.37 18.56,-6.74 25.3,-10.12 13.49,-3.38 35.42,-6.74 65.77,-10.12 30.36,-3.38 63.24,-5.9 98.66,-7.59 35.42,-1.68 70.83,-4.22 106.25,-7.59 35.42,-3.37 66.62,-5.06 93.6,-5.06 148.41,-155.16 299.35,-311.15 452.82,-467.99 153.46,-156.84 305.25,-308.62 455.34,-455.34 150.1,-146.72 297.66,-285.02 442.7,-414.88 145.03,-129.86 285.01,-248.75 419.93,-356.69 175.4,-138.29 365.12,-265.62 569.18,-381.99 204.06,-116.36 415.72,-217.55 634.96,-303.56 219.24,-86.01 440.17,-152.62 662.78,-199.85 222.61,-47.22 440.17,-70.83 652.66,-70.83 242.85,0 446.92,29.52 612.19,88.54 165.27,59.02 295.13,134.91 389.57,227.67 94.45,92.76 157.69,196.47 189.73,311.15 32.04,114.68 37.95,229.36 17.71,344.04z"/>
 </g>
</svg>
