<?xml version="1.0" encoding="UTF-8"?>
<!DOCTYPE svg PUBLIC "-//W3C//DTD SVG 1.1//EN" "http://www.w3.org/Graphics/SVG/1.1/DTD/svg11.dtd">
<!-- Creator: CorelDRAW -->
<svg xmlns="http://www.w3.org/2000/svg" xml:space="preserve" width="229.057mm" height="140.525mm" version="1.1" style="shape-rendering:geometricPrecision; text-rendering:geometricPrecision; image-rendering:optimizeQuality; fill-rule:evenodd; clip-rule:evenodd"
viewBox="0 0 28242.09 17326.39"
 xmlns:xlink="http://www.w3.org/1999/xlink"
 xmlns:xodm="http://www.corel.com/coreldraw/odm/2003">
 <defs>
  <style type="text/css">
   <![CDATA[
    .fil0 {fill:#e1cd9b;fill-rule:nonzero}
   ]]>
  </style>
 </defs>
 <g id="Capa_x0020_1">
  <metadata id="CorelCorpID_0Corel-Layer"/>
  <path class="fil0" d="M13548.49 1999.97c-6.05,12.12 -12.12,24.24 -18.17,36.36 -6.07,12.12 -33.34,9.1 -81.82,-9.09 -78.79,-30.31 -151.52,-48.48 -218.19,-54.55 -66.65,-6.05 -130.3,-6.05 -190.9,0 -151.51,18.19 -327.27,80.3 -527.27,186.36 -199.99,106.06 -413.62,239.39 -640.9,399.99 -227.26,160.61 -457.57,342.42 -690.9,545.45 -233.33,203.02 -460.6,409.08 -681.81,618.16 -221.21,209.09 -428.78,415.15 -622.71,618.17 -193.93,203.03 -360.61,383.33 -499.99,540.9 -333.32,375.75 -607.56,718.17 -822.71,1027.25 -215.15,309.09 -392.42,575.75 -531.81,799.99 -48.49,78.79 -95.46,160.61 -140.92,245.45 -45.45,84.85 -90.91,160.61 -136.35,227.27 -45.46,66.67 -89.39,121.21 -131.82,163.63 -42.43,42.43 -81.82,57.58 -118.18,45.46 -66.67,-18.19 -99.99,-75.75 -99.99,-172.73 0,-96.96 42.41,-233.33 127.27,-409.09 66.67,-139.39 165.14,-309.08 295.44,-509.08 130.3,-199.99 274.24,-412.11 431.81,-636.35 121.21,-248.48 178.79,-471.2 172.73,-668.17 -6.05,-196.97 -57.58,-374.23 -154.54,-531.81 -78.79,72.72 -153.02,142.42 -222.72,209.09 -69.7,66.67 -137.88,133.33 -204.54,200 -642.41,642.4 -1231.8,1163.62 -1768.15,1563.6 -536.35,399.99 -1025.75,710.6 -1468.16,931.81 -442.41,221.21 -837.87,371.2 -1186.34,449.99 -348.49,78.79 -653.02,118.18 -913.62,118.18 -175.76,0 -351.52,-18.17 -527.27,-54.55 -175.76,-36.36 -331.82,-104.54 -468.17,-204.54 -136.37,-99.99 -242.43,-234.84 -318.18,-404.54 -75.75,-169.69 -98.49,-387.87 -68.18,-654.54 18.19,-206.05 78.79,-418.17 181.81,-636.35 103.03,-218.19 236.36,-433.33 400,-645.45 163.63,-212.12 354.54,-415.14 572.72,-609.08 218.17,-193.95 454.53,-369.69 709.08,-527.27 181.81,-109.09 377.26,-207.57 586.35,-295.44 209.09,-87.89 421.21,-163.64 636.35,-227.27 215.15,-63.63 427.27,-118.18 636.36,-163.64 209.09,-45.45 407.56,-77.27 595.44,-95.44 -48.48,-36.36 -104.54,-106.06 -168.18,-209.09 -63.63,-103.03 -86.36,-227.27 -68.18,-372.73 30.31,-296.96 153.02,-556.05 368.18,-777.25 215.15,-221.21 483.32,-406.05 804.53,-554.54 321.21,-148.49 677.27,-260.6 1068.17,-336.35 390.9,-75.75 777.25,-113.64 1159.07,-113.64 442.41,0 851.5,18.19 1227.25,54.55 375.76,36.36 722.72,84.85 1040.9,145.45 318.17,60.61 615.14,125.76 890.9,195.45 275.75,69.7 540.89,137.88 795.44,204.55 42.43,12.12 99.99,28.78 172.73,50 72.72,21.21 149.99,43.93 231.81,68.18 81.82,24.24 165.14,50 250,77.27 84.84,27.27 160.61,53.03 227.26,77.27 72.73,18.17 109.09,42.41 109.09,72.72zm-845.44 -36.36c-212.12,18.19 -409.09,56.06 -590.9,113.63 -181.81,57.58 -387.87,131.82 -618.17,222.72 -618.17,248.48 -1190.89,562.11 -1718.15,940.89 -527.27,378.78 -999.99,759.08 -1418.16,1140.89 84.84,127.27 143.94,271.2 177.26,431.81 33.34,160.61 22.74,334.84 -31.81,522.72 121.21,-157.57 246.96,-310.6 377.26,-459.08 130.3,-148.47 256.05,-283.32 377.26,-404.54 648.48,-660.59 1256.04,-1209.06 1822.7,-1645.42 566.65,-436.36 1107.55,-724.23 1622.7,-863.62zm218.17 -118.18c-48.48,-12.12 -101.51,-24.24 -159.09,-36.36 -57.57,-12.12 -119.7,-24.24 -186.36,-36.36 -254.53,-48.49 -509.08,-96.97 -763.62,-145.45 -254.55,-48.49 -534.84,-90.91 -840.9,-127.28 -306.05,-36.36 -651.5,-66.67 -1036.35,-90.91 -384.83,-24.24 -831.8,-36.36 -1340.88,-36.36 -381.81,0 -762.11,34.84 -1140.89,104.54 -378.78,69.7 -721.2,169.69 -1027.25,299.99 -306.06,130.3 -560.61,287.87 -763.63,472.72 -203.02,184.85 -316.66,395.45 -340.9,631.81 -12.12,157.57 16.67,277.27 86.36,359.08 69.7,81.82 128.8,134.85 177.28,159.09 48.48,-6.05 92.42,-10.6 131.82,-13.64 39.39,-3.03 80.3,-4.54 122.72,-4.54 527.27,-12.13 987.87,50 1381.8,186.35 393.93,136.37 706.05,322.73 936.34,559.09 472.72,-381.81 974.23,-740.9 1504.52,-1077.26 530.3,-336.35 1086.35,-610.59 1668.16,-822.71 303.03,-115.15 575.75,-204.55 818.16,-268.18 242.43,-63.63 499.99,-101.51 772.72,-113.63zm-4854.47 2363.59c-230.29,-224.24 -542.41,-393.93 -936.34,-509.08 -393.93,-115.15 -821.2,-163.63 -1281.8,-145.45 -187.88,6.07 -396.97,34.86 -627.26,86.37 -230.31,51.51 -465.15,118.18 -704.53,199.99 -239.39,81.82 -474.24,175.76 -704.54,281.82 -230.29,106.06 -439.38,216.66 -627.26,331.8 -254.53,163.64 -493.93,336.37 -718.17,518.18 -224.24,181.81 -421.2,366.66 -590.9,554.53 -169.69,187.88 -307.56,377.28 -413.62,568.18 -106.06,190.9 -168.18,374.23 -186.36,549.99 -30.29,236.36 -13.64,430.29 50.01,581.81 63.63,151.51 153.02,271.2 268.17,359.08 115.15,87.87 248.48,150 399.99,186.36 151.52,36.36 306.06,54.55 463.63,54.55 333.33,0 677.26,-65.15 1031.8,-195.45 354.54,-130.3 730.29,-321.21 1127.26,-572.73 396.97,-251.5 819.68,-563.63 1268.16,-936.34 448.48,-372.73 933.32,-801.51 1454.52,-1286.35 115.15,-103.03 231.81,-207.57 349.99,-313.63 118.18,-106.06 243.93,-210.6 377.26,-313.63zm4099.94 618.17c-6.07,60.6 -25.76,106.06 -59.1,136.37 -33.33,30.29 -59.08,42.41 -77.27,36.36 -12.12,-6.07 -27.27,-16.67 -45.45,-31.82 -18.19,-15.15 -39.39,-28.79 -63.65,-40.91 -42.41,-24.24 -77.27,-40.91 -104.54,-50 -27.27,-9.09 -71.2,-16.67 -131.82,-22.72 -90.91,-6.07 -206.05,24.24 -345.44,90.91 -139.39,66.67 -287.87,154.54 -445.45,263.63 -157.57,109.08 -321.21,233.33 -490.91,372.71 -169.69,139.4 -330.29,281.82 -481.81,427.27 -145.45,139.39 -265.14,256.05 -359.08,349.99 -93.94,93.94 -178.79,184.85 -254.55,272.72 -75.75,87.87 -154.54,183.33 -236.36,286.36 -81.81,103.03 -183.33,230.31 -304.53,381.81 -30.31,0 -53.03,-13.64 -68.18,-40.91 -15.15,-27.27 -25.76,-60.6 -31.82,-99.99 -6.05,-39.39 -7.57,-78.79 -4.54,-118.18 3.02,-39.39 10.6,-71.22 22.72,-95.46 121.21,-230.29 286.36,-477.26 495.44,-740.89 209.09,-263.63 434.84,-522.72 677.26,-777.27 145.45,-157.57 292.42,-301.51 440.9,-431.81 148.49,-130.3 277.27,-228.78 386.36,-295.44 72.72,-48.49 168.18,-86.37 286.36,-113.64 118.18,-27.26 234.84,-40.9 349.99,-40.9 -187.87,121.2 -399.99,286.36 -636.35,495.44 -236.36,209.09 -451.51,428.78 -645.45,659.07l27.27 36.37c127.27,-109.09 275.75,-236.36 445.45,-381.81 169.69,-145.45 342.42,-280.3 518.17,-404.54 175.76,-124.25 346.97,-225.76 513.63,-304.54 166.66,-78.79 304.54,-109.09 413.64,-90.91 78.79,12.12 134.84,43.93 168.18,95.46 33.33,51.51 46.96,110.6 40.91,177.26zm9008.93 -2018.15c-42.41,212.12 -115.15,378.78 -218.17,499.99 -103.03,121.21 -196.97,203.03 -281.81,245.45 -36.37,18.19 -60.61,25.76 -72.73,22.74 -12.12,-3.03 -21.21,-10.62 -27.27,-22.74 -6.05,-18.17 -7.57,-28.78 -4.54,-31.81 3.02,-3.03 22.72,-19.7 59.08,-50 66.67,-54.55 131.82,-134.85 195.45,-240.91 63.63,-106.06 107.58,-222.72 131.82,-349.99 42.43,-218.19 40.91,-427.27 -4.55,-627.26 -45.45,-200 -145.44,-375.76 -299.99,-527.27 -154.54,-151.51 -366.66,-271.2 -636.35,-359.09 -269.69,-87.87 -607.57,-128.78 -1013.63,-122.72 -327.27,6.05 -668.16,63.63 -1022.7,172.73 -354.54,109.08 -709.08,254.53 -1063.62,436.35 -354.54,181.81 -707.57,389.38 -1059.07,622.72 -351.51,233.33 -684.84,474.23 -999.99,722.71 -139.39,115.16 -290.89,240.91 -454.53,377.28 -163.63,136.35 -325.75,275.74 -486.36,418.17 -160.59,142.42 -313.63,278.77 -459.08,409.08 -145.44,130.3 -269.69,243.94 -372.71,340.9 66.67,0 174.24,-3.03 322.72,-9.09 148.49,-6.07 274.24,-3.03 377.26,9.09 12.12,0 25.76,3.03 40.91,9.1 15.15,6.05 16.67,24.24 4.55,54.53 -18.19,30.31 -51.51,45.46 -99.99,45.46 -36.37,0 -87.89,0 -154.55,0 -66.67,0 -137.87,1.52 -213.62,4.55 -75.75,3.02 -150,6.05 -222.72,9.09 -72.73,3.03 -136.37,7.57 -190.91,13.64 -84.84,84.84 -163.63,163.63 -236.36,236.36 -72.72,72.72 -157.57,160.59 -254.53,263.63 -472.72,490.9 -822.71,883.31 -1049.99,1177.25 -227.26,293.93 -280.29,477.26 -159.09,549.99 36.37,24.24 87.89,28.78 154.54,13.64 66.67,-15.15 140.92,-42.43 222.72,-81.82 81.82,-39.39 165.16,-87.89 250,-145.45 84.85,-57.58 163.64,-113.63 236.36,-168.18 54.55,-42.43 121.21,-95.46 200,-159.09 78.79,-63.63 163.63,-134.85 254.55,-213.64 90.91,-78.79 181.81,-157.57 272.72,-236.36 90.91,-78.79 172.71,-151.51 245.45,-218.17 18.19,-12.12 39.39,-24.24 63.63,-36.36 24.24,-12.12 45.46,-9.1 63.63,9.09 18.19,30.31 16.67,56.06 -4.54,77.27 -21.22,21.22 -40.91,43.94 -59.1,68.18 -54.55,54.55 -122.73,116.66 -204.54,186.36 -81.82,69.69 -168.18,142.42 -259.1,218.17 -90.91,75.75 -183.32,153.02 -277.26,231.81 -93.94,78.79 -183.33,148.49 -268.18,209.09 -200,151.52 -387.87,266.67 -563.63,345.45 -175.75,78.79 -330.29,93.94 -463.62,45.45 -145.45,-54.53 -219.69,-159.08 -222.72,-313.63 -3.03,-154.54 46.96,-319.68 149.99,-495.44 193.93,-321.2 648.48,-842.4 1363.62,-1563.6 -78.79,0 -163.63,3.03 -254.53,9.09 -90.92,6.07 -190.91,15.15 -300.01,27.27 -60.6,6.07 -84.84,-9.09 -72.72,-45.45 6.07,-18.19 18.19,-30.31 36.36,-36.37 18.19,-6.05 33.34,-12.12 45.46,-18.17 24.24,-6.07 63.63,-12.12 118.18,-18.19 54.55,-6.05 113.63,-10.6 177.26,-13.64 63.63,-3.03 128.78,-7.57 195.45,-13.64 66.67,-6.05 127.27,-9.09 181.81,-9.09 333.33,-333.33 678.78,-656.05 1036.35,-968.17 357.57,-312.11 727.26,-607.57 1109.07,-886.35 327.27,-236.36 672.72,-463.63 1036.35,-681.81 363.63,-218.19 733.32,-409.09 1109.07,-572.72 375.76,-163.64 749.99,-293.94 1122.71,-390.91 372.73,-96.96 731.81,-148.47 1077.26,-154.54 442.41,-6.05 809.08,40.91 1099.98,140.9 290.91,100.01 521.2,230.31 690.9,390.91 169.69,160.59 281.82,343.92 336.35,549.99 54.55,206.05 63.65,412.11 27.27,618.16zm-3872.66 1727.24c139.4,72.73 153.04,248.48 40.91,527.27 -112.11,278.79 -362.11,612.11 -749.99,999.98 -199.99,200 -392.42,378.79 -577.25,536.35 -184.85,157.57 -359.09,287.87 -522.72,390.91 -163.64,103.03 -310.61,175.75 -440.91,218.17 -130.3,42.43 -237.88,54.55 -322.72,36.36 -139.39,-36.36 -230.29,-109.09 -272.72,-218.17 -42.43,-109.09 -43.94,-242.43 -4.55,-400 39.39,-157.57 116.66,-330.29 231.81,-518.17 115.16,-187.88 263.63,-375.75 445.45,-563.63 187.88,-187.88 387.88,-356.06 600,-504.53 212.11,-148.49 419.68,-268.18 622.71,-359.09 203.02,-90.91 387.87,-149.99 554.53,-177.26 166.67,-27.27 298.49,-16.67 395.45,31.81zm-54.55 109.09c-48.48,-36.36 -128.78,-33.34 -240.9,9.09 -112.13,42.43 -248.48,119.7 -409.09,231.81 -160.61,112.13 -337.87,253.03 -531.81,422.72 -193.93,169.69 -393.93,363.63 -599.99,581.81 -133.33,139.39 -256.06,274.24 -368.18,404.54 -112.13,130.3 -204.55,250 -277.27,359.08 -72.72,109.09 -116.66,204.55 -131.82,286.36 -15.15,81.82 7.57,140.92 68.18,177.28 54.55,30.31 136.35,19.69 245.45,-31.82 109.09,-51.51 239.39,-134.84 390.9,-250 151.52,-115.15 321.21,-257.57 509.08,-427.26 187.88,-169.69 384.85,-360.59 590.9,-572.72 90.91,-90.91 189.4,-196.97 295.46,-318.18 106.05,-121.21 199.99,-240.9 281.81,-359.08 81.82,-118.18 142.42,-224.24 181.81,-318.18 39.39,-93.94 37.88,-159.09 -4.55,-195.45zm10972.56 -2899.95c-42.43,212.11 -115.15,378.78 -218.19,499.98 -103.03,121.21 -196.95,203.03 -281.81,245.46 -36.36,18.17 -60.6,25.76 -72.72,22.72 -12.13,-3.03 -21.22,-10.6 -27.27,-22.72 -6.07,-12.12 -7.58,-21.22 -4.55,-27.27 3.03,-6.07 22.72,-24.24 59.08,-54.55 66.67,-54.55 131.82,-134.85 195.46,-240.91 63.63,-106.06 107.56,-219.69 131.8,-340.9 42.43,-218.17 34.86,-428.78 -22.72,-631.8 -57.57,-203.03 -166.66,-381.81 -327.27,-536.35 -160.61,-154.55 -378.78,-277.27 -654.54,-368.18 -275.75,-90.91 -610.59,-136.37 -1004.53,-136.37 -703.02,0 -1418.16,169.69 -2145.42,509.08 -727.26,339.39 -1442.4,803.02 -2145.42,1390.89 -466.65,387.87 -931.81,806.04 -1395.43,1254.52 -463.63,448.48 -940.89,927.26 -1431.8,1436.34 84.85,0 204.55,-1.52 359.09,-4.54 154.54,-3.03 289.39,-1.52 404.54,4.54 12.12,0 24.24,3.03 36.36,9.1 12.12,6.05 15.15,21.21 9.09,45.45 -18.17,36.36 -51.51,54.55 -99.99,54.55 -48.48,0 -109.09,1.52 -181.81,4.55 -72.73,3.02 -148.49,6.05 -227.27,9.09 -78.79,3.03 -154.54,6.05 -227.26,9.09 -72.73,3.03 -136.37,4.55 -190.91,4.55 -157.57,169.69 -322.72,351.51 -495.44,545.44 -172.73,193.93 -345.44,386.36 -518.17,577.26 -172.73,190.9 -337.87,371.21 -495.44,540.9 -157.57,169.69 -293.94,315.15 -409.09,436.35 -430.29,454.55 -868.17,895.45 -1313.62,1322.71 -445.45,427.27 -856.04,789.39 -1231.8,1086.35 -581.8,466.65 -1139.36,862.11 -1672.7,1186.34 -533.32,324.25 -1049.97,587.87 -1549.97,790.9 -499.99,203.02 -984.84,349.99 -1454.52,440.9 -469.69,90.91 -928.77,130.3 -1377.25,118.18 -496.96,-12.12 -925.74,-95.44 -1286.33,-254.53 -360.61,-157.57 -642.41,-366.66 -845.45,-627.26 -203.02,-260.6 -322.72,-554.54 -359.08,-881.81 -36.36,-327.27 21.21,-660.59 172.73,-999.99 18.17,-30.29 39.39,-66.65 63.63,-109.08 24.24,-42.43 50,-80.3 77.27,-113.63 27.27,-33.34 54.55,-59.1 81.82,-77.28 27.26,-18.17 50,-18.17 68.17,0 6.07,12.12 -3.02,45.46 -27.27,100.01 -24.24,54.55 -45.45,99.99 -63.63,136.35 -163.63,333.33 -231.81,659.08 -204.54,977.27 27.27,318.17 134.85,601.51 322.72,849.99 187.88,248.48 448.48,451.5 781.8,609.08 333.33,157.57 724.23,242.43 1172.72,254.55 496.96,12.12 978.77,-37.88 1445.42,-150 466.67,-112.11 930.29,-277.27 1390.89,-496.96 460.6,-218.17 919.69,-480.29 1377.25,-786.35 457.57,-307.56 922.71,-648.47 1395.43,-1024.22 139.39,-109.09 307.58,-250 504.53,-422.72 196.97,-174.24 404.55,-363.63 622.72,-569.69 218.17,-206.05 440.9,-422.71 668.17,-651.5 227.26,-227.26 446.96,-449.99 659.07,-668.17 284.85,-296.96 586.36,-619.68 904.53,-965.13 318.18,-345.45 674.24,-737.87 1068.17,-1174.22 -78.79,0 -163.64,3.03 -254.55,9.09 -90.91,6.07 -190.9,15.15 -299.99,27.27 -60.6,6.07 -84.85,-9.09 -72.72,-45.45 6.05,-18.19 18.17,-30.31 36.36,-36.37 18.17,-6.05 33.33,-12.12 45.45,-18.17 24.24,-6.07 63.63,-12.12 118.18,-18.19 54.55,-6.05 113.64,-10.6 177.28,-13.64 63.63,-3.03 127.27,-7.57 190.9,-13.64 63.63,-6.05 119.7,-9.09 168.18,-9.09 266.67,-278.79 537.87,-559.08 813.63,-840.9 275.75,-281.81 548.47,-554.53 818.16,-818.16 269.7,-263.63 534.85,-512.11 795.45,-745.44 260.6,-233.33 512.11,-446.96 754.53,-640.9 315.15,-248.48 656.05,-477.27 1022.71,-686.36 366.66,-209.09 746.96,-390.9 1140.89,-545.44 393.92,-154.54 790.89,-274.24 1190.89,-359.09 399.99,-84.84 790.89,-127.27 1172.7,-127.27 436.36,0 803.01,53.03 1099.98,159.09 296.96,106.06 530.29,242.41 699.98,409.09 169.69,166.66 283.34,353.02 340.9,559.08 57.58,206.05 68.18,412.11 31.82,618.17z"/>
  <path class="fil0" d="M1268.09 10307.63l1386.06 0c294.91,0 561.96,42.6 801.16,127.8 239.21,85.19 440.73,208.06 604.56,368.63 163.84,160.56 289.99,353.89 378.46,579.98 88.48,226.09 132.7,483.31 132.7,771.67 0,314.57 -73.72,616.03 -221.17,904.38 -147.45,288.34 -347.34,522.63 -599.64,702.86 -252.32,180.22 -535.75,270.33 -850.32,270.33 111.41,45.88 232.65,139.26 363.73,280.16 131.06,140.9 245.76,276.89 344.05,407.95 0,0 44.24,63.9 132.72,191.69 88.47,127.8 199.88,283.45 334.22,466.94 134.34,183.5 270.33,363.71 407.95,540.66 137.62,176.94 255.58,317.85 353.89,422.7 131.06,144.18 262.14,271.97 393.21,383.38 131.06,111.41 273.61,199.88 427.62,265.41 154,65.54 326.03,98.3 516.08,98.3l0 98.3 -540.67 0c-301.45,0 -561.95,-45.88 -781.49,-137.62 -219.54,-91.75 -404.67,-204.8 -555.4,-339.14 -150.73,-134.34 -278.53,-263.78 -383.38,-388.29 -19.67,-26.21 -73.73,-101.58 -162.2,-226.1 -88.48,-124.52 -193.33,-273.61 -314.57,-447.27 -121.24,-173.66 -240.84,-345.69 -358.81,-516.08 -117.96,-170.38 -219.54,-316.21 -304.73,-437.45 -85.2,-121.24 -134.34,-191.69 -147.45,-211.34 -124.52,-163.84 -262.14,-314.57 -412.87,-452.19 -150.73,-137.62 -314.57,-206.44 -491.51,-206.44l0 -98.3c0,0 50.79,1.64 152.37,4.92 101.57,3.28 224.45,1.64 368.63,-4.92 170.38,-6.55 357.17,-32.76 560.32,-78.64 203.16,-45.87 393.21,-140.89 570.15,-285.08 176.94,-144.17 311.29,-363.71 403.03,-658.62 19.67,-72.09 36.04,-162.2 49.15,-270.33 13.11,-108.13 16.39,-214.64 9.84,-319.49 -6.56,-445.63 -119.61,-801.16 -339.14,-1066.57 -219.54,-265.42 -512.82,-407.95 -879.81,-427.62 -183.49,-13.11 -371.9,-18.03 -565.23,-14.75 -193.33,3.28 -355.53,4.92 -486.59,4.92 -131.08,0 -196.61,0 -196.61,0 0,-6.56 -8.19,-34.41 -24.57,-83.56 -16.39,-49.16 -32.77,-98.3 -49.15,-147.45 -16.39,-49.16 -24.59,-73.73 -24.59,-73.73zm127.8 0l0 6881.14 -638.96 0 0 -6881.14 638.96 0zm-609.47 6163.54l0 717.6 -786.41 0 0 -98.3c0,0 21.29,0 63.89,0 42.6,0 63.89,0 63.89,0 170.4,0 316.21,-60.61 437.45,-181.85 121.24,-121.24 185.13,-267.06 191.69,-437.45l29.49 0zm0 -5445.94l-29.49 0c-6.56,-170.38 -70.45,-316.2 -191.69,-437.43 -121.24,-121.25 -267.05,-181.86 -437.45,-181.86 0,0 -21.29,0 -63.89,0 -42.6,0 -63.89,0 -63.89,0l0 -98.3 786.41 0 0 717.6zm579.98 5445.94l29.49 0c0,170.38 62.25,316.21 186.77,437.45 124.52,121.24 271.97,181.85 442.37,181.85 0,0 19.65,0 58.97,0 39.32,0 58.99,0 58.99,0l0 98.3 -776.59 0 0 -717.6zm6389.63 -6163.54l0 6881.14 -638.96 0 0 -6881.14 638.96 0zm2654.16 6576.4l0 304.74 -2683.65 0 0 -304.74 2683.65 0zm-422.7 -3234.13l0 294.91 -2260.95 0 0 -294.91 2260.95 0zm422.7 -3342.26l0 304.74 -2683.65 0 0 -304.74 2683.65 0zm599.64 5288.65l-570.15 1592.49 -1631.81 0 353.89 -304.74c347.33,0 630.76,-54.07 850.31,-162.2 219.54,-108.13 398.13,-260.49 535.75,-457.1 137.61,-196.61 258.86,-419.42 363.71,-668.46l98.3 0zm-1022.34 -1671.13l0 648.79 -98.3 0 0 -147.45c0,-131.06 -45.88,-244.12 -137.62,-339.14 -91.75,-95.03 -203.16,-142.53 -334.22,-142.53l0 -19.67 570.15 0zm0 -904.37l0 648.79 -570.15 0 0 -19.67c131.06,-6.55 242.48,-57.33 334.22,-152.37 91.75,-95.03 137.62,-208.06 137.62,-339.14l0 -137.61 98.3 0zm422.7 -2437.89l0 786.41 -98.3 0 0 -176.94c0,-157.28 -55.71,-293.26 -167.12,-407.95 -111.41,-114.69 -249.02,-175.3 -412.86,-181.86l0 -19.65 678.28 0zm0 -452.19l0 285.08 -1199.29 -108.13c144.17,0 296.54,-9.83 457.1,-29.49 160.57,-19.65 309.66,-42.6 447.27,-68.81 137.62,-26.21 235.93,-52.43 294.91,-78.64zm-3263.63 6340.48l0 717.6 -786.41 0 0 -98.3c0,0 21.29,0 63.89,0 42.6,0 63.89,0 63.89,0 170.4,0 316.21,-60.61 437.45,-181.85 121.24,-121.24 185.13,-267.06 191.69,-437.45l29.49 0zm0 -5445.94l-29.49 0c0,-170.38 -62.25,-316.2 -186.77,-437.43 -124.52,-121.25 -271.97,-181.86 -442.37,-181.86 0,0 -19.65,0 -58.97,0 -39.33,0 -58.99,0 -58.99,0l-9.83 -98.3 786.41 0 0 717.6zm6763.18 -855.23c104.85,0 217.89,6.56 339.14,19.67 121.24,13.11 239.2,31.12 353.89,54.07 114.68,22.93 219.53,45.87 314.56,68.81 95.03,22.93 168.76,47.51 221.18,73.72l0 1091.15 -88.47 0c0,-314.57 -108.13,-561.96 -324.39,-742.17 -216.28,-180.22 -478.41,-270.33 -786.43,-270.33 -360.43,0 -652.07,113.04 -874.88,339.14 -222.82,226.09 -334.23,489.87 -334.23,791.32 0,124.52 27.85,270.34 83.56,437.45 55.71,167.12 158.92,322.75 309.65,466.94l1936.55 1789.09c196.6,183.5 327.67,380.1 393.21,589.82 65.53,209.7 98.3,412.87 98.3,609.47 0,543.94 -165.48,986.3 -496.43,1327.07 -330.94,340.78 -778.21,511.18 -1341.82,511.18 -157.28,0 -342.42,-16.39 -555.4,-49.16 -212.98,-32.76 -419.42,-90.11 -619.31,-172.02 -199.88,-81.92 -365.35,-188.41 -496.42,-319.48 -19.67,-104.86 -29.49,-235.93 -29.49,-393.21 0,-157.29 13.11,-322.77 39.32,-496.43 26.21,-173.66 62.27,-332.58 108.13,-476.77l88.48 0c-32.77,334.23 9.83,625.86 127.79,874.89 117.97,249.02 289.99,437.45 516.08,565.23 226.1,127.8 483.32,185.14 771.68,172.04 360.43,-19.67 670.08,-145.82 928.95,-378.47 258.86,-232.64 388.3,-545.57 388.3,-938.78 0,-190.05 -32.77,-362.07 -98.3,-516.08 -65.53,-154 -160.56,-286.72 -285.08,-398.11l-1887.4 -1749.78c-196.61,-183.49 -334.23,-385.01 -412.87,-604.55 -78.64,-219.54 -117.96,-424.34 -117.96,-614.39 0,-275.25 65.53,-540.66 196.6,-796.24 131.08,-255.59 326.03,-463.66 584.9,-624.22 258.86,-160.57 575.07,-240.85 948.62,-240.85zm1228.77 98.3l0 206.44 -747.09 0 0 -206.44 747.09 0zm4335.13 68.81l0 6851.65 -638.96 0 0 -6851.65 638.96 0zm2526.36 -39.32l0 294.9 -5691.68 0 0 -294.9 5691.68 0zm0 265.41l0 796.25 -98.3 -9.84 0 -167.1c0,-163.84 -57.35,-301.46 -172.02,-412.87 -114.69,-111.41 -250.68,-170.38 -407.95,-176.94l0 -29.49 678.28 0zm0 -442.35l0 285.08 -1199.29 -108.13c144.18,0 296.54,-9.83 457.11,-29.49 160.56,-19.67 309.65,-42.6 447.27,-68.81 137.61,-26.21 235.92,-52.43 294.9,-78.64zm-3135.83 6350.31l0 717.6 -786.43 0 0 -98.3c0,0 21.31,0 63.9,0 42.6,0 63.89,0 63.89,0 170.38,0 316.21,-60.61 437.45,-181.85 121.24,-121.24 185.13,-267.06 191.69,-437.45l29.49 0zm579.98 0l29.49 0c6.55,170.38 70.45,316.21 191.69,437.45 121.24,121.24 267.05,181.85 437.43,181.85 0,0 21.31,0 63.9,0 42.6,0 63.89,0 63.89,0l0 98.3 -786.41 0 0 -717.6zm-2457.55 -5907.95l0 29.49c-163.84,6.56 -301.46,65.53 -412.87,176.94 -111.41,111.41 -167.12,249.04 -167.12,412.87l0 167.1 -98.29 9.84 0 -796.25 678.28 0zm-678.28 -442.35c65.53,26.21 165.46,52.43 299.81,78.64 134.36,26.21 283.45,49.15 447.28,68.81 163.84,19.67 314.56,29.49 452.18,29.49l-1199.27 108.13 0 -285.08z"/>
 </g>
</svg>
