<?xml version="1.0" encoding="UTF-8"?>
<!DOCTYPE svg PUBLIC "-//W3C//DTD SVG 1.1//EN" "http://www.w3.org/Graphics/SVG/1.1/DTD/svg11.dtd">
<!-- Creator: CorelDRAW -->
<svg xmlns="http://www.w3.org/2000/svg" xml:space="preserve" width="211.644mm" height="110.2mm" version="1.1" style="shape-rendering:geometricPrecision; text-rendering:geometricPrecision; image-rendering:optimizeQuality; fill-rule:evenodd; clip-rule:evenodd"
viewBox="0 0 25717.8 13390.93"
 xmlns:xlink="http://www.w3.org/1999/xlink"
 xmlns:xodm="http://www.corel.com/coreldraw/odm/2003">
 <defs>
  <style type="text/css">
   <![CDATA[
    .fil0 {fill:#e1cd9b;fill-rule:nonzero}
   ]]>
  </style>
 </defs>
 <g id="Capa_x0020_1">
  <metadata id="CorelCorpID_0Corel-Layer"/>
  <path class="fil0" d="M2809.82 8616.16l942.92 0c200.62,0 382.3,28.98 545.02,86.93 162.72,57.96 299.81,141.55 411.28,250.78 111.45,109.22 197.27,240.74 257.45,394.55 60.19,153.81 90.29,328.79 90.29,524.96 0,214 -50.16,419.08 -150.47,615.24 -100.31,196.16 -236.29,355.55 -407.92,478.15 -171.64,122.6 -364.46,183.9 -578.46,183.9 75.79,31.2 158.27,94.73 247.44,190.6 89.16,95.85 167.18,188.36 234.05,277.52 0,0 30.1,43.48 90.29,130.41 60.19,86.93 135.97,192.82 227.37,317.65 91.39,124.83 183.9,247.43 277.53,367.8 93.63,120.37 173.86,216.22 240.74,287.55 89.17,98.09 178.32,185.02 267.49,260.81 89.17,75.79 186.14,135.97 290.91,180.56 104.77,44.58 221.79,66.88 351.08,66.88l0 66.87 -367.8 0c-205.08,0 -382.3,-31.2 -531.65,-93.63 -149.34,-62.41 -275.29,-139.32 -377.83,-230.71 -102.55,-91.39 -189.48,-179.44 -260.81,-264.15 -13.38,-17.84 -50.16,-69.11 -110.35,-153.81 -60.19,-84.71 -131.52,-186.14 -214,-304.27 -82.47,-118.15 -163.84,-235.17 -244.09,-351.09 -80.25,-115.91 -149.35,-215.11 -207.3,-297.58 -57.96,-82.48 -91.39,-130.41 -100.31,-143.79 -84.71,-111.45 -178.33,-213.99 -280.87,-307.61 -102.55,-93.63 -214,-140.43 -334.37,-140.43l0 -66.87c0,0 34.56,1.11 103.65,3.34 69.11,2.22 152.7,1.12 250.78,-3.34 115.91,-4.46 242.97,-22.3 381.18,-53.5 138.2,-31.2 267.49,-95.85 387.86,-193.94 120.37,-98.07 211.76,-247.43 274.19,-448.05 13.38,-49.04 24.52,-110.34 33.44,-183.9 8.91,-73.56 11.14,-146.01 6.68,-217.34 -4.46,-303.15 -81.37,-545.02 -230.72,-725.58 -149.34,-180.56 -348.86,-277.53 -598.51,-290.89 -124.83,-8.92 -253.01,-12.26 -384.53,-10.04 -131.52,2.22 -241.85,3.34 -331.02,3.34 -89.17,0 -133.75,0 -133.75,0 0,-4.46 -5.57,-23.4 -16.72,-56.84 -11.14,-33.43 -22.29,-66.87 -33.43,-100.31 -11.14,-33.43 -16.72,-50.15 -16.72,-50.15zm86.93 0l0 4681.14 -434.67 0 0 -4681.14 434.67 0zm-414.61 4192.97l0 488.17 -534.99 0 0 -66.87c0,0 14.48,0 43.47,0 28.98,0 43.47,0 43.47,0 115.91,0 215.12,-41.24 297.59,-123.71 82.48,-82.48 125.95,-181.68 130.41,-297.59l20.06 0zm0 -3704.8l-20.06 0c-4.46,-115.91 -47.93,-215.11 -130.41,-297.59 -82.47,-82.47 -181.68,-123.71 -297.59,-123.71 0,0 -14.48,0 -43.47,0 -28.98,0 -43.47,0 -43.47,0l0 -66.87 534.99 0 0 488.17zm394.55 3704.8l20.06 0c0,115.91 42.36,215.11 127.07,297.59 84.7,82.47 185.01,123.71 300.93,123.71 0,0 13.37,0 40.12,0 26.75,0 40.12,0 40.12,0l0 66.87 -528.31 0 0 -488.17zm4346.77 -4192.97l0 4681.14 -434.67 0 0 -4681.14 434.67 0zm1805.59 4473.84l0 207.3 -1825.65 0 0 -207.3 1825.65 0zm-287.55 -2200.14l0 200.62 -1538.1 0 0 -200.62 1538.1 0zm287.55 -2273.7l0 207.3 -1825.65 0 0 -207.3 1825.65 0zm407.94 3597.79l-387.87 1083.35 -1110.1 0 240.74 -207.3c236.29,0 429.1,-36.78 578.46,-110.35 149.34,-73.55 270.83,-177.22 364.46,-310.96 93.63,-133.75 176.1,-285.33 247.43,-454.74l66.88 0zm-695.49 -1136.85l0 441.37 -66.87 0 0 -100.31c0,-89.16 -31.22,-166.06 -93.63,-230.71 -62.42,-64.65 -138.21,-96.97 -227.37,-96.97l0 -13.38 387.86 0zm0 -615.23l0 441.37 -387.86 0 0 -13.38c89.16,-4.46 164.94,-39.01 227.37,-103.65 62.41,-64.65 93.63,-141.55 93.63,-230.72l0 -93.61 66.87 0zm287.55 -1658.47l0 534.99 -66.87 0 0 -120.37c0,-106.99 -37.9,-199.5 -113.69,-277.53 -75.79,-78.02 -169.42,-119.25 -280.87,-123.71l0 -13.38 461.43 0zm0 -307.61l0 193.94 -815.85 -73.56c98.07,0 201.73,-6.68 310.96,-20.06 109.23,-13.38 210.66,-28.98 304.27,-46.81 93.63,-17.84 160.5,-35.68 200.62,-53.5zm-2220.19 4313.34l0 488.17 -534.99 0 0 -66.87c0,0 14.48,0 43.47,0 28.98,0 43.47,0 43.47,0 115.91,0 215.12,-41.24 297.59,-123.71 82.48,-82.48 125.95,-181.68 130.41,-297.59l20.06 0zm0 -3704.8l-20.06 0c0,-115.91 -42.36,-215.11 -127.07,-297.59 -84.71,-82.47 -185.02,-123.71 -300.93,-123.71 0,0 -13.37,0 -40.12,0 -26.75,0 -40.12,0 -40.12,0l-6.68 -66.87 534.99 0 0 488.17zm4600.9 -581.8c71.33,0 148.24,4.46 230.71,13.38 82.48,8.92 162.73,21.18 240.74,36.78 78.02,15.6 149.35,31.2 214,46.81 64.65,15.6 114.79,32.32 150.46,50.16l0 742.3 -60.19 0c0,-214 -73.55,-382.3 -220.68,-504.91 -147.12,-122.6 -325.45,-183.9 -534.98,-183.9 -245.2,0 -443.6,76.91 -595.18,230.72 -151.58,153.8 -227.37,333.25 -227.37,538.33 0,84.7 18.94,183.9 56.83,297.58 37.9,113.69 108.12,219.58 210.66,317.65l1317.41 1217.1c133.74,124.83 222.91,258.57 267.49,401.24 44.58,142.66 66.87,280.87 66.87,414.61 0,370.04 -112.57,670.97 -337.71,902.79 -225.13,231.84 -529.41,347.75 -912.82,347.75 -106.99,0 -232.94,-11.16 -377.84,-33.44 -144.89,-22.29 -285.33,-61.3 -421.3,-117.03 -135.97,-55.73 -248.55,-128.17 -337.71,-217.34 -13.37,-71.33 -20.06,-160.5 -20.06,-267.49 0,-106.99 8.92,-219.56 26.76,-337.71 17.83,-118.14 42.35,-226.25 73.55,-324.33l60.19 0c-22.29,227.37 6.7,425.76 86.94,595.18 80.25,169.4 197.27,297.59 351.08,384.52 153.81,86.93 328.79,125.94 524.96,117.03 245.2,-13.38 455.86,-99.2 631.96,-257.47 176.1,-158.27 264.15,-371.15 264.15,-638.64 0,-129.29 -22.3,-246.32 -66.87,-351.08 -44.58,-104.77 -109.23,-195.06 -193.94,-270.84l-1283.97 -1190.34c-133.75,-124.83 -227.37,-261.92 -280.87,-411.28 -53.5,-149.34 -80.25,-288.67 -80.25,-417.95 0,-187.25 44.58,-367.81 133.75,-541.68 89.16,-173.88 221.79,-315.43 397.89,-424.66 176.11,-109.22 391.22,-163.84 645.34,-163.84zm835.91 66.88l0 140.43 -508.23 0 0 -140.43 508.23 0zm2949.12 46.81l0 4661.08 -434.68 0 0 -4661.08 434.68 0zm1718.64 -26.75l0 200.62 -3871.97 0 0 -200.62 3871.97 0zm0 180.56l0 541.68 -66.87 -6.7 0 -113.68c0,-111.47 -39.01,-205.08 -117.03,-280.87 -78.01,-75.8 -170.52,-115.92 -277.52,-120.37l0 -20.06 461.42 0zm0 -300.93l0 193.93 -815.85 -73.55c98.07,0 201.74,-6.7 310.96,-20.06 109.23,-13.38 210.66,-28.98 304.27,-46.82 93.63,-17.83 160.5,-35.66 200.62,-53.49zm-2133.26 4320.03l0 488.17 -534.98 0 0 -66.87c0,0 14.48,0 43.47,0 28.98,0 43.47,0 43.47,0 115.91,0 215.11,-41.24 297.59,-123.71 82.47,-82.48 125.94,-181.68 130.4,-297.59l20.06 0zm394.56 0l20.06 0c4.46,115.91 47.93,215.11 130.4,297.59 82.48,82.47 181.68,123.71 297.59,123.71 0,0 14.5,0 43.47,0 28.98,0 43.48,0 43.48,0l0 66.87 -534.99 0 0 -488.17zm-1671.83 -4019.1l0 20.06c-111.47,4.45 -205.08,44.57 -280.87,120.37 -75.79,75.79 -113.69,169.4 -113.69,280.87l0 113.68 -66.87 6.7 0 -541.68 461.43 0zm-461.43 -300.93c44.58,17.83 112.57,35.66 203.96,53.49 91.39,17.84 192.82,33.44 304.27,46.82 111.45,13.37 214,20.06 307.61,20.06l-815.85 73.55 0 -193.93z"/>
  <path class="fil0" d="M11790.93 1895.62c-5.75,11.48 -11.48,22.98 -17.23,34.46 -5.75,11.48 -31.59,8.62 -77.55,-8.62 -74.67,-28.73 -143.61,-45.96 -206.79,-51.7 -63.19,-5.74 -123.5,-5.74 -180.95,0 -143.61,17.24 -310.19,76.12 -499.74,176.65 -189.56,100.52 -392.05,226.89 -607.46,379.11 -215.41,152.22 -433.69,324.55 -654.84,516.98 -221.16,192.43 -436.57,387.74 -646.23,585.92 -209.67,198.18 -406.41,393.48 -590.23,585.92 -183.82,192.43 -341.78,363.32 -473.89,512.67 -315.94,356.15 -575.87,680.7 -779.78,973.65 -203.93,292.96 -371.94,545.71 -504.05,758.25 -45.96,74.67 -90.48,152.22 -133.56,232.64 -43.09,80.42 -86.17,152.22 -129.26,215.41 -43.08,63.19 -84.72,114.88 -124.93,155.09 -40.21,40.22 -77.55,54.57 -112.01,43.09 -63.19,-17.23 -94.78,-71.8 -94.78,-163.72 0,-91.9 40.21,-221.14 120.63,-387.73 63.19,-132.12 156.54,-292.96 280.03,-482.52 123.51,-189.56 259.93,-390.61 409.29,-603.15 114.88,-235.51 169.45,-446.61 163.7,-633.3 -5.75,-186.7 -54.57,-354.71 -146.47,-504.07 -74.68,68.94 -145.04,134.99 -211.11,198.18 -66.06,63.19 -130.68,126.38 -193.86,189.56 -608.9,608.89 -1167.52,1102.9 -1675.89,1482.02 -508.37,379.13 -972.21,673.52 -1391.55,883.18 -419.32,209.67 -794.15,351.83 -1124.44,426.52 -330.3,74.67 -618.95,112.01 -865.95,112.01 -166.58,0 -333.17,-17.23 -499.75,-51.7 -166.58,-34.46 -314.49,-99.08 -443.73,-193.86 -129.26,-94.78 -229.77,-222.59 -301.57,-383.43 -71.8,-160.84 -93.35,-367.63 -64.62,-620.38 17.23,-195.31 74.67,-396.36 172.32,-603.15 97.65,-206.79 224.02,-410.72 379.13,-611.77 155.09,-201.05 336.04,-393.48 542.83,-577.29 206.79,-183.83 430.82,-350.4 672.09,-499.75 172.32,-103.4 357.57,-196.74 555.75,-280.03 198.18,-83.3 399.24,-155.1 603.15,-215.41 203.93,-60.32 404.97,-112.02 603.15,-155.1 198.18,-43.08 386.31,-73.24 564.37,-90.47 -45.96,-34.47 -99.1,-100.53 -159.4,-198.18 -60.32,-97.66 -81.85,-215.41 -64.62,-353.28 28.71,-281.46 145.04,-527.03 348.97,-736.69 203.91,-209.67 458.1,-384.87 762.54,-525.6 304.45,-140.74 641.93,-247 1012.44,-318.81 370.5,-71.8 736.69,-107.71 1098.59,-107.71 419.33,0 807.06,17.23 1163.21,51.7 356.15,34.46 685,80.42 986.58,137.86 301.57,57.44 583.04,119.19 844.41,185.25 261.37,66.06 512.68,130.69 753.94,193.88 40.21,11.48 94.78,27.28 163.72,47.38 68.92,20.11 142.16,41.66 219.71,64.63 77.55,22.97 156.54,47.39 236.95,73.24 80.42,25.85 152.22,50.26 215.41,73.24 68.94,17.23 103.4,40.21 103.4,68.94zm-801.33 -34.47c-201.05,17.24 -387.73,53.14 -560.06,107.71 -172.33,54.57 -367.63,124.94 -585.92,211.1 -585.91,235.52 -1128.75,532.78 -1628.49,891.81 -499.75,359.01 -947.81,719.46 -1344.16,1081.35 80.42,120.64 136.42,257.06 168.02,409.29 31.59,152.22 21.53,317.37 -30.16,495.44 114.88,-149.35 234.07,-294.39 357.58,-435.13 123.5,-140.73 242.69,-268.54 357.58,-383.43 614.63,-626.12 1190.49,-1145.98 1727.59,-1559.57 537.08,-413.59 1049.76,-686.44 1538.02,-818.56zm206.79 -112.01c-45.96,-11.48 -96.22,-22.98 -150.79,-34.46 -54.57,-11.5 -113.45,-22.98 -176.63,-34.46 -241.26,-45.96 -482.52,-91.91 -723.78,-137.87 -241.26,-45.94 -506.93,-86.17 -797.01,-120.63 -290.09,-34.46 -617.51,-63.19 -982.28,-86.17 -364.75,-22.98 -788.4,-34.46 -1270.91,-34.46 -361.89,0 -722.34,33.03 -1081.36,99.08 -359.01,66.07 -683.57,160.85 -973.66,284.34 -290.08,123.51 -531.33,272.85 -723.78,448.05 -192.43,175.2 -300.13,374.82 -323.11,598.85 -11.5,149.35 15.8,262.8 81.85,340.35 66.06,77.54 122.06,127.81 168.02,150.78 45.96,-5.74 87.6,-10.05 124.94,-12.92 37.34,-2.88 76.12,-4.31 116.33,-4.31 499.74,-11.48 936.31,47.39 1309.68,176.65 373.38,129.24 669.21,305.88 887.49,529.9 448.05,-361.88 923.39,-702.23 1426.01,-1021.04 502.62,-318.81 1029.65,-578.74 1581.11,-779.78 287.21,-109.14 545.7,-193.88 775.47,-254.18 229.77,-60.32 473.91,-96.22 732.39,-107.71zm-4601.15 2240.27c-218.29,-212.54 -514.12,-373.38 -887.49,-482.52 -373.38,-109.14 -778.34,-155.09 -1214.9,-137.86 -178.08,5.75 -376.26,33.03 -594.53,81.85 -218.28,48.82 -440.87,112.01 -667.77,189.56 -226.9,77.55 -449.48,166.58 -667.77,267.11 -218.28,100.52 -416.45,205.35 -594.53,314.49 -241.26,155.1 -468.15,318.81 -680.69,491.14 -212.54,172.32 -399.22,347.53 -560.07,525.6 -160.84,178.07 -291.51,357.58 -392.04,538.53 -100.53,180.94 -159.4,354.7 -176.63,521.29 -28.73,224.02 -12.93,407.84 47.39,551.45 60.31,143.61 145.04,257.06 254.18,340.35 109.14,83.3 235.51,142.17 379.11,176.63 143.62,34.47 290.09,51.7 439.45,51.7 315.93,0 641.91,-61.75 977.96,-185.25 336.04,-123.51 692.18,-304.45 1068.43,-542.84 376.25,-238.39 776.92,-534.21 1201.99,-887.48 425.07,-353.28 884.61,-759.69 1378.62,-1219.22 109.14,-97.66 219.72,-196.74 331.73,-297.27 112.01,-100.52 231.21,-199.61 357.58,-297.26zm3886 585.92c-5.75,57.44 -24.42,100.52 -56.01,129.24 -31.59,28.71 -56.02,40.21 -73.25,34.46 -11.48,-5.75 -25.85,-15.8 -43.08,-30.16 -17.23,-14.36 -37.34,-27.28 -60.32,-38.78 -40.21,-22.97 -73.24,-38.76 -99.08,-47.39 -25.85,-8.62 -67.5,-15.8 -124.94,-21.53 -86.17,-5.75 -195.3,22.98 -327.42,86.17 -132.12,63.19 -272.85,146.47 -422.2,249.87 -149.35,103.4 -304.44,221.16 -465.29,353.27 -160.84,132.12 -313.06,267.11 -456.66,404.97 -137.86,132.12 -251.32,242.7 -340.35,331.73 -89.03,89.03 -169.45,175.2 -241.26,258.49 -71.8,83.3 -146.47,173.77 -224.02,271.43 -77.55,97.65 -173.77,218.28 -288.65,361.88 -28.73,0 -50.27,-12.93 -64.63,-38.78 -14.35,-25.85 -24.41,-57.44 -30.15,-94.78 -5.75,-37.33 -7.18,-74.67 -4.31,-112.01 2.87,-37.33 10.05,-67.49 21.54,-90.47 114.88,-218.29 271.42,-452.36 469.59,-702.23 198.18,-249.88 412.15,-495.45 641.91,-736.71 137.87,-149.35 277.16,-285.78 417.9,-409.27 140.74,-123.51 262.8,-216.85 366.2,-280.04 68.94,-45.94 159.4,-81.85 271.42,-107.7 112.01,-25.85 222.59,-38.78 331.73,-38.78 -178.08,114.88 -379.13,271.42 -603.15,469.59 -224.02,198.18 -427.95,406.41 -611.77,624.68l25.85 34.47c120.64,-103.4 261.37,-224.02 422.2,-361.89 160.85,-137.86 324.55,-265.67 491.14,-383.43 166.58,-117.76 328.87,-213.98 486.82,-288.65 157.97,-74.68 288.66,-103.4 392.05,-86.17 74.67,11.48 127.81,41.64 159.4,90.47 31.59,48.84 44.51,104.84 38.78,168.03zm8538.84 -1912.85c-40.21,201.05 -109.14,359.01 -206.79,473.91 -97.66,114.88 -186.7,192.43 -267.11,232.64 -34.46,17.23 -57.44,24.41 -68.94,21.54 -11.48,-2.88 -20.1,-10.06 -25.85,-21.54 -5.74,-17.23 -7.18,-27.29 -4.3,-30.16 2.87,-2.87 21.53,-18.66 56.01,-47.39 63.19,-51.69 124.93,-127.81 185.25,-228.34 60.32,-100.52 101.96,-211.1 124.94,-331.72 40.21,-206.79 38.78,-404.97 -4.31,-594.53 -43.08,-189.56 -137.86,-356.15 -284.34,-499.75 -146.47,-143.61 -347.52,-257.05 -603.14,-340.35 -255.62,-83.29 -575.87,-122.06 -960.73,-116.31 -310.19,5.75 -633.31,60.31 -969.35,163.7 -336.04,103.4 -672.07,241.27 -1008.12,413.59 -336.04,172.33 -670.64,369.08 -1003.81,590.23 -333.17,221.14 -649.09,449.48 -947.8,685 -132.12,109.13 -275.73,228.33 -430.82,357.58 -155.1,129.24 -308.76,261.35 -460.98,396.34 -152.22,134.99 -297.26,264.25 -435.13,387.74 -137.86,123.51 -255.62,231.21 -353.27,323.12 63.19,0 165.15,-2.88 305.88,-8.62 140.74,-5.75 259.93,-2.88 357.58,8.62 11.5,0 24.41,2.87 38.78,8.62 14.36,5.75 15.8,22.98 4.31,51.69 -17.24,28.73 -48.82,43.09 -94.78,43.09 -34.47,0 -83.3,0 -146.49,0 -63.19,0 -130.68,1.43 -202.48,4.3 -71.8,2.88 -142.17,5.75 -211.11,8.62 -68.92,2.88 -129.24,7.18 -180.94,12.93 -80.43,80.42 -155.1,155.09 -224.04,224.02 -68.92,68.94 -149.34,152.22 -241.26,249.88 -448.05,465.28 -779.78,837.22 -995.19,1115.82 -215.41,278.6 -265.67,452.36 -150.79,521.29 34.46,22.98 83.3,27.29 146.47,12.93 63.19,-14.36 133.56,-40.21 211.11,-77.55 77.55,-37.33 156.54,-83.29 236.95,-137.86 80.42,-54.57 155.09,-107.71 224.02,-159.4 51.69,-40.21 114.88,-90.48 189.56,-150.79 74.67,-60.32 155.09,-127.81 241.26,-202.49 86.17,-74.67 172.33,-149.34 258.5,-224.02 86.15,-74.67 163.7,-143.61 232.64,-206.79 17.23,-11.48 37.34,-22.98 60.31,-34.46 22.98,-11.48 43.09,-8.62 60.32,8.62 17.23,28.73 15.8,53.14 -4.31,73.24 -20.1,20.11 -38.76,41.64 -56.01,64.62 -51.69,51.7 -116.31,110.58 -193.86,176.65 -77.55,66.06 -159.4,134.99 -245.57,206.79 -86.17,71.8 -173.77,145.04 -262.8,219.71 -89.03,74.68 -173.77,140.74 -254.18,198.18 -189.56,143.61 -367.63,252.75 -534.21,327.42 -166.58,74.68 -313.06,89.03 -439.43,43.09 -137.86,-51.7 -208.23,-150.79 -211.11,-297.27 -2.87,-146.47 44.52,-303.01 142.17,-469.59 183.82,-304.44 614.63,-798.45 1292.47,-1482.02 -74.68,0 -155.1,2.87 -241.27,8.62 -86.17,5.75 -180.94,14.36 -284.33,25.85 -57.45,5.75 -80.43,-8.62 -68.94,-43.08 5.75,-17.23 17.23,-28.73 34.46,-34.46 17.23,-5.75 31.59,-11.5 43.09,-17.24 22.98,-5.74 60.31,-11.48 112.01,-17.23 51.69,-5.74 107.7,-10.05 168.02,-12.92 60.31,-2.88 122.06,-7.18 185.25,-12.93 63.19,-5.75 120.63,-8.62 172.33,-8.62 315.93,-315.94 643.36,-621.81 982.26,-917.64 338.92,-295.84 689.32,-575.87 1051.2,-840.1 310.19,-224.02 637.62,-439.43 982.28,-646.23 344.65,-206.79 695.05,-387.74 1051.2,-542.83 356.15,-155.1 710.85,-278.6 1064.13,-370.51 353.27,-91.91 693.62,-140.74 1021.04,-146.47 419.33,-5.75 766.85,38.76 1042.58,133.54 275.73,94.78 494.01,218.29 654.84,370.51 160.85,152.22 267.11,325.99 318.81,521.29 51.7,195.31 60.32,390.62 25.86,585.92zm-3670.59 1637.12c132.11,68.94 145.04,235.51 38.78,499.75 -106.28,264.23 -343.23,580.17 -710.86,947.8 -189.56,189.56 -371.94,359.01 -547.14,508.37 -175.2,149.34 -340.34,272.85 -495.44,370.5 -155.09,97.66 -294.39,166.58 -417.89,206.79 -123.51,40.21 -225.47,51.7 -305.89,34.47 -132.11,-34.47 -218.28,-103.4 -258.49,-206.79 -40.21,-103.4 -41.66,-229.77 -4.31,-379.13 37.34,-149.35 110.58,-313.06 219.72,-491.14 109.13,-178.07 249.87,-356.15 422.2,-534.21 178.07,-178.07 367.63,-337.47 568.68,-478.21 201.06,-140.74 397.79,-254.18 590.22,-340.35 192.44,-86.17 367.64,-142.17 525.61,-168.02 157.96,-25.85 282.9,-15.8 374.81,30.16zm-51.7 103.4c-45.96,-34.46 -122.06,-31.59 -228.34,8.62 -106.26,40.21 -235.51,113.45 -387.73,219.72 -152.22,106.26 -320.25,239.82 -504.07,400.66 -183.82,160.84 -373.38,344.65 -568.68,551.45 -126.38,132.12 -242.7,259.93 -348.97,383.43 -106.26,123.51 -193.86,236.95 -262.8,340.35 -68.94,103.4 -110.58,193.88 -124.94,271.42 -14.36,77.55 7.18,133.56 64.62,168.02 51.7,28.73 129.26,18.68 232.65,-30.15 103.4,-48.84 226.89,-127.81 370.5,-236.95 143.61,-109.14 304.44,-244.14 482.52,-404.97 178.07,-160.84 364.76,-341.78 560.06,-542.83 86.17,-86.17 179.51,-186.7 280.03,-301.57 100.53,-114.89 189.56,-228.34 267.11,-340.35 77.55,-112.01 134.99,-212.54 172.33,-301.57 37.33,-89.03 35.9,-150.79 -4.31,-185.25zm10399.99 -2748.64c-40.21,201.06 -109.13,359.01 -206.79,473.91 -97.65,114.88 -186.68,192.43 -267.1,232.64 -34.47,17.23 -57.45,24.41 -68.94,21.54 -11.48,-2.87 -20.1,-10.05 -25.85,-21.54 -5.75,-11.48 -7.18,-20.1 -4.31,-25.85 2.88,-5.75 21.54,-22.98 56.01,-51.7 63.19,-51.69 124.94,-127.81 185.26,-228.33 60.31,-100.53 101.95,-208.23 124.93,-323.12 40.21,-206.79 33.03,-406.41 -21.53,-598.84 -54.57,-192.43 -157.97,-361.89 -310.19,-508.37 -152.23,-146.47 -359.03,-262.8 -620.38,-348.97 -261.37,-86.17 -578.74,-129.24 -952.12,-129.24 -666.34,0 -1344.16,160.84 -2033.47,482.51 -689.3,321.69 -1367.12,761.12 -2033.46,1318.31 -442.31,367.63 -883.18,763.99 -1322.61,1189.07 -439.45,425.07 -891.81,878.87 -1357.09,1361.39 80.42,0 193.86,-1.43 340.35,-4.31 146.47,-2.87 274.28,-1.43 383.43,4.31 11.48,0 22.98,2.87 34.46,8.62 11.5,5.75 14.36,20.1 8.62,43.08 -17.23,34.47 -48.82,51.7 -94.78,51.7 -45.94,0 -103.4,1.43 -172.32,4.3 -68.94,2.88 -140.74,5.75 -215.41,8.62 -74.68,2.88 -146.49,5.75 -215.41,8.62 -68.94,2.88 -129.26,4.31 -180.95,4.31 -149.35,160.84 -305.89,333.17 -469.59,516.98 -163.72,183.82 -327.42,366.2 -491.14,547.14 -163.7,180.94 -320.24,351.83 -469.59,512.67 -149.35,160.84 -278.6,298.71 -387.74,413.59 -407.84,430.82 -822.86,848.72 -1245.06,1253.69 -422.2,404.97 -811.38,748.19 -1167.52,1029.65 -551.45,442.31 -1079.92,817.13 -1585.41,1124.45 -505.5,307.31 -995.19,557.19 -1469.1,749.62 -473.89,192.43 -933.44,331.72 -1378.62,417.89 -445.18,86.17 -880.31,123.51 -1305.38,112.01 -471.03,-11.48 -877.43,-90.47 -1219.22,-241.26 -341.78,-149.35 -608.9,-347.53 -801.33,-594.53 -192.43,-247 -305.89,-525.6 -340.35,-835.79 -34.46,-310.19 20.11,-626.12 163.72,-947.8 17.23,-28.73 37.33,-63.19 60.31,-103.4 22.98,-40.21 47.39,-76.1 73.24,-107.7 25.86,-31.59 51.7,-56.01 77.55,-73.25 25.85,-17.23 47.39,-17.23 64.62,0 5.75,11.5 -2.87,43.09 -25.85,94.78 -22.98,51.7 -43.08,94.78 -60.32,129.26 -155.09,315.93 -219.71,624.68 -193.86,926.26 25.85,301.57 127.81,570.12 305.89,805.63 178.07,235.52 425.07,427.95 741.01,577.3 315.93,149.35 686.44,229.77 1111.51,241.26 471.04,11.5 927.7,-35.9 1370.02,-142.17 442.3,-106.26 881.73,-262.8 1318.3,-471.03 436.57,-206.79 871.7,-455.23 1305.38,-745.32 433.7,-291.51 874.56,-614.63 1322.63,-970.78 132.11,-103.4 291.51,-236.94 478.21,-400.66 186.68,-165.15 383.43,-344.65 590.22,-539.96 206.79,-195.3 417.89,-400.66 633.31,-617.51 215.41,-215.41 423.64,-426.5 624.68,-633.3 269.98,-281.48 555.76,-587.35 857.33,-914.77 301.57,-327.42 639.05,-699.37 1012.42,-1112.95 -74.67,0 -155.09,2.87 -241.26,8.62 -86.17,5.75 -180.95,14.36 -284.34,25.85 -57.44,5.75 -80.42,-8.62 -68.94,-43.08 5.75,-17.23 17.23,-28.73 34.47,-34.46 17.23,-5.75 31.59,-11.5 43.08,-17.24 22.98,-5.74 60.32,-11.48 112.01,-17.23 51.7,-5.74 107.71,-10.05 168.02,-12.92 60.32,-2.88 120.63,-7.18 180.95,-12.93 60.32,-5.75 113.45,-8.62 159.4,-8.62 252.75,-264.23 509.8,-529.91 771.17,-797.01 261.37,-267.11 519.85,-525.6 775.47,-775.48 255.63,-249.87 506.93,-485.39 753.94,-706.55 247,-221.14 485.39,-423.64 715.16,-607.45 298.71,-235.51 621.81,-452.36 969.35,-650.54 347.53,-198.18 707.98,-370.5 1081.36,-516.98 373.38,-146.47 749.62,-259.92 1128.75,-340.34 379.11,-80.43 749.62,-120.64 1111.51,-120.64 413.59,0 761.12,50.27 1042.58,150.79 281.48,100.53 502.63,229.77 663.47,387.74 160.84,157.97 268.55,334.6 323.11,529.91 54.57,195.3 64.63,390.61 30.16,585.91z"/>
 </g>
</svg>
