<?xml version="1.0" encoding="UTF-8"?>
<!DOCTYPE svg PUBLIC "-//W3C//DTD SVG 1.1//EN" "http://www.w3.org/Graphics/SVG/1.1/DTD/svg11.dtd">
<!-- Creator: CorelDRAW -->
<svg xmlns="http://www.w3.org/2000/svg" xml:space="preserve" width="280.343mm" height="134.393mm" version="1.1" style="shape-rendering:geometricPrecision; text-rendering:geometricPrecision; image-rendering:optimizeQuality; fill-rule:evenodd; clip-rule:evenodd"
viewBox="0 0 28042.14 13443.04"
 xmlns:xlink="http://www.w3.org/1999/xlink"
 xmlns:xodm="http://www.corel.com/coreldraw/odm/2003">
 <defs>
  <style type="text/css">
   <![CDATA[
    .fil0 {fill:#E3D6B5;fill-rule:nonzero}
   ]]>
  </style>
 </defs>
 <g id="Capa_x0020_1">
  <metadata id="CorelCorpID_0Corel-Layer"/>
  <path class="fil0" d="M10353.08 1475.02c-4.47,8.94 -8.94,17.87 -13.41,26.82 -4.47,8.94 -24.59,6.7 -60.34,-6.7 -58.11,-22.35 -111.75,-35.76 -160.91,-40.23 -49.16,-4.47 -96.1,-4.47 -140.8,0 -111.74,13.41 -241.37,59.23 -388.87,137.45 -147.5,78.22 -305.06,176.56 -472.68,295 -167.62,118.45 -337.46,252.54 -509.55,402.28 -172.09,149.73 -339.7,301.7 -502.85,455.92 -163.15,154.2 -316.24,306.18 -459.27,455.92 -143.03,149.73 -265.95,282.71 -368.75,398.92 -245.84,277.13 -448.09,529.67 -606.78,757.63 -158.67,227.95 -289.41,424.63 -392.22,590 -35.76,58.12 -70.4,118.45 -103.92,181.03 -33.53,62.58 -67.05,118.45 -100.57,167.62 -33.53,49.16 -65.94,89.39 -97.22,120.68 -31.29,31.29 -60.35,42.46 -87.16,33.52 -49.16,-13.4 -73.75,-55.87 -73.75,-127.39 0,-71.52 31.29,-172.09 93.87,-301.7 49.16,-102.81 121.79,-227.96 217.9,-375.46 96.1,-147.5 202.26,-303.94 318.47,-469.33 89.39,-183.26 131.86,-347.52 127.39,-492.79 -4.46,-145.27 -42.46,-276.01 -113.97,-392.22 -58.11,53.63 -112.86,105.04 -164.27,154.2 -51.4,49.16 -101.69,98.34 -150.85,147.5 -473.8,473.8 -908.48,858.2 -1304.06,1153.2 -395.57,295 -756.51,524.09 -1082.8,687.23 -326.29,163.15 -617.94,273.77 -874.95,331.88 -257.01,58.11 -481.62,87.15 -673.82,87.15 -129.63,0 -259.25,-13.4 -388.87,-40.23 -129.63,-26.82 -244.73,-77.1 -345.3,-150.85 -100.57,-73.75 -178.79,-173.2 -234.67,-298.35 -55.87,-125.15 -72.63,-286.07 -50.28,-482.73 13.41,-151.97 58.11,-308.42 134.1,-469.33 75.98,-160.91 174.32,-319.59 295,-476.03 120.68,-156.43 261.48,-306.18 422.4,-449.21 160.9,-143.04 335.23,-272.66 522.97,-388.88 134.09,-80.45 278.24,-153.08 432.45,-217.9 154.2,-64.81 310.65,-120.68 469.32,-167.62 158.67,-46.93 315.12,-87.15 469.33,-120.68 154.2,-33.52 300.58,-56.99 439.15,-70.4 -35.76,-26.82 -77.1,-78.21 -124.03,-154.2 -46.93,-75.98 -63.7,-167.62 -50.28,-274.89 22.35,-219.02 112.86,-410.1 271.54,-573.25 158.67,-163.15 356.46,-299.47 593.37,-408.98 236.9,-109.51 499.49,-192.2 787.79,-248.08 288.3,-55.87 573.25,-83.8 854.85,-83.8 326.29,0 628,13.41 905.13,40.23 277.12,26.82 533.02,62.58 767.68,107.27 234.66,44.7 453.68,92.75 657.05,144.15 203.38,51.4 398.92,101.69 586.65,150.85 31.29,8.94 73.75,21.24 127.4,36.88 53.63,15.64 110.62,32.41 170.97,50.28 60.34,17.87 121.79,36.88 184.37,56.99 62.58,20.12 118.45,39.11 167.62,57 53.64,13.4 80.46,31.29 80.46,53.63zm-623.53 -26.82c-156.44,13.4 -301.71,41.34 -435.8,83.8 -134.1,42.46 -286.07,97.22 -455.92,164.27 -455.92,183.26 -878.31,414.58 -1267.18,693.93 -388.87,279.36 -737.52,559.84 -1045.93,841.43 62.58,93.87 106.16,200.03 130.75,318.47 24.59,118.45 16.76,246.96 -23.47,385.52 89.39,-116.21 182.14,-229.07 278.24,-338.58 96.11,-109.51 188.85,-208.96 278.25,-298.35 478.26,-487.21 926.36,-891.72 1344.28,-1213.55 417.93,-321.82 816.85,-534.14 1196.78,-636.94zm160.9 -87.16c-35.75,-8.93 -74.86,-17.87 -117.32,-26.82 -42.47,-8.94 -88.28,-17.87 -137.45,-26.82 -187.73,-35.76 -375.46,-71.52 -563.2,-107.27 -187.72,-35.76 -394.45,-67.05 -620.17,-93.87 -225.72,-26.82 -480.5,-49.17 -764.33,-67.05 -283.83,-17.88 -613.48,-26.82 -988.94,-26.82 -281.6,0 -562.08,25.7 -841.43,77.1 -279.37,51.4 -531.91,125.15 -757.63,221.25 -225.72,96.1 -413.46,212.32 -563.19,348.65 -149.74,136.33 -233.55,291.65 -251.43,465.97 -8.93,116.21 12.29,204.5 63.7,264.83 51.4,60.35 94.98,99.46 130.74,117.33 35.76,-4.47 68.17,-7.82 97.22,-10.05 29.06,-2.24 59.23,-3.36 90.52,-3.36 388.87,-8.93 728.57,36.88 1019.11,137.45 290.53,100.57 520.73,238.02 690.57,412.33 348.65,-281.59 718.52,-546.42 1109.62,-794.5 391.11,-248.07 801.21,-450.33 1230.31,-606.77 223.48,-84.92 424.63,-150.85 603.42,-197.79 178.79,-46.93 368.75,-74.87 569.89,-83.81zm-3580.29 1743.22c-169.85,-165.39 -400.04,-290.54 -690.57,-375.46 -290.54,-84.92 -605.66,-120.68 -945.36,-107.27 -138.56,4.47 -292.76,25.7 -462.62,63.69 -169.85,38 -343.06,87.16 -519.6,147.5 -176.56,60.35 -349.77,129.63 -519.61,207.85 -169.85,78.22 -324.06,159.79 -462.62,244.72 -187.73,120.68 -364.29,248.08 -529.67,382.17 -165.39,134.1 -310.66,270.43 -435.81,408.98 -125.14,138.57 -226.83,278.25 -305.05,419.05 -78.22,140.8 -124.03,276.01 -137.45,405.63 -22.35,174.32 -10.05,317.35 36.88,429.09 46.93,111.75 112.86,200.03 197.79,264.83 84.92,64.82 183.26,110.63 295,137.45 111.74,26.82 225.72,40.23 341.94,40.23 245.84,0 499.5,-48.05 760.98,-144.15 261.48,-96.11 538.61,-236.9 831.38,-422.4 292.76,-185.49 604.53,-415.69 935.3,-690.58 330.76,-274.89 688.34,-591.12 1072.74,-948.7 84.92,-75.98 170.97,-153.09 258.13,-231.31 87.16,-78.22 179.91,-155.32 278.24,-231.3zm4518.94 -261.48c0,8.94 -12.28,14.52 -36.87,16.76 -24.59,2.23 -45.81,5.58 -63.7,10.05 -129.62,13.41 -274.89,82.69 -435.8,207.85 -84.92,67.04 -175.44,146.38 -271.54,238.02 -96.1,91.63 -192.2,186.61 -288.3,284.94 -96.1,98.34 -189.96,197.8 -281.6,298.36 -91.63,100.57 -175.44,195.55 -251.42,284.95 71.51,-67.05 174.32,-154.21 308.42,-261.48 134.09,-107.28 274.89,-208.97 422.39,-305.06 147.5,-96.1 287.18,-173.2 419.05,-231.31 131.86,-58.11 229.07,-73.75 291.65,-46.92 58.11,31.29 88.27,88.27 90.51,170.97 2.24,82.68 -17.87,178.79 -60.34,288.3 -42.46,109.51 -101.69,223.48 -177.67,341.94 -75.99,118.44 -163.16,226.84 -261.48,325.17 -295.01,299.48 -573.25,522.97 -834.73,670.47 -261.48,147.5 -497.26,219.02 -707.35,214.55 -44.69,-4.47 -79.33,-11.17 -103.92,-20.12 -24.59,-8.93 -52.51,-24.58 -83.8,-46.93 -35.76,-26.82 -54.76,-60.34 -57,-100.57 -2.23,-40.22 7.82,-62.58 30.18,-67.05 17.87,-4.46 30.17,0 36.87,13.41 6.7,13.41 12.29,26.82 16.76,40.23 8.93,22.35 23.47,41.34 43.58,56.99 20.11,15.64 48.04,23.47 83.8,23.47 62.58,8.94 127.39,0 194.43,-26.82 67.05,-26.82 148.62,-75.99 244.72,-147.5 96.11,-71.52 210.08,-170.97 341.95,-298.36 131.86,-127.39 296.12,-291.65 492.79,-492.79 67.05,-67.05 141.92,-144.15 224.6,-231.31 82.69,-87.15 157.56,-170.97 224.61,-251.42 67.05,-80.46 118.44,-151.97 154.2,-214.55 35.76,-62.58 40.23,-102.81 13.41,-120.68 -44.7,-31.29 -137.45,-12.29 -278.25,56.99 -140.8,69.28 -299.47,167.62 -476.03,295 -176.55,127.4 -357.58,270.43 -543.07,429.1 -185.5,158.68 -345.3,309.54 -479.38,452.57 -129.63,138.57 -286.07,305.06 -469.33,499.5 -183.26,194.43 -378.81,397.81 -586.65,610.12 -207.85,212.32 -420.16,421.28 -636.95,626.88 -216.78,205.62 -419.04,386.64 -606.77,543.08 -415.69,344.18 -823.55,634.71 -1223.6,871.6 -400.04,236.9 -792.26,426.87 -1176.67,569.9 -384.4,143.03 -762.09,243.6 -1133.09,301.71 -370.99,58.11 -735.27,82.68 -1092.85,73.75 -366.52,-8.94 -682.76,-70.4 -948.71,-187.73 -265.95,-116.21 -473.79,-270.43 -623.53,-462.62 -149.73,-192.2 -238.02,-408.98 -264.83,-650.35 -26.82,-241.38 15.64,-487.21 127.39,-737.52 13.41,-22.35 29.06,-49.17 46.93,-80.46 17.88,-31.28 36.88,-59.22 57,-83.8 20.12,-24.59 40.22,-43.58 60.34,-56.99 20.12,-13.41 36.88,-13.41 50.28,0 4.47,8.93 -2.23,33.52 -20.11,73.75 -17.88,40.22 -33.53,73.75 -46.93,100.57 -120.68,245.84 -170.98,486.09 -150.86,720.75 20.12,234.67 99.46,443.62 238.02,626.88 138.57,183.26 330.76,332.99 576.6,449.22 245.84,116.21 534.14,178.79 864.9,187.72 741.99,21.24 1475.03,-124.03 2199.13,-433.56 724.1,-309.54 1461.62,-777.75 2212.54,-1403.51 393.34,-330.76 824.67,-744.22 1294,-1240.37 469.32,-496.14 987.82,-1052.62 1555.47,-1669.46 232.43,-250.31 439.16,-450.33 620.18,-600.07 181.03,-149.74 356.47,-276.01 526.32,-378.82 111.74,-71.51 210.08,-119.56 295,-144.15 84.93,-24.59 151.97,-36.87 201.15,-36.87 22.35,0 48.04,3.35 77.1,10.05 29.05,6.7 41.34,21.24 36.87,43.58zm7911.5 -1555.48c-26.83,156.44 -79.34,279.36 -157.56,368.76 -78.22,89.39 -148.62,149.73 -211.2,181.02 -40.22,22.35 -64.81,22.35 -73.75,0 -4.47,-8.94 -4.47,-15.64 0,-20.12 4.47,-4.47 17.88,-17.87 40.23,-40.22 49.16,-40.23 98.34,-99.46 147.5,-177.68 49.16,-78.22 82.69,-162.03 100.57,-251.42 26.82,-160.91 20.12,-316.24 -20.12,-465.98 -40.22,-149.73 -120.68,-281.59 -241.37,-395.57 -120.68,-113.98 -282.71,-204.5 -486.09,-271.54 -203.38,-67.05 -450.33,-100.58 -740.87,-100.58 -259.24,0 -519.6,39.11 -781.09,117.33 -261.48,78.22 -521.85,183.26 -781.1,315.12 -259.24,131.86 -514.02,282.72 -764.33,452.57 -250.3,169.86 -491.67,348.65 -724.1,536.37 -402.27,317.36 -822.44,687.23 -1260.47,1109.63 -438.04,422.39 -873.84,857.08 -1307.41,1304.05 -134.09,138.56 -265.94,279.36 -395.57,422.39 -129.63,143.04 -241.37,273.78 -335.23,392.23 -93.87,118.44 -160.91,219.02 -201.14,301.7 -40.23,82.69 -40.23,135.22 0,157.56 49.16,26.82 118.44,16.76 207.84,-30.17 89.39,-46.93 210.08,-121.8 362.05,-224.61 98.34,-71.51 212.32,-162.03 341.95,-271.54 129.62,-109.51 263.71,-222.37 402.27,-338.58 13.41,-8.94 27.94,-19 43.58,-30.17 15.64,-11.17 32.41,-7.82 50.28,10.05 13.41,13.41 15.64,26.82 6.71,40.23 -8.94,13.4 -20.12,24.58 -33.53,33.52 -44.69,44.7 -99.45,94.99 -164.27,150.85 -64.81,55.88 -132.98,113.98 -204.49,174.33 -71.52,60.34 -144.15,118.44 -217.9,174.32 -73.75,55.88 -141.92,106.16 -204.5,150.85 -134.09,93.87 -259.24,170.97 -375.45,231.31 -116.22,60.34 -219.02,79.33 -308.42,56.99 -98.34,-26.82 -154.21,-92.75 -167.62,-197.79 -13.41,-105.04 31.29,-240.25 134.09,-405.63 75.99,-116.21 188.85,-263.71 338.58,-442.5 149.74,-178.79 331.88,-377.7 546.43,-596.72 111.74,-116.21 254.78,-264.83 429.1,-445.86 174.32,-181.02 374.34,-379.93 600.07,-596.72 225.72,-216.78 472.68,-441.38 740.87,-673.82 268.18,-232.42 554.25,-455.92 858.2,-670.46 245.83,-174.33 498.38,-341.95 757.62,-502.85 259.25,-160.91 522.97,-301.71 791.15,-422.4 268.18,-120.68 540.84,-216.78 817.97,-288.3 277.13,-71.52 556.49,-107.27 838.08,-107.27 321.82,0 592.24,39.11 811.27,117.32 219.01,78.22 392.22,178.8 519.6,301.71 127.4,122.91 211.2,260.36 251.43,412.33 40.22,151.97 46.93,303.94 20.12,455.92zm-4418.37 2091.85c-143.03,129.63 -283.83,260.36 -422.39,392.23 -138.57,131.86 -267.07,258.12 -385.52,378.81 -118.45,120.68 -225.73,232.43 -321.83,335.23 -96.1,102.81 -173.2,187.73 -231.31,254.78 -102.8,129.63 -182.14,238.02 -238.01,325.17 -55.88,87.16 -59.23,141.92 -10.06,164.27 26.82,13.41 65.93,8.94 117.33,-13.4 51.4,-22.36 109.51,-52.52 174.32,-90.52 64.82,-37.99 128.51,-80.45 191.08,-127.39 62.58,-46.93 118.45,-88.28 167.62,-124.04 107.28,-84.92 220.14,-178.79 338.58,-281.59 118.45,-102.81 217.9,-189.97 298.36,-261.48 8.93,-8.94 22.35,-16.76 40.22,-23.47 17.88,-6.7 31.29,-1.12 40.23,16.76 8.94,22.35 8.94,39.11 0,50.28 -8.94,11.17 -20.12,23.47 -33.52,36.87 -98.34,84.92 -206.73,177.68 -325.18,278.25 -118.44,100.57 -217.9,184.37 -298.35,251.42 -49.17,40.23 -106.16,83.81 -170.97,130.75 -64.82,46.93 -130.75,90.51 -197.8,130.74 -67.04,40.23 -130.74,73.75 -191.08,100.57 -60.34,26.82 -112.86,40.23 -157.55,40.23 -58.11,0 -107.28,-12.29 -147.5,-36.88 -40.23,-24.58 -68.17,-61.46 -83.81,-110.62 -15.64,-49.17 -14.52,-108.39 3.35,-177.68 17.88,-69.28 58.11,-150.85 120.68,-244.72 -196.66,165.39 -379.93,301.71 -549.77,408.98 -169.86,107.28 -308.42,160.91 -415.7,160.91 -116.21,0 -187.73,-37.99 -214.55,-113.98 -26.82,-75.98 -21.23,-172.09 16.76,-288.3 37.99,-116.21 100.57,-242.49 187.73,-378.82 87.15,-136.33 188.84,-262.59 305.06,-378.81 134.09,-134.1 284.94,-261.48 452.56,-382.17 167.62,-120.68 333,-221.25 496.15,-301.71 163.15,-80.45 314,-136.33 452.57,-167.62 138.56,-31.29 243.6,-26.82 315.12,13.41 44.69,26.82 63.7,78.22 56.99,154.2 -6.7,75.99 -74.86,176.56 -204.49,301.71 134.09,-111.75 246.95,-200.03 338.58,-264.83 91.63,-64.82 166.5,-108.39 224.6,-130.75 80.46,-26.82 167.62,-35.75 261.48,-26.82zm-730.8 53.63c-62.58,-49.16 -214.55,5.59 -455.92,164.27 -241.37,158.68 -540.84,407.87 -898.43,747.57 -102.8,98.34 -197.79,197.8 -284.94,298.36 -87.16,100.57 -158.68,192.19 -214.55,274.89 -55.88,82.69 -92.76,153.09 -110.63,211.2 -17.87,58.11 -6.7,96.1 33.52,113.98 31.29,13.4 88.28,-1.12 170.97,-43.58 82.69,-42.46 183.26,-105.04 301.71,-187.73 118.45,-82.69 246.96,-184.38 385.52,-305.06 138.57,-120.68 279.36,-254.77 422.4,-402.27 67.04,-67.05 144.15,-145.27 231.3,-234.67 87.16,-89.39 167.62,-176.56 241.37,-261.48 73.75,-84.92 130.75,-162.03 170.97,-231.31 40.23,-69.28 42.47,-117.32 6.71,-144.15zm1997.99 295.01c-31.29,62.58 -68.16,122.91 -110.62,181.02 -42.46,58.11 -94.99,111.75 -157.56,160.91 -31.29,26.82 -73.75,53.63 -127.39,80.45 -53.63,26.82 -98.34,20.12 -134.1,-20.12 -17.87,-22.35 -22.35,-46.92 -13.4,-73.75 8.93,-26.82 25.7,-53.63 50.28,-80.45 24.58,-26.82 52.51,-51.4 83.8,-73.75 31.29,-22.35 60.35,-42.46 87.16,-60.35 143.03,-89.39 233.55,-174.32 271.54,-254.77 37.99,-80.45 32.41,-136.33 -16.76,-167.62 -31.28,-22.35 -90.51,-8.94 -177.67,40.23 -87.16,49.16 -184.38,116.21 -291.65,201.14 -107.28,84.92 -219.02,178.79 -335.23,281.6 -116.21,102.8 -216.78,196.66 -301.71,281.59 -295,281.6 -484.97,509.56 -569.89,683.88 -84.92,174.32 -89.39,283.83 -13.41,328.52 40.23,22.36 93.87,26.83 160.91,13.41 67.05,-13.41 136.33,-34.64 207.85,-63.7 71.51,-29.05 141.91,-63.69 211.19,-103.92 69.29,-40.23 124.03,-73.75 164.27,-100.57 62.58,-40.23 130.75,-89.39 204.5,-147.5 73.75,-58.11 147.5,-116.21 221.25,-174.33 73.75,-58.11 143.03,-116.21 207.84,-174.32 64.82,-58.11 121.8,-107.27 170.98,-147.5 35.75,-26.82 62.58,-31.29 80.45,-13.4 26.82,17.87 22.35,40.22 -13.41,67.04 -89.39,89.39 -200.02,187.73 -331.87,295.01 -131.87,107.27 -255.9,205.61 -372.11,295 -116.21,84.92 -242.49,163.15 -378.82,234.67 -136.33,71.51 -278.24,116.21 -425.74,134.09 -129.63,13.41 -231.31,-11.17 -305.06,-73.75 -73.75,-62.58 -108.39,-145.27 -103.92,-248.07 0,-151.97 52.51,-310.65 157.55,-476.03 105.04,-165.39 242.49,-326.29 412.33,-482.73 129.63,-120.68 269.31,-232.42 419.05,-335.23 149.73,-102.81 292.77,-187.73 429.1,-254.78 136.33,-67.04 260.36,-112.86 372.1,-137.44 111.74,-24.59 196.67,-21.24 254.78,10.05 35.76,22.35 58.11,49.16 67.04,80.45 8.94,31.29 11.18,65.94 6.71,103.93 -4.47,37.99 -13.41,73.75 -26.82,107.27 -13.41,33.53 -24.59,61.46 -33.53,83.81zm1501.84 -388.87c53.63,31.29 82.69,71.51 87.16,120.68 4.47,49.16 -8.94,100.57 -40.23,154.2 -31.29,53.63 -74.87,108.39 -130.74,164.27 -55.88,55.87 -115.1,106.16 -177.68,150.85 -53.63,35.76 -121.79,72.63 -204.49,110.63 -82.69,37.99 -165.39,69.28 -248.07,93.87 -82.69,24.58 -160.91,41.34 -234.67,50.28 -73.75,8.93 -126.28,2.23 -157.56,-20.12 -102.8,98.34 -205.61,204.49 -308.42,318.47 -102.8,113.98 -188.84,223.49 -258.12,328.53 -69.29,105.04 -113.98,196.66 -134.1,274.89 -20.12,78.22 1.12,130.75 63.7,157.56 62.58,22.35 154.2,14.52 274.89,-23.47 120.68,-37.99 250.31,-101.69 388.87,-191.08 160.91,-102.81 319.59,-219.02 476.03,-348.65 156.44,-129.62 281.6,-239.13 375.46,-328.52 13.4,-13.41 30.17,-24.59 50.28,-33.53 20.12,-8.93 34.64,-6.7 43.58,6.71 13.4,17.87 14.52,34.64 3.35,50.28 -11.17,15.64 -23.47,30.17 -36.88,43.57 -116.21,102.81 -236.9,206.73 -362.05,311.77 -125.15,105.04 -261.48,208.97 -408.98,311.77 -116.21,84.93 -249.19,159.79 -398.92,224.61 -149.74,64.81 -289.42,92.75 -419.05,83.8 -89.39,-8.93 -165.38,-41.34 -227.95,-97.22 -62.58,-55.87 -87.16,-144.15 -73.75,-264.83 0,-31.29 7.82,-74.87 23.47,-130.74 15.64,-55.88 42.46,-121.8 80.45,-197.8 37.99,-75.98 90.52,-159.78 157.55,-251.42 67.05,-91.63 154.21,-188.84 261.48,-291.65 125.15,-120.68 264.83,-235.79 419.05,-345.29 154.2,-109.51 303.94,-201.15 449.22,-274.9 145.26,-73.75 278.24,-126.27 398.92,-157.55 120.68,-31.29 210.08,-31.29 268.18,0zm-40.22 60.34c-22.36,-17.87 -72.64,-4.47 -150.86,40.23 -78.22,44.69 -168.73,103.92 -271.54,177.67 -102.81,73.75 -208.96,156.44 -318.47,248.07 -109.51,91.64 -204.5,177.68 -284.95,258.13 26.82,8.94 65.93,8.94 117.33,0 51.4,-8.94 110.62,-26.82 177.67,-53.63 67.05,-26.82 137.45,-61.46 211.2,-103.92 73.75,-42.46 148.62,-92.76 224.6,-150.86 111.75,-89.39 197.8,-174.32 258.13,-254.77 60.35,-80.46 72.63,-134.1 36.88,-160.91zm2923.22 -53.63c102.81,53.63 112.86,183.26 30.17,388.87 -82.68,205.61 -267.06,451.45 -553.13,737.52 -147.5,147.5 -289.41,279.36 -425.74,395.57 -136.33,116.21 -264.83,212.32 -385.52,288.3 -120.68,75.99 -229.08,129.63 -325.18,160.91 -96.1,31.29 -175.44,40.23 -238.02,26.82 -102.8,-26.82 -169.85,-80.45 -201.14,-160.91 -31.29,-80.45 -32.41,-178.79 -3.35,-295 29.05,-116.21 86.04,-243.6 170.97,-382.17 84.92,-138.56 194.43,-277.13 328.52,-415.69 138.57,-138.57 286.07,-262.6 442.51,-372.11 156.44,-109.51 309.53,-197.79 459.27,-264.83 149.74,-67.05 286.07,-110.62 408.98,-130.74 122.91,-20.12 220.14,-12.29 291.65,23.47zm-40.23 80.45c-35.75,-26.82 -94.98,-24.59 -177.67,6.7 -82.69,31.29 -183.26,88.28 -301.7,170.98 -118.45,82.68 -249.19,186.61 -392.23,311.77 -143.03,125.14 -290.53,268.18 -442.5,429.09 -98.34,102.81 -188.85,202.26 -271.54,298.36 -82.69,96.1 -150.86,184.37 -204.5,264.83 -53.63,80.45 -86.04,150.85 -97.22,211.2 -11.17,60.34 5.59,103.92 50.28,130.74 40.23,22.35 100.57,14.52 181.03,-23.47 80.45,-37.99 176.55,-99.45 288.3,-184.38 111.74,-84.92 236.9,-189.96 375.45,-315.12 138.57,-125.15 283.83,-265.94 435.8,-422.39 67.05,-67.05 139.68,-145.27 217.9,-234.67 78.22,-89.39 147.51,-177.67 207.85,-264.83 60.35,-87.16 105.04,-165.39 134.1,-234.67 29.05,-69.28 27.93,-117.33 -3.36,-144.15zm8092.53 -2138.79c-31.29,156.44 -84.92,279.36 -160.91,368.76 -75.98,89.39 -145.27,149.73 -207.85,181.02 -26.82,13.41 -44.69,19 -53.63,16.76 -8.94,-2.24 -15.64,-7.82 -20.12,-16.76 -4.47,-8.94 -5.58,-15.64 -3.35,-20.12 2.24,-4.47 16.76,-17.87 43.58,-40.22 49.16,-40.23 97.22,-99.46 144.15,-177.68 46.93,-78.22 79.34,-162.03 97.22,-251.42 31.29,-160.91 25.7,-316.24 -16.76,-465.98 -42.46,-149.73 -122.91,-281.59 -241.37,-395.57 -118.44,-113.98 -279.36,-204.5 -482.73,-271.54 -203.38,-67.05 -450.33,-100.58 -740.87,-100.58 -518.49,0 -1045.92,125.15 -1582.29,375.46 -536.38,250.31 -1063.81,592.24 -1582.3,1025.82 -344.18,286.06 -687.23,594.48 -1029.17,925.24 -341.94,330.76 -693.93,683.88 -1055.98,1059.34 62.58,0 150.85,-1.11 264.83,-3.35 113.98,-2.23 213.43,-1.12 298.35,3.35 8.94,0 17.88,2.24 26.82,6.71 8.94,4.46 11.18,15.63 6.71,33.52 -13.41,26.82 -38,40.23 -73.75,40.23 -35.76,0 -80.46,1.11 -134.1,3.35 -53.63,2.23 -109.51,4.47 -167.62,6.7 -58.11,2.23 -113.98,4.47 -167.62,6.7 -53.63,2.24 -100.57,3.35 -140.8,3.35 -116.21,125.15 -238.02,259.25 -365.4,402.28 -127.39,143.03 -254.78,284.95 -382.17,425.75 -127.39,140.8 -249.19,273.78 -365.4,398.92 -116.21,125.15 -216.78,232.43 -301.71,321.83 -317.35,335.23 -640.29,660.4 -968.82,975.52 -328.53,315.13 -631.36,582.19 -908.48,801.21 -429.1,344.17 -840.31,635.83 -1233.65,874.95 -393.34,239.14 -774.39,433.57 -1143.15,583.3 -368.75,149.74 -726.33,258.13 -1072.74,325.18 -346.41,67.05 -684.99,96.1 -1015.76,87.16 -366.51,-8.94 -682.75,-70.4 -948.7,-187.73 -265.95,-116.21 -473.79,-270.43 -623.53,-462.62 -149.74,-192.2 -238.02,-408.98 -264.83,-650.35 -26.82,-241.38 15.64,-487.21 127.39,-737.52 13.41,-22.35 29.06,-49.17 46.93,-80.46 17.88,-31.28 36.88,-59.22 57,-83.8 20.12,-24.59 40.22,-43.58 60.34,-56.99 20.12,-13.41 36.88,-13.41 50.28,0 4.47,8.93 -2.23,33.52 -20.12,73.75 -17.87,40.22 -33.52,73.75 -46.93,100.57 -120.68,245.84 -170.97,486.09 -150.85,720.75 20.12,234.67 99.46,443.62 238.02,626.88 138.57,183.26 330.76,332.99 576.6,449.22 245.84,116.21 534.14,178.79 864.9,187.72 366.52,8.94 721.87,-27.93 1066.04,-110.62 344.18,-82.69 686.11,-204.5 1025.82,-366.52 339.7,-160.91 678.29,-354.23 1015.75,-579.95 337.47,-226.84 680.53,-478.26 1029.17,-755.39 102.81,-80.46 226.84,-184.38 372.11,-311.77 145.26,-128.51 298.35,-268.18 459.27,-420.16 160.91,-151.97 325.17,-311.77 492.79,-480.5 167.62,-167.62 329.65,-331.88 486.1,-492.8 210.08,-219.01 432.45,-457.03 667.11,-711.81 234.67,-254.77 497.27,-544.19 787.8,-866.02 -58.11,0 -120.68,2.24 -187.73,6.71 -67.04,4.47 -140.8,11.17 -221.25,20.12 -44.69,4.46 -62.58,-6.71 -53.63,-33.53 4.47,-13.4 13.4,-22.35 26.82,-26.82 13.41,-4.47 24.59,-8.94 33.52,-13.41 17.88,-4.46 46.93,-8.93 87.16,-13.4 40.23,-4.47 83.8,-7.82 130.74,-10.06 46.93,-2.23 93.87,-5.58 140.8,-10.05 46.93,-4.47 88.28,-6.7 124.03,-6.7 196.67,-205.61 396.7,-412.33 600.07,-620.18 203.38,-207.85 404.52,-408.98 603.43,-603.42 198.9,-194.43 394.45,-377.7 586.65,-549.78 192.2,-172.09 377.7,-329.64 556.49,-472.68 232.42,-183.26 483.85,-351.99 754.27,-506.2 270.43,-154.2 550.9,-288.3 841.44,-402.27 290.53,-113.98 583.3,-202.27 878.3,-264.84 295,-62.57 583.3,-93.86 864.9,-93.86 321.82,0 592.24,39.11 811.27,117.32 219.02,78.22 391.1,178.8 516.25,301.71 125.15,122.91 208.97,260.36 251.43,412.33 42.46,151.97 50.28,303.94 23.47,455.92z"/>
  <path class="fil0" d="M4869.76 11391.41l-80.45 1052.62c-116.21,192.2 -262.59,363.17 -439.15,512.91 -176.56,149.73 -384.4,268.18 -623.53,355.34 -239.14,87.16 -512.9,130.75 -821.32,130.75 -464.86,-4.47 -878.3,-107.28 -1240.36,-308.42 -362.06,-201.14 -644.77,-483.85 -848.15,-848.14 -203.37,-364.29 -305.05,-794.5 -305.05,-1290.65 0,-487.2 100.57,-912.94 301.7,-1277.24 201.15,-364.28 483.85,-648.11 848.14,-851.49 364.29,-203.38 792.27,-305.06 1283.95,-305.06 330.76,0 629.12,43.58 895.07,130.75 265.94,87.16 497.26,195.55 693.92,325.17l134.1 945.36 -60.34 0c-98.34,-393.34 -299.48,-691.7 -603.42,-895.08 -303.94,-203.37 -657.06,-305.05 -1059.34,-305.05 -393.34,0 -734.16,92.75 -1022.46,278.24 -288.3,185.5 -511.78,444.74 -670.47,777.75 -158.67,332.99 -238.01,722.98 -238.01,1169.96 0,446.97 79.33,838.08 238.01,1173.32 158.68,335.23 379.94,596.72 663.76,784.44 283.83,187.73 613.47,286.07 988.94,295.01 317.35,0 611.24,-59.23 881.66,-177.68 270.43,-118.44 497.27,-312.88 680.53,-583.3 183.26,-270.43 299.47,-633.59 348.64,-1089.5l53.63 0z"/>
  <path id="_1" class="fil0" d="M7611.96 8562.04l1984.57 4746.9 -569.9 0 -1548.77 -4109.94 134.1 -636.95 0 -0.01zm-1441.5 4297.69c-31.29,89.39 -35.76,165.38 -13.41,227.95 22.36,62.58 59.23,110.63 110.63,144.15 51.4,33.53 103.92,50.28 157.56,50.28l60.34 0 0 67.05 -1347.64 0 0 -67.05c0,0 10.06,0 30.17,0 20.12,0 30.18,0 30.18,0 102.8,0 208.96,-32.4 318.47,-97.22 109.51,-64.81 200.03,-173.2 271.54,-325.17l382.17 0zm1441.5 -4297.69l60.34 469.33 -1682.86 4297.68 -402.28 0 1716.39 -4076.43c0,0 12.29,-27.94 36.88,-83.8 24.58,-55.88 53.63,-124.03 87.15,-204.5 33.53,-80.45 62.58,-158.67 87.16,-234.67 24.58,-75.98 36.87,-131.86 36.87,-167.62l60.35 0zm945.35 2956.75l0 201.14 -2098.55 0 0 -201.14 2098.55 0zm301.71 1340.93l549.77 0c67.05,151.97 156.44,260.36 268.18,325.17 111.75,64.82 219.02,97.22 321.83,97.22 0,0 8.93,0 26.82,0 17.87,0 26.82,0 26.82,0l0 67.05 -1508.55 0 0 -67.05 60.35 0c84.92,0 160.91,-36.87 227.95,-110.62 67.05,-73.75 75.99,-177.68 26.83,-311.77z"/>
  <path id="_2" class="fil0" d="M11333.04 8655.9l0 4693.27 -435.8 0 0 -4693.27 435.8 0zm1810.25 4485.42l0 207.85 -1830.37 0 0 -207.85 1830.37 0zm408.98 -878.3l-388.87 1086.15 -1112.97 0 241.37 -207.85c236.9,0 430.21,-36.87 579.95,-110.62 149.74,-73.75 271.54,-177.68 365.4,-311.77 93.87,-134.1 176.56,-286.07 248.07,-455.92l67.05 0zm-2634.92 596.72l0 489.44 -536.37 0 0 -67.05c0,0 14.52,0 43.57,0 29.06,0 43.58,0 43.58,0 116.21,0 215.67,-41.34 298.36,-124.03 82.68,-82.69 126.27,-182.14 130.74,-298.35l20.12 0zm0 -3714.37l-20.12 0c-4.47,-116.21 -48.05,-215.67 -130.74,-298.36 -82.69,-82.68 -182.15,-124.03 -298.36,-124.03 0,0 -14.52,0 -43.58,0 -29.05,0 -43.57,0 -43.57,0l0 -67.05 536.37 0 0 489.45zm395.57 0l0 -489.45 536.38 0 0 67.05c-4.47,0 -20.12,0 -46.93,0 -26.82,0 -40.23,0 -40.23,0 -116.21,0 -215.67,41.35 -298.35,124.03 -82.69,82.69 -126.28,182.15 -130.75,298.36l-20.12 0z"/>
  <path id="_3" class="fil0" d="M18714.86 8562.04l53.63 449.22 -1682.87 3747.9c0,0 -16.75,37.99 -50.28,113.97 -33.52,75.99 -68.16,166.5 -103.92,271.55 -35.76,105.04 -60.34,204.49 -73.75,298.35l-67.05 0 -93.87 -422.4 2018.1 -4458.59zm-4123.36 4297.69l0 489.44 -744.22 0 0 -67.05c4.47,0 23.47,0 57,0 33.52,0 50.28,0 50.28,0 120.68,0 227.95,-36.87 321.82,-110.62 93.87,-73.75 149.74,-177.68 167.62,-311.77l147.5 0zm194.43 107.28c0,4.47 0,8.94 0,13.41 0,4.47 0,11.17 0,20.12 0,71.51 25.7,137.44 77.1,197.79 51.4,60.34 112.86,90.51 184.38,90.51l100.57 0 0 60.35 -408.98 0 0 -382.17 46.93 0zm160.9 -4404.97l67.05 0 134.09 395.58 -395.57 4391.54 -362.05 0 556.49 -4787.13 0 0.01zm67.06 0l1930.94 4177 -154.21 703.99 -1904.12 -4130.06 127.4 -750.93zm3761.31 0l576.59 4787.13 -522.96 0 -368.76 -4063.01 254.78 -724.11 60.35 0 0 -0.01zm375.45 4297.69l140.8 0c22.35,134.09 80.45,238.02 174.32,311.77 93.87,73.75 198.91,110.62 315.12,110.62 0,0 17.88,0 53.63,0 35.76,0 53.64,0 53.64,0l0 67.05 -737.52 0 0 -489.44zm-355.35 107.28l46.93 0 0 382.17 -408.98 0 0 -60.35 100.58 0c75.98,0 138.56,-30.17 187.72,-90.51 49.17,-60.35 73.75,-126.28 73.75,-197.79 0,-8.94 0,-15.64 0,-20.12 0,-4.47 0,-8.94 0,-13.41z"/>
 </g>
</svg>
