<?xml version="1.0" encoding="UTF-8"?>
<!DOCTYPE svg PUBLIC "-//W3C//DTD SVG 1.1//EN" "http://www.w3.org/Graphics/SVG/1.1/DTD/svg11.dtd">
<!-- Creator: CorelDRAW -->
<svg xmlns="http://www.w3.org/2000/svg" xml:space="preserve" width="144.708mm" height="85.4996mm" version="1.1" style="shape-rendering:geometricPrecision; text-rendering:geometricPrecision; image-rendering:optimizeQuality; fill-rule:evenodd; clip-rule:evenodd"
viewBox="0 0 14461.83 8544.63"
 xmlns:xlink="http://www.w3.org/1999/xlink"
 xmlns:xodm="http://www.corel.com/coreldraw/odm/2003">
 <defs>
  <style type="text/css">
   <![CDATA[
    .fil0 {fill:#E3D6B5;fill-rule:nonzero}
   ]]>
  </style>
 </defs>
 <g id="Capa_x0020_1">
  <metadata id="CorelCorpID_0Corel-Layer"/>
  <path class="fil0" d="M6855.63 1342.54c0,45.12 -19.75,81.79 -59.23,110 -39.49,28.2 -87.44,42.3 -143.84,42.3 -120.34,0 -255.72,-18.81 -406.15,-56.41 -150.43,-37.61 -285.81,-71.45 -406.15,-101.54 -101.54,-22.56 -209.66,-46.06 -324.36,-70.51 -114.7,-24.44 -237.86,-46.07 -369.48,-64.87 -274.53,109.05 -555.63,250.07 -843.31,423.07 -287.69,172.99 -566.92,377.94 -837.68,614.87 -191.79,165.47 -373.25,341.27 -544.35,527.42 -171.11,186.15 -320.59,370.42 -448.45,552.82 -127.86,182.39 -229.4,356.32 -304.61,521.78 -75.21,165.47 -112.82,310.25 -112.82,434.35 0,125.98 44.18,232.22 132.56,319.65 88.37,87.44 226.58,127.86 414.61,120.33 191.79,-7.52 390.17,-50.77 595.12,-129.74 204.95,-78.97 393.92,-172.98 566.91,-282.04 131.63,-86.5 259.49,-176.75 383.58,-270.76 124.1,-94.02 240.68,-184.28 349.74,-270.77 15.04,-11.28 31.02,-25.38 47.95,-42.3 16.92,-16.92 32.9,-17.86 47.95,-2.82 15.04,15.04 15.04,32.9 0,53.59 -15.05,20.69 -31.97,38.55 -50.77,53.59 -109.06,90.25 -226.58,185.21 -352.56,284.87 -125.98,99.66 -254.78,188.97 -386.41,267.94 -188.02,120.33 -382.64,219.05 -583.84,296.15 -201.18,78.03 -410.84,119.4 -628.96,126.92 -184.28,7.53 -346.91,-27.26 -487.94,-104.35 -141.03,-77.09 -232.23,-198.38 -273.59,-363.84 -26.32,11.28 -52.65,18.81 -78.97,22.57 -26.32,3.76 -50.77,5.64 -73.33,5.64 -304.61,11.28 -539.64,-74.26 -705.11,-256.66 -165.47,-182.39 -246.33,-439.05 -242.57,-769.98 0,-176.75 28.21,-352.56 84.62,-527.43 56.41,-174.87 133.51,-341.28 231.28,-499.22 97.78,-157.95 212.48,-305.55 344.1,-442.81 131.63,-137.26 272.65,-256.66 423.08,-358.2 304.61,-203.07 629.9,-351.62 975.87,-445.63 345.98,-94.02 722.04,-141.02 1128.19,-141.02 206.84,0 410.85,15.04 612.04,45.12 201.19,30.09 395.81,67.69 583.84,112.82 338.46,-105.29 673.15,-157.94 1004.08,-157.94 101.54,0 197.44,10.33 287.69,31.02 90.25,20.69 168.28,48.89 234.1,84.62 65.81,35.73 118.46,79.91 157.94,132.56 39.49,52.65 59.23,110.94 59.23,174.87zm-62.05 -5.65c0,-56.4 -17.87,-106.23 -53.59,-149.48 -35.73,-43.25 -84.62,-78.98 -146.67,-107.18 -62.05,-28.2 -134.45,-49.83 -217.17,-64.87 -82.74,-15.04 -169.22,-22.57 -259.49,-22.57 -116.58,0 -239.73,11.28 -369.48,33.85 -129.74,22.57 -264.18,58.29 -403.32,107.17 94.01,22.57 184.27,46.07 270.76,70.52 86.5,24.44 169.22,47.95 248.2,70.52 120.34,30.08 251.96,63.93 394.87,101.54 142.9,37.61 270.76,56.4 383.58,56.4 101.54,0 152.3,-31.97 152.3,-95.9zm-1940.48 -174.86c-282.04,-33.85 -593.24,-50.77 -935.46,-50.77 -371.36,0 -720.15,37.61 -1044.51,112.82 -325.29,75.21 -643.06,210.59 -955.19,406.15 -160.77,101.54 -308.37,217.17 -441.87,346.91 -133.5,129.74 -248.2,267.94 -343.16,414.6 -95.89,146.67 -170.16,298.97 -222.81,456.91 -52.66,157.95 -78.98,315.89 -78.98,473.84 -3.76,312.13 70.52,550.93 221.88,716.39 151.37,165.47 361.01,248.21 630.85,248.21 18.8,0 40.42,-1.88 63.93,-5.65 24.43,-3.76 49.82,-9.4 76.15,-16.92 -11.28,-169.22 17.86,-345.97 87.43,-530.25 69.58,-184.27 162.65,-365.72 279.23,-544.35 116.59,-178.63 250.08,-349.73 400.51,-513.32 150.43,-163.59 300.85,-309.31 451.27,-437.17 282.05,-236.92 575.38,-446.58 879.99,-628.97 304.61,-182.39 614.86,-331.87 930.75,-448.45zm6475.77 -78.98c-22.57,131.63 -66.75,235.04 -132.56,310.26 -65.81,75.21 -125.04,125.98 -177.69,152.3 -33.85,18.8 -54.53,18.8 -62.05,0 -3.76,-7.53 -3.76,-13.16 0,-16.92 3.76,-3.77 15.04,-15.05 33.85,-33.85 41.36,-33.85 82.73,-83.68 124.09,-149.49 41.37,-65.81 69.58,-136.32 84.62,-211.54 22.57,-135.38 16.92,-266.05 -16.92,-392.04 -33.85,-125.98 -101.54,-236.92 -203.07,-332.82 -101.54,-95.89 -237.86,-172.04 -408.96,-228.46 -171.11,-56.4 -378.88,-84.61 -623.33,-84.61 -218.11,0 -437.17,32.9 -657.16,98.72 -220,65.81 -439.06,154.18 -657.17,265.11 -218.11,110.94 -432.47,237.86 -643.07,380.76 -210.59,142.91 -413.66,293.33 -609.22,451.28 -338.45,267 -691.95,578.19 -1060.49,933.57 -368.54,355.38 -735.2,721.1 -1099.98,1097.17 -112.81,116.58 -223.75,235.03 -332.81,355.38 -109.05,120.33 -203.07,230.34 -282.04,329.99 -78.97,99.66 -135.39,184.27 -169.22,253.84 -33.85,69.57 -33.85,113.76 0,132.56 41.36,22.57 99.66,14.1 174.86,-25.38 75.21,-39.49 176.75,-102.48 304.61,-188.97 82.74,-60.16 178.63,-136.31 287.69,-228.46 109.06,-92.13 221.88,-187.08 338.46,-284.86 11.28,-7.53 23.51,-15.98 36.67,-25.38 13.16,-9.4 27.26,-6.59 42.3,8.46 11.28,11.27 13.16,22.56 5.64,33.84 -7.52,11.28 -16.92,20.69 -28.2,28.2 -37.61,37.61 -83.67,79.92 -138.2,126.92 -54.53,47.01 -111.88,95.9 -172.04,146.67 -60.17,50.77 -121.28,99.66 -183.34,146.66 -62.05,47.01 -119.4,89.31 -172.04,126.92 -112.82,78.98 -218.11,143.85 -315.89,194.62 -97.78,50.77 -184.28,66.75 -259.49,47.95 -82.73,-22.57 -129.74,-78.04 -141.02,-166.42 -11.28,-88.37 26.32,-202.12 112.82,-341.27 63.93,-97.78 158.89,-221.88 284.87,-372.31 125.98,-150.43 279.23,-317.77 459.73,-502.04 94.01,-97.78 214.36,-222.82 361.01,-375.13 146.67,-152.3 314.95,-319.65 504.86,-502.04 189.91,-182.4 397.68,-371.37 623.32,-566.92 225.64,-195.55 466.32,-383.58 722.04,-564.09 206.83,-146.67 419.31,-287.69 637.42,-423.08 218.11,-135.38 440,-253.84 665.62,-355.38 225.64,-101.54 455.04,-182.39 688.2,-242.56 233.15,-60.16 468.19,-90.25 705.11,-90.25 270.76,0 498.28,32.91 682.55,98.72 184.27,65.81 329.99,150.43 437.17,253.84 107.18,103.42 177.69,219.05 211.54,346.91 33.85,127.86 39.49,255.72 16.92,383.58zm-4151.72 1269.21c0,41.37 -15.98,78.04 -47,110 -31.97,31.97 -67.7,47.95 -108.12,47.95 -40.42,0 -76.15,-15.98 -108.11,-47.95 -31.03,-31.96 -47.01,-68.63 -47.01,-110 0,-41.36 15.98,-78.03 47.01,-109.99 31.96,-31.97 67.69,-47.95 108.11,-47.95 40.42,0 76.15,15.98 108.12,47.95 31.02,31.96 47,68.63 47,109.99zm-428.7 468.2c-120.34,109.06 -239.74,220 -358.21,332.81 -118.46,112.82 -230.34,221.88 -335.63,327.18 -105.29,105.29 -199.32,202.13 -282.04,290.51 -82.74,88.37 -148.55,160.77 -197.44,217.17 -86.5,109.06 -151.37,202.13 -194.61,279.23 -43.25,77.09 -44.19,125.04 -2.82,143.84 22.56,11.28 56.4,9.4 101.54,-5.64 45.12,-15.04 93.07,-36.67 143.84,-64.87 50.77,-28.2 102.48,-59.23 155.12,-93.07 52.65,-33.85 99.66,-65.82 141.02,-95.9 48.89,-33.85 101.54,-73.33 157.95,-118.46 56.4,-45.13 111.88,-90.25 166.41,-135.39 54.53,-45.13 105.29,-88.37 152.3,-129.74 47.01,-41.36 85.56,-75.21 115.64,-101.54 11.28,-7.53 23.51,-15.98 36.67,-25.38 13.16,-9.4 27.26,-6.59 42.3,8.46 11.28,11.27 13.16,22.56 5.65,33.84 -7.53,11.28 -16.93,20.69 -28.21,28.2 -37.61,37.61 -83.67,80.86 -138.2,129.75 -54.53,48.88 -110.93,96.83 -169.22,143.84 -58.28,47.01 -113.76,91.19 -166.41,132.56 -52.65,41.37 -94.01,73.33 -124.1,95.9 -94.01,67.69 -197.43,132.56 -310.25,194.61 -112.82,62.05 -210.6,93.08 -293.33,93.08 -94.02,0 -156.07,-25.38 -186.15,-76.15 -30.08,-50.77 -33.85,-116.59 -11.28,-197.44 22.57,-80.85 68.64,-173.93 138.2,-279.23 69.58,-105.29 157,-214.36 262.31,-327.18 56.4,-56.4 122.21,-121.27 197.43,-194.61 75.21,-73.33 153.24,-145.73 234.1,-217.17 80.85,-71.46 159.82,-137.26 236.91,-197.44 77.09,-60.16 143.85,-105.29 200.26,-135.38 41.36,-22.57 94.02,-38.55 157.95,-47.95 63.93,-9.4 114.7,-12.22 152.3,-8.46zm1116.89 315.89c-26.32,52.65 -57.35,103.42 -93.07,152.3 -35.73,48.89 -79.92,94.01 -132.57,135.39 -26.32,22.57 -62.05,45.12 -107.17,67.69 -45.13,22.57 -82.74,16.92 -112.82,-16.92 -15.04,-18.81 -18.81,-39.49 -11.28,-62.05 7.53,-22.57 21.63,-45.13 42.3,-67.69 20.69,-22.57 44.19,-43.25 70.52,-62.05 26.32,-18.81 50.77,-35.73 73.33,-50.77 120.33,-75.21 196.49,-146.67 228.46,-214.36 31.96,-67.7 27.26,-114.7 -14.1,-141.02 -26.33,-18.81 -76.15,-7.53 -149.49,33.84 -73.33,41.37 -155.12,97.78 -245.39,169.23 -90.25,71.45 -184.27,150.43 -282.04,236.91 -97.77,86.5 -182.39,165.47 -253.84,236.92 -248.2,236.92 -408.03,428.71 -479.47,575.37 -71.46,146.67 -75.21,238.8 -11.28,276.41 33.84,18.8 78.97,22.57 135.38,11.28 56.41,-11.28 114.7,-29.14 174.87,-53.59 60.17,-24.44 119.4,-53.6 177.69,-87.44 58.29,-33.85 104.35,-62.05 138.2,-84.62 52.65,-33.85 110,-75.21 172.04,-124.1 62.05,-48.88 124.1,-97.77 186.15,-146.66 62.05,-48.89 120.34,-97.78 174.87,-146.67 54.53,-48.89 102.48,-90.25 143.84,-124.09 30.09,-22.57 52.65,-26.33 67.7,-11.28 22.56,15.04 18.8,33.84 -11.28,56.4 -75.21,75.21 -168.29,157.94 -279.23,248.21 -110.94,90.25 -215.3,172.98 -313.07,248.2 -97.78,71.46 -204.01,137.26 -318.71,197.44 -114.7,60.16 -234.09,97.77 -358.2,112.82 -109.06,11.27 -194.62,-9.4 -256.66,-62.05 -62.05,-52.65 -91.2,-122.22 -87.44,-208.72 0,-127.86 44.18,-261.36 132.56,-400.5 88.37,-139.14 204.01,-274.53 346.91,-406.15 109.06,-101.54 226.58,-195.56 352.56,-282.04 125.98,-86.5 246.33,-157.95 361.02,-214.36 114.7,-56.41 219.05,-94.96 313.06,-115.64 94.02,-20.69 165.47,-17.87 214.36,8.45 30.08,18.81 48.89,41.36 56.41,67.7 7.52,26.32 9.39,55.47 5.64,87.43 -3.76,31.97 -11.28,62.05 -22.57,90.26 -11.28,28.2 -20.68,51.71 -28.2,70.51zm6582.94 -2053.3c-22.57,131.63 -66.75,235.04 -132.56,310.26 -65.81,75.21 -125.04,125.98 -177.69,152.3 -33.85,18.8 -54.53,18.8 -62.05,0 -3.76,-7.53 -3.76,-13.16 0,-16.92 3.76,-3.77 15.04,-15.05 33.85,-33.85 41.36,-33.85 82.73,-83.68 124.09,-149.49 41.37,-65.81 69.58,-136.32 84.62,-211.54 22.57,-135.38 16.92,-266.05 -16.92,-392.04 -33.85,-125.98 -101.54,-236.92 -203.07,-332.82 -101.54,-95.89 -237.86,-172.04 -408.96,-228.46 -171.11,-56.4 -378.88,-84.61 -623.33,-84.61 -218.11,0 -437.17,32.9 -657.16,98.72 -220,65.81 -439.06,154.18 -657.17,265.11 -218.11,110.94 -432.47,237.86 -643.07,380.76 -210.59,142.91 -413.66,293.33 -609.22,451.28 -169.22,131.62 -362.89,293.33 -581.01,485.12 -218.11,191.79 -442.81,396.74 -674.09,614.86 -231.29,218.12 -460.68,443.75 -688.2,676.92 -227.51,233.15 -431.52,458.79 -612.04,676.91 75.21,-63.93 168.29,-139.14 279.23,-225.64 110.94,-86.5 245.39,-184.27 403.33,-293.33 75.21,-48.89 156.06,-101.54 242.56,-157.94 86.5,-56.41 173.93,-106.24 262.31,-149.49 88.37,-43.24 174.87,-78.03 259.48,-104.35 84.62,-26.32 160.77,-35.73 228.46,-28.2 67.7,7.52 112.82,31.96 135.39,73.32 22.57,41.37 30.08,82.74 22.57,124.1 -15.05,52.65 -43.25,86.5 -84.62,101.54 -11.28,0 -26.32,-8.46 -45.13,-25.38 -18.8,-16.92 -39.49,-34.79 -62.04,-53.59 -41.37,-33.85 -88.37,-50.77 -141.03,-50.77 -60.16,-3.76 -120.33,2.82 -180.51,19.74 -60.17,16.93 -118.46,38.55 -174.87,64.88 -56.4,26.32 -108.11,53.59 -155.12,81.79 -47,28.2 -85.56,53.59 -115.64,76.15 -37.61,41.36 -72.39,90.25 -104.35,146.67 -31.97,56.4 -61.11,113.75 -87.44,172.04 -26.32,58.29 -49.83,113.76 -70.52,166.41 -20.68,52.65 -36.66,95.9 -47.94,129.74 -41.37,124.1 -70.52,236.92 -87.44,338.46 -16.93,101.54 -2.82,159.83 42.3,174.87 22.57,7.52 45.13,9.4 67.69,5.64 22.57,-3.76 50.77,-14.1 84.62,-31.02 33.85,-16.93 74.27,-42.31 121.28,-76.15 47,-33.85 108.11,-77.09 183.33,-129.74 33.85,-26.32 76.15,-61.11 126.92,-104.36 50.77,-43.24 102.48,-87.44 155.12,-132.56 52.65,-45.13 102.48,-88.37 149.49,-129.74 47.01,-41.37 81.8,-71.46 104.35,-90.25 22.57,-22.57 43.25,-24.44 62.05,-5.65 18.81,18.81 13.16,43.25 -16.92,73.33 -41.36,33.85 -86.5,73.33 -135.39,118.46 -48.89,45.13 -98.72,88.37 -149.49,129.74 -50.77,41.37 -99.65,81.8 -146.66,121.28 -47.01,39.49 -87.44,70.52 -121.28,93.07 -157.94,120.34 -287.68,208.72 -389.22,265.12 -101.54,56.41 -189.91,78.97 -265.12,67.7 -48.89,-7.53 -83.68,-27.27 -104.35,-59.23 -20.69,-31.97 -31.97,-72.39 -33.85,-121.28 -1.88,-48.89 2.82,-102.48 14.1,-160.76 11.28,-58.29 26.32,-117.53 45.13,-177.69 22.56,-82.74 56.4,-175.81 101.54,-279.23 45.12,-103.42 94.01,-196.5 146.66,-279.23 -37.61,30.08 -79.91,61.11 -126.92,93.07 -47.01,31.97 -96.83,68.63 -149.49,110 -94.01,75.21 -184.27,149.48 -270.76,222.81 -86.5,73.33 -150.43,130.69 -191.79,172.05 -41.36,52.65 -101.54,127.86 -180.51,225.64 -78.97,97.77 -146.67,191.79 -203.07,282.04 -30.09,0 -53.59,-24.44 -70.52,-73.33 -16.92,-48.89 -15.98,-97.78 2.82,-146.67 26.33,-63.93 98.72,-186.14 217.18,-366.65 118.46,-180.52 284.86,-389.23 499.22,-626.15 236.92,-259.48 457.85,-492.63 662.81,-699.47 204.95,-206.83 403.33,-397.68 595.12,-572.55 191.79,-174.87 381.7,-337.51 569.73,-487.94 188.03,-150.43 383.58,-298.97 586.65,-445.63 157.94,-116.58 343.16,-239.74 555.63,-369.48 212.47,-129.75 438.11,-250.08 676.91,-361.02 238.8,-110.94 483.24,-202.13 733.32,-273.58 250.07,-71.46 493.57,-107.18 730.49,-107.18 270.76,0 498.28,32.91 682.55,98.72 184.27,65.81 329.99,150.43 437.17,253.84 107.18,103.42 177.69,219.05 211.54,346.91 33.85,127.86 39.49,255.72 16.92,383.58z"/>
  <path class="fil0" d="M2823.28 5336.35l0 3208.28 -297.91 0 0 -3208.28 297.91 0zm-2172.46 0l0 3208.28 -297.9 0 0 -3208.28 297.9 0zm1915.8 1553.71l0 137.5 -1961.64 0 0 -137.5 1961.64 0zm-2199.96 1319.99l0 334.58 -366.66 0 0 -45.83c0,0 9.92,0 29.79,0 19.86,0 29.79,0 29.79,0 79.44,0 147.43,-28.26 203.95,-84.79 56.52,-56.53 86.32,-124.51 89.37,-203.96l13.75 0zm0 -2539.13l-13.75 0c-3.06,-79.44 -32.85,-147.43 -89.37,-203.95 -56.52,-56.52 -124.51,-84.8 -203.95,-84.8 0,0 -9.93,0 -29.79,0 -19.87,0 -29.79,0 -29.79,0l0 -45.83 366.66 0 0 334.58zm270.41 2539.13l13.74 0c3.06,79.45 32.85,147.43 89.37,203.96 56.53,56.52 124.51,84.79 203.96,84.79 0,0 9.16,0 27.49,0 18.34,0 29.03,0 32.08,0l0 45.83 -366.65 0 0 -334.58zm0 -2539.13l0 -334.58 366.65 0 0 45.83c-3.05,0 -13.74,0 -32.08,0 -18.33,0 -27.49,0 -27.49,0 -79.45,0 -147.43,28.27 -203.96,84.8 -56.52,56.52 -86.32,124.51 -89.37,203.95l-13.74 0zm1902.04 2539.13l0 334.58 -366.66 0 0 -45.83c3.06,0 13.75,0 32.09,0 18.33,0 27.49,0 27.49,0 79.44,0 148.2,-28.26 206.25,-84.79 58.05,-56.53 87.08,-124.51 87.08,-203.96l13.75 0zm0 -2539.13l-13.75 0c0,-79.44 -29.02,-147.43 -87.08,-203.95 -58.05,-56.52 -126.81,-84.8 -206.25,-84.8 0,0 -9.16,0 -27.49,0 -18.34,0 -29.03,0 -32.09,0l0 -45.83 366.66 0 0 334.58zm270.41 2539.13l13.75 0c3.06,79.45 32.85,147.43 89.37,203.96 56.52,56.52 124.51,84.79 203.95,84.79 0,0 9.93,0 29.79,0 19.86,0 29.79,0 29.79,0l0 45.83 -366.66 0 0 -334.58zm0 -2539.13l0 -334.58 366.66 0 0 45.83c0,0 -9.93,0 -29.79,0 -19.86,0 -29.79,0 -29.79,0 -79.44,0 -147.43,28.27 -203.95,84.8 -56.52,56.52 -86.32,124.51 -89.37,203.95l-13.75 0z"/>
  <path id="_1" class="fil0" d="M4377 5336.35l0 3208.28 -297.9 0 0 -3208.28 297.9 0zm1237.48 3066.2l0 142.08 -1251.22 0 0 -142.08 1251.22 0zm-197.08 -1507.89l0 137.49 -1054.14 0 0 -137.49 1054.14 0zm197.08 -1558.31l0 142.08 -1251.22 0 0 -142.08 1251.22 0zm279.59 2465.79l-265.83 742.49 -760.82 0 165 -142.08c161.94,0 294.09,-25.2 396.46,-75.62 102.36,-50.42 185.61,-121.45 249.78,-213.11 64.17,-91.66 120.69,-195.56 169.58,-311.67l45.83 0 -0.01 -0.01zm-476.65 -779.15l0 302.49 -45.83 0 0 -68.75c0,-61.11 -21.39,-113.82 -64.17,-158.12 -42.77,-44.3 -94.72,-66.46 -155.82,-66.46l0 -9.16 265.82 0zm0 -421.66l0 302.49 -265.82 0 0 -9.16c61.1,-3.06 113.05,-26.73 155.82,-71.05 42.78,-44.31 64.17,-97.02 64.17,-158.13l0 -64.16 45.83 0 0 0.01zm197.08 -1136.65l0 366.66 -45.83 0 0 -82.5c0,-73.32 -25.97,-136.73 -77.91,-190.2 -51.95,-53.48 -116.11,-81.74 -192.5,-84.79l0 -9.17 316.24 0zm0 -210.83l0 132.92 -559.15 -50.42c67.22,0 138.26,-4.58 213.11,-13.75 74.86,-9.16 144.38,-19.86 208.54,-32.08 64.17,-12.22 110,-24.44 137.49,-36.67l0.01 0zm-1521.63 2956.2l0 334.58 -366.66 0 0 -45.83c0,0 9.92,0 29.79,0 19.86,0 29.79,0 29.79,0 79.44,0 147.43,-28.26 203.95,-84.79 56.52,-56.53 86.32,-124.51 89.37,-203.96l13.75 0zm0 -2539.13l-13.75 0c0,-79.44 -29.03,-147.43 -87.09,-203.95 -58.05,-56.52 -126.8,-84.8 -206.24,-84.8 0,0 -9.17,0 -27.5,0 -18.34,0 -27.5,0 -27.5,0l-4.58 -45.83 366.66 0 0 334.58z"/>
  <path id="_2" class="fil0" d="M6916.11 5336.35l646.25 0c137.49,0 262.01,19.87 373.53,59.58 111.53,39.73 205.48,97.02 281.87,171.87 76.39,74.86 135.21,165 176.46,270.41 41.24,105.41 61.87,225.35 61.87,359.79 0,146.67 -34.38,287.22 -103.13,421.66 -68.75,134.45 -161.94,243.68 -279.58,327.71 -117.64,84.03 -249.79,126.04 -396.46,126.04 51.94,21.39 108.47,64.93 169.58,130.62 61.1,65.7 114.58,129.1 160.41,190.21 0,0 20.63,29.79 61.87,89.37 41.25,59.57 93.19,132.15 155.83,217.7 62.64,85.55 126.04,169.57 190.2,252.07 64.17,82.5 119.17,148.2 165,197.08 61.11,67.23 122.22,126.81 183.34,178.75 61.11,51.95 127.56,93.19 199.37,123.75 71.81,30.55 152.02,45.83 240.62,45.83l0 45.83 -252.07 0c-140.55,0 -262.01,-21.39 -364.37,-64.17 -102.36,-42.77 -188.67,-95.48 -258.95,-158.12 -70.28,-62.63 -129.86,-122.98 -178.75,-181.04 -9.16,-12.22 -34.38,-47.36 -75.62,-105.41 -41.25,-58.05 -90.14,-127.56 -146.67,-208.54 -56.52,-80.97 -112.29,-161.17 -167.29,-240.62 -55,-79.44 -102.36,-147.43 -142.08,-203.95 -39.73,-56.52 -62.64,-89.37 -68.75,-98.54 -58.05,-76.39 -122.22,-146.67 -192.5,-210.83 -70.28,-64.17 -146.66,-96.25 -229.16,-96.25l0 -45.83c0,0 23.68,0.76 71.05,2.29 47.36,1.53 104.65,0.77 171.87,-2.29 79.44,-3.06 166.53,-15.28 261.25,-36.67 94.72,-21.39 183.33,-65.69 265.82,-132.92 82.5,-67.22 145.14,-169.57 187.91,-307.08 9.17,-33.61 16.81,-75.62 22.92,-126.03 6.12,-50.42 7.65,-100.07 4.59,-148.96 -3.06,-207.78 -55.77,-373.54 -158.12,-497.29 -102.36,-123.74 -239.09,-190.2 -410.2,-199.37 -85.56,-6.12 -173.4,-8.4 -263.54,-6.88 -90.13,1.53 -165.76,2.29 -226.87,2.29 -61.11,0 -91.66,0 -91.66,0 0,-3.06 -3.84,-16.04 -11.46,-38.96 -7.64,-22.92 -15.28,-45.83 -22.92,-68.75 -7.64,-22.92 -11.46,-34.38 -11.46,-34.38zm59.58 0l0 3208.28 -297.9 0 0 -3208.28 297.9 0zm-284.15 2873.7l0 334.58 -366.66 0 0 -45.83c0,0 9.92,0 29.79,0 19.86,0 29.79,0 29.79,0 79.44,0 147.43,-28.26 203.95,-84.79 56.52,-56.53 86.32,-124.51 89.37,-203.96l13.75 0zm0 -2539.13l-13.75 0c-3.06,-79.44 -32.85,-147.43 -89.37,-203.95 -56.52,-56.52 -124.51,-84.8 -203.95,-84.8 0,0 -9.93,0 -29.79,0 -19.87,0 -29.79,0 -29.79,0l0 -45.83 366.66 0 0 334.58zm270.41 2539.13l13.74 0c0,79.45 29.03,147.43 87.09,203.96 58.05,56.52 126.8,84.79 206.25,84.79 0,0 9.16,0 27.49,0 18.34,0 27.5,0 27.5,0l0 45.83 -362.07 0 0 -334.58z"/>
  <path id="_3" class="fil0" d="M9941.06 5336.35l0 3208.28 -297.9 0 0 -3208.28 297.9 0zm1237.48 3066.2l0 142.08 -1251.22 0 0 -142.08 1251.22 0zm-197.08 -1507.89l0 137.49 -1054.14 0 0 -137.49 1054.14 0zm197.08 -1558.31l0 142.08 -1251.22 0 0 -142.08 1251.22 0zm279.59 2465.79l-265.83 742.49 -760.82 0 165 -142.08c161.94,0 294.09,-25.2 396.46,-75.62 102.36,-50.42 185.61,-121.45 249.78,-213.11 64.17,-91.66 120.69,-195.56 169.58,-311.67l45.83 0 -0.01 -0.01zm-476.65 -779.15l0 302.49 -45.83 0 0 -68.75c0,-61.11 -21.39,-113.82 -64.17,-158.12 -42.77,-44.3 -94.72,-66.46 -155.82,-66.46l0 -9.16 265.82 0zm0 -421.66l0 302.49 -265.82 0 0 -9.16c61.1,-3.06 113.05,-26.73 155.82,-71.05 42.78,-44.31 64.17,-97.02 64.17,-158.13l0 -64.16 45.83 0 0 0.01zm197.08 -1136.65l0 366.66 -45.83 0 0 -82.5c0,-73.32 -25.97,-136.73 -77.91,-190.2 -51.95,-53.48 -116.11,-81.74 -192.5,-84.79l0 -9.17 316.24 0zm0 -210.83l0 132.92 -559.15 -50.42c67.22,0 138.26,-4.58 213.11,-13.75 74.86,-9.16 144.38,-19.86 208.54,-32.08 64.17,-12.22 110,-24.44 137.49,-36.67l0.01 0zm-1521.63 2956.2l0 334.58 -366.66 0 0 -45.83c0,0 9.92,0 29.79,0 19.86,0 29.79,0 29.79,0 79.44,0 147.43,-28.26 203.95,-84.79 56.52,-56.53 86.32,-124.51 89.37,-203.96l13.75 0zm0 -2539.13l-13.75 0c0,-79.44 -29.03,-147.43 -87.09,-203.95 -58.05,-56.52 -126.8,-84.8 -206.24,-84.8 0,0 -9.17,0 -27.5,0 -18.34,0 -27.5,0 -27.5,0l-4.58 -45.83 366.66 0 0 334.58z"/>
 </g>
</svg>
