<?xml version="1.0" encoding="UTF-8"?>
<!DOCTYPE svg PUBLIC "-//W3C//DTD SVG 1.1//EN" "http://www.w3.org/Graphics/SVG/1.1/DTD/svg11.dtd">
<!-- Creator: CorelDRAW -->
<svg xmlns="http://www.w3.org/2000/svg" xml:space="preserve" width="58.3699mm" height="141.464mm" version="1.1" style="shape-rendering:geometricPrecision; text-rendering:geometricPrecision; image-rendering:optimizeQuality; fill-rule:evenodd; clip-rule:evenodd"
viewBox="0 0 22544.7 54638.68"
 xmlns:xlink="http://www.w3.org/1999/xlink"
 xmlns:xodm="http://www.corel.com/coreldraw/odm/2003">
 <defs>
  <style type="text/css">
   <![CDATA[
    .fil1 {fill:black}
    .fil2 {fill:#BDAC97}
    .fil0 {fill:white}
   ]]>
  </style>
 </defs>
 <g id="Capa_x0020_1">
  <metadata id="CorelCorpID_0Corel-Layer"/>
  <g id="_2912981879456">
   <path class="fil0" d="M21332.18 16563.14c-324.75,-250.05 -675.92,-445.56 -1053.89,-586.46l0 -902.87 0 -49.79c0,-1193.09 -421.12,-2210.83 -1263.62,-3053.29 -774.91,-774.83 -1698.44,-1194.21 -2770.64,-1258.29 -93.62,-5.91 -189.06,-8.88 -286.2,-8.88l-717.9 -0.04 -606.12 0c-153.99,-1026 48.05,-2352.96 606.09,-3980.88 43.84,-130.39 90.65,-260.79 140.4,-390.99 3.59,-10.74 7.07,-19 10.62,-24.95 414.9,-1323.48 697.35,-2459.68 847.79,-3408.71l0 -24.95c3.36,-10.31 5.33,-18.31 5.41,-23.91l0 -0.93c149.36,-1023.65 143.87,-1845.99 -16.03,-2466.83 -29.55,-124.37 -96.48,-221.51 -200.69,-291.46 -106.68,-73.46 -221.51,-101.89 -344.91,-85.32 -127.84,13.09 -233.29,68.17 -316.41,165.35 -84.12,93.51 -126.11,203.78 -126.11,330.5l0 2262.47c-139.82,898.08 -406.94,1972.09 -801.48,3222.12 -3.59,7.15 -5.52,14.21 -5.52,21.36 -701.25,1911.11 -975.02,3476.88 -821.1,4697.16l-4672.21 0c156.35,-1227.43 -119.66,-2800.27 -828.17,-4718.52 -394.58,-1252.38 -663.52,-2328.13 -806.93,-3227.45l0.04 -2257.1c0,-126.72 -41.48,-237 -124.37,-330.5 -84.2,-97.18 -189.68,-152.26 -316.41,-165.35 -123.25,-16.57 -237,11.82 -341.2,85.32 -106.68,69.91 -175.35,167.09 -206.21,291.46 -159.94,620.8 -164.61,1441.33 -14.1,2461.5l0 0.93c0.12,5.52 1.85,11.74 5.33,18.62l0 14.21 0 5.33 5.33 10.74c146.96,948.95 430.62,2087.08 851.27,3414.04 0,5.91 1.74,14.21 5.33,24.95 46.19,126.72 91.27,252.33 135.11,376.7 565.22,1633.87 768.88,2965.62 611.3,3995.21l-611.38 -0.08 -716.16 0c-97.18,0 -192.62,2.97 -286.13,8.88 -1072.31,64.08 -1994.69,483.45 -2767.28,1258.29l-5.29 0.04c-838.79,842.46 -1258.21,1860.2 -1258.21,3053.29l0 49.79 0 902.87c-378.01,140.94 -730.49,336.41 -1057.48,586.46 -818.67,627.99 -1223.33,1386.87 -1213.83,2276.53 -9.5,892.25 395.16,1654.07 1213.83,2285.64l0 -5.33c748.76,585.27 1656.34,882.63 2722.71,892.13l2866.7 7149.78 0 24975.49c0,136.23 50.29,254.76 151.1,355.53 95.94,96.98 212.66,145.73 350.13,145.73 137.46,0 255.88,-48.74 355.42,-145.73 97.18,-100.65 145.73,-219.31 145.73,-355.53l-0.04 -23843.39c361.44,247.62 797.39,376.27 1308.07,385.66 120.89,3.59 238.19,0.62 351.86,-8.88 -30.74,280.72 20.74,521.27 154.61,721.57 203.86,460.9 745.29,718.02 1624.44,771.36l60.48 0c879.04,-53.34 1420.35,-310.46 1624.25,-771.36 130.39,-200.3 180.88,-440.85 151.14,-721.57 113.63,9.5 232.09,12.48 355.53,8.88 508.29,-9.39 942.42,-138.08 1302.63,-385.66l0 23843.39c0,136.23 50.37,254.76 151.14,355.53 97.1,96.98 213.78,145.73 350.13,145.73 137.46,0 256.62,-48.74 357.15,-145.73 95.94,-100.65 144.11,-219.31 144.11,-355.53l0 -24975.49 2873.65 -7149.78c1062.81,-9.5 1968.73,-306.87 2717.5,-892.13l0 5.33c818.67,-631.54 1222.72,-1393.39 1212.02,-2285.64 10.51,-889.7 -393.58,-1648.58 -1212.21,-2276.53l0 0 -0.08 -0.04zm-17089.93 4446.61l-255.88 0c-845.94,0 -1566.31,-227.49 -2161.16,-682.44 -537.84,-413.47 -812.22,-909.32 -822.84,-1487.6 10.62,-574.53 285.01,-1067.49 822.84,-1478.64l0 -5.33c314.05,-240.55 661.78,-412.85 1043.27,-517.1 26.07,-5.91 52.72,-14.29 80.03,-24.95l5.29 0.04c29.62,-13.09 59.75,-21.36 90.65,-24.84 12.98,-3.67 27.81,-7.15 44.34,-10.74 286.74,-69.91 585.96,-104.83 897.54,-104.83 848.33,0 1568.75,227.49 2161.16,682.44l0 5.33c537.84,411.11 811.53,904.11 821.03,1478.64 -9.5,578.31 -283.19,1074.13 -821.03,1487.6 -528.53,401.61 -1158.75,629.18 -1891.06,682.44l-14.17 0 0 -0.04zm10512.33 7891.01c-104.32,139.7 -266.5,303.31 -486.85,490.41 -227.69,183.73 -511.46,279.1 -851.35,286.13 -341.32,7.15 -627.44,-71.03 -858.53,-234.52 -93.51,-71.15 -198.37,-104.83 -314.44,-101.35 -120.89,3.59 -224.52,45.58 -311.04,126.18 -89.92,77.05 -145.11,173.61 -165.23,289.68 -23.6,117.22 -5.33,227.49 55.08,330.58 200.19,364.92 275.5,639.22 225.76,822.84 -120.89,141.02 -378.63,224.52 -773.09,250.59 -394.47,-26.07 -651.58,-109.54 -771.24,-250.59 -53.34,-183.66 21.86,-457.92 225.64,-822.84 57.01,-103.09 75.32,-213.4 55.19,-330.58 -23.6,-116.1 -78.79,-212.66 -165.23,-289.68 -91.27,-80.65 -194.9,-122.63 -310.96,-126.18 -120.89,-3.48 -228.11,30.24 -321.7,101.35 -229.81,163.49 -513.62,241.67 -851.27,234.52 -341.2,-7.07 -627.37,-102.39 -858.41,-286.13 -220.31,-187.13 -380.37,-350.74 -479.79,-490.41 -36.81,-668.23 71.65,-1126.27 325.17,-1373.77 374.42,-277.36 824.08,-416.02 1348.94,-416.02 514.12,0 956.71,133.99 1327.58,401.73 60.41,49.79 123.87,99.53 190.07,149.36 107.92,84.12 229.81,116.1 366.15,95.94 137.46,-16.57 249.36,-79.91 335.8,-190.18 10.74,-14.21 24.33,-27.81 40.86,-40.79 370.87,-277.36 818.75,-416.02 1343.53,-416.02 524.98,0 974.4,138.66 1348.94,416.02 262.99,243.91 373.18,701.95 330.47,1373.77l0 0 -0.04 -0.04zm702.03 -1724.01c-113.75,-187.13 -257.74,-337.61 -432.08,-451.4 -537.84,-411.11 -1187.68,-616.75 -1949.54,-616.75 -691.95,0 -1292.01,170.06 -1800.33,510.03 -508.29,-340.01 -1109.51,-510.03 -1803.81,-510.03 -759.5,0 -1409.96,205.59 -1951.47,616.75l-3.48 5.33c-170.68,116.18 -311.04,269.59 -421.23,460.28l-2116.7 -5264.12c668.23,-136.23 1261.88,-403.46 1780.79,-801.48 818.67,-631.54 1222.72,-1393.39 1212.09,-2285.64 10.62,-889.7 -392.23,-1648.58 -1208.54,-2276.53l-3.48 0c-759.5,-594.77 -1683.65,-892.13 -2772.46,-892.13 -244.03,0 -481.64,18.31 -712.69,55.08l0 -652.28 0 -49.79c0,-919.44 322.93,-1701.38 968.57,-2345.94 644.52,-648.11 1426.49,-972.16 2346.01,-972.16l1698.95 0c27.27,3.59 53.96,3.59 80.03,0l5814.94 0c27.38,3.59 53.96,3.59 80.03,0l1695.47 0c918.28,0 1702,324.05 2351.46,972.16 644.44,644.52 966.75,1426.49 966.75,2345.94l0 49.79 0 652.28c-233.4,-36.81 -472.14,-55.08 -716.36,-55.08 -1086.33,0 -2010.53,297.36 -2772.38,892.13 -818.75,627.99 -1223.45,1386.87 -1213.83,2276.53 -9.62,892.25 395.08,1654.07 1213.83,2285.64 517.71,398.13 1110.74,663.48 1778.98,796.19l-2109.52 5255.2zm5262.42 -6849.44c-594.85,454.95 -1314.6,682.44 -2159.54,682.44l-250.36 0 -16.07 0c-732.23,-53.22 -1363.77,-280.83 -1894.42,-682.44 -538.03,-413.47 -812.34,-909.32 -822.96,-1487.6 10.62,-574.53 284.93,-1067.49 822.96,-1478.64l0 -5.33c594.65,-454.95 1315.03,-682.44 2160.97,-682.44 310.57,0 609.79,34.92 897.54,104.83 16.65,3.59 31.52,7.07 44.57,10.74 33.02,7.07 68.06,15.33 104.75,24.84l5.41 5.33c27.19,7.15 53.76,13.71 79.91,19.62 370.87,104.25 713.31,276.55 1027.36,517.1l0 5.33c538.96,411.11 813.34,904.11 822.84,1478.64 -9.62,578.28 -284,1074.09 -822.96,1487.56l0 0.04z"/>
  </g>
  <path class="fil0" d="M13075.02 27110.89c-524.86,0 -972.78,138.66 -1343.53,415.94 -16.57,13.09 -30.17,26.69 -40.79,40.86 -86.56,110.16 -198.45,173.61 -335.95,190.18 -136.34,20.05 -258.35,-11.82 -366.15,-96.06 -66.24,-49.67 -129.78,-99.42 -190.18,-149.2 -370.75,-267.86 -813.26,-401.73 -1327.58,-401.73 -524.86,0 -974.52,138.66 -1348.94,415.94 -253.53,247.62 -361.98,705.54 -325.17,1373.77 99.53,139.82 259.47,303.39 479.79,490.52 231.05,183.66 517.21,278.98 858.41,286.13 337.61,7.07 621.42,-71.03 851.27,-234.52 93.62,-71.15 200.92,-104.94 321.7,-101.35 116.18,3.59 219.77,45.58 310.96,126.18 86.56,77.05 141.63,173.61 165.23,289.6 20.12,117.3 1.93,227.57 -55.08,330.74 -203.86,364.92 -279.1,639.22 -225.76,822.77 119.66,141.02 376.89,224.64 771.36,250.59 394.47,-25.96 652.4,-109.54 773.09,-250.59 49.79,-183.54 -25.45,-457.77 -225.76,-822.77 -60.41,-103.09 -78.79,-213.4 -55.08,-330.74 20.12,-115.99 75.32,-212.55 165.23,-289.6 86.56,-80.65 190.07,-122.63 311.04,-126.18 116.1,-3.59 221.04,30.24 314.51,101.35 231.05,163.49 517.21,241.59 858.3,234.52 340.01,-7.15 623.78,-102.51 851.35,-286.13 220.31,-187.13 382.61,-350.74 486.93,-490.52 42.72,-671.71 -67.44,-1129.75 -330.5,-1373.77 -374.3,-277.13 -823.96,-415.94 -1348.82,-415.94l0.12 0z"/>
  <path class="fil1" d="M16243.84 10712.44c-93.62,-5.91 -188.95,-8.88 -286.13,-8.88l-717.9 -0.04 0 -3981.04c43.84,-130.24 90.65,-260.71 140.4,-390.99 3.48,-10.62 7.07,-18.89 10.62,-24.95 414.9,-1323.41 697.35,-2459.68 847.87,-3408.63l0 -24.95c3.36,-10.31 5.1,-18.31 5.21,-24.02l0.04 7863.47 -0.12 0 0 0.04zm-8939.37 -4004.1l0 3995.21 -716.16 0c-97.18,0 -192.62,2.97 -286.13,8.88l0 -7868.72c0.12,5.64 1.85,11.82 5.33,18.69l0 14.21 0 5.33 5.33 10.62c146.96,949.07 430.73,2087.08 851.27,3414.04 0,6.03 1.85,14.29 5.33,24.95 46.16,126.76 91.11,252.41 135.03,376.74l0 0.04z"/>
  <path class="fil2" d="M14754.62 28900.72c-104.25,139.7 -266.5,303.31 -486.93,490.52 -227.57,183.66 -511.26,278.98 -851.27,286.05 -341.2,7.15 -627.44,-71.03 -858.53,-234.52 -93.51,-71.15 -198.26,-104.83 -314.44,-101.27 -121.05,3.48 -224.52,45.58 -311.04,126.11 -90.03,77.05 -145.11,173.61 -165.23,289.68 -23.6,117.3 -5.41,227.57 55.08,330.58 200.19,364.92 275.43,639.22 225.64,822.84 -120.78,141.02 -378.51,224.52 -772.98,250.59 -394.47,-26.07 -651.58,-109.54 -771.24,-250.59 -53.34,-183.66 21.86,-457.92 225.64,-822.84 56.93,-103.01 75.2,-213.28 55.19,-330.58 -23.79,-116.1 -78.91,-212.66 -165.35,-289.68 -91.15,-80.53 -194.9,-122.63 -310.96,-126.11 -120.89,-3.59 -228.11,30.17 -321.7,101.27 -229.81,163.49 -513.62,241.67 -851.35,234.52 -341.2,-7.07 -627.37,-102.39 -858.3,-286.05 -220.43,-187.21 -380.37,-350.82 -479.9,-490.52 -36.65,-668.23 71.65,-1126.27 325.29,-1373.77 374.42,-277.36 823.96,-415.94 1348.82,-415.94 514.24,0 956.71,133.87 1327.69,401.61 60.41,49.79 123.75,99.53 190.18,149.36 107.8,84.2 229.81,116.1 366.04,95.94 137.46,-16.57 249.36,-79.91 335.8,-190.07 10.62,-14.21 24.33,-27.89 40.86,-40.86 370.87,-277.36 818.75,-415.94 1343.61,-415.94 524.86,0 974.29,138.58 1348.82,415.94 263.03,244.03 373.3,701.95 330.58,1373.77l-0.04 -0.04z"/>
 </g>
</svg>
