<?xml version="1.0" encoding="UTF-8"?>
<!DOCTYPE svg PUBLIC "-//W3C//DTD SVG 1.1//EN" "http://www.w3.org/Graphics/SVG/1.1/DTD/svg11.dtd">
<!-- Creator: CorelDRAW -->
<svg xmlns="http://www.w3.org/2000/svg" xml:space="preserve" width="110.111mm" height="41.7878mm" version="1.1" style="shape-rendering:geometricPrecision; text-rendering:geometricPrecision; image-rendering:optimizeQuality; fill-rule:evenodd; clip-rule:evenodd"
viewBox="0 0 11011.08 4178.78"
 xmlns:xlink="http://www.w3.org/1999/xlink"
 xmlns:xodm="http://www.corel.com/coreldraw/odm/2003">
 <defs>
  <style type="text/css">
   <![CDATA[
    .fil0 {fill:black}
    .fil2 {fill:#BDAC97}
    .fil1 {fill:white}
   ]]>
  </style>
 </defs>
 <g id="Capa_x0020_1">
  <metadata id="CorelCorpID_0Corel-Layer"/>
  <g id="_1981916815600">
   <g id="_2912981879456">
    <path class="fil0" d="M1553.03 1205.83c-23.64,-18.2 -49.21,-32.43 -76.73,-42.69l0 -65.73 0 -3.63c0,-86.86 -30.65,-160.95 -91.99,-222.28 -56.41,-56.41 -123.65,-86.94 -201.71,-91.61 -6.81,-0.43 -13.76,-0.65 -20.83,-0.65l-52.27 0 -44.12 0c-11.22,-74.69 3.49,-171.3 44.12,-289.81 3.19,-9.5 6.6,-18.99 10.22,-28.47 0.26,-0.78 0.52,-1.38 0.77,-1.82 30.21,-96.35 50.77,-179.06 61.72,-248.16l0 -1.81c0.25,-0.75 0.39,-1.33 0.4,-1.74l0 -0.07c10.87,-74.52 10.47,-134.39 -1.17,-179.59 -2.15,-9.05 -7.02,-16.13 -14.61,-21.22 -7.77,-5.35 -16.13,-7.42 -25.11,-6.21 -9.31,0.95 -16.98,4.96 -23.03,12.04 -6.13,6.81 -9.18,14.83 -9.18,24.06l0 164.71c-10.18,65.38 -29.63,143.57 -58.35,234.58 -0.27,0.52 -0.41,1.03 -0.41,1.55 -51.05,139.13 -70.98,253.13 -59.77,341.96l-340.15 0c11.38,-89.35 -8.71,-203.86 -60.29,-343.51 -28.73,-91.18 -48.31,-169.49 -58.75,-234.97l0 -164.32c0,-9.22 -3.02,-17.25 -9.05,-24.06 -6.13,-7.07 -13.81,-11.08 -23.04,-12.04 -8.97,-1.2 -17.25,0.86 -24.84,6.21 -7.76,5.09 -12.76,12.17 -15.01,21.22 -11.64,45.2 -11.98,104.93 -1.02,179.2l0 0.07c0,0.4 0.13,0.86 0.38,1.36l0 1.03 0 0.39 0.39 0.78c10.7,69.09 31.35,151.95 61.98,248.55 0,0.43 0.12,1.04 0.38,1.82 3.37,9.22 6.65,18.37 9.84,27.42 41.15,118.95 55.98,215.9 44.5,290.86l-44.51 -0.01 -52.13 0c-7.08,0 -14.03,0.22 -20.83,0.65 -78.07,4.67 -145.22,35.2 -201.47,91.61l-0.38 0c-61.07,61.33 -91.6,135.43 -91.6,222.29l0 3.62 0 65.73c-27.52,10.26 -53.18,24.49 -76.99,42.7 -59.6,45.71 -89.06,100.96 -88.37,165.73 -0.69,64.96 28.77,120.42 88.37,166.4l0 -0.39c54.51,42.61 120.59,64.26 198.22,64.95l208.7 520.52 0 1818.26c0,9.92 3.66,18.55 11,25.89 6.98,7.06 15.48,10.6 25.49,10.6 10.01,0 18.63,-3.54 25.87,-10.6 7.08,-7.33 10.61,-15.97 10.61,-25.89l0 -1735.84c26.31,18.03 58.05,27.39 95.23,28.07 8.8,0.27 17.34,0.05 25.62,-0.64 -2.24,20.43 1.51,37.95 11.25,52.53 14.84,33.55 54.26,52.27 118.27,56.16l4.4 0c64,-3.89 103.4,-22.61 118.25,-56.16 9.49,-14.58 13.17,-32.1 11,-52.53 8.27,0.69 16.9,0.91 25.88,0.64 37.01,-0.68 68.61,-10.05 94.84,-28.07l0 1735.84c0,9.92 3.66,18.55 11,25.89 7.07,7.06 15.56,10.6 25.49,10.6 10.01,0 18.68,-3.54 26,-10.6 6.99,-7.33 10.49,-15.97 10.49,-25.89l0 -1818.26 209.21 -520.52c77.38,-0.69 143.33,-22.34 197.84,-64.95l0 0.39c59.6,-45.98 89.02,-101.44 88.24,-166.4 0.76,-64.77 -28.66,-120.02 -88.25,-165.73l0 0 -0.01 -0.01zm-1244.18 323.72l-18.63 0c-61.58,0 -114.03,-16.56 -157.33,-49.68 -39.16,-30.1 -59.13,-66.2 -59.91,-108.3 0.78,-41.83 20.75,-77.71 59.91,-107.65l0 -0.38c22.86,-17.52 48.18,-30.06 75.95,-37.65 1.9,-0.43 3.84,-1.04 5.83,-1.82l0.38 0.01c2.16,-0.96 4.35,-1.56 6.6,-1.81 0.95,-0.27 2.03,-0.52 3.23,-0.78 20.87,-5.09 42.66,-7.63 65.34,-7.63 61.76,0 114.21,16.56 157.34,49.68l0 0.39c39.15,29.93 59.08,65.82 59.77,107.64 -0.69,42.11 -20.62,78.2 -59.77,108.3 -38.48,29.24 -84.36,45.81 -137.67,49.69l-1.04 0 0 -0.01zm765.32 574.48c-7.59,10.18 -19.4,22.09 -35.44,35.71 -16.58,13.37 -37.24,20.32 -61.98,20.83 -24.85,0.52 -45.68,-5.17 -62.51,-17.08 -6.8,-5.18 -14.44,-7.63 -22.89,-7.37 -8.8,0.26 -16.34,3.31 -22.64,9.18 -6.55,5.61 -10.57,12.64 -12.03,21.09 -1.72,8.54 -0.39,16.56 4.01,24.07 14.57,26.57 20.06,46.54 16.43,59.9 -8.8,10.27 -27.56,16.35 -56.28,18.25 -28.72,-1.9 -47.43,-7.98 -56.15,-18.25 -3.88,-13.37 1.6,-33.33 16.43,-59.9 4.15,-7.51 5.48,-15.54 4.02,-24.07 -1.72,-8.45 -5.74,-15.48 -12.03,-21.09 -6.64,-5.87 -14.19,-8.93 -22.64,-9.18 -8.8,-0.26 -16.61,2.2 -23.42,7.37 -16.73,11.91 -37.39,17.6 -61.97,17.08 -24.84,-0.52 -45.68,-7.46 -62.5,-20.83 -16.04,-13.63 -27.69,-25.54 -34.93,-35.71 -2.68,-48.64 5.22,-81.99 23.68,-100.01 27.26,-20.19 59.99,-30.29 98.2,-30.29 37.43,0 69.65,9.76 96.65,29.25 4.4,3.63 9.02,7.25 13.84,10.87 7.86,6.13 16.73,8.46 26.66,6.99 10,-1.21 18.15,-5.82 24.44,-13.85 0.79,-1.03 1.77,-2.02 2.98,-2.97 27,-20.19 59.6,-30.28 97.81,-30.28 38.22,0 70.94,10.09 98.21,30.28 19.14,17.76 27.16,51.11 24.05,100.02l0 0 0 -0.01zm51.11 -125.51c-8.28,-13.62 -18.76,-24.58 -31.46,-32.86 -39.15,-29.93 -86.46,-44.9 -141.93,-44.9 -50.37,0 -94.06,12.38 -131.06,37.13 -37.01,-24.75 -80.78,-37.13 -131.33,-37.13 -55.29,0 -102.64,14.97 -142.07,44.9l-0.25 0.39c-12.42,8.46 -22.64,19.63 -30.67,33.51l-154.1 -383.24c48.65,-9.92 91.87,-29.37 129.65,-58.35 59.6,-45.98 89.02,-101.44 88.24,-166.4 0.78,-64.77 -28.55,-120.02 -87.98,-165.73l-0.26 0c-55.29,-43.3 -122.57,-64.95 -201.84,-64.95 -17.76,0 -35.06,1.33 -51.88,4.01l0 -47.49 0 -3.62c0,-66.94 23.51,-123.87 70.51,-170.79 46.93,-47.19 103.86,-70.78 170.8,-70.78l123.68 0c1.99,0.26 3.93,0.26 5.83,0l423.34 0c1.99,0.26 3.93,0.26 5.82,0l123.44 0c66.85,0 123.91,23.59 171.19,70.78 46.92,46.92 70.38,103.85 70.38,170.79l0 3.62 0 47.49c-16.99,-2.68 -34.37,-4.01 -52.15,-4.01 -79.09,0 -146.37,21.65 -201.84,64.95 -59.6,45.71 -89.07,100.96 -88.37,165.73 -0.7,64.96 28.77,120.42 88.37,166.4 37.69,28.99 80.87,48.3 129.52,57.97l-153.58 382.58zm383.11 -498.65c-43.3,33.12 -95.7,49.68 -157.21,49.68l-18.23 0 -1.17 0c-53.31,-3.87 -99.29,-20.44 -137.92,-49.68 -39.17,-30.1 -59.14,-66.2 -59.91,-108.3 0.77,-41.83 20.74,-77.71 59.91,-107.65l0 -0.38c43.29,-33.13 95.74,-49.69 157.32,-49.69 22.61,0 44.4,2.54 65.35,7.63 1.21,0.27 2.29,0.52 3.24,0.79 2.41,0.51 4.96,1.11 7.63,1.8l0.39 0.39c1.98,0.52 3.92,1 5.82,1.43 27,7.59 51.93,20.13 74.79,37.65l0 0.38c39.24,29.93 59.22,65.82 59.91,107.65 -0.7,42.1 -20.68,78.2 -59.92,108.3l0 0z"/>
   </g>
   <path class="fil1" d="M951.89 1973.73c-38.21,0 -70.82,10.09 -97.81,30.28 -1.2,0.95 -2.19,1.94 -2.97,2.98 -6.3,8.01 -14.45,12.63 -24.46,13.84 -9.92,1.46 -18.8,-0.86 -26.65,-6.99 -4.82,-3.62 -9.45,-7.24 -13.85,-10.86 -26.99,-19.5 -59.21,-29.25 -96.65,-29.25 -38.21,0 -70.95,10.09 -98.2,30.28 -18.46,18.03 -26.36,51.37 -23.68,100.01 7.25,10.18 18.89,22.09 34.93,35.71 16.82,13.38 37.66,20.31 62.5,20.84 24.58,0.51 45.24,-5.18 61.97,-17.08 6.82,-5.18 14.63,-7.64 23.42,-7.38 8.46,0.26 16,3.32 22.64,9.19 6.3,5.61 10.31,12.64 12.03,21.08 1.46,8.54 0.14,16.57 -4.01,24.08 -14.84,26.57 -20.32,46.54 -16.44,59.9 8.71,10.27 27.44,16.35 56.16,18.24 28.72,-1.89 47.5,-7.97 56.28,-18.24 3.63,-13.36 -1.85,-33.33 -16.43,-59.9 -4.4,-7.5 -5.74,-15.53 -4.01,-24.08 1.46,-8.44 5.48,-15.47 12.03,-21.08 6.3,-5.87 13.83,-8.93 22.64,-9.19 8.45,-0.26 16.09,2.2 22.9,7.38 16.82,11.9 37.65,17.59 62.48,17.08 24.76,-0.53 45.42,-7.47 61.98,-20.84 16.04,-13.62 27.86,-25.53 35.45,-35.71 3.11,-48.9 -4.91,-82.24 -24.06,-100.01 -27.25,-20.17 -59.98,-30.28 -98.2,-30.28l0.01 0z"/>
   <path class="fil2" d="M1182.59 779.89c-6.81,-0.43 -13.75,-0.65 -20.83,-0.65l-52.26 0 0 -289.83c3.19,-9.48 6.6,-18.98 10.22,-28.46 0.25,-0.77 0.51,-1.37 0.77,-1.82 30.21,-96.34 50.77,-179.07 61.73,-248.15l0 -1.82c0.24,-0.75 0.37,-1.33 0.38,-1.75l0 572.48 -0.01 0 0 0zm-650.8 -291.5l0 290.85 -52.14 0c-7.07,0 -14.02,0.22 -20.83,0.65l0 -572.86c0.01,0.41 0.14,0.86 0.39,1.36l0 1.04 0 0.39 0.39 0.77c10.7,69.09 31.35,151.94 61.97,248.55 0,0.44 0.14,1.04 0.39,1.82 3.36,9.22 6.63,18.37 9.83,27.42l0 0.01z"/>
   <path class="fil2" d="M1074.17 2104.03c-7.59,10.17 -19.4,22.08 -35.45,35.71 -16.56,13.37 -37.22,20.31 -61.97,20.83 -24.84,0.52 -45.68,-5.17 -62.5,-17.08 -6.81,-5.18 -14.44,-7.63 -22.89,-7.37 -8.82,0.25 -16.35,3.32 -22.65,9.18 -6.55,5.61 -10.56,12.64 -12.03,21.09 -1.72,8.54 -0.39,16.57 4.01,24.07 14.58,26.57 20.05,46.54 16.43,59.9 -8.79,10.27 -27.56,16.35 -56.27,18.25 -28.72,-1.9 -47.44,-7.98 -56.15,-18.25 -3.89,-13.37 1.59,-33.33 16.42,-59.9 4.15,-7.5 5.48,-15.53 4.02,-24.07 -1.73,-8.45 -5.74,-15.48 -12.04,-21.09 -6.63,-5.86 -14.18,-8.93 -22.63,-9.18 -8.8,-0.26 -16.61,2.2 -23.42,7.37 -16.73,11.91 -37.4,17.6 -61.98,17.08 -24.84,-0.52 -45.68,-7.46 -62.49,-20.83 -16.05,-13.63 -27.69,-25.54 -34.94,-35.71 -2.67,-48.65 5.22,-81.99 23.68,-100.01 27.26,-20.19 59.99,-30.28 98.2,-30.28 37.44,0 69.65,9.74 96.66,29.24 4.4,3.62 9.01,7.24 13.85,10.87 7.84,6.13 16.73,8.45 26.64,6.98 10.01,-1.2 18.16,-5.81 24.45,-13.83 0.77,-1.04 1.77,-2.03 2.98,-2.98 27,-20.19 59.6,-30.28 97.81,-30.28 38.21,0 70.93,10.09 98.2,30.28 19.15,17.77 27.18,51.1 24.07,100.01l-0.01 0z"/>
  </g>
  <g id="_2913255112032">
   <path class="fil0" d="M4796.88 925.45l0 1654.81c58.79,134.2 147.45,218.6 265.91,253.14l-68.63 154.86c-2.28,0 -4.5,-0.24 -6.75,-0.66 -48.92,-6.3 -94.48,-22.89 -136.66,-49.82 -89.32,-56.57 -164.73,-159.15 -226.22,-307.68 -2.22,-4.47 -3.82,-9.42 -4.72,-14.82l0 -1689.81 177.06 -0.01 0.01 -0.01zm613.33 0l3.38 0c48.92,6.75 94.69,23.36 137.32,49.85 18.86,12.12 37.04,26.22 54.53,42.41 65.99,60.14 123.22,148.56 171.69,265.24 2.7,6.75 4.47,13.47 5.37,20.19l0 1425.23c47.57,49.82 104.35,84.38 170.34,103.69l-70.01 154.83c-1.8,0 -3.39,-0.24 -4.72,-0.64 -14.39,-1.8 -28.28,-4.5 -41.75,-8.1 -26.93,-8.1 -52.28,-18.63 -76.07,-31.64 -11.67,-6.27 -22.67,-12.99 -32.99,-20.21 -17.52,20.66 -40.19,36.62 -68,47.84 -13.92,5.85 -29.61,10.32 -47.12,13.47 -3.15,0.45 -6.3,0.66 -9.42,0.66 -8.55,0.87 -17.52,1.35 -26.93,1.35l-147.46 0.01 -23.54 0 -12.15 0c-1.77,-0.48 -3.57,-0.9 -5.37,-1.35 -17.04,-3.15 -32.52,-7.62 -46.46,-13.49 -59.69,-23.76 -95.36,-70.01 -107.02,-138.64 -0.45,-0.9 -0.69,-1.8 -0.69,-2.73 -3.57,-13.02 -5.4,-26.93 -5.4,-41.75l0 -1175.5c0,-20.19 3.84,-39.05 11.48,-56.54l0 -5.37c17.94,-76.76 70.21,-121.21 156.85,-133.32 9.87,-1.8 19.76,-2.7 29.63,-2.7l179.73 0 0 -82.81c-58.79,-135.55 -147.66,-220.82 -266.6,-255.85l68 -154.15 3.36 0 0 0.02 0.02 0zm-1781.38 105.02c17.07,-16.59 37.25,-24.91 60.59,-24.91 23.79,0 44,8.31 60.59,24.91 16.62,16.62 24.92,36.8 24.92,60.62 0,23.34 -8.31,43.29 -24.92,59.89 -16.59,17.07 -36.8,25.59 -60.59,25.59 -23.34,0 -43.52,-8.52 -60.59,-25.59 -16.62,-16.62 -24.92,-36.56 -24.92,-59.89 0.02,-23.82 8.33,-44.01 24.92,-60.62l0 0zm409.36 -105.02l88.85 0 2.04 0 86.17 0 0 1650.07c58.79,135.55 147.88,220.82 267.26,255.85l-68.66 155.5c-2.25,-0.45 -4.5,-0.85 -6.72,-1.32 -48.92,-6.3 -94.72,-22.91 -137.38,-49.85 -89.3,-56.54 -164.49,-158.88 -225.53,-307 -3.12,-6.75 -5.13,-13.69 -6.03,-20.88l-0.01 -1682.37 0.01 0zm-256.55 2062.77l-177.72 0 0 -1640.71 177.72 0.01 0 1640.7zm1629.26 -1386.84c-2.25,5.34 -4.27,11.22 -6.05,17.46l0 1170.09c0,4.02 0.9,8.1 2.7,12.14l0 2.67c0,3.6 2.01,6.54 6.05,8.76l14.79 0.01 147.46 0c17.94,0 27.83,-8.97 29.61,-26.93l0 -1190.28 -177.07 0c-5.85,1.8 -9.87,2.7 -12.12,2.7 -3.62,-0.03 -5.37,1.11 -5.37,3.38l0 0zm1653.47 -675.93l0 1714.74 0 4.02 0 1.38c0,12.12 -2.04,23.97 -6.05,35.68 -30.98,74.06 -70.93,138.01 -119.8,191.88 -40.4,45.8 -87.1,84.16 -140.04,115.15l-0.7 -0.01c-52.07,-30.98 -98.48,-69.33 -139.36,-115.15 -48.47,-53.87 -88.4,-117.82 -119.83,-191.88 -5.37,-13.89 -7.17,-27.6 -5.37,-41.06l0 -765.34 0 -949.4 177.06 0 0 1703.28c25.59,60.59 54.98,110.65 88.19,150.15 33.66,-39.5 63.29,-89.56 88.85,-150.15l0 -1703.28 177.06 0 -0.01 -0.01zm282.09 105.02c16.59,-16.59 36.8,-24.91 60.56,-24.91 23.34,0 43.29,8.31 59.89,24.91 17.09,16.62 25.61,36.8 25.61,60.62 0,23.34 -8.52,43.29 -25.61,59.89 -16.62,17.07 -36.56,25.59 -59.89,25.59 -23.76,0 -43.97,-8.52 -60.56,-25.59 -16.62,-16.62 -24.92,-36.56 -24.92,-59.89 -0.03,-23.82 8.31,-44.01 24.92,-60.62l0 0zm147.42 1957.75l-176.37 0 0 -1640.71 176.37 0.01 0 1640.7zm1310.73 -2062.77l177.09 0 0 1802.24c47.57,49.82 104.14,84.19 169.67,103.03l-70.01 155.52c-1.8,-0.48 -3.41,-0.9 -4.76,-1.38 -14.37,-1.77 -28.23,-4.23 -41.72,-7.38 -26.91,-8.52 -52.28,-19.1 -76.07,-31.64 -11.64,-6.27 -22.65,-13.23 -32.97,-20.88 -17.49,21.11 -40.19,37.25 -67.97,48.47 -13.94,5.4 -29.66,9.87 -47.15,13.47 -3.15,0 -6.27,0.26 -9.42,0.69 -6.27,0.45 -12.78,0.66 -19.5,0.66l-189.85 0c-2.3,0 -4.07,-0.24 -5.4,-0.66 -17.52,-3.15 -33.26,-7.62 -47.12,-13.47 -55.67,-22.46 -90.43,-63.95 -104.35,-124.54 -0.9,-4.5 -1.77,-9.26 -2.7,-14.16 -0.48,-0.9 -0.69,-1.8 -0.69,-2.7 -2.25,-9 -3.78,-18.18 -4.68,-27.62 -0.48,-4.92 -0.69,-9.6 -0.69,-14.1l0.69 -1143.13c-0.48,-5.4 -0.48,-10.8 0,-16.17l-0.69 -16.82c0,-4.05 0.24,-8.12 0.69,-12.12l0 -677.31 176.35 0.01 0 1862.19c0,1.75 0.24,3.57 0.69,5.34 0.45,2.25 1.35,4.52 2.7,6.75l0 2.73c0,4.02 1.8,6.93 5.4,8.76l14.78 0 147.45 0c17.94,0 27.83,-8.76 29.63,-26.27l0 -1767.92c0.45,0 0.61,0.26 0.61,0.69l0.01 -92.27 -0.03 0 0.01 -0.01zm1541.07 675.93c-1.8,5.34 -3.6,11.22 -5.42,17.46l0 1170.09c0,4.02 0.9,8.1 2.75,12.14l0 2.67c0,3.6 1.75,6.54 5.37,8.76l14.84 0.01 147.42 0c17.97,0 28.02,-8.97 30.28,-26.93l0 -1190.28 -177.71 0c-5.87,1.8 -9.66,2.7 -11.48,2.7 -4.08,-0.03 -6.05,1.11 -6.05,3.38l0 0zm-72.05 -521.78l68 -154.15 3.38 0 3.36 0c48.92,6.75 94.72,23.36 137.32,49.85 18.86,12.12 37.25,26.22 55.22,42.41 65.54,60.14 122.53,148.56 171,265.24 3.1,6.75 5.13,13.47 6.05,20.19l0 1425.23c47.12,49.82 103.66,84.38 169.67,103.69l-70.04 154.83c-1.77,0 -3.33,-0.24 -4.74,-0.64 -13.86,-1.8 -27.57,-4.5 -41.04,-8.1 -27.36,-8.1 -52.97,-18.63 -76.76,-31.64 -11.22,-6.27 -22.23,-12.99 -32.97,-20.21 -17.52,20.66 -40.19,36.62 -67.97,47.84 -13.94,5.85 -29.4,10.32 -46.46,13.47 -3.62,0.45 -6.99,0.66 -10.13,0.66 -8.52,0.87 -17.49,1.35 -26.91,1.35l-147.41 0.01 -22.94 0 -12.09 0c-2.25,-0.48 -4.05,-0.9 -5.34,-1.35 -17.52,-3.15 -33.26,-7.62 -47.15,-13.49 -59.69,-23.76 -95.36,-70.01 -107.05,-138.64 -0.48,-0.9 -0.66,-1.8 -0.66,-2.73 -3.6,-13.02 -5.4,-26.93 -5.4,-41.75l-0.01 -1175.5c0,-20.19 4.02,-39.05 12.12,-56.54l0 -5.37c17.52,-76.76 69.56,-121.21 156.21,-133.32 9.84,-1.8 19.74,-2.7 29.61,-2.7l180.42 0 0 -82.81c-59.24,-135.53 -148.33,-220.8 -267.31,-255.82l0 0 0.02 -0.01zm-2183.92 -154.13c3.12,0 6.48,0.69 10.08,2.01 46.67,7.17 83.48,24.24 110.38,51.2 7.67,8.07 14.66,17.07 20.9,26.93l-136.66 136c-3.18,-2.25 -6.27,-4.27 -9.42,-6.05 -23.34,-15.72 -51.83,-26.93 -85.49,-33.68 -3.6,0.5 -6.72,0.5 -9.39,0 -58.39,1.8 -93.86,22.25 -106.39,61.28l0 1586.12c12.57,39.5 48,60.11 106.39,61.97 2.7,-0.45 5.82,-0.45 9.39,0 33.66,-6.75 62.18,-17.97 85.49,-33.68 0.9,-0.87 1.77,-1.56 2.7,-1.98 2.25,-1.38 4.47,-2.91 6.75,-4.76l136.66 136.68c-2.7,4.05 -5.37,8.1 -8.1,12.09 -4.05,4.97 -8.28,9.68 -12.81,14.16 -26.91,27.38 -63.71,44.45 -110.38,51.17 -3.6,1.38 -6.96,2.51 -10.08,3.39l-190.55 -0.01c-61.04,-3.62 -107.47,-21.78 -139.33,-54.56 -27.9,-28.28 -44.69,-67.1 -50.51,-116.47 -1.35,-10.74 -2.22,-21.72 -2.7,-32.94l0 -1656.19c2.25,-65.54 19.98,-115.31 53.21,-149.44 31.86,-32.33 78.29,-50.06 139.33,-53.21 4.97,-0.45 9.9,-0.66 14.84,-0.66l150.13 0.01 20.87 0c1.3,-0.06 2.86,0.18 4.69,0.63l0 0 0 -0.01zm1458.85 0l6.05 0 171.67 0c4,0 8.73,0.9 14.1,2.73 90.7,13.86 143.88,64.85 159.57,152.8 1.8,14.39 2.73,28.26 2.73,41.72l0 1865.55 -177.09 0 0 -1862.19 0 -12.09 0 -2.7c-1.8,-4.05 -4.68,-6.96 -8.73,-8.76l-12.12 0 -147.45 0c-19.29,0 -30.08,9.66 -32.31,28.95l0 1856.79 -177.09 0 0 -1859.47c4.12,-131.52 70.96,-199.28 200.66,-203.34l0 0 0.01 0.01zm-6197.75 1720.11c0,12.12 -2.01,23.97 -6.05,35.68 -31.41,74.06 -71.36,138.01 -119.83,191.88 -40.85,45.8 -87.52,84.16 -140.04,115.15 -52.94,-30.98 -99.62,-69.33 -140.02,-115.15 -48.92,-53.87 -88.87,-117.82 -119.83,-191.88 -5.85,-13.89 -7.65,-27.6 -5.4,-41.06l0 -1715.41 177.06 -0.01 0 1703.94c25.59,60.59 54.98,110.65 88.19,150.15 33.68,-39.5 63.31,-89.56 88.87,-150.15l0 -1703.94 177.06 0 0 1715.41 0 4.02 0 1.38 -0.01 -0.01z"/>
  </g>
  <path class="fil0" d="M9525.02 833.91c2.25,-19.29 20.61,-35 55.22,-47.12 35,-12.57 67.76,-12.57 98.29,0 30.03,12.57 45.75,21.33 47.1,26.24l0 3.39 0 12.12 0 18.84 177.05 -0.02 0 -22.23c0,-13.47 -0.87,-27.36 -2.7,-41.72 -15.72,-88.42 -68.9,-139.38 -159.57,-152.85 -5.37,-2.22 -10.08,-3.36 -14.14,-3.36l-171.63 0 -6.05 0c-129.73,4.5 -196.59,72.5 -200.63,203.99l0 16.17 177.06 0 0 -13.46 0 0.01z"/>
  <path class="fil0" d="M10992.31 3831.21c-20.48,38.82 -40.3,67.81 -59.5,87.05 -15.04,15 -30.69,25.03 -46.96,30.06 -16.3,5 -42.6,7.51 -78.9,7.51l-107.7 0c-17.54,0 -29.42,-1.69 -35.72,-5 -6.22,-3.78 -10.64,-8.55 -13.15,-14.42 -2.51,-6.67 -3.76,-24.01 -3.76,-51.96l0 -210.4 139.66 0c26.72,0 46.54,3.31 59.48,10 12.91,6.24 22.33,14.82 28.18,25.69 3.78,8.76 7.88,28.6 12.54,59.5l17.48 0.01 0 -221.09 -17.49 0c-1.69,35.9 -10.66,61.15 -26.99,75.78 -12.51,10.85 -36.91,16.27 -73.24,16.27l-139.64 0 0 -252.38 174.1 0c32.15,0 54.48,2.51 67.02,7.51 15.4,6.67 27.33,16.06 35.68,28.18 7.51,12.91 14.84,36.09 21.93,69.51l17.54 0 -6.91 -139.67 -490.35 0 0 17.58 21.93 0c26.33,0 45.11,6.27 56.33,18.76 8.36,9.6 12.54,34.69 12.54,75.17l0 413.31c0,30.89 -1.64,51.57 -4.97,62.02 -3.84,9.58 -10.87,16.91 -21.33,21.93 -12.91,7.46 -27.12,11.24 -42.57,11.24l-21.93 0 0 16.91 490.35 -0.01 55.12 -159.04 -18.75 0 -0.02 -0.02z"/>
  <g id="_2913255112416">
   <path class="fil0" d="M9217.68 3940.15c25.88,20.08 61.6,39.24 107.08,57.65 32.15,31.3 70.14,61.17 114.01,89.54 43.39,27.97 89.97,49.9 139.57,65.78 49.29,15.85 95.44,24.39 138.4,25.66l0 -14.39c-47.12,-4.18 -89.27,-19.26 -126.44,-45.11 -37.16,-25.85 -71.65,-66.38 -103.35,-121.47 69.72,-21.33 126.1,-61.2 169.1,-119.62 43.02,-59.27 64.51,-127.74 64.51,-205.4 0,-96.47 -30.08,-175.97 -90.2,-238.62 -61.36,-63.42 -133.61,-95.17 -216.65,-95.17 -88.11,0 -163.01,31.51 -224.82,94.56 -61.38,63.02 -92.08,142.15 -92.08,237.33 0,60.11 10.66,112.53 31.96,157.19 20.82,43.87 50.51,81.2 88.9,112.08l0 0 0.01 -0.01zm52.65 -504.11c34.61,-40.48 80.3,-60.72 137.13,-60.72 37.12,0 70.51,9.6 100.17,28.8 29.21,18.79 53.01,48.24 71.38,88.31 22.54,51.75 33.79,115.83 33.79,192.25 0,98.93 -21.09,173.88 -63.24,224.82 -35.48,42.57 -82.87,63.9 -142.13,63.9 -56.81,0 -102.29,-21.33 -136.55,-63.9 -44.21,-56.38 -66.38,-135.92 -66.38,-238.6 0,-105.19 21.93,-183.45 65.83,-234.86z"/>
  </g>
  <path class="fil0" d="M9038.57 3973.36l-22.54 0c-15.04,0 -29.47,-3.76 -43.23,-11.27 -10.03,-5.85 -16.51,-12.51 -19.39,-20.03 -4.15,-10.45 -6.27,-31.72 -6.27,-63.9l0 -411.43c0,-38.39 4,-62.63 11.91,-72.63 11.69,-15.45 30.69,-23.18 56.99,-23.18l22.53 0.01 0 -17.54 -272.39 -0.01 0 17.54 21.92 0.01c15.45,0 30.06,3.76 43.82,11.27 9.58,5.85 15.88,12.73 18.81,20.66 4.13,10.03 6.24,31.3 6.24,63.87l0 411.43c0,37.99 -3.76,62.02 -11.3,72.05 -12.12,15.43 -31.34,23.15 -57.6,23.15l-21.9 0 0 16.93 272.38 0 0 -16.93 0.03 0 -0.01 0z"/>
  <path class="fil0" d="M8220.75 3434.79c11.64,-17.09 25.69,-28.6 41.94,-34.45 12.54,-4.18 33.63,-6.24 63.26,-6.24l76.41 -0.01 0 485.93c0,35.9 -3.33,58.87 -10.03,68.9 -11.27,16.27 -30.27,24.46 -56.99,24.46l-23.17 0 0 16.88 270.59 0 0 -16.88 -22.6 0c-24.61,0 -42.76,-6.67 -54.45,-20.08 -8.73,-9.58 -13.12,-34 -13.12,-73.26l0 -485.93 90.17 -0.01c25.88,0 47.1,4.15 63.84,12.51 15.45,8.33 28.39,21.72 38.84,40.08 5.45,11.72 10.03,30.51 13.76,56.36l17.54 0.01 -6.91 -149.65 -519.77 0 -7.49 149.65 17.58 0c2.01,-29.18 8.89,-51.96 20.61,-68.26l-0.01 -0.01z"/>
  <path class="fil0" d="M7541.89 3389.09c10.48,12.51 15.72,38.39 15.72,77.66l0 247.97c0,77.23 4.97,129.65 15,157.19 14.98,40.51 40.48,72.84 76.41,97.08 36.33,24.21 89.35,36.33 159.07,36.33 63.42,0 113.96,-12.57 151.53,-37.6 36.78,-25.45 61.6,-55.54 74.51,-90.17 12.14,-35.9 18.18,-85.59 18.18,-149.03l0 -258c0,-35.48 3.6,-58.02 10.64,-67.67 13.38,-21.27 32.57,-31.94 57.63,-31.94l23.76 0 0 -17.54 -225.45 0 0 17.54 23.81 0c24.18,0 42.56,7.14 55.06,21.33 8.39,9.58 12.54,34.45 12.54,74.51l0 257.39c0,67.63 -5.85,115.86 -17.54,144.67 -12.09,27.97 -34.63,51.14 -67.65,69.48 -32.94,17.99 -70.3,26.96 -112.05,26.96 -32.54,0 -59.89,-5.64 -82.05,-16.91 -22.52,-12.12 -39.87,-26.93 -51.96,-44.48 -11.67,-17.97 -19.84,-42.78 -24.39,-74.51 -4.63,-32.15 -6.93,-60.54 -6.93,-85.17l0 -277.42c0,-35.88 3.97,-59.5 11.91,-70.78 11.27,-16.7 30.08,-25.06 56.36,-25.06l24.43 0.02 0 -17.54 -274.98 -0.01 0 17.54 23.85 0.01c24.21,-0.03 41.75,6.08 52.58,18.18l0.01 -0.03z"/>
  <g id="_2913255117648">
   <path class="fil0" d="M7110.42 4004.65c86.86,0 160.92,-31.72 222.33,-95.19 60.51,-63.87 90.78,-144.22 90.78,-241.09 0,-93.95 -30.06,-172.23 -90.2,-234.84 -60.93,-63.02 -132.5,-94.54 -214.76,-94.54 -83.45,0 -155.07,27.73 -214.76,83.29 -68.9,63.87 -103.32,146.29 -103.32,247.36 0,98.93 29.61,179.73 88.87,242.33 59.69,61.78 133.38,92.69 221.06,92.69l0 0 0 -0.01zm-138.4 -567.97c34.26,-42.17 79.93,-63.26 137.13,-63.26 60.96,0 108.56,21.3 142.8,63.84 42.56,53.46 63.84,134.67 63.84,243.63 0,100.62 -19.21,174.28 -57.6,221.03 -39.24,46.36 -88.87,69.53 -149.07,69.53 -55.93,0 -100.81,-21.3 -134.62,-63.9 -44.24,-55.93 -66.41,-135.89 -66.41,-239.83 0.03,-101.43 21.35,-178.45 63.93,-231.05l0 0.01z"/>
  </g>
  <g id="_2913255121488">
   <path class="fil0" d="M6628.69 3970.15c35.06,-13.36 62.39,-34.45 82.05,-63.26 20,-28.84 30.06,-59.29 30.06,-91.44 0,-41.72 -15.29,-77.02 -45.72,-105.83 -21.7,-20.45 -54.69,-35.51 -98.98,-45.06 38.05,-11.72 66.83,-30.11 86.44,-55.12 18.79,-25.9 28.2,-54.72 28.2,-86.47 0,-37.12 -12.36,-70.11 -36.96,-98.93 -24.63,-28.81 -60.54,-48.84 -107.71,-60.11 -30.9,-7.49 -71.81,-11.27 -122.74,-11.27l-275.54 -0.01 0 17.54 23.81 0.01c24.21,0 42.57,7.09 55.09,21.3 8.78,10 13.15,34.85 13.15,74.51l0 411.43c0,35.08 -3.55,58.45 -10.64,70.17 -11.69,16.7 -30.9,25 -57.6,25l-23.81 -0.01 0 16.93 300.57 0c71.83,0 125.22,-6.45 160.33,-19.39l0 0 0 0.01zm-278.68 -575.5c24.63,-7.14 52.81,-10.66 84.53,-10.66 58.02,0 102.29,13.15 132.77,39.45 30.48,26.72 45.72,58.66 45.72,95.81 0,23.79 -6.27,46.15 -18.79,67.02 -11.72,20.03 -29.02,35.06 -52.02,45.1 -23.36,10.03 -57.79,15 -103.32,15 -17.97,0 -34.24,-0.42 -48.84,-1.28 -15.04,-1.64 -28.36,-3.52 -40.06,-5.6l0.01 -244.83 0 -0.01zm0 549.17l0 -261.12c8.33,-1.67 19.39,-2.73 33.18,-3.15 14.21,-0.79 30.89,-1.24 50.09,-1.24 45.1,0 82.68,6.69 112.74,20.03 30.06,13.38 51.96,31.35 65.75,53.87 13.36,22.57 20.06,46.12 20.06,70.78 0,37.99 -14.82,69.74 -44.48,95.19 -29.66,25.46 -73.05,38.18 -130.25,38.18 -35.05,-0.01 -70.79,-4.19 -107.09,-12.55l0 0.01z"/>
  </g>
  <path class="fil0" d="M5898.68 3817.4l-15.66 -3.1c-16.27,39.66 -32.54,68.66 -48.84,87.05 -16.27,17.94 -34.45,30.67 -54.48,38.18 -19.21,7.12 -53.23,10.64 -102.07,10.64l-46.96 0c-40.48,0 -64.93,-1.48 -73.26,-4.39 -7.51,-3.33 -13.15,-8.33 -16.91,-15.04 -5.03,-9.6 -7.51,-27.33 -7.51,-53.23l0 -400.16c0,-37.99 2.49,-62 7.51,-72.02 5,-9.58 14.39,-17.97 28.18,-25.06 13.36,-6.27 36.96,-9.37 70.75,-9.37l0 -17.58 -288.06 0.01 0 17.58 23.82 0c23.79,0 41.94,7.12 54.45,21.3 8.36,9.58 12.54,34.45 12.54,74.51l0 410.79c0,35.9 -3.15,59.06 -9.39,69.51 -11.69,17.54 -30.89,26.3 -57.6,26.3l-23.82 -0.01 0 16.91 492.84 0 54.48 -172.83 -0.01 0.01z"/>
  <path class="fil0" d="M5308.14 3831.21l-18.78 0c-20.45,38.82 -40.48,67.81 -60.11,87.05 -14.61,15 -30.27,25.03 -46.96,30.06 -16.27,5 -42.36,7.51 -78.26,7.51l-108.35 0c-17.54,0 -29.45,-1.69 -35.69,-5 -5.85,-3.78 -10.03,-8.55 -12.54,-14.42 -2.49,-6.67 -3.76,-24.01 -3.76,-51.96l0 -210.4 139.64 0c26.72,0 46.36,3.31 58.87,10 13.36,6.24 22.75,14.82 28.2,25.69 4.15,8.76 8.55,28.6 13.12,59.5l17.55 0.01 0 -221.09 -17.54 0c-1.67,35.9 -10.85,61.15 -27.57,75.78 -12.09,10.85 -36.3,16.27 -72.63,16.27l-139.64 0 0 -252.38 174.09 0c31.72,0 53.84,2.51 66.41,7.51 15.82,6.67 27.73,16.06 35.68,28.18 7.91,12.91 15.24,36.09 21.93,69.51l18.15 0 -6.91 -139.67 -490.95 0 0 17.58 22.54 0c26.3,0 45.32,6.27 57.02,18.76 7.91,9.6 11.88,34.69 11.88,75.17l0 413.31c0,30.89 -1.88,51.57 -5.64,62.02 -3.33,9.58 -10.24,16.91 -20.66,21.93 -13.34,7.46 -27.57,11.24 -42.6,11.24l-22.54 0 0 16.91 490.96 -0.01 55.12 -159.04 -0.03 -0.02z"/>
  <path class="fil0" d="M4221.01 3434.79c11.69,-17.09 25.66,-28.6 41.96,-34.45 12.51,-4.18 33.63,-6.24 63.26,-6.24l76.39 -0.01 0 485.93c0,35.9 -3.33,58.87 -10.03,68.9 -11.27,16.27 -30.27,24.46 -56.96,24.46l-23.18 0 0 16.88 270.51 0 0 -16.88 -22.52 0c-24.63,0 -42.81,-6.67 -54.48,-20.08 -8.78,-9.58 -13.18,-34 -13.18,-73.26l0 -485.93 90.18 -0.01c25.9,0 47.2,4.15 63.9,12.51 15.45,8.33 28.39,21.72 38.84,40.08 5.4,11.72 10,30.51 13.76,56.36l17.54 0.01 -6.91 -149.65 -519.74 0 -7.54 149.65 17.54 0c2.11,-29.18 8.97,-51.96 20.66,-68.26l0 -0.01z"/>
  <path class="fil0" d="M3056.24 3973.36l-23.16 0c-15.05,0 -29.45,-3.76 -43.23,-11.27 -9.6,-5.85 -15.88,-12.51 -18.79,-20.03 -4.6,-10.45 -6.88,-31.72 -6.88,-63.9l0 -194.1 296.2 0 0 194.1c0,37.99 -3.97,62.02 -11.91,72.05 -11.69,15.43 -30.69,23.15 -56.96,23.15l-22.55 0 0 16.93 273.02 0 0 -16.93 -23.18 0c-15.04,0 -29.42,-3.76 -43.21,-11.27 -9.6,-5.85 -15.85,-12.51 -18.79,-20.03 -4.18,-10.45 -6.24,-31.72 -6.24,-63.9l0 -410.79c0,-31.72 1.85,-52.58 5.6,-62.6 3.36,-10.45 10.03,-18.18 20.06,-23.18 13.36,-7.12 27.54,-10.64 42.57,-10.64l23.18 0 0 -17.54 -273.02 0 0 17.54 22.55 0c15.04,0 29.42,3.76 43.18,11.27 9.63,5.85 16.09,12.73 19.42,20.66 4.18,10.03 6.27,31.49 6.27,64.51l0 182.27 -296.2 0.01 0 -182.27c0,-31.72 2.09,-52.58 6.27,-62.6 3.33,-10.45 9.79,-18.18 19.39,-23.18 13.78,-7.12 28.18,-10.64 43.23,-10.64l23.16 0 0 -17.54 -273.66 0 0 17.54 23.17 0c15.04,0 29.42,3.76 43.21,11.27 9.6,5.85 16.06,12.73 19.42,20.66 3.76,10.03 5.64,31.49 5.64,64.51l0 410.79c0,37.99 -3.57,62.02 -10.66,72.05 -12.51,15.43 -31.72,23.15 -57.6,23.15l-23.18 0 0 16.93 273.66 0 0 -16.97 0.02 -0.01z"/>
  <g id="_2913255122400">
   <path class="fil0" d="M3803.96 4004.65c86.84,0 160.95,-31.72 222.3,-95.19 60.96,-63.87 91.44,-144.22 91.44,-241.09 0,-93.95 -30.27,-172.23 -90.81,-234.84 -60.96,-63.02 -132.73,-94.54 -215.42,-94.54 -83.09,0 -154.46,27.73 -214.15,83.29 -68.9,63.87 -103.32,146.29 -103.32,247.36 0,98.93 29.63,179.73 88.9,242.33 59.72,61.78 133.4,92.69 221.06,92.69l0 0 0 -0.01zm-138.39 -567.97c34.21,-42.17 79.93,-63.26 137.11,-63.26 60.56,0 107.92,21.3 142.15,63.84 43.44,53.46 65.14,134.67 65.14,243.63 0,100.62 -19.42,174.28 -58.23,221.03 -39.27,46.36 -88.74,69.53 -148.4,69.53 -55.96,0 -101.04,-21.3 -135.27,-63.9 -44.66,-55.93 -66.99,-135.89 -66.99,-239.83 -0.01,-101.43 21.47,-178.45 64.49,-231.05l0 0.01z"/>
  </g>
  <path class="fil0" d="M9939.71 3401.79c11.27,-16.7 30.06,-25.06 56.36,-25.06l24.42 0.01 0 -17.52 -274.95 0 0 17.52 23.78 0c24.24,0 41.75,6.05 52.6,18.2 10.48,12.54 15.69,38.39 15.69,77.66l0 247.97c0,77.23 5,129.62 15.04,157.19 14.98,40.48 40.48,72.84 76.39,97.05 36.33,24.24 89.35,36.33 159.09,36.33 63.42,0 113.98,-12.54 151.53,-37.54 36.75,-25.48 61.6,-55.57 74.51,-90.2 12.12,-35.9 18.18,-85.59 18.18,-149.03l0 -258c0,-35.53 3.57,-58.02 10.64,-67.67 13.38,-21.27 32.54,-31.94 57.63,-31.94l23.77 0 0 -17.52 -225.45 0 0 17.52 23.81 0c24.18,0 42.56,7.14 55.06,21.35 8.36,9.55 12.57,34.42 12.57,74.48l0 257.39c0,67.63 -5.87,115.86 -17.54,144.67 -12.12,27.97 -34.69,51.14 -67.65,69.51 -32.97,17.97 -70.35,26.93 -112.08,26.93 -32.54,0 -59.89,-5.64 -82.02,-16.91 -22.57,-12.12 -39.87,-26.93 -51.99,-44.48 -11.67,-17.97 -19.84,-42.81 -24.46,-74.51 -4.63,-32.15 -6.91,-60.54 -6.91,-85.17l0 -277.42c0.05,-35.89 4.07,-59.52 11.98,-70.79l0 -0.02z"/>
 </g>
</svg>
