<?xml version="1.0" encoding="UTF-8"?>
<!DOCTYPE svg PUBLIC "-//W3C//DTD SVG 1.1//EN" "http://www.w3.org/Graphics/SVG/1.1/DTD/svg11.dtd">
<!-- Creator: CorelDRAW -->
<svg xmlns="http://www.w3.org/2000/svg" xml:space="preserve" width="110.111mm" height="41.7878mm" version="1.1" style="shape-rendering:geometricPrecision; text-rendering:geometricPrecision; image-rendering:optimizeQuality; fill-rule:evenodd; clip-rule:evenodd"
viewBox="0 0 31411.8 11920.99"
 xmlns:xlink="http://www.w3.org/1999/xlink"
 xmlns:xodm="http://www.corel.com/coreldraw/odm/2003">
 <defs>
  <style type="text/css">
   <![CDATA[
    .fil0 {fill:black}
    .fil2 {fill:#BDAC97}
    .fil1 {fill:white}
   ]]>
  </style>
 </defs>
 <g id="Capa_x0020_1">
  <metadata id="CorelCorpID_0Corel-Layer"/>
  <g id="_1981916815600">
   <g id="_2912981879456">
    <path class="fil0" d="M4430.4 3439.92c-67.44,-51.92 -140.38,-92.51 -218.89,-121.78l0 -187.51 0 -10.36c0,-247.79 -87.44,-459.15 -262.42,-634.11 -160.92,-160.92 -352.74,-248.02 -575.43,-261.34 -19.43,-1.23 -39.25,-1.85 -59.42,-1.85l-149.11 0 -125.86 0c-32.01,-213.07 9.96,-488.68 125.86,-826.75 9.1,-27.1 18.83,-54.17 29.16,-81.22 0.74,-2.23 1.48,-3.94 2.2,-5.19 86.18,-274.86 144.83,-510.81 176.07,-707.94l0 -5.16c0.71,-2.14 1.11,-3.79 1.14,-4.96l0 -0.2c31.01,-212.59 29.87,-383.38 -3.34,-512.32 -6.13,-25.82 -20.03,-46.01 -41.68,-60.54 -22.17,-15.26 -46.01,-21.17 -71.63,-17.72 -26.56,2.71 -48.44,14.15 -65.7,34.35 -17.49,19.43 -26.19,42.31 -26.19,68.64l0 469.88c-29.04,186.51 -84.53,409.57 -166.46,669.2 -0.77,1.48 -1.17,2.94 -1.17,4.42 -145.63,396.9 -202.49,722.12 -170.51,975.52l-970.36 0c32.46,-254.89 -24.85,-581.56 -171.99,-979.95 -81.96,-260.11 -137.82,-483.51 -167.6,-670.31l0 -468.76c0,-26.3 -8.62,-49.21 -25.82,-68.64 -17.49,-20.17 -39.4,-31.61 -65.73,-34.35 -25.59,-3.42 -49.21,2.45 -70.86,17.72 -22.14,14.52 -36.4,34.72 -42.82,60.54 -33.21,128.94 -34.18,299.34 -2.91,511.21l0 0.2c0,1.14 0.37,2.45 1.08,3.88l0 2.94 0 1.11 1.11 2.23c30.52,197.1 89.43,433.47 176.81,709.05 0,1.23 0.34,2.97 1.08,5.19 9.61,26.3 18.97,52.4 28.07,78.22 117.39,339.33 159.7,615.91 126.95,829.75l-126.98 -0.03 -148.71 0c-20.2,0 -40.02,0.63 -59.42,1.85 -222.71,13.32 -414.28,100.42 -574.74,261.34l-1.08 0c-174.22,174.96 -261.31,386.35 -261.31,634.14l0 10.33 0 187.51c-78.51,29.27 -151.71,69.86 -219.63,121.81 -170.02,130.4 -254.07,288.01 -252.1,472.79 -1.97,185.31 82.07,343.53 252.1,474.7l0 -1.11c155.5,121.56 344.01,183.32 565.47,185.29l595.37 1484.91 0 5187.03c0,28.3 10.44,52.92 31.38,73.86 19.91,20.14 44.16,30.24 72.72,30.24 28.56,0 53.15,-10.1 73.8,-30.24 20.2,-20.91 30.27,-45.56 30.27,-73.86l0 -4951.91c75.06,51.43 165.6,78.14 271.67,80.08 25.1,0.77 49.47,0.14 73.09,-1.83 -6.39,58.28 4.31,108.26 32.09,149.85 42.33,95.71 154.79,149.11 337.39,160.21l12.55 0c182.58,-11.1 294.97,-64.5 337.34,-160.21 27.07,-41.59 37.57,-91.57 31.38,-149.85 23.59,1.97 48.21,2.6 73.83,1.83 105.58,-1.94 195.73,-28.67 270.55,-80.08l0 4951.91c0,28.3 10.44,52.92 31.38,73.86 20.17,20.14 44.39,30.24 72.72,30.24 28.56,0 53.29,-10.1 74.17,-30.24 19.94,-20.91 29.93,-45.56 29.93,-73.86l0 -5187.03 596.82 -1484.91c220.75,-1.97 408.88,-63.73 564.39,-185.29l0 1.11c170.02,-131.17 253.95,-289.38 251.73,-474.7 2.17,-184.77 -81.76,-342.39 -251.75,-472.79l0 0 -0.03 -0.03zm-3549.33 923.49l-53.15 0c-175.67,0 -325.3,-47.24 -448.82,-141.72 -111.71,-85.87 -168.68,-188.85 -170.91,-308.95 2.23,-119.33 59.19,-221.69 170.91,-307.1l0 -1.08c65.21,-49.98 137.45,-85.75 216.67,-107.41 5.42,-1.23 10.95,-2.97 16.63,-5.19l1.08 0.03c6.16,-2.74 12.41,-4.45 18.83,-5.16 2.71,-0.77 5.79,-1.48 9.21,-2.23 59.54,-14.52 121.7,-21.77 186.4,-21.77 176.19,0 325.81,47.24 448.85,141.72l0 1.11c111.68,85.38 168.54,187.77 170.51,307.07 -1.97,120.13 -58.82,223.08 -170.51,308.95 -109.77,83.41 -240.66,130.68 -392.74,141.75l-2.97 0 0 -0.03zm2183.26 1638.84c-21.65,29.04 -55.34,63.02 -101.1,101.87 -47.3,38.14 -106.24,57.97 -176.81,59.42 -70.89,1.48 -130.31,-14.75 -178.33,-48.72 -19.4,-14.78 -41.19,-21.77 -65.3,-21.02 -25.1,0.74 -46.61,9.44 -64.59,26.19 -18.69,16 -30.15,36.06 -34.32,60.16 -4.91,24.36 -1.11,47.24 11.44,68.67 41.56,75.8 57.23,132.77 46.87,170.88 -25.1,29.3 -78.62,46.64 -160.55,52.06 -81.93,-5.42 -135.31,-22.76 -160.18,-52.06 -11.07,-38.14 4.56,-95.08 46.87,-170.88 11.84,-21.42 15.63,-44.33 11.47,-68.67 -4.91,-24.11 -16.37,-44.16 -34.32,-60.16 -18.94,-16.75 -40.48,-25.48 -64.59,-26.19 -25.1,-0.74 -47.38,6.28 -66.81,21.02 -47.73,33.98 -106.66,50.21 -176.78,48.72 -70.86,-1.48 -130.31,-21.28 -178.3,-59.42 -45.76,-38.88 -78.99,-72.86 -99.65,-101.87 -7.65,-138.76 14.89,-233.9 67.55,-285.3 77.77,-57.6 171.14,-86.41 280.14,-86.41 106.78,0 198.69,27.84 275.72,83.44 12.55,10.36 25.73,20.68 39.48,31.01 22.42,17.49 47.73,24.13 76.05,19.94 28.53,-3.45 51.78,-16.6 69.72,-39.51 2.25,-2.94 5.05,-5.76 8.5,-8.47 77.02,-57.6 170.02,-86.38 279.03,-86.38 109.03,0 202.37,28.78 280.17,86.38 54.6,50.66 77.48,145.8 68.61,285.33l0 0 0 -0.03zm145.8 -358.05c-23.62,-38.85 -53.52,-70.12 -89.75,-93.74 -111.68,-85.38 -246.65,-128.09 -404.89,-128.09 -143.69,0 -268.33,35.32 -373.88,105.92 -105.58,-70.61 -230.44,-105.92 -374.65,-105.92 -157.73,0 -292.81,42.71 -405.29,128.09l-0.71 1.11c-35.43,24.13 -64.59,56 -87.49,95.6l-439.61 -1093.29c138.79,-28.3 262.08,-83.79 369.86,-166.46 170.02,-131.17 253.95,-289.38 251.73,-474.7 2.23,-184.77 -81.45,-342.39 -250.98,-472.79l-0.74 0c-157.73,-123.52 -349.66,-185.29 -575.8,-185.29 -50.66,0 -100.02,3.79 -148,11.44l0 -135.48 0 -10.33c0,-190.96 67.07,-353.37 201.15,-487.22 133.88,-134.62 296.29,-201.92 487.25,-201.92l352.83 0c5.68,0.74 11.21,0.74 16.63,0l1207.68 0c5.68,0.74 11.21,0.74 16.6,0l352.14 0c190.71,0 353.48,67.3 488.36,201.92 133.85,133.85 200.78,296.26 200.78,487.22l0 10.33 0 135.48c-48.47,-7.65 -98.05,-11.44 -148.77,-11.44 -225.62,0 -417.56,61.76 -575.8,185.29 -170.02,130.4 -254.09,288.01 -252.1,472.79 -2,185.31 82.07,343.53 252.1,474.7 107.52,82.7 230.7,137.79 369.49,165.37l-438.12 1091.4zm1092.91 -1422.52c-123.52,94.48 -273.01,141.72 -448.48,141.72l-52.01 0 -3.34 0c-152.08,-11.04 -283.25,-58.31 -393.45,-141.72 -111.74,-85.87 -168.71,-188.85 -170.91,-308.95 2.2,-119.33 59.17,-221.69 170.91,-307.1l0 -1.08c123.5,-94.51 273.12,-141.75 448.79,-141.75 64.5,0 126.66,7.25 186.43,21.77 3.45,0.77 6.53,1.48 9.24,2.25 6.88,1.45 14.15,3.17 21.77,5.13l1.11 1.11c5.65,1.48 11.18,2.85 16.6,4.08 77.02,21.65 148.14,57.43 213.36,107.41l0 1.08c111.94,85.38 168.94,187.77 170.91,307.1 -2,120.1 -58.99,223.08 -170.94,308.95l0 0z"/>
   </g>
   <path class="fil1" d="M2715.5 5630.55c-109,0 -202.03,28.78 -279.03,86.38 -3.42,2.71 -6.25,5.53 -8.47,8.5 -17.97,22.85 -41.22,36.03 -69.78,39.48 -28.3,4.17 -53.63,-2.45 -76.03,-19.94 -13.75,-10.33 -26.96,-20.65 -39.51,-30.98 -77,-55.63 -168.91,-83.44 -275.72,-83.44 -109,0 -202.4,28.78 -280.14,86.38 -52.66,51.43 -75.2,146.55 -67.55,285.3 20.68,29.04 53.89,63.02 99.65,101.87 47.98,38.17 107.43,57.94 178.3,59.45 70.12,1.45 129.06,-14.78 176.78,-48.72 19.46,-14.78 41.74,-21.79 66.81,-21.05 24.13,0.74 45.64,9.47 64.59,26.22 17.97,16 29.41,36.06 34.32,60.14 4.17,24.36 0.4,47.27 -11.44,68.69 -42.33,75.8 -57.97,132.77 -46.9,170.88 24.85,29.3 78.28,46.64 160.21,52.03 81.93,-5.39 135.51,-22.74 160.55,-52.03 10.36,-38.11 -5.28,-95.08 -46.87,-170.88 -12.55,-21.4 -16.37,-44.3 -11.44,-68.69 4.17,-24.08 15.63,-44.13 34.32,-60.14 17.97,-16.75 39.45,-25.48 64.59,-26.22 24.11,-0.74 45.9,6.28 65.33,21.05 47.98,33.95 107.41,50.18 178.24,48.72 70.63,-1.51 129.57,-21.31 176.81,-59.45 45.76,-38.85 79.48,-72.83 101.13,-101.87 8.87,-139.5 -14.01,-234.61 -68.64,-285.3 -77.74,-57.54 -171.11,-86.38 -280.14,-86.38l0.03 0z"/>
   <path class="fil2" d="M3373.63 2224.83c-19.43,-1.23 -39.23,-1.85 -59.42,-1.85l-149.08 0 0 -826.81c9.1,-27.04 18.83,-54.15 29.16,-81.19 0.71,-2.2 1.45,-3.91 2.2,-5.19 86.18,-274.83 144.83,-510.84 176.1,-707.91l0 -5.19c0.68,-2.14 1.06,-3.79 1.08,-4.99l0 1633.14 -0.03 0 0 0zm-1856.57 -831.58l0 829.72 -148.74 0c-20.17,0 -40,0.63 -59.42,1.85l0 -1634.22c0.03,1.17 0.4,2.45 1.11,3.88l0 2.97 0 1.11 1.11 2.2c30.52,197.1 89.43,433.45 176.78,709.05 0,1.26 0.4,2.97 1.11,5.19 9.59,26.3 18.91,52.4 28.04,78.22l0 0.03z"/>
   <path class="fil2" d="M3064.33 6002.26c-21.65,29.01 -55.34,62.99 -101.13,101.87 -47.24,38.14 -106.18,57.94 -176.78,59.42 -70.86,1.48 -130.31,-14.75 -178.3,-48.72 -19.43,-14.78 -41.19,-21.77 -65.3,-21.02 -25.16,0.71 -46.64,9.47 -64.61,26.19 -18.69,16 -30.12,36.06 -34.32,60.16 -4.91,24.36 -1.11,47.27 11.44,68.67 41.59,75.8 57.2,132.77 46.87,170.88 -25.08,29.3 -78.62,46.64 -160.52,52.06 -81.93,-5.42 -135.33,-22.76 -160.18,-52.06 -11.1,-38.14 4.54,-95.08 46.84,-170.88 11.84,-21.4 15.63,-44.3 11.47,-68.67 -4.94,-24.11 -16.37,-44.16 -34.35,-60.16 -18.91,-16.72 -40.45,-25.48 -64.56,-26.19 -25.1,-0.74 -47.38,6.28 -66.81,21.02 -47.73,33.98 -106.69,50.21 -176.81,48.72 -70.86,-1.48 -130.31,-21.28 -178.27,-59.42 -45.79,-38.88 -78.99,-72.86 -99.67,-101.87 -7.62,-138.79 14.89,-233.9 67.55,-285.3 77.77,-57.6 171.14,-86.38 280.14,-86.38 106.81,0 198.69,27.79 275.75,83.41 12.55,10.33 25.7,20.65 39.51,31.01 22.37,17.49 47.73,24.11 76,19.91 28.56,-3.42 51.81,-16.57 69.75,-39.45 2.2,-2.97 5.05,-5.79 8.5,-8.5 77.02,-57.6 170.02,-86.38 279.03,-86.38 109,0 202.35,28.78 280.14,86.38 54.63,50.69 77.54,145.78 68.67,285.3l-0.03 0z"/>
  </g>
 </g>
 <g id="Capa_x0020_1_1">
  <metadata id="CorelCorpID_1Corel-Layer"/>
  <g id="_2913255112032">
   <path class="fil1" d="M13684.27 2640.07l0 4720.75c167.71,382.84 420.64,623.61 758.57,722.14l-195.78 441.78c-6.5,0 -12.84,-0.68 -19.26,-1.88 -139.56,-17.97 -269.53,-65.3 -389.86,-142.12 -254.81,-161.38 -469.93,-454.01 -645.35,-877.73 -6.33,-12.75 -10.9,-26.87 -13.46,-42.28l0 -4820.6 505.11 -0.03 0.03 -0.03zm1749.67 0l9.64 0c139.56,19.26 270.13,66.64 391.74,142.21 53.8,34.58 105.67,74.8 155.56,120.98 188.25,171.56 351.52,423.8 489.79,756.66 7.7,19.26 12.75,38.43 15.32,57.6l0 4065.82c135.71,142.12 297.68,240.71 485.94,295.8l-199.72 441.69c-5.13,0 -9.67,-0.68 -13.46,-1.83 -41.05,-5.13 -80.68,-12.84 -119.1,-23.11 -76.82,-23.11 -149.14,-53.15 -217.01,-90.26 -33.29,-17.89 -64.67,-37.06 -94.11,-57.65 -49.98,58.94 -114.65,104.47 -193.99,136.48 -39.71,16.69 -84.47,29.44 -134.42,38.43 -8.99,1.28 -17.97,1.88 -26.87,1.88 -24.39,2.48 -49.98,3.85 -76.82,3.85l-420.67 0.03 -67.15 0 -34.66 0c-5.05,-1.37 -10.18,-2.57 -15.32,-3.85 -48.61,-8.99 -92.77,-21.74 -132.54,-38.48 -170.28,-67.78 -272.04,-199.72 -305.3,-395.5 -1.28,-2.57 -1.97,-5.13 -1.97,-7.79 -10.18,-37.14 -15.4,-76.82 -15.4,-119.1l0 -3353.4c0,-57.6 10.95,-111.4 32.75,-161.29l0 -15.32c51.18,-218.98 200.29,-345.78 447.45,-380.33 28.16,-5.13 56.37,-7.7 84.53,-7.7l512.72 0 0 -236.24c-167.71,-386.69 -421.24,-629.94 -760.54,-729.87l193.99 -439.75 9.59 0 0 0.06 0.06 0zm-5081.82 299.6c48.7,-47.33 106.26,-71.06 172.85,-71.06 67.87,0 125.52,23.71 172.85,71.06 47.41,47.41 71.09,104.98 71.09,172.93 0,66.58 -23.71,123.5 -71.09,170.85 -47.33,48.7 -104.98,73 -172.85,73 -66.58,0 -124.15,-24.31 -172.85,-73 -47.41,-47.41 -71.09,-104.3 -71.09,-170.85 0.06,-67.95 23.76,-125.55 71.09,-172.93l0 0zm1167.8 -299.6l253.47 0 5.82 0 245.82 0 0 4707.23c167.71,386.69 421.86,629.94 762.42,729.87l-195.87 443.6c-6.42,-1.28 -12.84,-2.42 -19.17,-3.77 -139.56,-17.97 -270.21,-65.36 -391.91,-142.21 -254.75,-161.29 -469.25,-453.24 -643.38,-875.79 -8.9,-19.26 -14.63,-39.05 -17.2,-59.57l-0.03 -4799.37 0.03 0zm-731.87 5884.56l-506.99 0 0 -4680.53 506.99 0.03 0 4680.5zm4647.86 -3956.3c-6.42,15.23 -12.18,32.01 -17.26,49.81l0 3337.97c0,11.47 2.57,23.11 7.7,34.63l0 7.62c0,10.27 5.73,18.66 17.26,24.99l42.19 0.03 420.67 0c51.18,0 79.39,-25.59 84.47,-76.82l0 -3395.56 -505.14 0c-16.69,5.13 -28.16,7.7 -34.58,7.7 -10.33,-0.09 -15.32,3.17 -15.32,9.64l0 0zm4716.93 -1928.26l0 4891.71 0 11.47 0 3.94c0,34.58 -5.82,68.38 -17.26,101.79 -88.38,211.27 -202.35,393.71 -341.76,547.38 -115.25,130.66 -248.47,240.09 -399.5,328.49l-2 -0.03c-148.54,-88.38 -280.94,-197.78 -397.56,-328.49 -138.27,-153.68 -252.18,-336.11 -341.84,-547.38 -15.32,-39.62 -20.45,-78.74 -15.32,-117.13l0 -4891.71 505.11 0 0 4859.02c73,172.85 156.84,315.66 251.58,428.34 96.02,-112.68 180.55,-255.49 253.47,-428.34l0 -4859.02 505.11 0 -0.03 -0.03zm804.73 299.6c47.33,-47.33 104.98,-71.06 172.76,-71.06 66.58,0 123.5,23.71 170.85,71.06 48.75,47.41 73.06,104.98 73.06,172.93 0,66.58 -24.31,123.5 -73.06,170.85 -47.41,48.7 -104.3,73 -170.85,73 -67.78,0 -125.44,-24.31 -172.76,-73 -47.41,-47.41 -71.09,-104.3 -71.09,-170.85 -0.09,-67.95 23.71,-125.55 71.09,-172.93l0 0zm420.55 5584.96l-503.14 0 0 -4680.53 503.14 0.03 0 4680.5zm3739.18 -5884.56l505.19 0 0 5141.33c135.71,142.12 297.08,240.17 484.03,293.92l-199.72 443.66c-5.13,-1.37 -9.73,-2.57 -13.58,-3.94 -40.99,-5.05 -80.53,-12.07 -119.02,-21.05 -76.77,-24.31 -149.14,-54.49 -217.01,-90.26 -33.21,-17.89 -64.61,-37.74 -94.05,-59.57 -49.89,60.22 -114.65,106.26 -193.9,138.27 -39.77,15.4 -84.61,28.16 -134.51,38.43 -8.99,0 -17.89,0.74 -26.87,1.97 -17.89,1.28 -36.46,1.88 -55.63,1.88l-541.59 0c-6.56,0 -11.61,-0.68 -15.4,-1.88 -49.98,-8.99 -94.88,-21.74 -134.42,-38.43 -158.81,-64.07 -257.97,-182.43 -297.68,-355.28 -2.57,-12.84 -5.05,-26.42 -7.7,-40.39 -1.37,-2.57 -1.97,-5.13 -1.97,-7.7 -6.42,-25.67 -10.78,-51.86 -13.35,-78.79 -1.37,-14.04 -1.97,-27.39 -1.97,-40.22l1.97 -3261.06c-1.37,-15.4 -1.37,-30.81 0,-46.13l-1.97 -47.98c0,-11.55 0.68,-23.16 1.97,-34.58l0 -1932.19 503.08 0.03 0 5312.35c0,4.99 0.68,10.18 1.97,15.23 1.28,6.42 3.85,12.89 7.7,19.26l0 7.79c0,11.47 5.13,19.77 15.4,24.99l42.16 0 420.64 0c51.18,0 79.39,-24.99 84.53,-74.94l0 -5043.42c1.28,0 1.74,0.74 1.74,1.97l0.03 -263.22 -0.09 0 0.03 -0.03zm4396.28 1928.26c-5.13,15.23 -10.27,32.01 -15.46,49.81l0 3337.97c0,11.47 2.57,23.11 7.85,34.63l0 7.62c0,10.27 4.99,18.66 15.32,24.99l42.33 0.03 420.55 0c51.26,0 79.93,-25.59 86.38,-76.82l0 -3395.56 -506.96 0c-16.75,5.13 -27.56,7.7 -32.75,7.7 -11.64,-0.09 -17.26,3.17 -17.26,9.64l0 0zm-205.54 -1488.5l193.99 -439.75 9.64 0 9.59 0c139.56,19.26 270.21,66.64 391.74,142.21 53.8,34.58 106.26,74.8 157.53,120.98 186.97,171.56 349.55,423.8 487.82,756.66 8.84,19.26 14.63,38.43 17.26,57.6l0 4065.82c134.42,142.12 295.72,240.71 484.03,295.8l-199.81 441.69c-5.05,0 -9.5,-0.68 -13.52,-1.83 -39.54,-5.13 -78.65,-12.84 -117.08,-23.11 -78.05,-23.11 -151.11,-53.15 -218.98,-90.26 -32.01,-17.89 -63.42,-37.06 -94.05,-57.65 -49.98,58.94 -114.65,104.47 -193.9,136.48 -39.77,16.69 -83.87,29.44 -132.54,38.43 -10.33,1.28 -19.94,1.88 -28.9,1.88 -24.31,2.48 -49.89,3.85 -76.77,3.85l-420.52 0.03 -65.44 0 -34.49 0c-6.42,-1.37 -11.55,-2.57 -15.23,-3.85 -49.98,-8.99 -94.88,-21.74 -134.51,-38.48 -170.28,-67.78 -272.04,-199.72 -305.39,-395.5 -1.37,-2.57 -1.88,-5.13 -1.88,-7.79 -10.27,-37.14 -15.4,-76.82 -15.4,-119.1l-0.03 -3353.4c0,-57.6 11.47,-111.4 34.58,-161.29l0 -15.32c49.98,-218.98 198.44,-345.78 445.63,-380.33 28.07,-5.13 56.31,-7.7 84.47,-7.7l514.69 0 0 -236.24c-169,-386.63 -423.15,-629.89 -762.57,-729.79l0 0 0.06 -0.03zm-6230.17 -439.69c8.9,0 18.49,1.97 28.76,5.73 133.14,20.45 238.15,69.15 314.89,146.06 21.88,23.02 41.82,48.7 59.62,76.82l-389.86 387.97c-9.07,-6.42 -17.89,-12.18 -26.87,-17.26 -66.58,-44.85 -147.86,-76.82 -243.88,-96.08 -10.27,1.43 -19.17,1.43 -26.79,0 -166.57,5.13 -267.76,63.47 -303.5,174.82l0 4524.79c35.86,112.68 136.93,171.48 303.5,176.78 7.7,-1.28 16.6,-1.28 26.79,0 96.02,-19.26 177.38,-51.26 243.88,-96.08 2.57,-2.48 5.05,-4.45 7.7,-5.65 6.42,-3.94 12.75,-8.3 19.26,-13.58l389.86 389.91c-7.7,11.55 -15.32,23.11 -23.11,34.49 -11.55,14.18 -23.62,27.61 -36.54,40.39 -76.77,78.11 -181.75,126.8 -314.89,145.97 -10.27,3.94 -19.86,7.16 -28.76,9.67l-543.59 -0.03c-174.13,-10.33 -306.58,-62.13 -397.47,-155.65 -79.59,-80.68 -127.49,-191.42 -144.09,-332.26 -3.85,-30.64 -6.33,-61.96 -7.7,-93.97l0 -4724.69c6.42,-186.97 57,-328.95 151.79,-426.31 90.89,-92.23 223.34,-142.81 397.47,-151.79 14.18,-1.28 28.24,-1.88 42.33,-1.88l428.28 0.03 59.54 0c3.71,-0.17 8.16,0.51 13.38,1.8l0 0 0 -0.03zm4161.73 0l17.26 0 489.73 0c11.41,0 24.9,2.57 40.22,7.79 258.74,39.54 410.45,185 455.21,435.9 5.13,41.05 7.79,80.62 7.79,119.02l0 5321.94 -505.19 0 0 -5312.35 0 -34.49 0 -7.7c-5.13,-11.55 -13.35,-19.86 -24.9,-24.99l-34.58 0 -420.64 0c-55.03,0 -85.81,27.56 -92.17,82.59l0 5296.95 -505.19 0 0 -5304.59c11.75,-375.19 202.43,-568.49 572.43,-580.08l0 0 0.03 0.03zm-17680.6 4907.01c0,34.58 -5.73,68.38 -17.26,101.79 -89.6,211.27 -203.57,393.71 -341.84,547.38 -116.53,130.66 -249.67,240.09 -399.5,328.49 -151.02,-88.38 -284.19,-197.78 -399.44,-328.49 -139.56,-153.68 -253.52,-336.11 -341.84,-547.38 -16.69,-39.62 -21.82,-78.74 -15.4,-117.13l0 -4893.63 505.11 -0.03 0 4860.91c73,172.85 156.84,315.66 251.58,428.34 96.08,-112.68 180.61,-255.49 253.52,-428.34l0 -4860.91 505.11 0 0 4893.63 0 11.47 0 3.94 -0.03 -0.03z"/>
  </g>
  <path class="fil0" d="M27172.45 2378.93c6.42,-55.03 58.8,-99.85 157.53,-134.42 99.85,-35.86 193.3,-35.86 280.4,0 85.67,35.86 130.51,60.85 134.36,74.86l0 9.67 0 34.58 0 53.75 505.08 -0.06 0 -63.42c0,-38.43 -2.48,-78.05 -7.7,-119.02 -44.85,-252.24 -196.55,-397.62 -455.21,-436.04 -15.32,-6.33 -28.76,-9.59 -40.34,-9.59l-489.62 0 -17.26 0c-370.09,12.84 -560.82,206.82 -572.35,581.93l0 46.13 505.11 0 0 -38.4 0 0.03z"/>
  <path class="fil0" d="M31358.25 10929.46c-58.42,110.74 -114.97,193.44 -169.74,248.33 -42.91,42.79 -87.55,71.4 -133.96,85.75 -46.5,14.26 -121.53,21.42 -225.08,21.42l-307.24 0c-50.04,0 -83.93,-4.82 -101.9,-14.26 -17.74,-10.78 -30.35,-24.39 -37.51,-41.14 -7.16,-19.03 -10.73,-68.49 -10.73,-148.23l0 -600.22 398.41 0c76.23,0 132.77,9.44 169.68,28.53 36.83,17.8 63.7,42.28 80.39,73.29 10.78,24.99 22.48,81.59 35.77,169.74l49.87 0.03 0 -630.71 -49.89 0c-4.82,102.41 -30.41,174.45 -77,216.18 -35.69,30.95 -105.29,46.41 -208.94,46.41l-398.36 0 0 -719.98 496.66 0c91.72,0 155.42,7.16 191.19,21.42 43.93,19.03 77.97,45.82 101.79,80.39 21.42,36.83 42.33,102.96 62.56,198.29l50.04 0 -19.71 -398.44 -1398.84 0 0 50.15 62.56 0c75.11,0 128.69,17.89 160.7,53.52 23.85,27.39 35.77,98.96 35.77,214.44l0 1179.07c0,88.12 -4.68,147.12 -14.18,176.93 -10.95,27.33 -31.01,48.24 -60.85,62.56 -36.83,21.28 -77.37,32.06 -121.44,32.06l-62.56 0 0 48.24 1398.84 -0.03 157.24 -453.7 -53.49 0 -0.06 -0.06z"/>
  <g id="_2913255112416">
   <path class="fil0" d="M26295.69 11240.24c73.83,57.28 175.73,111.94 305.47,164.46 91.72,89.29 200.09,174.5 325.24,255.43 123.78,79.79 256.66,142.35 398.16,187.65 140.61,45.22 272.27,69.58 394.82,73.2l0 -41.05c-134.42,-11.92 -254.66,-54.94 -360.7,-128.69 -106.01,-73.74 -204.4,-189.37 -294.83,-346.52 198.89,-60.85 359.73,-174.59 482.4,-341.25 122.73,-169.08 184.03,-364.41 184.03,-585.95 0,-275.2 -85.81,-502 -257.32,-680.72 -175.04,-180.92 -381.16,-271.5 -618.05,-271.5 -251.36,0 -465.03,89.89 -641.35,269.76 -175.1,179.78 -262.68,405.52 -262.68,677.04 0,171.48 30.41,321.02 91.17,448.42 59.39,125.15 144.09,231.64 253.61,319.74l0 0 0.03 -0.03zm150.2 -1438.1c98.73,-115.48 229.08,-173.22 391.2,-173.22 105.89,0 201.15,27.39 285.76,82.16 83.33,53.6 151.22,137.62 203.63,251.93 64.3,147.63 96.39,330.43 96.39,548.44 0,282.22 -60.16,496.04 -180.41,641.35 -101.22,121.44 -236.41,182.29 -405.46,182.29 -162.06,0 -291.81,-60.85 -389.54,-182.29 -126.12,-160.84 -189.37,-387.75 -189.37,-680.66 0,-300.08 62.56,-523.34 187.8,-670z"/>
  </g>
  <path class="fil0" d="M25784.73 11334.98l-64.3 0c-42.91,0 -84.07,-10.73 -123.32,-32.15 -28.61,-16.69 -47.1,-35.69 -55.31,-57.14 -11.84,-29.81 -17.89,-90.49 -17.89,-182.29l0 -1173.7c0,-109.52 11.41,-178.67 33.98,-207.19 33.35,-44.07 87.55,-66.13 162.58,-66.13l64.27 0.03 0 -50.04 -777.06 -0.03 0 50.04 62.53 0.03c44.07,0 85.75,10.73 125.01,32.15 27.33,16.69 45.3,36.32 53.66,58.94 11.78,28.61 17.8,89.29 17.8,182.2l0 1173.7c0,108.38 -10.73,176.93 -32.24,205.54 -34.58,44.02 -89.41,66.04 -164.32,66.04l-62.48 0 0 48.3 777.03 0 0 -48.3 0.09 0 -0.03 0z"/>
  <path class="fil0" d="M23451.7 9798.58c33.21,-48.75 73.29,-81.59 119.64,-98.28 35.77,-11.92 95.94,-17.8 180.46,-17.8l217.98 -0.03 0 1386.23c0,102.41 -9.5,167.94 -28.61,196.55 -32.15,46.41 -86.35,69.78 -162.58,69.78l-66.1 0 0 48.15 771.92 0 0 -48.15 -64.47 0c-70.21,0 -121.98,-19.03 -155.33,-57.28 -24.9,-27.33 -37.43,-96.99 -37.43,-208.99l0 -1386.23 257.23 -0.03c73.83,0 134.36,11.84 182.12,35.69 44.07,23.76 80.99,61.96 110.8,114.34 15.55,33.43 28.61,87.04 39.25,160.78l50.04 0.03 -19.71 -426.91 -1482.77 0 -21.37 426.91 50.15 0c5.73,-83.24 25.36,-148.23 58.8,-194.73l-0.03 -0.03z"/>
  <path class="fil0" d="M21515.08 9668.21c29.9,35.69 44.85,109.52 44.85,221.54l0 707.4c0,220.32 14.18,369.86 42.79,448.42 42.73,115.56 115.48,207.79 217.98,276.94 103.64,69.06 254.89,103.64 453.79,103.64 180.92,0 325.1,-35.86 432.28,-107.26 104.92,-72.6 175.73,-158.44 212.56,-257.23 34.63,-102.41 51.86,-244.17 51.86,-425.14l0 -736.01c0,-101.22 10.27,-165.52 30.35,-193.05 38.17,-60.68 92.91,-91.12 164.4,-91.12l67.78 0 0 -50.04 -643.15 0 0 50.04 67.92 0c68.98,0 121.41,20.37 157.07,60.85 23.93,27.33 35.77,98.28 35.77,212.56l0 734.27c0,192.93 -16.69,330.52 -50.04,412.71 -34.49,79.79 -98.79,145.89 -192.99,198.21 -93.97,51.32 -200.55,76.91 -319.65,76.91 -92.83,0 -170.85,-16.09 -234.07,-48.24 -64.24,-34.58 -113.74,-76.82 -148.23,-126.89 -33.29,-51.26 -56.6,-122.04 -69.58,-212.56 -13.21,-91.72 -19.77,-172.71 -19.77,-242.97l0 -791.41c0,-102.36 11.33,-169.74 33.98,-201.92 32.15,-47.64 85.81,-71.49 160.78,-71.49l69.69 0.06 0 -50.04 -784.45 -0.03 0 50.04 68.04 0.03c69.06,-0.09 119.1,17.34 150,51.86l0.03 -0.09z"/>
  <g id="_2913255117648">
   <path class="fil0" d="M20284.21 11424.24c247.79,0 459.06,-90.49 634.25,-271.55 172.62,-182.2 258.97,-411.42 258.97,-687.77 0,-268.02 -85.75,-491.33 -257.32,-669.94 -173.82,-179.78 -377.99,-269.7 -612.66,-269.7 -238.06,0 -442.38,79.11 -612.66,237.61 -196.55,182.2 -294.75,417.33 -294.75,705.65 0,282.22 84.47,512.72 253.52,691.31 170.28,176.24 380.5,264.42 630.63,264.42l0 0 0 -0.03zm-394.82 -1620.27c97.74,-120.3 228.02,-180.46 391.2,-180.46 173.9,0 309.69,60.76 407.37,182.12 121.41,152.51 182.12,384.18 182.12,695.01 0,287.04 -54.8,497.18 -164.32,630.54 -111.94,132.25 -253.52,198.35 -425.26,198.35 -159.55,0 -287.59,-60.76 -384.04,-182.29 -126.21,-159.55 -189.45,-387.66 -189.45,-684.17 0.09,-289.35 60.91,-509.07 182.38,-659.13l0 0.03z"/>
  </g>
  <g id="_2913255121488">
   <path class="fil0" d="M18909.96 11325.82c100.02,-38.11 177.98,-98.28 234.07,-180.46 57.05,-82.27 85.75,-169.14 85.75,-260.85 0,-119.02 -43.62,-219.72 -130.43,-301.91 -61.9,-58.34 -156.02,-101.3 -282.36,-128.54 108.55,-33.43 190.65,-85.9 246.59,-157.24 53.6,-73.89 80.45,-156.1 80.45,-246.68 0,-105.89 -35.26,-200.01 -105.44,-282.22 -70.26,-82.19 -172.71,-139.33 -307.27,-171.48 -88.15,-21.37 -204.86,-32.15 -350.15,-32.15l-786.05 -0.03 0 50.04 67.92 0.03c69.06,0 121.44,20.23 157.16,60.76 25.05,28.53 37.51,99.42 37.51,212.56l0 1173.7c0,100.07 -10.13,166.74 -30.35,200.18 -33.35,47.64 -88.15,71.32 -164.32,71.32l-67.92 -0.03 0 48.3 857.45 0c204.91,0 357.22,-18.4 457.38,-55.31l0 0 0 0.03zm-795 -1641.75c70.26,-20.37 150.65,-30.41 241.14,-30.41 165.52,0 291.81,37.51 378.76,112.54 86.95,76.23 130.43,167.34 130.43,273.32 0,67.87 -17.89,131.65 -53.6,191.19 -33.43,57.14 -82.79,100.02 -148.4,128.66 -66.64,28.61 -164.86,42.79 -294.75,42.79 -51.26,0 -97.68,-1.2 -139.33,-3.65 -42.91,-4.68 -80.9,-10.04 -114.28,-15.98l0.03 -698.44 0 -0.03zm0 1566.64l0 -744.91c23.76,-4.76 55.31,-7.79 94.65,-8.99 40.54,-2.25 88.12,-3.54 142.89,-3.54 128.66,0 235.86,19.08 321.62,57.14 85.75,38.17 148.23,89.43 187.57,153.68 38.11,64.39 57.23,131.57 57.23,201.92 0,108.38 -42.28,198.95 -126.89,271.55 -84.61,72.63 -208.39,108.92 -371.57,108.92 -99.99,-0.03 -201.95,-11.95 -305.5,-35.8l0 0.03z"/>
  </g>
  <path class="fil0" d="M16827.43 10890.07l-44.67 -8.84c-46.41,113.14 -92.83,195.87 -139.33,248.33 -46.41,51.18 -98.28,87.49 -155.42,108.92 -54.8,20.31 -151.85,30.35 -291.18,30.35l-133.96 0c-115.48,0 -185.23,-4.22 -208.99,-12.52 -21.42,-9.5 -37.51,-23.76 -48.24,-42.91 -14.35,-27.39 -21.42,-77.97 -21.42,-151.85l0 -1141.55c0,-108.38 7.1,-176.87 21.42,-205.45 14.26,-27.33 41.05,-51.26 80.39,-71.49 38.11,-17.89 105.44,-26.73 201.83,-26.73l0 -50.15 -821.76 0.03 0 50.15 67.95 0c67.87,0 119.64,20.31 155.33,60.76 23.85,27.33 35.77,98.28 35.77,212.56l0 1171.88c0,102.41 -8.99,168.48 -26.79,198.29 -33.35,50.04 -88.12,75.03 -164.32,75.03l-67.95 -0.03 0 48.24 1405.95 0 155.42 -493.04 -0.03 0.03z"/>
  <path class="fil0" d="M15142.77 10929.46l-53.57 0c-58.34,110.74 -115.48,193.44 -171.48,248.33 -41.68,42.79 -86.35,71.4 -133.96,85.75 -46.41,14.26 -120.84,21.42 -223.26,21.42l-309.09 0c-50.04,0 -84.01,-4.82 -101.81,-14.26 -16.69,-10.78 -28.61,-24.39 -35.77,-41.14 -7.1,-19.03 -10.73,-68.49 -10.73,-148.23l0 -600.22 398.36 0c76.23,0 132.25,9.44 167.94,28.53 38.11,17.8 64.9,42.28 80.45,73.29 11.84,24.99 24.39,81.59 37.43,169.74l50.07 0.03 0 -630.71 -50.04 0c-4.76,102.41 -30.95,174.45 -78.65,216.18 -34.49,30.95 -103.55,46.41 -207.19,46.41l-398.36 0 0 -719.98 496.63 0c90.49,0 153.59,7.16 189.45,21.42 45.13,19.03 79.11,45.82 101.79,80.39 22.57,36.83 43.48,102.96 62.56,198.29l51.78 0 -19.71 -398.44 -1400.55 0 0 50.15 64.3 0c75.03,0 129.29,17.89 162.66,53.52 22.57,27.39 33.89,98.96 33.89,214.44l0 1179.07c0,88.12 -5.36,147.12 -16.09,176.93 -9.5,27.33 -29.21,48.24 -58.94,62.56 -38.06,21.28 -78.65,32.06 -121.53,32.06l-64.3 0 0 48.24 1400.58 -0.03 157.24 -453.7 -0.09 -0.06z"/>
  <path class="fil0" d="M12041.46 9798.58c33.35,-48.75 73.2,-81.59 119.7,-98.28 35.69,-11.92 95.94,-17.8 180.46,-17.8l217.92 -0.03 0 1386.23c0,102.41 -9.5,167.94 -28.61,196.55 -32.15,46.41 -86.35,69.78 -162.49,69.78l-66.13 0 0 48.15 771.7 0 0 -48.15 -64.24 0c-70.26,0 -122.13,-19.03 -155.42,-57.28 -25.05,-27.33 -37.6,-96.99 -37.6,-208.99l0 -1386.23 257.26 -0.03c73.89,0 134.65,11.84 182.29,35.69 44.07,23.76 80.99,61.96 110.8,114.34 15.4,33.43 28.53,87.04 39.25,160.78l50.04 0.03 -19.71 -426.91 -1482.69 0 -21.51 426.91 50.04 0c6.02,-83.24 25.59,-148.23 58.94,-194.73l0 -0.03z"/>
  <path class="fil0" d="M8718.67 11334.98l-66.07 0c-42.93,0 -84.01,-10.73 -123.32,-32.15 -27.39,-16.69 -45.3,-35.69 -53.6,-57.14 -13.12,-29.81 -19.63,-90.49 -19.63,-182.29l0 -553.72 844.98 0 0 553.72c0,108.38 -11.33,176.93 -33.98,205.54 -33.35,44.02 -87.55,66.04 -162.49,66.04l-64.33 0 0 48.3 778.86 0 0 -48.3 -66.13 0c-42.91,0 -83.93,-10.73 -123.27,-32.15 -27.39,-16.69 -45.22,-35.69 -53.6,-57.14 -11.92,-29.81 -17.8,-90.49 -17.8,-182.29l0 -1171.88c0,-90.49 5.28,-150 15.98,-178.58 9.59,-29.81 28.61,-51.86 57.23,-66.13 38.11,-20.31 78.56,-30.35 121.44,-30.35l66.13 0 0 -50.04 -778.86 0 0 50.04 64.33 0c42.91,0 83.93,10.73 123.18,32.15 27.47,16.69 45.9,36.32 55.4,58.94 11.92,28.61 17.89,89.83 17.89,184.03l0 519.97 -844.98 0.03 0 -519.97c0,-90.49 5.96,-150 17.89,-178.58 9.5,-29.81 27.93,-51.86 55.31,-66.13 39.31,-20.31 80.39,-30.35 123.32,-30.35l66.07 0 0 -50.04 -780.68 0 0 50.04 66.1 0c42.91,0 83.93,10.73 123.27,32.15 27.39,16.69 45.82,36.32 55.4,58.94 10.73,28.61 16.09,89.83 16.09,184.03l0 1171.88c0,108.38 -10.18,176.93 -30.41,205.54 -35.69,44.02 -90.49,66.04 -164.32,66.04l-66.13 0 0 48.3 780.68 0 0 -48.41 0.06 -0.03z"/>
  <g id="_2913255122400">
   <path class="fil0" d="M10851.73 11424.24c247.73,0 459.15,-90.49 634.17,-271.55 173.9,-182.2 260.85,-411.42 260.85,-687.77 0,-268.02 -86.35,-491.33 -259.06,-669.94 -173.9,-179.78 -378.64,-269.7 -614.54,-269.7 -237.03,0 -440.63,79.11 -610.92,237.61 -196.55,182.2 -294.75,417.33 -294.75,705.65 0,282.22 84.53,512.72 253.61,691.31 170.37,176.24 380.56,264.42 630.63,264.42l0 0 0 -0.03zm-394.79 -1620.27c97.59,-120.3 228.02,-180.46 391.14,-180.46 172.76,0 307.87,60.76 405.52,182.12 123.92,152.51 185.83,384.18 185.83,695.01 0,287.04 -55.4,497.18 -166.12,630.54 -112.03,132.25 -253.15,198.35 -423.35,198.35 -159.64,0 -288.24,-60.76 -385.89,-182.29 -127.4,-159.55 -191.11,-387.66 -191.11,-684.17 -0.03,-289.35 61.25,-509.07 183.97,-659.13l0 0.03z"/>
  </g>
  <path class="fil0" d="M28355.45 9704.44c32.15,-47.64 85.75,-71.49 160.78,-71.49l69.66 0.03 0 -49.98 -784.36 0 0 49.98 67.84 0c69.15,0 119.1,17.26 150.05,51.92 29.9,35.77 44.76,109.52 44.76,221.54l0 707.4c0,220.32 14.26,369.77 42.91,448.42 42.73,115.48 115.48,207.79 217.92,276.86 103.64,69.15 254.89,103.64 453.84,103.64 180.92,0 325.16,-35.77 432.28,-107.09 104.84,-72.69 175.73,-158.53 212.56,-257.32 34.58,-102.41 51.86,-244.17 51.86,-425.14l0 -736.01c0,-101.36 10.18,-165.52 30.35,-193.05 38.17,-60.68 92.83,-91.12 164.4,-91.12l67.81 0 0 -49.98 -643.15 0 0 49.98 67.92 0c68.98,0 121.41,20.37 157.07,60.91 23.85,27.24 35.86,98.19 35.86,212.47l0 734.27c0,192.93 -16.75,330.52 -50.04,412.71 -34.58,79.79 -98.96,145.89 -192.99,198.29 -94.05,51.26 -200.69,76.82 -319.74,76.82 -92.83,0 -170.85,-16.09 -233.98,-48.24 -64.39,-34.58 -113.74,-76.82 -148.31,-126.89 -33.29,-51.26 -56.6,-122.13 -69.78,-212.56 -13.21,-91.72 -19.71,-172.71 -19.71,-242.97l0 -791.41c0.14,-102.38 11.61,-169.8 34.18,-201.95l0 -0.06z"/>
 </g>
</svg>
