<?xml version="1.0" encoding="UTF-8"?>
<!DOCTYPE svg PUBLIC "-//W3C//DTD SVG 1.1//EN" "http://www.w3.org/Graphics/SVG/1.1/DTD/svg11.dtd">
<!-- Creator: CorelDRAW -->
<svg xmlns="http://www.w3.org/2000/svg" xml:space="preserve" width="173.221mm" height="87.6812mm" version="1.1" style="shape-rendering:geometricPrecision; text-rendering:geometricPrecision; image-rendering:optimizeQuality; fill-rule:evenodd; clip-rule:evenodd"
viewBox="0 0 26806.05 13568.72"
 xmlns:xlink="http://www.w3.org/1999/xlink"
 xmlns:xodm="http://www.corel.com/coreldraw/odm/2003">
 <defs>
  <style type="text/css">
   <![CDATA[
    .str0 {stroke:#FEFEFE;stroke-width:30.95;stroke-miterlimit:22.9256}
    .fil0 {fill:none}
   ]]>
  </style>
 </defs>
 <g id="Capa_x0020_1">
  <metadata id="CorelCorpID_0Corel-Layer"/>
  <path class="fil0 str0" d="M15.48 15.48l26775.1 0 0 13537.77 -26775.1 0 0 -13537.77zm1558.62 13389.92l-1149.6 0c0,-47.77 -17.35,-144.68 -77.16,-110.15 12.49,46.6 -54.57,131.62 -165.65,131.62 -14.3,-24.78 -16.34,-138.36 117.72,-174.28 0,-62.95 -1.25,-84.74 -116.22,-84.74l0 -12779.06c101.27,31.1 139.28,-66.71 120.95,-85.04 -34.99,6.93 -147.49,-41.04 -127.55,-150.74 96.07,-25.74 152,40.78 166.88,96.33 50.56,31.34 84.34,-9.27 84.34,-107.92l25965.09 0c0,90.87 47.51,131.41 92.76,131.41 41.44,-71.77 99.01,-115.95 162.33,-115.95 21.05,78.54 -40.13,154.55 -93.78,168.93 -40.68,70.46 31.69,70.71 97.65,70.71l0 12754.44c0,46.6 -97.69,-22.02 -97.69,98.72 123.29,28.83 117.02,98.48 117.02,156.38 -25.04,14.45 -136.49,18.86 -170.8,-109.21 -45.6,-26.34 -99.75,42.93 -99.75,116.95l-24826.56 -8.37z"/>
 </g>
</svg>
