<?xml version="1.0" encoding="UTF-8"?>
<!DOCTYPE svg PUBLIC "-//W3C//DTD SVG 1.1//EN" "http://www.w3.org/Graphics/SVG/1.1/DTD/svg11.dtd">
<!-- Creator: CorelDRAW -->
<svg xmlns="http://www.w3.org/2000/svg" xml:space="preserve" width="19.5888mm" height="19.4124mm" version="1.1" style="shape-rendering:geometricPrecision; text-rendering:geometricPrecision; image-rendering:optimizeQuality; fill-rule:evenodd; clip-rule:evenodd"
viewBox="0 0 169.08 167.56"
 xmlns:xlink="http://www.w3.org/1999/xlink"
 xmlns:xodm="http://www.corel.com/coreldraw/odm/2003">
 <defs>
  <style type="text/css">
   <![CDATA[
    .fil0 {fill:#2D2D2B;fill-rule:nonzero}
   ]]>
  </style>
 </defs>
 <g id="Capa_x0020_1">
  <metadata id="CorelCorpID_0Corel-Layer"/>
  <polygon class="fil0" points="13.71,0 155.37,0 164.51,6.09 169.08,15.23 169.08,150.8 164.51,159.94 156.89,166.03 152.32,167.56 115.77,167.56 115.77,109.67 132.52,109.67 137.09,95.96 141.66,83.78 115.77,83.78 115.77,60.93 117.29,57.88 137.09,57.88 137.09,31.99 106.63,33.51 97.49,38.08 88.35,48.74 85.3,57.88 83.78,83.78 63.98,83.78 63.98,109.67 83.78,109.67 83.78,167.56 16.76,167.56 7.62,162.99 1.52,155.37 -0,150.8 -0,15.23 4.57,6.09 "/>
 </g>
</svg>
