<?xml version="1.0" encoding="UTF-8"?>
<!DOCTYPE svg PUBLIC "-//W3C//DTD SVG 1.1//EN" "http://www.w3.org/Graphics/SVG/1.1/DTD/svg11.dtd">
<!-- Creator: CorelDRAW -->
<svg xmlns="http://www.w3.org/2000/svg" xml:space="preserve" width="19.4123mm" height="13.9416mm" version="1.1" style="shape-rendering:geometricPrecision; text-rendering:geometricPrecision; image-rendering:optimizeQuality; fill-rule:evenodd; clip-rule:evenodd"
viewBox="0 0 163.25 117.25"
 xmlns:xlink="http://www.w3.org/1999/xlink"
 xmlns:xodm="http://www.corel.com/coreldraw/odm/2003">
 <defs>
  <style type="text/css">
   <![CDATA[
    .fil0 {fill:#2D2D2B;fill-rule:nonzero}
    .fil3 {fill:#FDFCFA;fill-rule:nonzero}
    .fil2 {fill:#FDFCFB;fill-rule:nonzero}
    .fil1 {fill:#FDFCFC;fill-rule:nonzero}
   ]]>
  </style>
 </defs>
 <g id="Capa_x0020_1">
  <metadata id="CorelCorpID_0Corel-Layer"/>
  <polygon class="fil0" points="28.2,0 140.99,0 154.35,1.48 161.77,8.91 163.25,14.84 163.25,100.92 160.28,111.31 151.38,117.25 10.39,117.25 -0,108.34 -0,8.91 7.42,1.48 "/>
  <polygon class="fil1" points="13.36,4.45 146.93,4.45 151.38,5.94 148.41,11.87 103.89,56.4 93.5,68.27 84.59,75.69 80.14,77.18 71.24,71.24 60.85,59.37 10.39,8.91 10.39,5.94 "/>
  <polygon class="fil2" points="54.91,62.33 60.85,65.3 71.24,77.18 77.17,80.14 87.56,78.66 99.43,68.27 106.86,62.33 126.15,81.63 136.54,93.5 151.38,108.34 149.9,112.79 13.36,112.79 10.39,111.31 13.36,105.37 53.43,65.3 "/>
  <polygon class="fil3" points="155.83,10.39 157.32,10.39 158.8,17.81 158.8,100.92 155.83,106.86 121.7,72.72 111.31,60.85 111.31,54.91 "/>
  <polygon class="fil1" points="4.45,11.87 10.39,14.84 51.94,56.4 48.98,62.33 35.62,77.18 7.42,105.37 4.45,105.37 "/>
 </g>
</svg>
