<?xml version="1.0" encoding="UTF-8"?>
<!DOCTYPE svg PUBLIC "-//W3C//DTD SVG 1.1//EN" "http://www.w3.org/Graphics/SVG/1.1/DTD/svg11.dtd">
<!-- Creator: CorelDRAW -->
<svg xmlns="http://www.w3.org/2000/svg" xml:space="preserve" width="33.5306mm" height="33.3538mm" version="1.1" style="shape-rendering:geometricPrecision; text-rendering:geometricPrecision; image-rendering:optimizeQuality; fill-rule:evenodd; clip-rule:evenodd"
viewBox="0 0 1661.42 1652.66"
 xmlns:xlink="http://www.w3.org/1999/xlink"
 xmlns:xodm="http://www.corel.com/coreldraw/odm/2003">
 <defs>
  <style type="text/css">
   <![CDATA[
    .fil0 {fill:#060506;fill-rule:nonzero}
    .fil1 {fill:#090809;fill-rule:nonzero}
    .fil7 {fill:#0A0A0A;fill-rule:nonzero}
    .fil6 {fill:#0B0A0B;fill-rule:nonzero}
    .fil5 {fill:#0B0B0B;fill-rule:nonzero}
    .fil4 {fill:#941104;fill-rule:nonzero}
    .fil3 {fill:#941104;fill-rule:nonzero}
    .fil2 {fill:#FEFEFE;fill-rule:nonzero}
   ]]>
  </style>
 </defs>
 <g id="Capa_x0020_1">
  <metadata id="CorelCorpID_0Corel-Layer"/>
  <polygon class="fil0" points="996.85,743.25 1241.7,743.25 1267.92,752.01 1267.92,795.73 1259.18,804.47 1145.51,804.47 1145.51,883.17 1224.21,891.91 1311.65,926.89 1390.35,988.1 1460.31,1066.8 1504.02,1180.47 1521.52,1241.68 1573.99,1285.4 1582.73,1302.89 1582.73,1372.85 1547.76,1416.56 1460.31,1434.06 1460.31,1469.03 1521.51,1469.03 1565.23,1495.25 1591.46,1547.73 1591.46,1643.91 1582.71,1652.66 655.82,1652.66 655.82,1530.24 682.06,1486.51 717.04,1469.02 787,1469.03 787,1434.05 699.55,1425.31 655.82,1390.32 638.34,1346.61 647.08,1294.14 690.81,1250.42 717.04,1241.67 725.78,1154.22 778.25,1049.29 848.2,970.6 926.9,918.13 1040.57,883.16 1084.29,883.17 1084.29,804.47 979.36,804.47 961.88,795.73 970.62,752 "/>
  <polygon class="fil1" points="218.62,0 271.09,8.75 480.95,104.93 498.44,122.42 489.7,174.89 472.2,209.87 585.88,209.86 830.71,218.61 926.89,236.1 1023.08,288.57 1232.94,428.48 1355.36,515.92 1495.27,612.1 1512.76,629.59 1512.76,682.06 1460.29,725.78 1372.85,734.53 1154.25,655.83 1136.75,647.08 1128,690.81 1101.78,717.04 1014.33,734.53 856.93,699.55 585.87,690.81 480.94,664.58 384.75,612.11 306.05,559.64 279.82,603.37 227.35,594.62 17.49,498.44 -0,480.94 8.75,437.22 122.42,192.38 209.87,8.75 "/>
  <polygon class="fil2" points="445.97,253.59 883.18,279.81 988.11,332.28 1119.27,419.73 1285.41,533.4 1460.29,655.83 1442.81,673.32 1364.11,673.31 1119.27,585.86 1058.07,524.66 953.14,472.19 821.97,437.21 760.76,428.46 690.81,428.47 699.55,463.44 865.69,489.68 970.62,524.66 1058.07,585.86 1084.29,629.58 1075.55,664.56 1058.06,673.31 996.85,673.31 891.93,647.07 795.74,638.33 620.85,638.33 498.43,612.1 410.99,559.63 332.29,507.16 358.52,428.46 437.22,262.32 "/>
  <polygon class="fil3" points="1075.56,926.89 1145.51,926.89 1250.44,953.12 1337.89,1005.59 1399.09,1066.8 1451.56,1171.73 1460.31,1241.68 769.5,1241.68 778.25,1154.24 830.71,1058.05 909.42,988.1 996.86,944.37 "/>
  <polygon class="fil4" points="244.85,52.47 419.74,131.17 437.22,139.91 411,218.62 262.34,533.4 227.36,542.15 69.97,472.19 61.22,437.22 209.88,122.43 "/>
  <polygon class="fil3" points="795.74,1285.4 1512.76,1294.14 1530.25,1311.64 1530.25,1364.1 1504.02,1381.6 717.04,1381.59 690.81,1355.36 699.56,1302.89 708.3,1294.14 "/>
  <polygon class="fil3" points="725.78,1521.5 1521.51,1521.5 1539,1547.73 1547.74,1608.93 699.55,1608.93 708.29,1547.73 "/>
  <polygon class="fil2" points="1390.35,1425.31 1407.84,1442.8 1399.09,1469.03 839.46,1469.03 839.46,1434.05 "/>
  <polygon class="fil5" points="1477.78,795.73 1521.51,804.47 1591.46,865.68 1652.67,953.13 1661.42,996.85 1626.44,1014.34 1556.49,926.89 1512.76,874.43 1469.04,839.45 "/>
  <polygon class="fil6" points="725.78,795.73 760.76,804.47 752.01,848.19 690.81,900.66 629.6,988.11 612.11,1014.34 577.13,1005.59 568.38,970.62 620.85,891.92 708.29,804.47 "/>
  <polygon class="fil7" points="1451.56,874.42 1486.53,891.91 1556.49,961.86 1573.98,1005.59 1556.49,1023.07 1512.76,1014.33 1451.56,944.38 1434.07,918.14 1442.81,883.17 "/>
  <polygon class="fil5" points="760.76,874.42 795.74,891.91 786.99,935.63 725.78,996.84 708.29,1023.07 664.57,1014.32 673.32,961.86 "/>
 </g>
</svg>
