<?xml version="1.0" encoding="UTF-8"?>
<!DOCTYPE svg PUBLIC "-//W3C//DTD SVG 1.1//EN" "http://www.w3.org/Graphics/SVG/1.1/DTD/svg11.dtd">
<!-- Creator: CorelDRAW -->
<svg xmlns="http://www.w3.org/2000/svg" xml:space="preserve" width="18.883mm" height="18.8832mm" version="1.1" style="shape-rendering:geometricPrecision; text-rendering:geometricPrecision; image-rendering:optimizeQuality; fill-rule:evenodd; clip-rule:evenodd"
viewBox="0 0 217.5 217.51"
 xmlns:xlink="http://www.w3.org/1999/xlink"
 xmlns:xodm="http://www.corel.com/coreldraw/odm/2003">
 <defs>
  <style type="text/css">
   <![CDATA[
    .fil1 {fill:#2D2D2B;fill-rule:nonzero}
    .fil0 {fill:#FDFDFC;fill-rule:nonzero}
   ]]>
  </style>
 </defs>
 <g id="Capa_x0020_1">
  <metadata id="CorelCorpID_0Corel-Layer"/>
  <polygon class="fil0" points="85.37,0 132.13,0 156.52,8.13 176.85,20.33 197.18,40.66 209.37,60.98 217.5,85.38 217.5,130.1 209.37,154.49 197.18,174.82 176.85,195.14 156.52,207.34 134.16,215.47 121.96,217.51 95.54,217.5 65.05,209.37 44.72,197.17 22.36,176.85 10.16,156.52 2.03,136.19 -0,126.03 -0,91.47 6.1,69.11 18.29,44.72 40.65,20.32 65.05,6.1 "/>
  <path class="fil1" d="M85.37 0l46.75 0 24.39 8.13 20.33 12.2 20.33 20.33 12.2 20.33 8.13 24.39 0 44.72 -8.13 24.39 -12.2 20.33 -20.33 20.33 -20.33 12.2 -22.36 8.13 -12.2 2.03 -26.42 -0 -30.49 -8.13 -20.33 -12.2 -22.36 -20.33 -12.2 -20.33 -8.13 -20.33 -2.03 -10.16 0 -34.56 6.1 -22.36 12.2 -24.39 22.36 -24.39 24.39 -14.23 20.33 -6.1zm10.16 8.13l-24.39 6.1 -22.36 12.2 -22.36 22.36 -14.23 28.46 -4.07 20.33 2.03 32.52 8.13 22.36 12.2 20.33 14.23 14.23 28.46 16.26 16.26 4.07 38.62 -0 24.39 -8.13 20.33 -12.2 16.26 -16.26 14.23 -24.39 6.1 -22.36 0 -28.46 -6.1 -24.39 -12.2 -22.36 -14.23 -16.26 -28.46 -18.29 -24.39 -6.1 -28.46 0z"/>
  <polygon class="fil1" points="67.08,50.82 81.31,50.82 91.47,73.18 91.47,83.34 79.28,91.47 81.31,101.64 95.54,119.93 109.77,132.13 126.03,140.26 130.09,130.1 136.19,124 154.49,130.1 164.65,134.16 166.68,144.33 162.62,164.65 142.29,162.62 115.86,152.46 97.57,140.26 83.34,128.06 71.14,111.8 56.92,83.34 52.85,67.08 52.85,54.88 "/>
 </g>
</svg>
