<?xml version="1.0" encoding="UTF-8"?>
<!DOCTYPE svg PUBLIC "-//W3C//DTD SVG 1.1//EN" "http://www.w3.org/Graphics/SVG/1.1/DTD/svg11.dtd">
<!-- Creator: CorelDRAW -->
<svg xmlns="http://www.w3.org/2000/svg" xml:space="preserve" width="15.53mm" height="20.1183mm" version="1.1" style="shape-rendering:geometricPrecision; text-rendering:geometricPrecision; image-rendering:optimizeQuality; fill-rule:evenodd; clip-rule:evenodd"
viewBox="0 0 102.76 133.12"
 xmlns:xlink="http://www.w3.org/1999/xlink"
 xmlns:xodm="http://www.corel.com/coreldraw/odm/2003">
 <defs>
  <style type="text/css">
   <![CDATA[
    .fil1 {fill:#2D2D2B;fill-rule:nonzero}
    .fil0 {fill:#FDFCFB;fill-rule:nonzero}
   ]]>
  </style>
 </defs>
 <g id="Capa_x0020_1">
  <metadata id="CorelCorpID_0Corel-Layer"/>
  <polygon class="fil0" points="40.87,0 61.89,0 77.07,5.84 86.41,12.84 94.58,21.02 101.59,35.03 102.76,39.7 102.76,53.71 98.09,70.06 86.41,92.25 72.4,110.93 58.38,127.28 52.55,133.12 47.88,130.78 37.37,120.27 24.52,103.92 12.84,86.41 3.5,66.56 1.17,59.55 -0,43.2 2.34,31.53 9.34,19.85 19.85,9.34 30.36,3.5 "/>
  <path class="fil1" d="M40.87 0l21.02 0 15.18 5.84 9.34 7.01 8.17 8.17 7.01 14.01 1.17 4.67 0 14.01 -4.67 16.35 -11.68 22.19 -14.01 18.68 -14.01 16.35 -5.84 5.84 -4.67 -2.34 -10.51 -10.51 -12.84 -16.35 -11.68 -17.51 -9.34 -19.85 -2.34 -7.01 -1.17 -16.35 2.34 -11.68 7.01 -11.68 10.51 -10.51 10.51 -5.84 10.51 -3.5zm1.17 7.01l-12.84 4.67 -10.51 8.17 -7.01 9.34 -4.67 10.51 0 14.01 4.67 15.18 9.34 17.51 14.01 19.85 15.18 17.51 4.67 -2.34 10.51 -11.68 12.84 -17.51 9.34 -15.18 7.01 -18.68 1.17 -4.67 0 -14.01 -4.67 -10.51 -7.01 -9.34 -8.17 -7.01 -10.51 -4.67 -4.67 -1.17 -18.68 0z"/>
  <polygon class="fil0" points="46.71,26.86 56.05,26.86 65.39,31.53 70.06,38.53 71.23,42.04 71.23,50.21 67.73,58.38 60.72,64.22 58.38,65.39 44.37,65.39 37.37,60.72 31.53,51.38 31.53,42.04 36.2,32.69 43.2,28.02 "/>
  <path class="fil1" d="M45.54 19.85l11.68 0 10.51 4.67 7.01 8.17 3.5 9.34 0 8.17 -3.5 10.51 -8.17 8.17 -7.01 3.5 -16.35 0 -9.34 -5.84 -7.01 -8.17 -2.34 -8.17 0 -8.17 4.67 -11.68 9.34 -8.17 7.01 -2.34zm1.17 7.01l-9.34 4.67 -4.67 7.01 -1.17 3.5 0 9.34 5.84 9.34 7.01 4.67 14.01 0 7.01 -4.67 4.67 -5.84 1.17 -4.67 0 -8.17 -4.67 -9.34 -7.01 -4.67 -3.5 -1.17 -9.34 0z"/>
 </g>
</svg>
