<?xml version="1.0" encoding="UTF-8"?>
<!DOCTYPE svg PUBLIC "-//W3C//DTD SVG 1.1//EN" "http://www.w3.org/Graphics/SVG/1.1/DTD/svg11.dtd">
<!-- Creator: CorelDRAW -->
<svg xmlns="http://www.w3.org/2000/svg" xml:space="preserve" width="18.7064mm" height="18.7066mm" version="1.1" style="shape-rendering:geometricPrecision; text-rendering:geometricPrecision; image-rendering:optimizeQuality; fill-rule:evenodd; clip-rule:evenodd"
viewBox="0 0 153 153"
 xmlns:xlink="http://www.w3.org/1999/xlink"
 xmlns:xodm="http://www.corel.com/coreldraw/odm/2003">
 <defs>
  <style type="text/css">
   <![CDATA[
    .fil1 {fill:#2D2D2B;fill-rule:nonzero}
    .fil2 {fill:#FCF9F6;fill-rule:nonzero}
    .fil3 {fill:#FDFCFA;fill-rule:nonzero}
    .fil0 {fill:#FDFCFB;fill-rule:nonzero}
   ]]>
  </style>
 </defs>
 <g id="Capa_x0020_1">
  <metadata id="CorelCorpID_0Corel-Layer"/>
  <polygon class="fil0" points="31.76,0 121.25,0 134.24,5.77 144.34,14.43 151.56,28.87 153,34.64 153,116.92 148.67,129.91 140.01,141.45 127.02,150.11 112.58,153 40.42,153 25.98,150.11 14.43,142.9 4.33,131.35 -0,119.8 -0,31.75 4.33,20.21 15.88,7.22 25.98,1.44 "/>
  <polygon class="fil1" points="66.4,33.2 86.6,33.2 99.59,38.97 111.14,49.08 118.36,63.51 119.8,69.28 119.8,83.72 114.03,98.15 103.93,109.7 92.38,116.92 80.83,119.8 63.51,118.36 47.63,109.7 37.53,96.71 33.2,85.16 33.2,66.4 38.97,51.96 50.52,40.42 60.62,34.64 "/>
  <path class="fil1" d="M31.76 0l89.49 0 12.99 5.77 10.1 8.66 7.22 14.43 1.44 5.77 0 82.27 -4.33 12.99 -8.66 11.55 -12.99 8.66 -14.43 2.89 -72.17 -0 -14.43 -2.89 -11.55 -7.22 -10.1 -11.55 -4.33 -11.55 0 -88.05 4.33 -11.55 11.55 -12.99 10.1 -5.77 5.77 -1.44zm4.33 8.66l-14.43 7.22 -8.66 10.1 -4.33 12.99 0 72.17 2.89 12.99 8.66 11.55 10.1 5.77 5.77 1.44 80.83 -0 12.99 -5.77 10.1 -11.55 2.89 -7.22 0 -85.16 -5.77 -11.55 -10.1 -8.66 -11.55 -4.33 -79.39 0z"/>
  <path class="fil1" d="M66.4 33.2l20.21 0 12.99 5.77 11.55 10.1 7.22 14.43 1.44 5.77 0 14.43 -5.77 14.43 -10.1 11.55 -11.55 7.22 -11.55 2.89 -17.32 -1.44 -15.88 -8.66 -10.1 -12.99 -4.33 -11.55 0 -18.76 5.77 -14.43 11.55 -11.55 10.1 -5.77 5.77 -1.44zm0 10.1l-11.55 5.77 -8.66 10.1 -2.89 7.22 0 18.76 5.77 11.55 10.1 8.66 12.99 4.33 14.43 -1.44 11.55 -5.77 7.22 -8.66 4.33 -10.1 0 -14.43 -4.33 -11.55 -5.77 -7.22 -12.99 -7.22 -20.21 0z"/>
  <path class="fil2" d="M66.4 43.3l20.21 0 14.43 8.66 7.22 11.55 1.44 5.77 0 14.43 -7.22 14.43 -11.55 8.66 -10.1 2.89 -15.88 -1.44 -11.55 -7.22 -8.66 -11.55 -1.44 -4.33 0 -18.76 5.77 -11.55 10.1 -8.66 7.22 -2.89zm5.77 5.77l-11.55 4.33 -8.66 10.1 -1.44 4.33 0 15.88 5.77 10.1 7.22 5.77 7.22 2.89 10.1 0 11.55 -4.33 7.22 -8.66 2.89 -7.22 0 -12.99 -5.77 -11.55 -7.22 -5.77 -8.66 -2.89 -8.66 0z"/>
  <polygon class="fil3" points="72.17,59.18 85.16,60.62 92.38,69.28 92.38,82.27 85.16,90.94 82.27,92.38 70.73,92.38 63.51,88.05 59.18,79.39 60.62,67.84 67.84,60.62 "/>
  <polygon class="fil1" points="30.31,24.54 41.86,24.54 46.19,28.87 43.3,34.64 27.42,34.64 25.98,27.42 "/>
 </g>
</svg>
