<?xml version="1.0" encoding="UTF-8"?>
<!DOCTYPE svg PUBLIC "-//W3C//DTD SVG 1.1//EN" "http://www.w3.org/Graphics/SVG/1.1/DTD/svg11.dtd">
<!-- Creator: CorelDRAW 2018 (64 Bit) -->
<svg xmlns="http://www.w3.org/2000/svg" xml:space="preserve" width="21.6958mm" height="21.6958mm" version="1.1" style="shape-rendering:geometricPrecision; text-rendering:geometricPrecision; image-rendering:optimizeQuality; fill-rule:evenodd; clip-rule:evenodd"
viewBox="0 0 2169.58 2169.58"
 xmlns:xlink="http://www.w3.org/1999/xlink">
 <defs>
  <style type="text/css">
   <![CDATA[
    .fil1 {fill:white}
    .fil2 {fill:url(#id0)}
    .fil3 {fill:url(#id1)}
    .fil0 {fill:url(#id2)}
   ]]>
  </style>
  <linearGradient id="id0" gradientUnits="userSpaceOnUse" x1="1058.34" y1="1534.58" x2="1058.34" y2="582.09">
   <stop offset="0" style="stop-opacity:1; stop-color:#20B038"/>
   <stop offset="1" style="stop-opacity:1; stop-color:#60D66A"/>
  </linearGradient>
  <linearGradient id="id1" gradientUnits="userSpaceOnUse" x1="1058.23" y1="1561.04" x2="1058.23" y2="555.63">
   <stop offset="0" style="stop-opacity:1; stop-color:#F9F9F9"/>
   <stop offset="1" style="stop-opacity:1; stop-color:white"/>
  </linearGradient>
  <linearGradient id="id2" gradientUnits="userSpaceOnUse" xlink:href="#id0" x1="1058.34" y1="2143.12" x2="1058.34" y2="0">
  </linearGradient>
 </defs>
 <g id="Capa_x0020_1">
  <metadata id="CorelCorpID_0Corel-Layer"/>
  <path class="fil0" d="M1084.79 0l0 0c599,0 1084.78,485.78 1084.78,1084.79l0.01 0c-0.01,598.99 -485.79,1084.77 -1084.79,1084.77l0 0.02c-599,-0.02 -1084.78,-485.8 -1084.78,-1084.79l-0.01 0c0.01,-599.01 485.79,-1084.79 1084.79,-1084.79z"/>
  <path class="fil1" d="M569.07 1564.97l70.39 -255.6c-43.52,-75.02 -66.35,-159.99 -66.11,-246.85 0,-272.17 222.58,-493.45 495.81,-493.45 132.69,0 257.3,51.36 350.75,144.6 93.7,93.25 145.3,217.26 145.06,349.09 0,272.17 -222.58,493.45 -496.04,493.45l-0.24 0c-82.99,0 -164.56,-20.82 -237.09,-60.11l-262.53 68.87zm275.13 -158.09l14.99 8.99c63.25,37.39 135.78,57.04 209.74,57.27l0.23 0c227.1,0 412.11,-183.89 412.11,-410.14 0,-109.58 -42.81,-212.53 -120.57,-290.16 -77.76,-77.63 -181.44,-120.23 -291.54,-120.23 -227.1,-0.23 -412.1,183.66 -412.1,409.91 0,77.39 21.64,152.89 63.02,218.21l9.74 15.62 -41.61 151.23 155.99 -40.7z"/>
  <path class="fil2" d="M586.44 1547.69l68.01 -246.84c-42.09,-72.18 -64.21,-154.31 -64.21,-238.09 0.24,-262.7 214.97,-476.41 478.93,-476.41 128.17,0 248.26,49.7 338.62,139.63 90.36,89.94 140.06,209.69 140.06,337.02 0,262.7 -214.97,476.41 -478.68,476.41l-0.24 0c-80.14,0 -158.85,-20.12 -228.76,-57.98l-253.73 66.26z"/>
  <path class="fil3" d="M569.07 1564.97l70.39 -255.6c-43.52,-75.02 -66.35,-159.99 -66.11,-246.85 0,-272.17 222.58,-493.45 495.81,-493.45 132.69,0 257.3,51.36 350.75,144.6 93.7,93.25 145.3,217.26 145.06,349.09 0,272.17 -222.58,493.45 -496.04,493.45l-0.24 0c-82.99,0 -164.56,-20.82 -237.09,-60.11l-262.53 68.87zm275.13 -158.09l14.99 8.99c63.25,37.39 135.78,57.04 209.74,57.27l0.23 0c227.1,0 412.11,-183.89 412.11,-410.14 0,-109.58 -42.81,-212.53 -120.57,-290.16 -77.76,-77.63 -181.44,-120.23 -291.54,-120.23 -227.1,-0.23 -412.1,183.66 -412.1,409.91 0,77.39 21.64,152.89 63.02,218.21l9.74 15.62 -41.61 151.23 155.99 -40.7z"/>
  <path class="fil1" d="M945.27 856.14c-9.28,-20.59 -19.03,-21.06 -27.82,-21.3 -7.14,-0.24 -15.46,-0.24 -23.78,-0.24 -8.33,0 -21.64,3.08 -33.06,15.39 -11.41,12.3 -43.28,42.13 -43.28,102.95 0,60.58 44.47,119.28 50.65,127.56 6.19,8.29 85.85,136.8 211.64,186.26 104.63,41.18 126.04,32.9 148.63,30.77 22.59,-2.13 73.24,-29.82 83.7,-58.7 10.23,-28.87 10.23,-53.49 7.14,-58.69 -3.09,-5.21 -11.42,-8.28 -23.78,-14.44 -12.37,-6.15 -73.25,-35.97 -84.66,-40.23 -11.41,-4.02 -19.74,-6.15 -27.82,6.15 -8.33,12.31 -32.1,40 -39.24,48.28 -7.13,8.29 -14.5,9.23 -26.87,3.08 -12.36,-6.15 -52.32,-19.17 -99.64,-61.3 -36.86,-32.66 -61.82,-73.13 -68.96,-85.44 -7.13,-12.3 -0.71,-18.93 5.47,-25.08 5.47,-5.45 12.37,-14.44 18.55,-21.54 6.18,-7.1 8.32,-12.31 12.36,-20.59 4.05,-8.28 2.15,-15.38 -0.95,-21.53 -3.09,-5.92 -27.34,-66.98 -38.28,-91.36z"/>
 </g>
</svg>
